<svg xmlns="http://www.w3.org/2000/svg" width="97.031" height="127.762" viewBox="0 0 97.031 127.762">
  <g id="wallpaper-4" transform="translate(0)">
    <path id="Path_13270" data-name="Path 13270" d="M124.593,103.65a.349.349,0,0,1,.216.064.452.452,0,0,1,.01.582.343.343,0,0,1-.29.165,1.049,1.049,0,0,1-.314-.074l-.866,1.458-.823,1.355-.5.986-.5,1.368a.6.6,0,0,0,.07.243c.068.131.076.164.009.253a2.131,2.131,0,0,1-.162.186s-.073.14,0,.191.488.574.488.574a21.094,21.094,0,0,1,3.049-3.059,16.777,16.777,0,0,1,4.515-2.052,24.331,24.331,0,0,1,2.886-.413,1.32,1.32,0,0,1,.8.182c.586.48,1.254,1.075,1.1,1.736a12.466,12.466,0,0,1-.9,2.531,10.563,10.563,0,0,0-.668,1.822s-.01,1.147.071,1.865-.059,2.43-.65,2.937a22.867,22.867,0,0,1-2.309,1.288,2.989,2.989,0,0,1-1.517.537,1.151,1.151,0,0,1-.623-.165c-.565-.358-2.595-2.328-2.595-2.328a2.361,2.361,0,0,1,.052.822l0,.008a.541.541,0,0,1-.222.337.507.507,0,0,1-.317.108.643.643,0,0,1-.151-.019l-.01-.012a2.322,2.322,0,0,1-.706-.418s.832,2.7.891,3.368-.558,1.3-1.3,1.738a23.152,23.152,0,0,1-2.2,1.474,1.2,1.2,0,0,1-.448.074,5.579,5.579,0,0,1-2.464-.831c-.6-.4-1.63-.913-1.63-.913a11.208,11.208,0,0,0-1.828-.236h-.1l-.114,0a12.969,12.969,0,0,1-2.551-.346c-.66-.165-.886-1.032-1.048-1.769s1.41-2.477,1.885-3.179A16.7,16.7,0,0,1,116.721,113a21.226,21.226,0,0,1,4.11-1.324s-.278-.607-.292-.7-.158-.087-.168-.087h0s-.132.041-.24.063a.428.428,0,0,1-.053,0c-.067,0-.1-.031-.17-.129a.605.605,0,0,0-.183-.173l-1.446-.177-1.1-.006-1.579.117-1.694.112c-.037.253-.066.447-.354.493a.47.47,0,0,1-.075.006c-.182,0-.4-.094-.44-.279-.044-.246.265-.53.474-.587a.17.17,0,0,1,.048-.006c.167,0,.368.21.368.21l1.942-.241,2.42-.067,1.45.2s.238-.353.346-.369a.54.54,0,0,1,.1-.01h.045a.565.565,0,0,0,.1-.008h.016c.087,0,.176.125.206.172l.1-.052.114-.083c-.029-.054-.1-.2-.048-.268.064-.091.057-.121.125-.213s.487-.14.487-.14l.482-1.382,1.161-2.126,1.094-1.62s-.112-.329.005-.463a.8.8,0,0,1,.524-.218m0-.321h0a1.128,1.128,0,0,0-.76.321.727.727,0,0,0-.117.621l-1.013,1.5-1.177,2.152-.013.023-.009.025-.418,1.2c-.384.073-.468.186-.506.238a.914.914,0,0,0-.1.16.33.33,0,0,1-.033.059.371.371,0,0,0-.055.1.393.393,0,0,0-.055,0h-.03l-.044.007-.037,0h-.045a.836.836,0,0,0-.162.015c-.055.008-.193.028-.436.341l-1.259-.173-.026,0h-.027l-2.42.066-1.828.226a.8.8,0,0,0-.473-.195.517.517,0,0,0-.134.018.963.963,0,0,0-.7.954.74.74,0,0,0,.756.543.8.8,0,0,0,.127-.01.658.658,0,0,0,.569-.506l1.448-.1,1.581-.117,1.06.007,1.344.165a.444.444,0,0,1,.044.051.513.513,0,0,0,.431.263.722.722,0,0,0,.1-.008c.04-.008.08-.017.118-.026.021.053.049.12.085.2a18.814,18.814,0,0,0-3.815,1.268,17.043,17.043,0,0,0-3.989,3.192c-.1.156-.272.372-.467.622-.918,1.184-1.608,2.143-1.466,2.8s.4,1.791,1.284,2.013a13.32,13.32,0,0,0,2.629.355l.123,0h.087a10.573,10.573,0,0,1,1.722.221c.187.094,1.044.531,1.558.875a5.892,5.892,0,0,0,2.643.885,1.52,1.52,0,0,0,.569-.1,6.339,6.339,0,0,0,1.337-.859,9.176,9.176,0,0,1,.9-.634c.992-.583,1.524-1.328,1.459-2.045a22.3,22.3,0,0,0-.661-2.625l.093.03a1.006,1.006,0,0,0,.224.026.82.82,0,0,0,.514-.175.842.842,0,0,0,.339-.519l.02-.085a22.526,22.526,0,0,0,2.034,1.783,1.473,1.473,0,0,0,.8.215,3.279,3.279,0,0,0,1.69-.588,9.24,9.24,0,0,1,.972-.513,6.286,6.286,0,0,0,1.373-.8c.736-.632.84-2.532.759-3.218-.069-.613-.069-1.573-.069-1.783a9.887,9.887,0,0,1,.628-1.711,12.866,12.866,0,0,0,.937-2.615c.2-.9-.684-1.622-1.213-2.056a1.549,1.549,0,0,0-1-.254,12.7,12.7,0,0,0-2.136.281c-.32.06-.6.112-.788.135a17,17,0,0,0-4.656,2.1,18.64,18.64,0,0,0-2.865,2.821c-.058-.07-.1-.125-.143-.167.024-.028.049-.058.071-.087a.492.492,0,0,0,.019-.592.341.341,0,0,1-.026-.064l.464-1.272.487-.969.81-1.333.742-1.247a.816.816,0,0,0,.165.017.66.66,0,0,0,.549-.3.758.758,0,0,0-.072-1.026.672.672,0,0,0-.413-.131" transform="translate(-39.536 -36.929)" fill="#b5b0a1"/>
    <path id="Path_13271" data-name="Path 13271" d="M111.783.321a1.587,1.587,0,0,1,.656.2,4.348,4.348,0,0,1-.077.614,13.775,13.775,0,0,1,.988,2.881c.258,1.524.461,3.051.651,4.588.018.144.19.152.345.152h.055a.566.566,0,0,1,.152.013c.357.117.127.332.3.457l.078.051.093.039a.178.178,0,0,0,.07.015c.1,0,.166-.092.274-.092a.327.327,0,0,1,.2.094c.1.082.2.392.371.392a.147.147,0,0,0,.065-.015c1.4-.659,2.8-1.3,4.227-1.9a13.763,13.763,0,0,1,2.962-.7,4.743,4.743,0,0,1,.475-.393h0c.244.145.645.426.6.752a.585.585,0,0,1-.53.434.381.381,0,0,1-.054,0c-.258-.041-.217-.29-.418-.378a.151.151,0,0,0-.062-.012c-.062,0-.125.03-.193.03h-.039a5.8,5.8,0,0,0-.761.113,7.842,7.842,0,0,0-1.942.425c-.643.263-1.242.624-1.874.907l-1.982,1.049a1.533,1.533,0,0,0-.485.471.288.288,0,0,1-.272.137.953.953,0,0,1-.335-.076l-.337,1.006a31.356,31.356,0,0,1,5.548.539c1.473.465,5.75,3.8,7.083,4.887a16.881,16.881,0,0,1,3.245,4.474c.085.367-.311.328-.65.538a1.564,1.564,0,0,1-.718.113h-.246c-.158,0-.274.006-.292.046a3.4,3.4,0,0,1-1.216,1,.881.881,0,0,1-.4.093c-.569,0-1.195-.462-1.827-.588a21.087,21.087,0,0,1-2.4-.794.516.516,0,0,0-.166-.028c-.42,0-.772.524-1.495.666a2.123,2.123,0,0,1-.4.037,4.233,4.233,0,0,1-1.411-.292s-1.18,1.045-1.783,1.468a3.333,3.333,0,0,1-1.773.587,1.707,1.707,0,0,1-.592-.1,10.508,10.508,0,0,1-3.028-2.613c-.378-.636.183-1.9.183-1.9l-.474-2.7h0c-.039,0-1.148.86-1.271.955a1.344,1.344,0,0,1-.77.335.636.636,0,0,1-.143-.016v0a1.159,1.159,0,0,1-.218-.944c.016-.157.154-1.585.13-1.585h0l-2.54,1.042s-.772,1.152-1.513,1.171h-.034a10.617,10.617,0,0,1-3.79-1.164,2.885,2.885,0,0,1-.85-2.261c.035-.734.288-2.292.288-2.292a3.725,3.725,0,0,1-1.184-1.4c-.3-.779.064-1.412-.348-1.748A20.7,20.7,0,0,1,97.969,7.49c-.55-.578-1.534-.873-1.61-1.62a3.41,3.41,0,0,1,.2-1.565c.072-.1-.53-.747-.537-1.146s-.25-.712.106-.837a8.1,8.1,0,0,1,1.5-.086,15,15,0,0,1,4.016.442c1.634.546,6.737,2.382,7.914,3.38a31.37,31.37,0,0,1,3.417,4.4l.675-.823s-.422-.28-.275-.545a1.59,1.59,0,0,0,.141-.665l-.172-2.234c-.1-.686-.114-1.384-.235-2.069a7.844,7.844,0,0,0-.679-1.871,4.911,4.911,0,0,0-.329-.727c-.051-.078-.046-.18-.122-.234a.324.324,0,0,0-.191-.05l-.109,0a.294.294,0,0,1-.246-.1.58.58,0,0,1,.055-.723.445.445,0,0,1,.3-.1m0-.321h0a.756.756,0,0,0-.506.174.823.823,0,0,0-.265.566.834.834,0,0,0,.177.612.616.616,0,0,0,.488.215l.066,0h.021a.639.639,0,0,0,.068.14,2.326,2.326,0,0,1,.2.43c.033.086.067.171.1.251l.064.139a6.941,6.941,0,0,1,.591,1.657c.066.371.1.759.134,1.135.027.3.055.614.1.923l.169,2.214a1.252,1.252,0,0,1-.1.485.633.633,0,0,0,.114.733L113,9.923a27.271,27.271,0,0,0-3.235-4.11c-1.436-1.217-7.955-3.418-8.02-3.44a16,16,0,0,0-4.118-.459,8.763,8.763,0,0,0-1.607.1.64.64,0,0,0-.364.862,1.5,1.5,0,0,1,.042.283,2.046,2.046,0,0,0,.411.949c.035.054.078.121.108.171A4.021,4.021,0,0,0,96.039,5.9c.065.635.6,1,1.069,1.319a3.935,3.935,0,0,1,.629.491,13.835,13.835,0,0,0,1.553,1.3c.172.13.323.245.432.334.093.075.1.2.1.522a2.782,2.782,0,0,0,.154,1.092,3.778,3.778,0,0,0,1.137,1.419c-.069.443-.233,1.54-.262,2.137a3.2,3.2,0,0,0,.975,2.533,10.879,10.879,0,0,0,3.985,1.23h.044c.779-.021,1.5-.931,1.713-1.231l1.98-.812c-.031.37-.076.851-.1,1.062a1.416,1.416,0,0,0,.31,1.2l.549.549v-.456a1.81,1.81,0,0,0,.788-.387l.1-.079c.337-.26.576-.443.745-.571l.37,2.108a2.745,2.745,0,0,0-.127,2.1,10.711,10.711,0,0,0,3.194,2.75,2.013,2.013,0,0,0,.7.117,3.663,3.663,0,0,0,1.958-.645c.49-.344,1.33-1.069,1.666-1.363a4.373,4.373,0,0,0,1.342.245,2.447,2.447,0,0,0,.467-.042,2.765,2.765,0,0,0,1-.452,1.05,1.05,0,0,1,.429-.209.211.211,0,0,1,.064.011c.136.046.317.114.524.191a13.927,13.927,0,0,0,1.919.614,3.953,3.953,0,0,1,.754.27,2.954,2.954,0,0,0,1.135.324,1.213,1.213,0,0,0,.549-.127,4.018,4.018,0,0,0,1.272-1.011h.339a1.781,1.781,0,0,0,.884-.159,1.455,1.455,0,0,1,.267-.119c.211-.078.652-.24.53-.767a16.74,16.74,0,0,0-3.355-4.651c-.053-.044-5.394-4.378-7.19-4.945a27.237,27.237,0,0,0-5.2-.542l.1-.307a1.021,1.021,0,0,0,.127.008.6.6,0,0,0,.554-.3,1.172,1.172,0,0,1,.371-.353l1.965-1.04c.269-.119.552-.264.825-.4.332-.17.675-.346,1.02-.488A6.755,6.755,0,0,1,122.074,8l.191-.027c.089-.013.183-.031.279-.049a2.484,2.484,0,0,1,.437-.06h.039a.633.633,0,0,0,.138-.016l.012.019a.638.638,0,0,0,.474.353.682.682,0,0,0,.1.008.905.905,0,0,0,.849-.711c.055-.38-.2-.742-.75-1.073l-.076-.045h-.091c-.138,0-.206.043-.62.413l-.362.062a11.706,11.706,0,0,0-2.579.645c-1.5.627-2.983,1.312-4.126,1.85-.014-.021-.028-.044-.039-.062a.922.922,0,0,0-.166-.213.636.636,0,0,0-.414-.172.58.58,0,0,0-.278.076.574.574,0,0,0-.441-.531.81.81,0,0,0-.253-.029h-.1c-.164-1.323-.367-2.878-.637-4.472a11.632,11.632,0,0,0-.832-2.524l-.141-.341c.1-.579.118-.738-.1-.858A1.848,1.848,0,0,0,111.783,0" transform="translate(-34.171)" fill="#b5b0a1"/>
    <path id="Path_13272" data-name="Path 13272" d="M32.663,123.842c.761,0,1.734.215,1.973.853.035.093.076.13.127.13.141,0,.357-.3.738-.513a2.332,2.332,0,0,1,1.049-.19,5.293,5.293,0,0,1,.569.03s-.2.76-.507.966-.625.881-.95,1.218a2.632,2.632,0,0,0-.857,1.431,19.95,19.95,0,0,0-.516,4.139,9.89,9.89,0,0,0,1.268,3.939,2.525,2.525,0,0,1,.319,1.218c-.035.305-.312.533-.266.849.127.819,1.062.842,1.472,1.447.718,1.058-.673,2.245-1.308,2.947-1.33,1.474-2.1,3.338-3.288,4.913a9.3,9.3,0,0,1-4.74,3.216,1.936,1.936,0,0,1-.472.774,5.41,5.41,0,0,1-.758.524,3.6,3.6,0,0,0-.2.757c-.094.51.14.686-.163.9s-.515.635-.806.781-.472.773-.472.773c-.073.523,5.875,2.272,6.63,2.6q.922.393,1.8.875a7.186,7.186,0,0,0,1.567.923,1.056,1.056,0,0,0,.2.019c.686,0,1.153-.679,1.7-1.01a1.685,1.685,0,0,1,.88-.263,3.678,3.678,0,0,1,1.825.781,6.182,6.182,0,0,0-1.544-.32,2.463,2.463,0,0,0-1.66.788,3.62,3.62,0,0,1,1.581,1.22,11.185,11.185,0,0,0-2.525-.6,2,2,0,0,0-1.821,1.19c-.159.274-.436.981-.689.981-.085,0-.167-.08-.241-.286-.244-.682.871-1.982,1.311-2.4a3.538,3.538,0,0,0-1.747-1.181c-.193-.035-2.415-.908-2.415-.908L27.265,156.3l-2.117-.715-1.723-.714.559-.888-1.414.137-.713,1a6.961,6.961,0,0,1-1.353.409.235.235,0,0,1-.045,0l-.022,0c-.227,0-.107.7-.107.7l-.9.564-1.119,1.781a30.6,30.6,0,0,1-1.618,3.685,15.536,15.536,0,0,0-2.254,6.368h.038c.614,0,1.116-.1,1.572-.1a1.857,1.857,0,0,1,1.631.912,16.252,16.252,0,0,0-2.066-.337,2.122,2.122,0,0,0-.825.152c.231.52.769,1.5.334,2.04-.17.213-.294.3-.384.3-.212,0-.233-.464-.226-.763.024-.79-.28-1.576-1.211-1.665-.04,0-.08-.006-.12-.006-.66,0-1.317.508-1.981.6.337-1.675,2.108-.484,2.715-1.91.364-.86.346-1.881.649-2.774a30.187,30.187,0,0,1,1.8-3.619c.7-1.4,1.3-2.85,2-4.253,0,0-.017-1,0-1.457a1.593,1.593,0,0,1,.28-.811l-.42-.6a9.713,9.713,0,0,0-1.835.988,24.436,24.436,0,0,1-3.217,1.662c-.43.183-3.135,1.212-3.7,1.44a39.749,39.749,0,0,1-6.6,2.036,2.47,2.47,0,0,1-.481.041,4.994,4.994,0,0,1-2.026-.434c-.4-.217,1.661-1.352,1.86-1.45,2.162-1.047,4.545-1.646,6.755-2.6.432-.188,5.31-2.605,5.837-2.97s1.867-1.512,1.867-1.512a13.718,13.718,0,0,1-3.145,1.278h-.013c-.507,0-1.524.093-2.182.093a1.453,1.453,0,0,1-.583-.069.047.047,0,0,0,.022,0,23.559,23.559,0,0,0,3.13-2.352,11.218,11.218,0,0,0,3.241-4.8,16.484,16.484,0,0,1,1.709-3.159,17.141,17.141,0,0,1,2.3-2.734c.676-.646,1.536-1.084,2.159-1.786.445-.5.74-1.5,1.389-1.753a5.814,5.814,0,0,1,1.616-.152c.505,0,.922.021.922.021s-.38-3.71.255-5.381a35.129,35.129,0,0,1,1.992-4.729,4.445,4.445,0,0,1,2.563-2.113,3.159,3.159,0,0,1,.6-.052m-21.9,28.98.007,0-.007,0m21.9-29.3a3.413,3.413,0,0,0-.662.058,4.589,4.589,0,0,0-2.769,2.25,27.174,27.174,0,0,0-1.743,4.052l-.281.739a15.044,15.044,0,0,0-.308,5.161c-.157,0-.355-.008-.569-.008a4.7,4.7,0,0,0-1.736.175,2.551,2.551,0,0,0-1.106,1.22,4.014,4.014,0,0,1-.4.618,7.1,7.1,0,0,1-1.144.966,9.649,9.649,0,0,0-1,.8A17.487,17.487,0,0,0,18.6,142.34a16.627,16.627,0,0,0-1.741,3.221,10.815,10.815,0,0,1-3.144,4.668l-.206.17a17.355,17.355,0,0,1-2.77,2.117.168.168,0,0,1,.047-.006v.235l-.25.31.033.033.033.017a1.458,1.458,0,0,0,.745.112c.36,0,.809-.026,1.243-.052.365-.021.71-.041.938-.041a2.9,2.9,0,0,0,.839-.191c-1.157.646-5.145,2.619-5.514,2.78-.963.414-1.981.77-2.966,1.113a35.576,35.576,0,0,0-3.8,1.492c-.022.011-2.076,1.032-2.091,1.652a.4.4,0,0,0,.217.368,5.3,5.3,0,0,0,2.181.474,2.783,2.783,0,0,0,.545-.048,39.9,39.9,0,0,0,6.65-2.052c.239-.1.85-.331,1.511-.585.956-.368,1.946-.749,2.2-.858a24.271,24.271,0,0,0,3.322-1.734,7.547,7.547,0,0,1,1.491-.812l.15.215a1.879,1.879,0,0,0-.218.787c-.015.393-.006,1.15,0,1.4-.339.683-.659,1.384-.968,2.063-.319.7-.649,1.423-1,2.12-.195.391-.412.783-.621,1.162a15.716,15.716,0,0,0-1.193,2.5,8.208,8.208,0,0,0-.294,1.324,6.257,6.257,0,0,1-.348,1.429c-.208.488-.564.568-1.129.656-.616.1-1.384.217-1.6,1.315l-.089.443.448-.062a3.941,3.941,0,0,0,.979-.316,2.656,2.656,0,0,1,.958-.28.818.818,0,0,1,.088,0c.836.079.936.87.922,1.335a1.3,1.3,0,0,0,.218.954.457.457,0,0,0,.329.141.9.9,0,0,0,.636-.417c.472-.587.14-1.427-.139-2.039a2.081,2.081,0,0,1,.378-.033,5.919,5.919,0,0,1,1.217.181c.265.058.54.119.808.154l.752.1-.454-.609a2.2,2.2,0,0,0-1.889-1.041c-.227,0-.458.023-.7.048-.179.018-.362.037-.555.048a15.99,15.99,0,0,1,2.182-5.884,29.92,29.92,0,0,0,1.606-3.647l.018-.047,1.064-1.694.837-.524.183-.114-.036-.212a2.152,2.152,0,0,1-.027-.333,7.7,7.7,0,0,0,1.354-.423l.088-.035.055-.077.628-.877.617-.06-.211.334-.2.322.352.146,1.724.714,2.137.723,2.434,1.036c.685.269,2.281.892,2.483.929a3.03,3.03,0,0,1,1.366.856c-.459.5-1.467,1.706-1.175,2.52.119.331.3.5.544.5.394,0,.626-.466.851-.917.044-.087.083-.166.116-.224a1.674,1.674,0,0,1,1.542-1.03,6.119,6.119,0,0,1,1.662.357c.254.078.515.157.781.228l.8.213-.453-.7a3.409,3.409,0,0,0-1.261-1.106,1.72,1.72,0,0,1,1.071-.407,5.377,5.377,0,0,1,1.33.272l.128.036,2.126.593-1.869-1.175-.126-.08a3.592,3.592,0,0,0-1.869-.751,2,2,0,0,0-1.045.308,4.306,4.306,0,0,0-.562.429,1.675,1.675,0,0,1-.974.535.747.747,0,0,1-.139-.013,2.906,2.906,0,0,1-.9-.513,5.431,5.431,0,0,0-.57-.377c-.6-.328-1.22-.627-1.83-.887-.218-.094-.79-.281-1.581-.542a35.135,35.135,0,0,1-4.82-1.81,1.034,1.034,0,0,1,.262-.436,1.774,1.774,0,0,0,.527-.479,1.854,1.854,0,0,1,.317-.326.669.669,0,0,0,.29-.715,1.226,1.226,0,0,1,.006-.386,4.259,4.259,0,0,1,.148-.6,5.439,5.439,0,0,0,.709-.5,2.06,2.06,0,0,0,.51-.76,9.453,9.453,0,0,0,4.748-3.279,23.636,23.636,0,0,0,1.38-2.141,17,17,0,0,1,1.889-2.75c.079-.087.171-.183.269-.285.688-.718,1.839-1.919,1.067-3.058a2.24,2.24,0,0,0-.784-.645c-.373-.217-.587-.356-.636-.672a.547.547,0,0,1,.1-.287,1.357,1.357,0,0,0,.169-.476,2.773,2.773,0,0,0-.344-1.387c-.1-.216-.194-.426-.29-.632a7.74,7.74,0,0,1-.95-3.183,16.681,16.681,0,0,1,.409-3.527l.1-.545a2.244,2.244,0,0,1,.729-1.22l.044-.046a4.567,4.567,0,0,0,.462-.615,2.659,2.659,0,0,1,.44-.562,2.36,2.36,0,0,0,.634-1.146l.1-.358-.369-.045a5.568,5.568,0,0,0-.607-.033,2.515,2.515,0,0,0-1.207.231,3.122,3.122,0,0,0-.5.362,2.563,2.563,0,0,0-2.182-.875" transform="translate(0 -44.145)" fill="#b5b0a1"/>
    <path id="Path_13273" data-name="Path 13273" d="M28.1,29.884a.349.349,0,0,1,.216.064.452.452,0,0,1,.01.582.343.343,0,0,1-.29.165,1.049,1.049,0,0,1-.314-.074l-.866,1.458-.823,1.355-.495.986-.5,1.368a.6.6,0,0,0,.071.243c.067.131.075.164.008.253a2.306,2.306,0,0,1-.162.186s-.073.139,0,.191.488.574.488.574a21.082,21.082,0,0,1,3.049-3.059,16.745,16.745,0,0,1,4.514-2.052,24.349,24.349,0,0,1,2.886-.413,1.325,1.325,0,0,1,.8.181c.586.481,1.254,1.076,1.1,1.736a12.465,12.465,0,0,1-.9,2.531,10.561,10.561,0,0,0-.668,1.822s-.01,1.147.071,1.866-.059,2.43-.65,2.937a22.74,22.74,0,0,1-2.309,1.287,2.984,2.984,0,0,1-1.517.537,1.151,1.151,0,0,1-.623-.165c-.565-.358-2.595-2.328-2.595-2.328a2.371,2.371,0,0,1,.053.822l0,.008a.541.541,0,0,1-.222.337.507.507,0,0,1-.317.108.643.643,0,0,1-.151-.019l-.01-.012a2.322,2.322,0,0,1-.706-.418s.832,2.7.891,3.368-.558,1.3-1.3,1.738a23.152,23.152,0,0,1-2.2,1.474,1.208,1.208,0,0,1-.448.073,5.579,5.579,0,0,1-2.464-.83c-.6-.4-1.63-.914-1.63-.914a11.236,11.236,0,0,0-1.828-.236h-.1l-.113,0a12.92,12.92,0,0,1-2.551-.346c-.66-.165-.886-1.031-1.048-1.768s1.41-2.477,1.885-3.179a16.707,16.707,0,0,1,3.878-3.091,21.225,21.225,0,0,1,4.11-1.324s-.278-.607-.292-.7-.158-.087-.168-.087h0s-.132.041-.24.063a.427.427,0,0,1-.053,0c-.067,0-.1-.032-.17-.129a.605.605,0,0,0-.183-.173l-1.446-.177-1.1-.006-1.579.117-1.694.112c-.037.253-.066.447-.355.493a.456.456,0,0,1-.075.006c-.181,0-.4-.094-.44-.279-.045-.246.266-.529.474-.587a.17.17,0,0,1,.048-.006c.167,0,.368.21.368.21l1.942-.241,2.42-.067,1.45.2s.238-.353.346-.369a.542.542,0,0,1,.105-.01h.044a.629.629,0,0,0,.1-.007l.016,0c.087,0,.176.125.206.172l.1-.052.114-.083c-.029-.054-.1-.2-.048-.268.064-.091.057-.121.125-.213s.486-.14.486-.14l.481-1.382,1.161-2.126,1.094-1.621s-.112-.328.005-.462a.8.8,0,0,1,.524-.218m0-.321h0a1.128,1.128,0,0,0-.76.321.727.727,0,0,0-.117.621L26.21,32l-1.177,2.152-.013.023-.009.025-.418,1.2c-.384.073-.468.186-.506.238a.891.891,0,0,0-.1.16.382.382,0,0,1-.033.06.358.358,0,0,0-.055.1.392.392,0,0,0-.055,0h-.03l-.044.007-.037,0h-.044a.838.838,0,0,0-.163.015c-.055.008-.193.028-.436.341l-1.259-.173-.026,0h-.026l-2.42.066-1.828.226a.8.8,0,0,0-.473-.195.517.517,0,0,0-.134.018.963.963,0,0,0-.7.954.74.74,0,0,0,.756.543.8.8,0,0,0,.127-.01.658.658,0,0,0,.569-.506l1.448-.1,1.581-.117,1.06.006,1.344.165a.388.388,0,0,1,.044.051.513.513,0,0,0,.431.263.654.654,0,0,0,.1-.008c.039-.007.08-.017.118-.026.021.053.049.12.085.2a18.814,18.814,0,0,0-3.815,1.268,17.043,17.043,0,0,0-3.989,3.192c-.1.156-.272.372-.467.622-.918,1.184-1.608,2.143-1.466,2.8s.4,1.791,1.284,2.013a13.279,13.279,0,0,0,2.63.356l.123,0h.087A10.562,10.562,0,0,1,20,48.157c.187.094,1.044.531,1.558.875a5.891,5.891,0,0,0,2.643.884,1.521,1.521,0,0,0,.569-.1A6.373,6.373,0,0,0,26.1,48.96a9.157,9.157,0,0,1,.9-.634C28,47.743,28.527,47,28.462,46.28a22.3,22.3,0,0,0-.661-2.625l.093.029a.97.97,0,0,0,.224.027.82.82,0,0,0,.514-.175.843.843,0,0,0,.339-.519l.02-.085a22.613,22.613,0,0,0,2.034,1.783,1.474,1.474,0,0,0,.8.215,3.283,3.283,0,0,0,1.691-.588,9.167,9.167,0,0,1,.971-.513,6.286,6.286,0,0,0,1.373-.8c.736-.632.84-2.532.759-3.218-.069-.614-.069-1.573-.069-1.783a9.868,9.868,0,0,1,.628-1.711A12.864,12.864,0,0,0,38.11,33.7c.2-.9-.684-1.622-1.213-2.056a1.546,1.546,0,0,0-1-.254,12.713,12.713,0,0,0-2.137.281c-.319.06-.6.112-.787.135a17,17,0,0,0-4.656,2.1,18.64,18.64,0,0,0-2.865,2.821c-.058-.07-.1-.125-.143-.167.024-.028.049-.058.071-.087a.492.492,0,0,0,.019-.592.342.342,0,0,1-.026-.064l.464-1.272.487-.969.81-1.333L27.872,31a.828.828,0,0,0,.165.017.66.66,0,0,0,.549-.3.757.757,0,0,0-.072-1.026.672.672,0,0,0-.413-.131" transform="translate(-5.05 -10.566)" fill="#b5b0a1"/>
  </g>
</svg>
