<?xml version="1.0" encoding="UTF-8"?>
<svg id="wallpaper-3" xmlns="http://www.w3.org/2000/svg" version="1.1" viewBox="0 0 100 100">
  <!-- Generator: Adobe Illustrator 29.2.1, SVG Export Plug-In . SVG Version: 2.1.0 Build 116)  -->
  <defs>
    <style>
      .st0 {
        fill: #b5b0a1;
      }
    </style>
  </defs>
  <path id="Path_13267" class="st0" d="M42,78.5c-.7,0-1.6-.8-2.3-1.4-.2-.2-.4-.4-.7-.6-1-.7-2.2-1.1-3.4-1.1.5.7.6,1.5.3,2.3-.2.3-.6.5-1,.4-.4,0-.7-.3-1-.5-.2-.2-.5-.3-.8-.4-.2,0-.4-.1-.5-.2-.7-.2-1.3-.5-1.9-.9-2.1-2-2.7-5-1.6-7.7-.4,0-.8,0-1.1,0-1.9-.9-3.4-2.3-4.3-4.2-.4-1.2-.6-2.5-.5-3.8,0-.5.1-1,.2-1.5.3-.8.3-1.6.2-2.4,0,0,0-.1,0-.2,0,0,0,0,.1,0,2.1.3,3.2,2.3,3.3,4.2.8-.4,1.7-.5,2.5-.2,0,0,0,0,.1,0l.2.5c.3.6.6,1.2.9,1.6.2-.2.5-.2.7-.2.3,0,.5.2.7.4,1.3-2.8,5.2-4.8,7.7-6.2l.3-.2c.3-.2.6-.3.9-.5,1.3-.6,2.5-1.3,3.7-2.2.2-.2.5-.4.7-.6-1.3.8-2.8,1.4-4.3,1.6l-.7.4h0c0,0-.2,0-.2,0,0,0,0-.2,0-.2.4-.2.4-.3.4-.3,0,0,0,0,0,0-.4-.1-.9-.1-1.3,0-.6.3-1.3.7-1.9,1.1l-.4.3-.4.2c-1.3.9-2.9,2-4.5,1.7,0,0-.1,0-.1-.2,0,0,0,0,0,0,0,0,0-.2.1-.3,0,0,0-.1,0-.2-1.4.7-3.9,1.8-4.9.2-.3-.6-.4-1.3-.2-1.9.3-1,.9-1.8,1.7-2.5-.3,0-.6.2-.9.2-1.2.5-2.6.5-3.8,0-1.4-.7-2.7-2-2.4-3.6.2-1.1.9-2,1.8-2.5,1.5-.7,3.2-.8,4.7-.3-.7-.6-1.1-1.6-1.1-2.5,0-.7.6-1.3,1.4-1.4,1.4-.3,2.6.4,3.7,1.1l.3.2c-.2-.3-.3-.7-.3-1.1,0,0,0-.1.1-.2,1-.2,2,.6,2.8,1.2.3.2.5.4.8.6,1.1.8,2.4,1.3,3.7,1.5-.1-.5-1.1-1.1-1.8-1.4-.2-.1-.4-.2-.6-.3-.9-.6-1.8-1.4-2.5-2.2-1.4-1.7-2.9-3.8-2.8-6.5-1.3,0-1.8,1.1-2.2,2.4-.5,1.4-1,2.8-2.8,2.5,0,0-.1,0-.1-.1,0,0,0-.2,0-.2-1.2,1.3-3.1,2.7-4.4,2.7-.4,0-.8-.1-1-.4-.7-.8.4-2,1.2-2.9.2-.2.4-.4.6-.7.7-1,1.1-2.2,1.1-3.4-.7.4-1.5.6-2.3.3-.3-.2-.5-.6-.4-1,0-.4.3-.7.5-1,.2-.2.3-.5.4-.8,0-.2.1-.4.2-.5.2-.7.5-1.3.9-1.9,2-2.1,5-2.7,7.7-1.6,0-.4,0-.8,0-1.1.9-1.9,2.3-3.4,4.2-4.3,1.2-.4,2.5-.6,3.8-.5.5,0,1,.1,1.5.2.8.3,1.6.3,2.4.2,0,0,.2,0,.2,0,0,0,0,0,0,0-.3,2.1-2.3,3.2-4.2,3.3.4.8.5,1.7.2,2.5,0,0,0,0,0,.1l-.5.3c-.6.3-1.2.6-1.6.9.2.2.2.5.2.7,0,.3-.2.5-.4.7,2.8,1.3,4.8,5.2,6.2,7.7l.2.3c.2.3.3.6.5.9.6,1.3,1.3,2.5,2.2,3.7,0,.1.2.2.3.3-.7-1.2-1.2-2.5-1.4-3.9l-.4-.7c0,0,0-.2,0-.2,0,0,.2,0,.2,0h0c.2.4.3.4.3.4,0,0,0,0,0,0,.1-.4.1-.9,0-1.3-.3-.6-.7-1.3-1.1-1.8,0-.1-.2-.3-.3-.4l-.2-.4c-.9-1.3-2-2.9-1.7-4.5,0,0,0,0,0-.1,0,0,0,0,.1,0,0,0,.2,0,.3.1,0,0,0,0,.2,0-.7-1.4-1.7-3.9-.2-4.9.6-.3,1.3-.4,1.9-.2,1,.3,1.8.9,2.5,1.7,0-.3-.2-.6-.2-.9-.5-1.2-.5-2.6,0-3.8.7-1.4,2-2.7,3.6-2.4,1.1.2,2,.9,2.5,1.8.7,1.5.8,3.2.3,4.7.7-.7,1.6-1.1,2.5-1.1.7,0,1.3.6,1.4,1.4.3,1.4-.4,2.6-1.1,3.7l-.2.3c.3-.2.7-.3,1.1-.3,0,0,.1,0,.2.1.2,1-.6,2-1.2,2.8-.2.3-.4.5-.6.8-.8,1.1-1.3,2.4-1.5,3.7.5-.1,1.1-1.1,1.4-1.8.1-.2.2-.4.3-.6.6-.9,1.4-1.8,2.2-2.5,1.7-1.4,3.8-2.9,6.5-2.8,0-1.3-1.1-1.8-2.4-2.2-1.4-.5-2.8-1-2.5-2.8,0,0,0-.1.1-.1,0,0,.2,0,.2,0-1.3-1.2-2.7-3.1-2.7-4.4,0-.4.1-.7.4-1,.8-.7,2,.4,2.9,1.2.2.2.4.4.7.6,1,.7,2.2,1.1,3.4,1.1-.4-.7-.6-1.5-.3-2.3.2-.3.6-.5,1-.4.4,0,.7.3,1,.5.2.2.5.3.8.4.2,0,.4.1.5.2.7.2,1.3.5,1.9.9,2.1,2,2.7,5,1.6,7.7.4,0,.8,0,1.1,0,1.9.9,3.4,2.3,4.3,4.2.4,1.2.6,2.5.5,3.8,0,.5-.1,1-.2,1.5-.3.8-.3,1.6-.2,2.4,0,0,0,.1,0,.2,0,0,0,0-.1,0-2.1-.3-3.2-2.3-3.3-4.2-.8.4-1.7.5-2.5.2,0,0,0,0,0,0l-.3-.5c-.3-.5-.6-1.2-.9-1.6-.2.1-.5.2-.7.2-.3,0-.5-.2-.7-.4-1.3,2.8-5.2,4.8-7.7,6.2l-.3.2c-.3.2-.6.3-.9.5-1.3.6-2.5,1.3-3.7,2.2-.2.2-.5.4-.7.6,1.3-.8,2.8-1.4,4.3-1.6l.7-.4c0,0,.2,0,.2,0,0,0,0,.2,0,.2-.4.2-.4.3-.4.3,0,0,0,0,0,0,.4.1.9.1,1.3,0,.6-.3,1.3-.7,1.8-1.1.1,0,.3-.2.4-.3l.4-.2c1.3-.9,2.9-2,4.5-1.7,0,0,0,0,.1,0,0,0,0,0,0,.1,0,0,0,.2-.1.3,0,0,0,0,0,.2,1.4-.7,3.9-1.8,4.9-.2.3.6.4,1.3.2,1.9-.3,1-.9,1.8-1.7,2.5.3,0,.6-.2.9-.2,1.2-.5,2.6-.5,3.8,0,1.4.7,2.7,2,2.4,3.6-.2,1.1-.9,2-1.8,2.5-1.5.7-3.2.8-4.8.3.7.6,1.1,1.6,1.1,2.5,0,.7-.6,1.3-1.4,1.4-1.3.2-2.6-.2-3.7-1.1l-.3-.2c.2.3.3.7.3,1.1,0,0,0,.1-.1.2-1,.2-2-.6-2.8-1.2-.3-.2-.5-.4-.8-.6-1.1-.8-2.4-1.3-3.7-1.5.1.5,1.1,1.1,1.8,1.4.2.1.4.2.6.3.9.6,1.8,1.4,2.5,2.2,1.4,1.7,2.9,3.8,2.8,6.5,1.3,0,1.8-1.1,2.2-2.4.5-1.4,1-2.8,2.8-2.5,0,0,.1,0,.1.1,0,0,0,.2,0,.2,1.2-1.3,3.1-2.7,4.4-2.7.4,0,.8.1,1,.4.7.8-.4,2-1.2,2.9-.2.2-.4.4-.6.7-.7,1-1.1,2.2-1.1,3.4.7-.4,1.5-.6,2.3-.3.3.2.5.6.4,1,0,.4-.3.7-.5,1-.2.2-.3.5-.4.8,0,.2-.1.4-.2.5-.2.7-.5,1.3-.9,1.9-2,2.1-5,2.7-7.7,1.6,0,.4,0,.8,0,1.1-.9,1.9-2.3,3.4-4.2,4.3-1.2.4-2.5.6-3.8.5-.5,0-1-.1-1.5-.2-.8-.3-1.6-.3-2.4-.2,0,0-.2,0-.2,0,0,0,0,0,0,0,.3-2.1,2.3-3.2,4.2-3.3-.4-.8-.5-1.7-.2-2.5,0,0,0,0,0,0l.5-.3c.6-.3,1.2-.6,1.6-.9-.2-.2-.2-.5-.2-.7,0-.3.2-.5.4-.7-2.8-1.3-4.8-5.2-6.2-7.7l-.2-.3c-.2-.3-.3-.6-.5-.9-.6-1.3-1.3-2.5-2.2-3.7,0-.1-.2-.2-.3-.3.7,1.2,1.2,2.5,1.4,3.9l.4.7c0,0,0,.2,0,.2,0,0-.2,0-.2,0-.2-.4-.3-.4-.3-.4,0,0,0,0,0,0-.1.4-.1.9,0,1.3.3.6.7,1.3,1.1,1.8,0,.1.2.3.3.4l.2.4c.9,1.3,2,2.9,1.7,4.5,0,0,0,.1-.2.1,0,0,0,0,0,0,0,0-.2,0-.3-.1h-.2c.7,1.3,1.8,3.9.2,4.9-.6.3-1.3.4-1.9.2-1-.3-1.8-.9-2.5-1.7,0,.3.2.6.2.9.5,1.2.5,2.6,0,3.8-.7,1.4-2,2.7-3.6,2.4-1.1-.2-2-.9-2.5-1.8-.7-1.5-.8-3.2-.3-4.7-.6.7-1.6,1.1-2.5,1.1-.7,0-1.3-.6-1.4-1.4-.3-1.4.4-2.6,1.1-3.7l.2-.3c-.3.2-.7.3-1.1.3,0,0-.1,0-.2-.1-.2-1,.6-2,1.2-2.8.2-.3.4-.5.6-.8.8-1.1,1.3-2.4,1.5-3.7-.5.1-1.1,1.1-1.4,1.8-.1.2-.2.4-.3.6-.6.9-1.4,1.8-2.2,2.5-1.7,1.4-3.8,2.9-6.5,2.8,0,1.3,1.1,1.8,2.4,2.2,1.4.5,2.8,1,2.5,2.8,0,0,0,.1-.1.1,0,0-.2,0-.2,0,1.3,1.2,2.7,3.1,2.7,4.4,0,.4-.1.7-.4,1-.2.1-.4.2-.6.2M35.8,75.1c1.2,0,2.3.5,3.3,1.2.3.2.5.4.7.6.8.7,1.9,1.7,2.5,1.2.2-.2.3-.5.3-.8,0-1.3-1.9-3.6-3.2-4.6-.2-.1-.3-.2-.5-.3h0c0-.1,0-.2,0-.3,0,0,.1,0,.2,0,.2.1.4.3.6.4.2.1.4.2.6.2.2-1.4-1-1.8-2.3-2.3-1.3-.5-2.8-1-2.6-2.7,0,0,0-.1.2-.1,0,0,0,0,0,0,2.7.1,4.8-1.3,6.5-2.7.8-.7,1.6-1.5,2.2-2.4,0-.2.2-.4.3-.6.5-.9,1.1-2,1.9-2,0,0,.1,0,.1.2-.1,1.5-.7,2.9-1.6,4.1-.2.3-.4.6-.6.8-.6.8-1.3,1.6-1.2,2.5.6,0,1.2-.4,1.5-.9,0,0,.1-.1.2,0,0,0,0,.1,0,.2-.2.4-.5.8-.7,1.2-.7,1.1-1.3,2.1-1,3.4,0,.6.5,1.1,1.1,1.1,1.2,0,2.3-.7,2.8-1.9,0,0,.1-.1.2,0,0,0,.1.1,0,.2-.6,1.5-.9,3.9,0,5.5.5.9,1.3,1.5,2.3,1.7,1.4.3,2.6-.9,3.2-2.2.5-1.1.5-2.4,0-3.5-.2-.6-.3-1.2-.4-1.7,0,0,0-.2.1-.2,0,0,.1,0,.2,0,.6,1.1,1.6,1.9,2.7,2.3.5.2,1.1.1,1.6-.1,1.3-.9.3-3.3-.6-5,0,0,0-.2,0-.2,0,0,.1,0,.2,0,.2.1.3.2.5.3h0c.1-1.4-.9-2.9-1.7-4.1l-.2-.4c0-.1-.2-.3-.3-.4-.4-.6-.8-1.2-1.1-1.9-.2-.6-.2-1.7.2-1.9,0,0,0,0,0,0h0s0,0,0,0c-.3-1.5-.8-3-1.6-4.3l-.2-.4c0,0,0-.2,0-.2,0,0,.1,0,.2,0,.4.3.7.7,1,1,.9,1.2,1.6,2.4,2.3,3.7.2.3.3.6.5.9l.2.3c1.3,2.6,3.4,6.5,6.3,7.7,0,0,0,0,0,.1,0,0,0,.1,0,.1-.3.1-.4.4-.5.6,0,.2,0,.4.2.6,0,0,0,0,0,.1,0,0,0,0,0,.1-.5.3-1.2.7-1.8,1l-.4.2c-.1.5-.4,1.9.4,2.4,0,0,0,.1,0,.2,0,0,0,.1-.2.1-1.9,0-3.9.9-4.3,2.8.8,0,1.6,0,2.3.2.5.1,1,.2,1.5.2,1.3,0,2.5-.1,3.7-.5,1.7-.9,3.1-2.3,4-4.1.2-.4.1-.9,0-1.3,0,0,0-.2,0-.2,0,0,.1,0,.2,0,2.6,1.3,5.7.7,7.7-1.4.4-.5.7-1.1.9-1.8,0-.2,0-.3.2-.5.1-.3.3-.6.5-.8.2-.3.3-.5.4-.9,0-.4,0-.6-.2-.7-.5-.3-1.6,0-2.2.4,0,0-.2,0-.2,0,0,0,0,0,0,0-.1-1.4.3-2.7,1.1-3.8.2-.3.4-.5.6-.7.7-.8,1.7-1.9,1.2-2.5-.2-.2-.5-.3-.8-.3-1.3,0-3.6,1.9-4.6,3.2-.1.2-.2.3-.3.5h0c0,.2-.2.2-.2.1,0,0,0-.1,0-.2.1-.2.3-.4.4-.6.1-.2.2-.4.2-.6-1.4-.2-1.8,1-2.3,2.3-.5,1.3-1,2.8-2.7,2.6,0,0-.1,0-.1-.2.1-2.7-1.3-4.8-2.7-6.5-.7-.9-1.5-1.6-2.4-2.2-.1,0-.4-.2-.6-.3-.9-.5-2-1.1-2-1.9,0,0,0-.1.2-.1,1.5.1,2.9.7,4.1,1.5.3.2.6.4.8.6.8.6,1.6,1.3,2.5,1.2,0-.6-.4-1.2-.9-1.5,0,0-.1-.1,0-.2,0,0,.1,0,.2,0,.4.2.8.5,1.2.7,1.1.7,2.1,1.3,3.4,1,.6,0,1.1-.5,1.1-1.1,0-1.2-.8-2.3-1.9-2.8,0,0-.1-.1,0-.2,0,0,.1-.1.2,0,1.5.6,3.9.9,5.5,0,.9-.5,1.5-1.3,1.7-2.3.3-1.4-.9-2.6-2.2-3.2-1.1-.5-2.4-.5-3.5,0-.6.2-1.2.3-1.7.4,0,0-.2,0-.2-.1,0,0,0-.1,0-.2,1.1-.6,1.9-1.6,2.3-2.7.2-.5.1-1.1-.1-1.6-.9-1.3-3.3-.3-5,.6,0,0-.2,0-.2,0,0,0,0-.1,0-.2.1-.2.2-.3.3-.5h0c-1.4-.2-2.9.8-4.1,1.6l-.4.2c-.1,0-.3.2-.4.3-.6.4-1.2.8-1.9,1.1-.6.2-1.7.2-1.9-.2,0,0,0,0,0,0h0s0,0,0,0c-1.5.3-3,.8-4.3,1.6-.2.1-.4.2-.6.3,0,0-.1,0-.2,0,0,0,0-.1,0-.2.4-.5.8-.9,1.3-1.3,1.2-.9,2.4-1.6,3.7-2.3.3-.2.6-.3.9-.5l.3-.2c2.6-1.3,6.6-3.4,7.7-6.3,0,0,0,0,.1-.1h0c0,0,.1,0,.1,0,.1.3.4.4.6.5.2,0,.4,0,.6-.2,0,0,0,0,.1,0,0,0,0,0,.1,0,.3.5.7,1.2,1,1.8l.2.4c.5.1,1.9.4,2.4-.4,0,0,.1-.1.2,0,0,0,0,0,0,.2,0,1.9.9,3.9,2.8,4.3,0-.8,0-1.6.2-2.3.1-.5.2-1,.2-1.5,0-1.3-.1-2.5-.5-3.7-.9-1.7-2.3-3.1-4.1-4-.4-.2-.9-.1-1.3,0,0,0-.2,0-.2,0,0,0,0-.1,0-.2,1.3-2.6.7-5.7-1.4-7.7-.5-.4-1.1-.7-1.8-.9-.2,0-.3-.1-.5-.2-.3-.1-.6-.3-.8-.5-.3-.2-.5-.3-.9-.4-.4,0-.6,0-.7.2-.3.5,0,1.6.4,2.2,0,0,0,.2,0,.2,0,0,0,0,0,0-1.4.1-2.7-.3-3.8-1.1-.3-.2-.5-.4-.7-.6-.8-.7-1.9-1.7-2.5-1.2-.2.2-.3.5-.3.8,0,1.3,1.9,3.5,3.2,4.6.2.1.3.2.5.3h0c0,.1,0,.2,0,.3,0,0-.1,0-.2,0-.2-.1-.4-.3-.6-.4-.2-.1-.4-.2-.6-.2-.2,1.4,1,1.8,2.3,2.3,1.3.5,2.8,1,2.6,2.7,0,0,0,.1-.2.1,0,0,0,0,0,0-2.7-.1-4.8,1.3-6.5,2.7-.8.7-1.6,1.5-2.2,2.4,0,.1-.2.4-.3.6-.5.9-1.1,2.1-1.9,2,0,0-.1,0-.1-.2.1-1.5.6-2.9,1.5-4.1.2-.3.4-.6.6-.8.6-.8,1.3-1.6,1.2-2.5-.6,0-1.2.4-1.5.9,0,0-.1.1-.2,0,0,0,0-.1,0-.2.2-.4.5-.8.7-1.2.7-1.1,1.3-2.1,1-3.4,0-.6-.5-1.1-1.1-1.1-1.2,0-2.3.7-2.8,1.9,0,0-.1.1-.2,0,0,0-.1-.1,0-.2.6-1.5.9-3.9,0-5.5-.5-.9-1.3-1.5-2.3-1.7-1.4-.3-2.6.9-3.2,2.2-.5,1.1-.5,2.4,0,3.5.2.6.3,1.2.4,1.7,0,0,0,.2-.1.2,0,0-.1,0-.2,0-.6-1.1-1.6-1.9-2.7-2.3-.5-.2-1.1-.2-1.6.1-1.5,1,0,3.9.6,5,0,0,0,.2,0,.2,0,0-.1,0-.2,0-.2-.1-.3-.2-.5-.3h0c-.1,1.4.9,2.9,1.7,4.1l.2.4c0,.1.2.3.3.4.4.6.8,1.2,1.1,1.9.2.6.2,1.7-.2,1.9,0,0,0,0,0,0h0s0,0,0,0c.3,1.5.8,3,1.6,4.3l.2.4c0,0,0,.2,0,.2,0,0-.1,0-.2,0-.4-.3-.7-.7-1-1-.9-1.2-1.7-2.4-2.3-3.7-.2-.3-.3-.6-.5-.9l-.2-.3c-1.3-2.6-3.4-6.5-6.3-7.7,0,0,0,0-.1-.1,0,0,0-.1,0-.1.3-.1.5-.4.5-.6,0-.2,0-.4-.2-.6,0,0,0,0,0-.1,0,0,0,0,0-.1.5-.3,1.2-.7,1.8-1l.4-.2c.1-.5.4-1.9-.4-2.4,0,0,0-.1,0-.2,0,0,0-.1.2-.1,1.9,0,3.9-.9,4.3-2.8-.8,0-1.6,0-2.3-.2-.5-.1-1-.2-1.5-.2-1.3,0-2.5.1-3.7.5-1.7.9-3.1,2.3-4,4.1-.2.4-.1.9,0,1.3,0,0,0,.1,0,.2,0,0-.1,0-.2,0-2.6-1.3-5.7-.7-7.7,1.4-.4.5-.7,1.1-.9,1.8,0,.2-.1.3-.2.5-.1.3-.3.6-.4.8-.2.3-.3.5-.4.9,0,.4,0,.6.2.7.5.3,1.6,0,2.2-.4,0,0,.1,0,.1,0,0,0,0,0,0,.1.1,1.4-.3,2.7-1.1,3.8-.2.3-.4.5-.6.7-.7.8-1.7,1.9-1.2,2.5.2.2.5.3.8.3,1.3,0,3.5-1.9,4.6-3.2.1-.2.2-.3.3-.5h0c0-.2.1-.2.2-.1,0,0,0,.1,0,.2-.1.2-.3.4-.4.6-.1.2-.2.4-.2.6,1.4.2,1.8-1,2.3-2.3.5-1.3,1-2.8,2.7-2.6,0,0,.1,0,.1.2-.1,2.7,1.3,4.8,2.7,6.5.7.8,1.5,1.6,2.4,2.2.1,0,.4.2.6.3.9.5,2,1.1,2,1.9,0,0,0,.1-.2.1-1.5-.1-2.9-.7-4.1-1.5-.3-.2-.6-.4-.8-.6-.8-.6-1.6-1.3-2.5-1.2,0,.6.4,1.2.9,1.5,0,0,.1.1,0,.2,0,0-.1,0-.2,0-.4-.2-.8-.5-1.2-.7-1.1-.7-2.1-1.3-3.4-1-.6,0-1.1.5-1.1,1.1,0,1.2.8,2.3,1.9,2.8,0,0,.1.1,0,.2,0,0-.1.1-.2,0-1.5-.6-3.9-.9-5.5,0-.9.5-1.5,1.3-1.7,2.3-.3,1.4.9,2.6,2.2,3.2,1.1.5,2.4.5,3.5,0,.6-.2,1.2-.3,1.7-.4,0,0,.2,0,.2.1,0,0,0,.1,0,.2-1.1.6-1.9,1.6-2.3,2.7-.2.5-.2,1.1.1,1.6.9,1.3,3.3.3,5-.6,0,0,.2,0,.2,0,0,0,0,.1,0,.2-.1.2-.2.3-.3.5,0,0,0,0,0,0,1.4.1,2.9-.9,4.1-1.7l.4-.2c.1,0,.3-.2.4-.3.6-.4,1.2-.8,1.9-1.1.6-.2,1.7-.2,1.9.2,0,0,0,0,0,0h0s0,0,0,0c1.5-.3,3-.8,4.3-1.6.2-.1.4-.2.6-.3,0,0,.2,0,.2,0,0,0,0,.1,0,.2-.4.5-.8.9-1.3,1.3-1.1.9-2.4,1.6-3.7,2.2-.3.2-.6.3-.9.5l-.3.2c-2.6,1.3-6.6,3.4-7.7,6.3,0,0,0,0-.1,0,0,0-.1,0-.1,0-.1-.3-.4-.4-.6-.5-.2,0-.4,0-.6.2,0,0,0,0-.1,0,0,0,0,0-.1,0-.3-.5-.7-1.2-1-1.8l-.2-.4c-.5-.1-1.9-.4-2.4.4,0,0-.1,0-.2,0,0,0-.1,0-.1-.2,0-1.9-.9-3.9-2.8-4.3,0,.8,0,1.6-.2,2.3-.1.5-.2,1-.2,1.5,0,1.3.1,2.5.5,3.7.9,1.7,2.3,3.1,4.1,4,.4.2.9.1,1.3,0,0,0,.1,0,.2,0,0,0,0,.1,0,.2-1.3,2.6-.7,5.7,1.4,7.7.5.4,1.1.7,1.8.9.2,0,.3,0,.5.2.3.1.6.3.8.5.3.2.5.3.9.4.4,0,.6,0,.7-.2.3-.5,0-1.6-.4-2.2,0,0,0-.2,0-.2,0,0,0,0,0,0,.2,0,.4,0,.5,0"/>
  <path id="Path_13268" class="st0" d="M50.3,52.6c-1.4,0-2.6-1.2-2.5-2.7,0-1.4,1.2-2.6,2.7-2.5,1.4,0,2.5,1.2,2.5,2.6,0,1.5-1.2,2.6-2.7,2.6M50.3,47.7c-1.3,0-2.3,1.1-2.2,2.4,0,1.3,1.1,2.3,2.4,2.2,1.2,0,2.2-1.1,2.2-2.3,0-1.3-1.1-2.3-2.4-2.3"/>
  <path id="Path_13269" class="st0" d="M87.5,87.5H12.5V12.5h75v75ZM12.8,87.2h74.4V12.8H12.8v74.4Z"/>
  <path id="Path_13266" class="st0" d="M83,83H17V17h66v66ZM17.3,82.7h65.3V17.3H17.3v65.3Z"/>
</svg>