<svg id="wallpaper-1" xmlns="http://www.w3.org/2000/svg" version="1.1" viewBox="0 0 75 75">
  <!-- Generator: Adobe Illustrator 29.3.1, SVG Export Plug-In . SVG Version: 2.1.0 Build 151)  -->
  <defs>
    <style>
      .st0 {
        fill: #b5b0a1;
      }
    </style>
  </defs>
  <path class="st0" d="M37.89,57.06c-.23,0-.55-.02-.97-.06-.18-.02-.34-.03-.39-.03-.14.01-.32-.1-.58-.27-.1-.06-.25-.16-.3-.17-.13-.01-.24-.15-.6-.72-.12-.19-.3-.47-.38-.56h0s-.07-.04-.07-.04c-.09-.07-.12-.21-.17-.55-.03-.19-.09-.58-.16-.64-.24-.06-.15-.42-.03-.88.06-.22.16-.63.11-.72-.21-.27.02-1.43.13-1.92,0-.03,0-.07,0-.11h-.02s-.06-.06-.06-.06c-.06-.06-.15-.16.36-2.3,0-.07-.01-.32-.03-.67-.14-.04-.27-.09-.41-.14-.24.76-.27.91-.27.94,0,.16-.18.62-.49,1.38-.12.29-.23.56-.27.7-.08.24-.25.41-.41.55-.12.12-.23.22-.26.33-.04.15-.17.4-.3.66-.13.25-.31.62-.32.72,0,.18-.21.32-.48.5-.14.09-.39.26-.41.34,0,.25-.31.51-.68.81-.07.06-.13.1-.16.13-.16.16-.68.18-.9.18-.02,0-.76-.04-1.02-.04-.2,0-.57-.23-1.24-.68-.15-.1-.28-.19-.33-.21-.13-.06-.23-.25-.37-.51-.06-.1-.14-.26-.17-.29-.11-.07-.13-.25-.17-.92-.01-.23-.03-.56-.06-.67h0s-.04-.07-.04-.07c-.05-.1,0-.24.12-.57.07-.18.21-.54.18-.63-.18-.17.08-.44.41-.78.16-.16.45-.47.45-.57-.05-.34.72-1.24,1.05-1.62.02-.02.03-.06.05-.09h-.01s-.03-.09-.03-.09c-.02-.08-.05-.21,1.46-1.85.02-.02.2-.15.46-.34-.03-.03-.06-.06-.09-.09-.8.52-1.02.68-1.06.72-.08.12-.5.4-1.17.84-.27.18-.51.34-.63.42-.2.15-.44.19-.65.22-.17.03-.31.05-.4.12-.12.1-.37.23-.62.37-.24.13-.61.33-.66.41-.1.15-.36.15-.68.14-.17,0-.47,0-.53.05-.14.2-.54.25-1.01.28-.09,0-.17.01-.21.02-.22.04-.66-.24-.84-.37-.01,0-.6-.47-.81-.61-.16-.11-.34-.51-.63-1.26-.06-.17-.13-.32-.15-.37-.07-.13-.05-.33-.02-.63.01-.12.04-.29.02-.34-.05-.12.03-.28.38-.85.12-.19.29-.48.33-.59h0s0-.09,0-.09c.02-.11.14-.2.42-.4.16-.11.48-.33.51-.42-.05-.24.3-.31.78-.41.22-.05.64-.13.7-.21.15-.3,1.3-.61,1.79-.73.03-.01.06-.03.09-.05h0s.03-.1.03-.1c.03-.08.08-.2,2.25-.69.02,0,.08,0,.17-.01-.01-.04-.02-.09-.04-.13-1.13.23-1.61.34-1.68.38-.14.08-.64.14-1.45.25-.31.04-.6.08-.74.1-.25.05-.48-.02-.68-.08-.16-.05-.3-.09-.41-.07-.15.04-.43.05-.72.06-.28.01-.7.03-.78.07-.16.09-.39-.02-.67-.17-.15-.07-.42-.21-.5-.19-.21.12-.6-.02-1.04-.2-.08-.03-.15-.06-.19-.07-.22-.06-.49-.51-.59-.7,0-.01-.33-.68-.46-.91-.1-.17-.08-.61,0-1.41.02-.18.03-.34.03-.39,0-.14.1-.32.27-.58.06-.1.16-.25.17-.29.01-.13.15-.24.72-.6.19-.12.47-.3.56-.38h0s.04-.08.04-.08c.07-.09.21-.12.55-.17.19-.03.58-.09.64-.15.07-.24.43-.15.88-.03.22.06.63.16.71.11.27-.21,1.44.02,1.93.13.03,0,.07,0,.11,0h0s.06-.08.06-.08c.06-.06.16-.15,2.31.36.08,0,.36-.01.74-.03.03-.13.05-.27.09-.4-.81-.25-.94-.27-.96-.27h0c-.16,0-.62-.18-1.36-.48-.3-.12-.58-.23-.72-.28-.24-.08-.41-.25-.55-.4-.12-.12-.22-.23-.33-.26-.15-.04-.4-.17-.66-.3-.25-.12-.63-.31-.72-.31-.18,0-.32-.21-.5-.48-.09-.14-.26-.39-.34-.41h0c-.25,0-.51-.31-.81-.68-.06-.07-.1-.13-.13-.16-.16-.16-.18-.68-.18-.9,0-.02.04-.76.04-1.02,0-.2.23-.57.69-1.24.1-.14.19-.28.21-.32.06-.13.25-.23.52-.38.1-.05.26-.14.29-.17.07-.11.25-.13.92-.17.23-.01.55-.03.67-.06h0s.07-.05.07-.05c.1-.05.24,0,.57.12.18.07.54.21.63.18.17-.18.44.08.78.4.16.16.47.45.57.45h0c.34-.05,1.25.72,1.62,1.05.02.01.06.03.1.05h0s.08-.04.08-.04c.08-.02.21-.05,1.85,1.45.04-.04.07-.09.11-.13-.3-.45-.37-.53-.39-.55-.12-.08-.4-.5-.85-1.17-.18-.27-.34-.51-.43-.63-.15-.2-.19-.44-.23-.65-.03-.17-.05-.31-.12-.4-.1-.12-.23-.36-.37-.62-.13-.24-.34-.61-.41-.67-.15-.1-.15-.36-.14-.68,0-.17,0-.47-.05-.53-.2-.14-.25-.54-.28-1.01,0-.09-.01-.17-.02-.21-.04-.22.24-.66.37-.84,0-.01.47-.6.62-.81.11-.16.52-.34,1.28-.63.16-.06.32-.12.36-.15.13-.07.33-.05.64-.01.12.01.3.04.34.02.12-.05.28.03.85.38.19.12.48.29.59.33h0s.08,0,.08,0c.12.02.2.14.4.42.11.15.33.48.42.5.24-.05.32.32.41.78.05.22.13.64.21.69.31.15.61,1.3.73,1.78.01.03.03.06.05.09h.01s.08.02.08.02c.09.03.16.06.49,1.37.27-.1.55-.18.84-.26-.08-.37-.11-.47-.13-.49-.08-.14-.14-.63-.25-1.43-.04-.32-.08-.61-.11-.76-.05-.25.02-.48.08-.68.05-.16.09-.3.06-.41-.04-.15-.05-.43-.06-.72-.01-.28-.03-.7-.08-.78-.09-.16.02-.38.17-.67.07-.15.21-.42.19-.5-.12-.22.02-.6.2-1.04.03-.08.06-.15.07-.19.06-.21.51-.48.7-.59.01,0,.69-.33.91-.46.17-.1.62-.08,1.43,0,.17.01.34.03.38.03.14-.02.32.1.58.27.1.06.25.16.29.17.13,0,.24.15.6.72.12.19.3.47.38.56h0s.07.04.07.04c.1.07.12.21.17.55.03.19.09.57.15.64.24.07.15.42.03.88-.06.22-.16.63-.12.72.21.27-.02,1.44-.13,1.92,0,.03,0,.07,0,.11h.02s.06.06.06.06c.06.07.14.14-.29,1.97.21.05.42.1.63.16.02-.18.2-.64.49-1.34.12-.29.23-.56.27-.7.08-.24.25-.41.4-.55.12-.12.23-.22.26-.33.04-.15.17-.39.3-.65.13-.25.32-.63.32-.72,0-.18.21-.32.48-.5.14-.09.39-.26.41-.34,0-.25.31-.51.68-.81.07-.06.13-.1.16-.13.16-.16.68-.18.9-.18.02,0,.76.04,1.02.04.2,0,.57.23,1.25.69.15.1.28.19.33.21.13.07.23.25.37.51.06.1.14.26.17.29.11.07.13.25.17.92.01.23.03.55.06.67h0s.04.07.04.07c.05.1,0,.24-.12.57-.07.18-.21.54-.18.63.18.17-.08.44-.4.78-.16.16-.45.47-.45.57.05.34-.72,1.24-1.05,1.62-.01.02-.03.06-.05.09h.01s.03.09.03.09c.02.09.05.18-1.05,1.4.07.07.14.15.21.22.03-.03.06-.04.07-.06.08-.12.5-.4,1.17-.84.27-.18.51-.33.63-.42.2-.15.44-.19.65-.22.17-.03.31-.05.4-.12.12-.1.36-.23.62-.37.24-.13.61-.33.67-.41.1-.15.36-.15.68-.14.17,0,.48,0,.53-.05.14-.2.54-.25,1.01-.28.09,0,.17-.01.21-.02.22-.05.66.24.84.37.01,0,.6.47.81.61.16.11.34.51.63,1.26.06.17.13.32.15.37.07.13.05.33.02.63-.01.12-.04.29-.02.34.05.12-.03.28-.38.85-.12.19-.29.48-.33.59h0s0,.09,0,.09c-.02.11-.13.2-.42.39-.16.11-.48.33-.51.42.05.24-.32.32-.78.41-.22.05-.64.13-.69.21-.15.3-1.3.61-1.79.73-.03.01-.06.03-.09.05h0s-.02.1-.02.1c-.03.09-.06.16-1.39.49.05.21.09.43.13.64.27-.06.36-.09.38-.1.14-.08.64-.15,1.45-.25.31-.04.6-.08.74-.1.25-.05.48.02.68.08.16.05.3.09.41.06.15-.04.43-.05.72-.06.28-.01.7-.03.78-.08.16-.09.39.03.67.17.15.07.42.22.5.19.22-.12.6.02,1.04.2.08.03.15.06.19.07.22.06.49.51.59.7,0,.01.33.68.46.91h0c.1.17.08.61,0,1.42-.02.17-.03.34-.03.38,0,.14-.1.32-.27.58-.06.1-.16.25-.17.29-.01.13-.15.24-.71.6-.19.12-.47.3-.56.38h0s-.04.08-.04.08c-.07.09-.21.12-.55.17-.19.03-.58.09-.64.15-.07.24-.43.15-.88.03-.22-.06-.63-.16-.72-.11-.27.21-1.44-.02-1.93-.13-.03,0-.07,0-.11,0h0s-.06.08-.06.08c-.06.06-.16.15-2.31-.36h-.03c-.07.2-.14.41-.22.6.31.09.37.1.38.1h0c.15,0,.62.18,1.36.48.3.12.58.23.72.28.24.08.41.25.55.41.12.12.22.23.33.26.15.04.4.17.66.3.25.13.63.31.72.32.18,0,.32.21.5.47.09.14.27.39.34.41h0c.25,0,.51.31.81.68.06.07.1.13.13.16.16.16.17.68.17.9,0,.02-.04.76-.04,1.02,0,.2-.23.57-.69,1.24-.1.15-.19.28-.21.33-.07.13-.25.23-.52.37-.1.06-.26.14-.29.17-.07.11-.25.13-.92.17-.23.01-.56.03-.67.06h0s-.07.05-.07.05c-.1.05-.24,0-.57-.12-.18-.07-.54-.2-.63-.18-.17.18-.44-.08-.78-.4-.16-.16-.47-.45-.57-.45h0c-.34.04-1.25-.72-1.62-1.05-.02-.01-.06-.03-.1-.05v.02s-.09.03-.09.03c-.08.02-.21.05-1.85-1.46l-.12-.15s-.08.07-.12.1c.39.59.49.72.52.74.12.08.4.5.85,1.17.18.27.33.51.42.62.15.2.19.44.23.65.03.16.05.31.12.4.1.12.23.36.37.62.13.24.34.61.41.67.15.1.15.36.14.68,0,.17,0,.47.05.53.2.14.25.54.28,1.02,0,.09.01.17.02.21.04.22-.24.66-.37.84,0,.01-.47.6-.62.81-.11.16-.52.34-1.28.63-.16.06-.32.12-.36.15-.13.07-.33.05-.63.01-.12-.01-.3-.04-.34-.02-.12.05-.28-.03-.85-.38-.19-.12-.48-.29-.59-.33h0s-.08,0-.08,0c-.11-.02-.2-.14-.4-.42-.11-.16-.33-.48-.42-.51-.24.05-.32-.32-.41-.78-.05-.22-.13-.64-.21-.69-.31-.15-.62-1.3-.73-1.79-.01-.03-.03-.06-.05-.09h-.01s-.09-.02-.09-.02c-.08-.03-.2-.08-.69-2.25,0-.01,0-.05,0-.1-.19.04-.38.08-.58.12.18.87.23,1.02.25,1.04.08.14.14.63.25,1.43.04.32.08.61.11.75.05.25-.02.48-.08.68-.05.16-.09.3-.07.41.04.15.05.43.06.72.01.28.03.7.08.78.09.16-.03.39-.17.67-.08.15-.21.42-.19.5.12.21-.02.59-.2,1.03-.04.09-.06.16-.08.2-.06.22-.51.49-.7.59-.01,0-.69.33-.91.46-.08.05-.23.07-.45.07ZM36.54,56.68c.07,0,.2.01.41.03.34.03,1.12.1,1.25.03.23-.13.89-.45.92-.46.26-.15.53-.34.56-.41.01-.04.05-.13.09-.23.07-.17.27-.67.21-.78-.11-.19.04-.47.19-.76.07-.13.18-.35.17-.41-.07-.12-.09-.42-.11-.89-.01-.27-.02-.54-.05-.66-.04-.19.01-.38.07-.56.05-.18.11-.36.08-.54-.03-.15-.07-.44-.11-.77-.06-.46-.16-1.22-.21-1.33-.02-.04-.07-.12-.3-1.27l-.03-.15.15-.02c.3-.05.59-.11.87-.17l.17-.04v.17c.02.16.03.26.03.26.19.81.42,1.73.53,1.99.01,0,.03,0,.04,0,.14.04.23.23.27.31.18.72.45,1.53.59,1.62.19.09.26.4.36.89.04.19.09.46.14.55.2,0,.38.25.64.63.07.1.16.23.21.29.12,0,.33.11.78.38.21.13.53.32.63.35.1-.03.23-.01.45.02.14.02.4.05.46.02.06-.03.18-.08.39-.16.32-.12,1.05-.41,1.14-.53.15-.22.6-.79.62-.82.17-.25.32-.54.31-.62,0-.05-.01-.13-.02-.24-.01-.18-.05-.72-.16-.8-.18-.12-.17-.44-.17-.77,0-.15,0-.39-.03-.45-.11-.08-.26-.34-.49-.76-.13-.23-.26-.47-.34-.57-.12-.15-.15-.34-.18-.53-.03-.18-.06-.37-.17-.52-.09-.12-.25-.37-.43-.64-.25-.38-.68-1.03-.78-1.1-.04-.03-.1-.07-.66-.93l-.07-.11.1-.08c.11-.09.22-.19.32-.28l.12-.11.29.39c.62.56,1.33,1.18,1.57,1.34.01,0,.02-.01.04-.02.14-.05.32.06.39.1.56.49,1.23.99,1.41.99.21-.03.44.18.81.53.14.13.34.32.43.37.16-.11.45-.01.89.15.11.04.26.1.34.12.1-.07.31-.09.85-.12.25-.01.62-.04.72-.07.06-.08.18-.14.38-.24.13-.07.36-.19.39-.25.03-.06.1-.16.23-.36.19-.28.63-.93.64-1.08,0-.27.04-.99.04-1.02,0-.3-.04-.63-.09-.69-.03-.03-.09-.1-.15-.18-.11-.14-.45-.57-.59-.57-.22,0-.39-.26-.58-.54-.08-.12-.22-.33-.28-.35-.14.01-.41-.13-.83-.34-.24-.12-.48-.24-.61-.28-.19-.05-.32-.2-.46-.33-.13-.13-.26-.27-.44-.33-.15-.05-.42-.16-.74-.28-.42-.17-1.13-.45-1.25-.46h0s-.1,0-.61-.16l-.15-.05.06-.15c.11-.27.21-.55.3-.83l.03-.1h.27s.02,0,.02,0c.84.2,1.77.39,2.05.41,0-.01.02-.02.02-.03.1-.11.31-.11.4-.1.73.16,1.58.27,1.71.18.17-.13.48-.06.96.07.18.05.46.11.56.11.09-.17.39-.23.85-.3.12-.02.28-.04.35-.06.05-.12.25-.25.69-.53.21-.13.52-.33.59-.41.02-.1.09-.21.21-.4.08-.12.22-.34.22-.41,0-.06,0-.2.03-.42.03-.34.1-1.12.03-1.26-.13-.23-.45-.89-.46-.92-.15-.26-.34-.52-.42-.55-.05-.01-.12-.04-.22-.08-.17-.07-.67-.28-.79-.21-.19.1-.47-.04-.77-.19-.13-.07-.34-.18-.42-.17-.12.07-.42.09-.9.11-.27.01-.54.02-.67.05-.19.04-.38-.01-.56-.07-.18-.05-.36-.11-.54-.08-.15.03-.44.06-.76.11-.46.06-1.23.16-1.34.21-.05.03-.15.06-.61.16l-.15.03-.02-.15c-.05-.31-.11-.62-.19-.91l-.04-.14.14-.03c.87-.21,1.19-.32,1.3-.36,0-.01,0-.03,0-.04.04-.14.23-.23.31-.26.72-.18,1.54-.45,1.62-.59.09-.19.4-.26.9-.36.19-.04.46-.09.55-.14,0-.2.25-.38.63-.64.1-.07.23-.16.29-.21,0-.12.1-.31.38-.77.13-.21.32-.53.35-.63-.03-.1-.01-.23.02-.45.02-.14.05-.4.02-.46-.03-.06-.08-.18-.17-.4-.12-.31-.41-1.04-.52-1.13-.22-.15-.79-.6-.82-.62-.25-.17-.56-.32-.62-.32-.05,0-.14.02-.24.02-.18.01-.72.05-.8.16-.12.18-.44.17-.77.17-.15,0-.39,0-.45.03-.08.11-.34.26-.76.49-.24.13-.48.26-.58.34-.15.12-.35.15-.53.18-.18.03-.37.06-.52.17-.12.09-.37.25-.64.43-.38.25-1.03.68-1.1.78-.02.03-.06.07-.24.19l-.11.07-.09-.1c-.12-.14-.25-.27-.39-.41l-.1-.1.09-.1c.74-.82.97-1.12,1.04-1.23,0-.01-.01-.02-.02-.04-.05-.14.06-.32.11-.39.5-.56,1.01-1.24,1-1.4-.03-.21.18-.44.53-.81.13-.14.32-.34.37-.43-.11-.16-.01-.45.15-.89.04-.11.1-.26.12-.34-.08-.1-.1-.34-.13-.85-.01-.25-.04-.62-.07-.72-.08-.06-.14-.18-.24-.38-.07-.13-.19-.36-.25-.39-.06-.03-.17-.1-.36-.23-.28-.19-.93-.63-1.08-.64-.27,0-1-.04-1.03-.04-.3,0-.63.04-.69.09-.03.03-.1.09-.18.15-.14.11-.57.45-.57.58,0,.22-.26.39-.54.58-.12.08-.33.22-.35.28,0,.14-.13.41-.35.83-.12.24-.24.48-.28.6-.05.19-.2.32-.34.46-.13.13-.27.26-.33.44-.05.14-.16.41-.28.72-.17.43-.46,1.15-.47,1.27,0,.01,0,.05-.03.18l-.04.15-.15-.04c-.3-.09-.6-.17-.9-.24l-.14-.03.03-.14c.21-.88.35-1.6.36-1.84-.01,0-.02-.02-.03-.03-.11-.1-.11-.31-.1-.39.16-.73.27-1.57.18-1.71-.13-.17-.06-.48.07-.96.05-.18.12-.45.11-.55-.17-.09-.23-.38-.3-.85-.02-.12-.04-.28-.06-.35-.12-.05-.25-.25-.53-.68-.13-.21-.33-.52-.41-.59-.1-.02-.21-.09-.4-.21-.12-.08-.34-.22-.41-.22-.07,0-.2,0-.42-.03-.34-.03-1.13-.1-1.26-.03-.23.13-.89.45-.92.46-.26.15-.53.34-.55.41-.01.05-.05.12-.08.22-.07.17-.28.67-.21.79.11.19-.04.47-.19.76-.07.13-.18.35-.17.41.07.12.09.42.11.9.01.27.02.54.05.66.04.19-.01.38-.07.56-.05.18-.11.36-.08.54.03.15.07.44.11.77.06.45.16,1.21.21,1.32.02.04.06.13.18.7l.03.14-.14.03c-.37.1-.74.21-1.1.34l-.15.06-.04-.16c-.21-.87-.32-1.19-.36-1.3-.01,0-.03,0-.04,0-.14-.04-.23-.23-.26-.31-.18-.72-.45-1.53-.59-1.62-.19-.09-.26-.4-.36-.89-.04-.19-.09-.46-.14-.54-.2,0-.38-.24-.64-.63-.07-.1-.16-.23-.21-.29-.13.01-.33-.11-.78-.38-.21-.13-.53-.32-.63-.35-.1.03-.23.01-.45-.01-.14-.02-.4-.05-.46-.02-.06.03-.18.08-.39.16-.32.12-1.05.41-1.14.53-.15.22-.6.79-.62.82-.17.25-.32.54-.32.62,0,.05.02.13.02.24.01.18.05.72.16.8.18.12.17.44.17.77,0,.15,0,.39.03.45.11.08.26.34.49.76.13.23.26.48.34.57.12.15.15.34.18.53.03.18.06.37.17.52.09.12.25.37.44.64.25.38.68,1.02.78,1.1.04.03.09.06.52.72l.06.09-.08.08c-.1.11-.2.23-.29.34l-.12.14-.2-.27c-.61-.56-1.33-1.18-1.57-1.33-.01,0-.02.01-.04.02-.14.05-.32-.06-.39-.1-.55-.49-1.24-.99-1.4-.99h0c-.2.03-.44-.18-.81-.53-.14-.13-.34-.32-.43-.37-.16.11-.45.01-.89-.15-.11-.04-.26-.1-.34-.12-.1.07-.31.09-.85.12-.25.01-.62.04-.72.07-.06.07-.18.14-.38.24-.13.07-.36.19-.39.25-.03.06-.1.17-.23.36-.19.28-.63.93-.64,1.08,0,.27-.04.99-.04,1.02,0,.3.04.63.09.69.03.03.09.1.15.18.11.14.45.57.58.57.22,0,.39.26.58.53.08.12.22.33.28.35h0c.14,0,.41.13.83.34.24.12.49.24.61.28.19.05.32.2.46.34.13.13.26.27.44.33.15.05.42.16.74.28.42.17,1.13.45,1.26.46h0s.14,0,1.17.33l.13.04-.03.13c-.05.21-.1.42-.14.63l-.02.11h-.12c-.51.02-.87.04-.87.04h-.02s-.02,0-.02,0c-.84-.2-1.77-.39-2.05-.41,0,.01-.02.02-.02.03-.1.11-.31.11-.4.1-.73-.16-1.58-.27-1.71-.18-.17.13-.47.06-.96-.07-.18-.05-.46-.13-.56-.11-.09.17-.39.23-.85.3-.12.02-.28.04-.35.06-.05.11-.23.24-.69.53-.21.13-.52.33-.59.41-.02.1-.09.21-.21.4-.08.12-.22.34-.22.41,0,.06,0,.2-.03.43-.03.33-.1,1.12-.03,1.25.13.23.45.89.46.91.15.26.34.53.42.55.05.01.13.05.22.09.17.07.67.28.79.21.19-.1.47.04.77.19.13.07.35.18.42.17.12-.07.42-.09.89-.11.27-.01.55-.02.67-.05.19-.04.38.01.56.07.18.05.36.11.54.08.15-.03.44-.06.76-.11.46-.06,1.23-.16,1.35-.21.04-.02.15-.08,1.89-.43l.13-.03.03.13c.04.14.08.28.12.42l.05.17h-.18c-.21.03-.33.04-.33.04-.81.18-1.74.42-1.99.53,0,.01,0,.03,0,.04-.04.14-.23.23-.31.26-.72.18-1.53.45-1.62.59-.09.19-.4.26-.9.36-.19.04-.46.09-.55.14,0,.2-.25.38-.63.64-.1.07-.23.16-.29.21,0,.13-.11.33-.38.77-.13.21-.32.53-.35.63.03.09.01.23-.01.45-.02.14-.05.4-.02.46.03.06.08.18.17.4.12.31.4,1.04.52,1.13.22.15.79.6.82.62.25.17.54.31.62.32.05,0,.14-.02.24-.02.18-.01.72-.05.8-.15.12-.18.44-.17.77-.17.15,0,.39,0,.45-.03.08-.11.34-.26.75-.49.24-.13.48-.26.58-.34.15-.12.35-.15.54-.18.18-.03.37-.06.52-.17.12-.09.37-.25.64-.44.38-.25,1.03-.68,1.1-.78.04-.06.16-.16,1.24-.86l.1-.07.08.09c.09.1.19.2.29.3l.12.12-.14.1c-.33.23-.57.42-.57.42-.56.61-1.19,1.33-1.34,1.57,0,.01.01.02.02.04.05.14-.06.32-.11.39-.49.56-1,1.24-1,1.4.03.21-.18.44-.53.81-.13.14-.32.34-.37.43.11.16.01.45-.15.89-.04.11-.1.26-.12.34.08.1.1.34.13.85.01.25.04.62.07.71.08.06.14.18.24.38.07.13.19.36.25.39.06.03.17.1.36.23.28.19.93.63,1.08.63.27,0,1,.04,1.03.04.3,0,.63-.04.69-.09.03-.03.1-.09.19-.15.14-.11.57-.45.57-.58,0-.21.26-.39.54-.58.12-.08.33-.22.35-.28,0-.14.13-.4.34-.83.12-.24.24-.48.28-.61.05-.18.2-.32.33-.45.13-.13.27-.26.33-.44.05-.14.16-.41.28-.71.17-.43.46-1.15.47-1.27,0-.04,0-.13.33-1.17l.05-.15.14.05c.21.08.42.15.63.22l.1.03v.1c.02.46.03.79.03.79v.02s0,.02,0,.02c-.2.83-.39,1.76-.41,2.04.01,0,.02.02.03.03.11.1.11.31.1.4-.16.73-.27,1.57-.18,1.71.13.17.06.48-.07.96-.05.18-.12.45-.11.55.17.09.23.39.3.85.02.12.04.28.06.35.12.05.25.25.53.68.13.21.33.52.41.59.1.02.21.09.4.21.12.08.34.22.41.22,0,0,.01,0,.02,0ZM43.56,54h0s0,0,0,0ZM34.37,53.76s0,0,0,0c0,0,0,0,0,0ZM26.16,50.87s0,0,0,0c0,0,0,0,0,0ZM51.59,48.78s0,0,0,0c0,0,0,0,0,0ZM50.38,48.46h0s0,0,0,0ZM21.88,42.06s0,0,0,0c0,0,0,0,0,0ZM55.69,40.29h0ZM19.47,34.57s0,0,0,0c0,0,0,0,0,0ZM50.1,33.72s0,0,0,0c0,0,0,0,0,0ZM54.39,31.42s0,0,0,0c0,0,0,0,0,0ZM23.58,26.09s0,0,0,0c0,0,0,0,0,0ZM48.84,24.62h0s0,0,0,0ZM49.16,23.42s0,0,0,0c0,0,0,0,0,0Z"/>
  <path class="st0" d="M74.98,74.98H-.08v-.14S0,.02,0,.02h.14s74.83.08,74.83.08v74.88ZM.21,74.69h74.48V.39L.29.31l-.08,74.38ZM37.62,72.84L2.06,37.37,37.62,1.89l35.56,35.47-35.56,35.48ZM2.47,37.37l35.15,35.07,35.15-35.07L37.62,2.3,2.47,37.37ZM70.09,70.1h-20.91l20.91-20.86v20.86ZM49.88,69.81h19.92v-19.87l-19.92,19.87ZM26.06,70.1H4.81v-21.2l21.25,21.2ZM5.1,69.81h20.26L5.1,49.6v20.21ZM4.81,25.84V4.98h20.91L4.81,25.84ZM5.1,5.27v19.87L25.01,5.27H5.1ZM70.09,25.49L49.53,4.98h20.56v20.51ZM50.23,5.27l19.57,19.52V5.27h-19.57Z"/>
</svg>