<svg xmlns="http://www.w3.org/2000/svg" width="147.846" height="103.665" viewBox="0 0 147.846 103.665">
  <g id="wallpaper-2" transform="translate(0 0)">
    <g id="wallpaper-2-2" data-name="wallpaper-2">
      <path id="Path_13264" data-name="Path 13264" d="M1.232,103.664a1.29,1.29,0,0,1-1.087-.371,1.089,1.089,0,0,1-.033-1.044,3.277,3.277,0,0,1,1.661-1.674,3.559,3.559,0,0,1,1.744-.184L26.976,84.25c-.053-.1-.1-.2-.155-.308-.075-.155-.15-.307-.232-.446-.133-.223-.775-1.924-.581-2.239.278-.451.726-.243,1.021-.105l.107.049a2.48,2.48,0,0,0,2.011.223,1.612,1.612,0,0,0,.786-.436.6.6,0,0,0,.086-.154.548.548,0,0,1,.255-.311.573.573,0,0,1,.394-.009.394.394,0,0,0,.153.019,1.488,1.488,0,0,0,.66-.519.351.351,0,0,1-.152-.269c0-.2.21-.334.38-.439a.949.949,0,0,0,.152-.106,2,2,0,0,0,.277-.967l.011-.094a5.008,5.008,0,0,1,.793-2.31c.108-.162.238-.349.386-.555L3.524,54.9a3.55,3.55,0,0,1-1.746-.183A3.276,3.276,0,0,1,.115,53.043c-.189-.532-.14-.921.144-1.158a1.263,1.263,0,0,1,.06-.875,3.278,3.278,0,0,1,1.662-1.674,3.558,3.558,0,0,1,1.746-.183L33.534,28.778c-.148-.205-.279-.393-.387-.555a5.017,5.017,0,0,1-.793-2.309l-.011-.1a1.967,1.967,0,0,0-.277-.963.9.9,0,0,0-.152-.106c-.17-.106-.382-.237-.38-.439a.353.353,0,0,1,.152-.269,1.492,1.492,0,0,0-.66-.519.4.4,0,0,0-.152.02.561.561,0,0,1-.395-.009.546.546,0,0,1-.255-.311.557.557,0,0,0-.086-.154,1.637,1.637,0,0,0-.786-.437,2.489,2.489,0,0,0-2.011.224l-.107.049c-.3.138-.742.346-1.021-.106-.194-.315.448-2.016.581-2.239.082-.138.156-.29.231-.443.051-.1.1-.208.156-.311L3.722,3.66a3.552,3.552,0,0,1-1.744-.184A3.276,3.276,0,0,1,.316,1.8,1.091,1.091,0,0,1,.35.758C.564.473,1.006.355,1.691.4A3.536,3.536,0,0,1,3.976,1.534a1.982,1.982,0,0,1,.541,1.358L27.784,18.9a4.744,4.744,0,0,1,.513-.537c.124-.117.246-.232.354-.352.173-.194,1.605-1.315,1.965-1.22.513.131.448.619.4.942l-.015.117a2.482,2.482,0,0,0,.384,1.987,1.635,1.635,0,0,0,.651.621.56.56,0,0,0,.173.036.544.544,0,0,1,.372.152.567.567,0,0,1,.126.373.418.418,0,0,0,.027.152,1.491,1.491,0,0,0,.692.476.35.35,0,0,1,.212-.225c.19-.063.381.1.532.232a.92.92,0,0,0,.147.114,2,2,0,0,0,1.005-.023l.094-.018a5.019,5.019,0,0,1,2.441.071c.828.243,2.186.743,3.2,1.129L69.872,3.236a1.984,1.984,0,0,1,.542-1.355A3.537,3.537,0,0,1,72.7.744a1.922,1.922,0,0,1,1.154.192A2.4,2.4,0,0,1,74.8.846a3.534,3.534,0,0,1,2.284,1.136,1.986,1.986,0,0,1,.543,1.355l28.806,19.691c1.017-.386,2.375-.886,3.2-1.129a5.009,5.009,0,0,1,2.442-.071l.1.018a1.964,1.964,0,0,0,1,.023.92.92,0,0,0,.147-.114c.151-.131.34-.3.532-.232a.35.35,0,0,1,.212.225,1.494,1.494,0,0,0,.692-.476.414.414,0,0,0,.026-.151.572.572,0,0,1,.126-.374.548.548,0,0,1,.372-.151.583.583,0,0,0,.173-.037,1.611,1.611,0,0,0,.651-.621,2.478,2.478,0,0,0,.385-1.986l-.015-.117c-.044-.323-.109-.812.4-.943.355-.1,1.792,1.027,1.965,1.22.108.119.231.235.354.352a4.842,4.842,0,0,1,.513.538L143.539,2.609a1.922,1.922,0,0,1,.48-1.4,3.545,3.545,0,0,1,2.341-1.2c.687-.043,1.126.077,1.341.363a1.09,1.09,0,0,1,.033,1.043,3.282,3.282,0,0,1-1.662,1.674,3.555,3.555,0,0,1-1.64.2l.011.016-.109.076L120.317,19.9c.054.1.105.206.155.31.075.154.149.306.231.444.133.223.775,1.924.582,2.239-.279.451-.725.243-1.02.106l-.108-.05a2.484,2.484,0,0,0-2.012-.223,1.625,1.625,0,0,0-.785.437.568.568,0,0,0-.087.154.547.547,0,0,1-.255.31.565.565,0,0,1-.394.009.4.4,0,0,0-.153-.019,1.493,1.493,0,0,0-.66.518.353.353,0,0,1,.152.27c0,.2-.21.333-.38.439a.893.893,0,0,0-.152.106,1.971,1.971,0,0,0-.277.966l-.012.1a5,5,0,0,1-.793,2.309c-.107.162-.238.35-.387.555l29.3,20.029a3.568,3.568,0,0,1,1.664.2,3.278,3.278,0,0,1,1.662,1.674,1.148,1.148,0,0,1,.007.981.732.732,0,0,1,.328.324,1.191,1.191,0,0,1-.034.934,3.274,3.274,0,0,1-1.662,1.674,3.6,3.6,0,0,1-1.475.216L113.965,75.274c.148.206.278.393.386.555a5.009,5.009,0,0,1,.793,2.31l.012.1a1.969,1.969,0,0,0,.277.965.924.924,0,0,0,.152.106c.17.106.382.237.38.439a.351.351,0,0,1-.152.269,1.492,1.492,0,0,0,.66.519.419.419,0,0,0,.153-.019.574.574,0,0,1,.394.009.548.548,0,0,1,.255.311.584.584,0,0,0,.087.154,1.608,1.608,0,0,0,.785.436,2.481,2.481,0,0,0,2.012-.223l.106-.049c.3-.138.742-.346,1.021.105.193.315-.449,2.016-.582,2.239-.082.138-.156.29-.231.444-.051.1-.1.208-.156.31l23.533,16.191a3.343,3.343,0,0,1,2.018.116,3.283,3.283,0,0,1,1.662,1.674,1.091,1.091,0,0,1-.033,1.044c-.215.286-.655.4-1.342.363-1.074-.065-2.643-.941-2.813-2.228L119.714,85.153a4.8,4.8,0,0,1-.514.538c-.124.117-.246.232-.354.351-.173.193-1.61,1.309-1.965,1.221-.513-.131-.447-.62-.4-.943l.015-.117a2.479,2.479,0,0,0-.385-1.987,1.6,1.6,0,0,0-.651-.62.567.567,0,0,0-.173-.037.545.545,0,0,1-.372-.151.571.571,0,0,1-.126-.374.4.4,0,0,0-.027-.152,1.484,1.484,0,0,0-.691-.476.353.353,0,0,1-.212.225c-.193.062-.381-.1-.532-.232a.92.92,0,0,0-.147-.114,1.964,1.964,0,0,0-1,.022l-.1.018a5.023,5.023,0,0,1-2.442-.07c-.826-.243-2.185-.743-3.2-1.129L77.627,100.817a1.982,1.982,0,0,1-.543,1.355,3.533,3.533,0,0,1-2.284,1.137,1.92,1.92,0,0,1-1.153-.192,1.916,1.916,0,0,1-1.153.192,3.536,3.536,0,0,1-2.284-1.137,1.984,1.984,0,0,1-.543-1.355L40.861,81.126c-1.019.387-2.379.887-3.2,1.129a5.009,5.009,0,0,1-2.441.07l-.1-.018a1.962,1.962,0,0,0-1-.022.946.946,0,0,0-.146.114c-.151.131-.338.3-.532.232a.353.353,0,0,1-.212-.225,1.487,1.487,0,0,0-.691.476.405.405,0,0,0-.027.152.57.57,0,0,1-.126.374.545.545,0,0,1-.372.151.58.58,0,0,0-.173.037,1.608,1.608,0,0,0-.651.621A2.484,2.484,0,0,0,30.8,86.2l.015.117c.044.323.109.811-.4.942-.356.092-1.792-1.027-1.965-1.221-.107-.119-.229-.234-.352-.35a4.817,4.817,0,0,1-.515-.539L4.313,101.161a1.982,1.982,0,0,1-.541,1.356,3.533,3.533,0,0,1-2.286,1.139c-.089.006-.173.008-.254.008m1.794-3.047a3.259,3.259,0,0,0-1.151.2,3.03,3.03,0,0,0-1.513,1.517.86.86,0,0,0-.005.794c.155.205.528.291,1.112.257a3.3,3.3,0,0,0,2.1-1.049,1.7,1.7,0,0,0,.472-1.239l-.005-.076L27.647,84.782l.075.112a3.816,3.816,0,0,0,.556.6c.129.122.256.242.367.366A6.57,6.57,0,0,0,30.35,87h0c.249-.064.252-.255.2-.647l-.016-.123a2.753,2.753,0,0,1,.428-2.164,1.926,1.926,0,0,1,.761-.715.786.786,0,0,1,.255-.06c.1-.011.162-.02.207-.069a.356.356,0,0,0,.054-.211.57.57,0,0,1,.069-.276,1.7,1.7,0,0,1,.987-.621l.119-.017.028.118c.029.12.064.156.074.159.043.015.214-.126.276-.18a.886.886,0,0,1,.22-.159,2.181,2.181,0,0,1,1.153.007l.1.018A4.767,4.767,0,0,0,37.581,82c.835-.245,2.228-.759,3.249-1.147l.066-.025,29.045,19.854-.005.076A1.7,1.7,0,0,0,70.41,102a3.3,3.3,0,0,0,2.1,1.047,1.523,1.523,0,0,0,1.048-.192l.087-.077.088.077a1.534,1.534,0,0,0,1.049.192,3.3,3.3,0,0,0,2.1-1.047,1.7,1.7,0,0,0,.473-1.238l-.005-.076.063-.043L106.4,80.828l.065.025c1.021.388,2.413.9,3.249,1.147a4.765,4.765,0,0,0,2.319.064l.095-.018a2.148,2.148,0,0,1,1.153-.007.909.909,0,0,1,.221.159c.062.053.222.2.276.18.01,0,.045-.039.074-.159l.029-.118.119.017a1.7,1.7,0,0,1,.987.621.576.576,0,0,1,.068.276.355.355,0,0,0,.055.211c.046.049.106.057.207.068a.792.792,0,0,1,.255.06,1.931,1.931,0,0,1,.761.715,2.752,2.752,0,0,1,.427,2.164l-.016.122c-.052.391-.05.583.206.648h0a6.688,6.688,0,0,0,1.7-1.14c.111-.124.239-.245.368-.367a3.778,3.778,0,0,0,.555-.6l.076-.112,23.947,16.477.006.061c.111,1.164,1.6,1.992,2.571,2.05.581.035.958-.051,1.112-.256a.859.859,0,0,0-.005-.8,2.788,2.788,0,0,0-3.4-1.6l-.066.026L119.967,84.333l.06-.107c.075-.13.141-.268.208-.4.077-.16.155-.319.242-.463a6.521,6.521,0,0,0,.579-1.969c-.135-.218-.319-.164-.677,0l-.111.051a2.756,2.756,0,0,1-2.194.236,1.936,1.936,0,0,1-.909-.513.789.789,0,0,1-.133-.227c-.041-.094-.068-.148-.128-.178a.354.354,0,0,0-.216.011.568.568,0,0,1-.285.016,1.7,1.7,0,0,1-.886-.758l-.052-.109.1-.062c.106-.063.13-.108.13-.118,0-.052-.184-.167-.254-.21a.9.9,0,0,1-.217-.163,2.188,2.188,0,0,1-.336-1.1l-.011-.1a4.761,4.761,0,0,0-.75-2.194c-.125-.188-.282-.411-.461-.657l-.079-.111.113-.077,29.982-20.494.048,0a3.326,3.326,0,0,0,1.4-.193,3.026,3.026,0,0,0,1.513-1.517.968.968,0,0,0,.046-.727.539.539,0,0,0-.345-.26l-.217-.069.167-.155c.177-.165.192-.443.047-.849a3.023,3.023,0,0,0-1.512-1.517,3.291,3.291,0,0,0-1.572-.172l-.053.009-.045-.03-29.57-20.213.081-.111c.179-.246.335-.469.461-.657a4.755,4.755,0,0,0,.75-2.194l.011-.095a2.149,2.149,0,0,1,.336-1.1.913.913,0,0,1,.217-.163c.07-.043.255-.158.254-.21,0-.01-.025-.054-.13-.118l-.1-.062.052-.11a1.7,1.7,0,0,1,.886-.757.58.58,0,0,1,.285.017.36.36,0,0,0,.217.011c.06-.029.086-.084.127-.178a.78.78,0,0,1,.133-.226,1.882,1.882,0,0,1,.909-.513,2.756,2.756,0,0,1,2.194.236l.113.051c.357.166.54.22.679,0a6.68,6.68,0,0,0-.582-1.963c-.086-.145-.164-.3-.243-.464-.066-.135-.132-.272-.207-.4l-.06-.106.1-.069,24-16.517-.267-.388.367.114a3.089,3.089,0,0,0,1.8-.119,3.031,3.031,0,0,0,1.513-1.517.858.858,0,0,0,.005-.794c-.155-.206-.531-.292-1.112-.257a3.26,3.26,0,0,0-2.152,1.107,1.645,1.645,0,0,0-.412,1.274l.011.082L119.647,19.372l-.076-.112a3.838,3.838,0,0,0-.554-.6c-.13-.122-.258-.243-.369-.368a6.6,6.6,0,0,0-1.705-1.139h0c-.249.065-.252.256-.2.648l.015.122a2.753,2.753,0,0,1-.427,2.165,1.938,1.938,0,0,1-.761.715.785.785,0,0,1-.255.06.312.312,0,0,0-.208.069.361.361,0,0,0-.054.211.575.575,0,0,1-.068.277,1.7,1.7,0,0,1-.987.621l-.119.017-.029-.118c-.029-.121-.064-.156-.074-.159-.052-.022-.214.126-.276.18a.924.924,0,0,1-.221.159,2.159,2.159,0,0,1-1.153-.007l-.095-.018a4.765,4.765,0,0,0-2.319.063c-.839.246-2.23.76-3.249,1.148l-.065.025L77.352,3.473l0-.076a1.7,1.7,0,0,0-.474-1.239,3.3,3.3,0,0,0-2.1-1.046,2.025,2.025,0,0,0-.9.1l-.075.033-.063-.051a1.571,1.571,0,0,0-1.035-.181,3.3,3.3,0,0,0-2.1,1.047A1.7,1.7,0,0,0,70.141,3.3l0,.076-.062.043L41.1,23.225l-.065-.025c-1.02-.388-2.413-.9-3.249-1.148a4.762,4.762,0,0,0-2.318-.063l-.093.017a2.2,2.2,0,0,1-1.156.008.908.908,0,0,1-.22-.159c-.062-.053-.224-.2-.276-.18-.01,0-.045.039-.074.159l-.028.118-.12-.017a1.7,1.7,0,0,1-.987-.621.572.572,0,0,1-.069-.277.357.357,0,0,0-.054-.21c-.046-.049-.106-.058-.207-.069a.791.791,0,0,1-.255-.06,1.934,1.934,0,0,1-.761-.715,2.724,2.724,0,0,1-.427-2.165l.015-.122c.053-.391.05-.583-.206-.648h0a6.719,6.719,0,0,0-1.7,1.14c-.113.125-.24.246-.37.368a3.814,3.814,0,0,0-.554.6l-.075.111L4.243,3.026l.005-.076a1.7,1.7,0,0,0-.472-1.24A3.3,3.3,0,0,0,1.674.662C1.092.626.717.713.562.919a.859.859,0,0,0,.006.794A3.025,3.025,0,0,0,2.08,3.231a3.209,3.209,0,0,0,1.644.158l.056-.011.046.032L27.533,19.72l-.06.106c-.074.131-.141.268-.207.4-.078.16-.156.318-.242.462a6.512,6.512,0,0,0-.58,1.969c.135.219.319.165.678,0l.111-.051a2.758,2.758,0,0,1,2.194-.236,1.94,1.94,0,0,1,.909.514.8.8,0,0,1,.133.226c.042.094.068.148.128.178a.351.351,0,0,0,.217-.011.591.591,0,0,1,.284-.017,1.7,1.7,0,0,1,.886.758l.052.109-.1.062c-.106.063-.131.107-.131.118,0,.052.185.167.254.21a.889.889,0,0,1,.217.163,2.14,2.14,0,0,1,.336,1.1l.012.1a4.763,4.763,0,0,0,.75,2.194c.126.188.282.412.461.657l.081.111-.113.077L3.786,49.435l-.055-.011a3.267,3.267,0,0,0-1.646.158A3.027,3.027,0,0,0,.571,51.1a.915.915,0,0,0-.029.76l.069.114L.5,52.041c-.092.057-.374.228-.131.912a3.026,3.026,0,0,0,1.513,1.517,3.211,3.211,0,0,0,1.647.158l.055-.012.047.032L33.706,75.209l-.081.111c-.179.246-.335.469-.46.657a4.772,4.772,0,0,0-.751,2.194l-.011.093a2.181,2.181,0,0,1-.336,1.106.9.9,0,0,1-.216.163c-.07.043-.255.158-.254.21,0,.01.025.054.131.118l.1.062-.052.109a1.7,1.7,0,0,1-.886.758.574.574,0,0,1-.285-.016.364.364,0,0,0-.217-.011c-.06.029-.086.084-.128.178a.8.8,0,0,1-.133.226,1.931,1.931,0,0,1-.909.513,2.753,2.753,0,0,1-2.194-.235l-.111-.051c-.359-.167-.543-.221-.681,0a6.638,6.638,0,0,0,.583,1.962c.086.145.164.3.243.465.066.135.133.271.206.4l.06.107-.1.069L3.576,100.675l-.056-.011a2.472,2.472,0,0,0-.494-.046m70.62,1.408-.119-.234a3.1,3.1,0,0,0-1.424-1.318,3.226,3.226,0,0,0-1.647-.158l-.055.012-.047-.032L41.523,80.587l.236-.092c1.036-.4,2.028-.8,2.412-.974l.082-.036.064.061a.2.2,0,0,0,.033.028c.05.018.138.044.184.057l.415-.089.135.072.344.015-.132.188.14.013.014-.016a1.107,1.107,0,0,1,.222-.19l.084-.074a.477.477,0,0,1,.043-.093.126.126,0,0,0,.018-.049.329.329,0,0,1,.06-.143,2.46,2.46,0,0,1,.247-.253l.038-.025a.845.845,0,0,1,.237-.07l.045-.026.079-.045c.02-.011.024-.017.039-.05a.354.354,0,0,1,.062-.1.9.9,0,0,0,.1-.127.22.22,0,0,1,.133-.1l.062-.075a.261.261,0,0,1,.2-.113l.035.006a.285.285,0,0,0,.1.014.394.394,0,0,1,.083-.083.108.108,0,0,0,.051-.061c.008-.016.016-.035.028-.057.041-.074.095-.185.095-.186l.028-.056.188-.046A1.378,1.378,0,0,1,48,77.762a.543.543,0,0,0,.168-.1,1.068,1.068,0,0,1,.381-.246.389.389,0,0,1,.279-.017l.269.062c.075-.028.239-.091.284-.112a.242.242,0,0,1,.166-.019.25.25,0,0,0,.051.006.916.916,0,0,1,.256.065,1.666,1.666,0,0,0,.176-.106,1.575,1.575,0,0,1,.194-.114c.052-.027.107-.056.153-.085a.538.538,0,0,1,.267-.086,1.239,1.239,0,0,1,.181-.032,1.538,1.538,0,0,0,.331-.215.636.636,0,0,0,.071-.071.884.884,0,0,1,.161-.145.353.353,0,0,1,.238-.042.227.227,0,0,0,.062,0A.759.759,0,0,0,52.3,76a3.539,3.539,0,0,0,.086-.4l.01-.057c.014-.081.025-.46.029-.679-.018-.227-.056-.7-.068-.794-.008-.064-.018-.127-.027-.19a4.385,4.385,0,0,1-.055-.51,2.936,2.936,0,0,1,.037-.484,3.11,3.11,0,0,0,.035-.39,2.937,2.937,0,0,0-.043-.648c-.015-.068-.034-.136-.053-.2a2.457,2.457,0,0,1-.092-.425.876.876,0,0,0-.255-.51.841.841,0,0,0-.43-.277.7.7,0,0,0-.259,0,1.612,1.612,0,0,1-.207.015.759.759,0,0,1-.269-.067.554.554,0,0,0-.158-.046c-.138-.007-.331-.26-.328-.363a.375.375,0,0,1,.08-.206.248.248,0,0,1,.008-.063.583.583,0,0,1-.046-.079.623.623,0,0,1-.084-.261c0-.013,0-.025-.037-.059l-.1-.113.116-.1L71.163,54.65h.043a3.317,3.317,0,0,0,1.2-.2,3.183,3.183,0,0,0,1.28-1.075l.11-.162.11.163a3.186,3.186,0,0,0,1.283,1.079,3.148,3.148,0,0,0,.9.194l.036,0,.029.02L97.186,69.138l-.106.145a.218.218,0,0,0-.039.045.746.746,0,0,1-.126.35h0a.351.351,0,0,1,.007.063.368.368,0,0,1,.08.207c0,.1-.191.355-.328.362a.549.549,0,0,0-.158.045.748.748,0,0,1-.269.067,1.483,1.483,0,0,1-.208-.015.734.734,0,0,0-.26,0,.838.838,0,0,0-.429.278.873.873,0,0,0-.255.509,2.413,2.413,0,0,1-.092.425c-.019.068-.038.137-.053.205a2.751,2.751,0,0,0-.043.616,3.113,3.113,0,0,0,.035.421,2.89,2.89,0,0,1,.037.485,4.616,4.616,0,0,1-.054.508c-.01.063-.019.127-.028.191-.015.117-.069.807-.069.807,0,.207.016.585.03.667l.01.057a3.283,3.283,0,0,0,.086.4.756.756,0,0,0,.6.512.233.233,0,0,0,.063,0,.347.347,0,0,1,.236.041.883.883,0,0,1,.162.146.83.83,0,0,0,.072.072,1.46,1.46,0,0,0,.334.215,1.288,1.288,0,0,1,.178.031.548.548,0,0,1,.269.088c.045.028.1.056.151.083a1.567,1.567,0,0,1,.194.114,1.818,1.818,0,0,0,.176.106.916.916,0,0,1,.256-.065.308.308,0,0,0,.052-.006.237.237,0,0,1,.165.019c.046.021.21.084.285.112l.269-.063a.4.4,0,0,1,.279.018,1.021,1.021,0,0,1,.363.23.569.569,0,0,0,.188.114,1.407,1.407,0,0,1,.28.052l.184.044.027.056s.054.112.095.185c.012.023.021.041.028.057a.107.107,0,0,0,.05.06.8.8,0,0,1,.08.071.165.165,0,0,0,.1,0l.036-.006a.3.3,0,0,1,.2.113l.051.058a.314.314,0,0,1,.142.119.926.926,0,0,0,.1.127.322.322,0,0,1,.062.1c.015.033.019.039.039.05l.079.044a.4.4,0,0,0,.051.027.843.843,0,0,1,.231.069l.039.025a2.51,2.51,0,0,1,.246.252.342.342,0,0,1,.062.145.114.114,0,0,0,.017.048.441.441,0,0,1,.044.093l.084.074a1.116,1.116,0,0,1,.222.19l.015.017.139-.013-.132-.188.345-.014.135-.072.414.089c.047-.013.137-.039.188-.059a.279.279,0,0,0,.031-.027l.065-.061.082.037c.29.132,1.226.516,2.455.993l.235.092L76.892,100.328l-.055-.012a3.232,3.232,0,0,0-1.647.158,3.094,3.094,0,0,0-1.423,1.318ZM70.947,100a3.571,3.571,0,0,1,1.259.223,3.434,3.434,0,0,1,1.441,1.238,3.434,3.434,0,0,1,1.442-1.238,3.543,3.543,0,0,1,1.746-.183L105.2,80.652c-.929-.363-1.787-.711-2.158-.873A.248.248,0,0,1,103,79.8c-.083.031-.246.075-.246.075l-.03.009-.383-.082-.038.02a.57.57,0,0,1,.021.3l-.045.394-.129-.216a.223.223,0,0,1-.04.065l-.058.063-.175-.046-.017-.1a.311.311,0,0,1-.108-.1c-.031-.041-.047-.067-.063-.092a.789.789,0,0,0-.089-.119.894.894,0,0,0-.174-.147l-.066-.047a.3.3,0,0,1-.117-.155.2.2,0,0,0-.021-.046.373.373,0,0,1-.05-.134.074.074,0,0,0-.015-.04,2.224,2.224,0,0,0-.193-.2.93.93,0,0,0-.124-.042.331.331,0,0,1-.167-.062l-.07-.038a.338.338,0,0,1-.157-.175c-.065-.081-.1-.127-.144-.186,0,0,0,0,0,0a.272.272,0,0,1-.125-.093l-.045-.051-.017-.018a.671.671,0,0,1-.125.011.253.253,0,0,1-.181-.091.428.428,0,0,0-.051-.046.358.358,0,0,1-.132-.162l-.02-.041c-.023-.043-.051-.1-.071-.139l-.068-.016a1.219,1.219,0,0,0-.215-.043.681.681,0,0,1-.34-.161.865.865,0,0,0-.289-.2c-.086-.028-.089-.027-.125-.016l-.363.084-.037-.014s-.279-.105-.342-.134a.419.419,0,0,1-.1.012.888.888,0,0,0-.216.068l-.059.025-.056-.029a2.551,2.551,0,0,1-.271-.161A1.208,1.208,0,0,0,96.9,77.4c-.057-.03-.116-.061-.167-.093a.265.265,0,0,0-.14-.047h-.02l-.021,0a.923.923,0,0,0-.154-.028c-.037,0-.134-.014-.467-.269a.9.9,0,0,1-.1-.1.663.663,0,0,0-.11-.1c-.01-.006-.023-.006-.066,0a.484.484,0,0,1-.139,0,1.017,1.017,0,0,1-.8-.665,2.672,2.672,0,0,1-.105-.466l-.01-.056c-.023-.129-.032-.661-.034-.721,0-.041.055-.713.07-.833.009-.065.019-.13.028-.195a3.979,3.979,0,0,0,.052-.478,2.621,2.621,0,0,0-.034-.441,3.219,3.219,0,0,1-.038-.424,3.146,3.146,0,0,1,.049-.707c.017-.073.038-.146.058-.218a2.253,2.253,0,0,0,.083-.379,1.14,1.14,0,0,1,.32-.659,1.115,1.115,0,0,1,.566-.361.956.956,0,0,1,.356,0,1.475,1.475,0,0,0,.171.013.507.507,0,0,0,.176-.048.834.834,0,0,1,.217-.062.629.629,0,0,0,.094-.111.069.069,0,0,0-.012-.022.185.185,0,0,1-.062-.16.239.239,0,0,1,.039-.224.526.526,0,0,0,.028-.048.408.408,0,0,0,.055-.146.277.277,0,0,1,.029-.134L76.038,54.909A2.927,2.927,0,0,1,73.8,53.674a3.392,3.392,0,0,1-1.288,1.019,3.577,3.577,0,0,1-1.259.223h0l-20.8,14.31a.241.241,0,0,1,.025.113.355.355,0,0,0,.054.159.514.514,0,0,0,.029.049.221.221,0,0,1,.039.211.2.2,0,0,1-.062.172.1.1,0,0,0-.012.023.625.625,0,0,0,.094.111.818.818,0,0,1,.216.061.528.528,0,0,0,.176.049,1.138,1.138,0,0,0,.171-.014.964.964,0,0,1,.356,0,1.118,1.118,0,0,1,.567.361,1.141,1.141,0,0,1,.319.66,2.214,2.214,0,0,0,.084.38c.02.072.04.145.057.217a3.005,3.005,0,0,1,.049.676,3.344,3.344,0,0,1-.037.455,2.616,2.616,0,0,0-.035.44,4.2,4.2,0,0,0,.052.479c.01.065.019.13.028.195.016.12.068.792.07.821,0,.073-.01.605-.033.734l-.01.056a2.844,2.844,0,0,1-.1.464,1.018,1.018,0,0,1-.8.668.5.5,0,0,1-.138,0c-.044,0-.057,0-.068,0a.658.658,0,0,0-.108.1.992.992,0,0,1-.1.1c-.333.256-.43.266-.467.27a1,1,0,0,0-.155.028l-.021.006-.022,0a.283.283,0,0,0-.136.046c-.054.033-.114.065-.17.094a1.189,1.189,0,0,0-.154.088,2.436,2.436,0,0,1-.271.162l-.056.029-.059-.026a.89.89,0,0,0-.217-.068.556.556,0,0,1-.1-.011c-.063.028-.342.133-.342.133l-.038.014-.363-.084c-.035-.011-.039-.011-.124.015a.779.779,0,0,0-.266.175.712.712,0,0,1-.362.182,1.191,1.191,0,0,0-.213.042l-.071.018c-.021.041-.049.1-.073.139l-.02.041a.36.36,0,0,1-.133.163.487.487,0,0,0-.05.045.254.254,0,0,1-.182.091.556.556,0,0,1-.125-.011l-.017.017-.045.051a.273.273,0,0,1-.119.093h0a1.226,1.226,0,0,1-.135.164.372.372,0,0,1-.17.2l-.069.039a.342.342,0,0,1-.173.062,1.038,1.038,0,0,0-.119.041,2.019,2.019,0,0,0-.193.2.075.075,0,0,0-.015.039.39.39,0,0,1-.049.133.192.192,0,0,0-.022.046.3.3,0,0,1-.118.156l-.065.046a.88.88,0,0,0-.174.147.751.751,0,0,0-.089.118c-.015.025-.033.052-.062.092a.661.661,0,0,1-.1.1l-.011.084-.18.064-.069-.069a.243.243,0,0,1-.041-.066l-.127.217-.046-.395a.571.571,0,0,1,.02-.3l-.038-.02-.383.082L44.5,79.9s-.163-.044-.245-.075A.24.24,0,0,1,44.2,79.8c-.4.172-1.223.505-2.114.854L70.46,100.045a2.846,2.846,0,0,1,.487-.04m29.369-21.3h0Zm-55.542.608.059-.227a.791.791,0,0,0,0-.306,6.515,6.515,0,0,0-.3-1.085,7.561,7.561,0,0,1-.3-1.067c-.026-.145-.077-.335-.137-.554-.2-.744-.455-1.669-.075-2.148a1.637,1.637,0,0,1,2.444-.487,2.015,2.015,0,0,0,.518.223,4.549,4.549,0,0,1,.734.224,2.059,2.059,0,0,0,1.338.192c.262-.086.643-.322.617-.62a1.87,1.87,0,0,0-.031-.235.482.482,0,0,1-.3.037,2.746,2.746,0,0,1-2.105-2.03l-.035-.1.368-.253.936.586a2.044,2.044,0,0,0,.687.3c.038.009.078.021.118.034a.817.817,0,0,0,.172.042v0c.063,0,.2.009.513.029l-.009.133.127.039c-.018.07-.1.669-.1.742a1.411,1.411,0,0,0,.216.733c.03.037.156.16.229.229l.042.04v.058c0,.081,0,.163-.006.244,0,.1-.006.195-.005.291a2.59,2.59,0,0,0,.018.3c0,.014.009.045.017.082.047.217.059.269-.01.327,0,0-.125.106-.186.172a.27.27,0,0,1-.173.1.218.218,0,0,0-.04.01.322.322,0,0,1-.173.023l-.062,0a.408.408,0,0,0-.152.069l-.037.026-.046,0a1.963,1.963,0,0,1-.2-.025c-.026-.005-.031,0-.065.017a.433.433,0,0,1-.1.044.5.5,0,0,1-.213.014.9.9,0,0,0-.151.079c-.033.02-.067.04-.1.057-.108.059-.272.163-.342.207a4.944,4.944,0,0,0-.411.411l-.025.026a.72.72,0,0,1-.366.2,2.438,2.438,0,0,0-.168.183c-.023.028-.044.05-.057.063-.052.052-.155.19-.156.191l-.231.294c-.026.033-.049.067-.072.1l-.752,1.078a1.846,1.846,0,0,1-.489.439l-.105-.089.077.108a2.978,2.978,0,0,1-.372.238,2.24,2.24,0,0,1-.352.126Zm.638-5.96a1.538,1.538,0,0,0-1.175.739c-.3.374-.054,1.263.123,1.913.062.226.115.421.142.578a7.413,7.413,0,0,0,.289,1.029,6.8,6.8,0,0,1,.306,1.13,1.406,1.406,0,0,1,.017.19.879.879,0,0,0,.115-.048,2.751,2.751,0,0,0,.339-.217l.029-.021a1.634,1.634,0,0,0,.424-.375L46.77,77.2c.027-.041.054-.081.084-.118l.229-.291s.121-.159.179-.217l.044-.05c.135-.157.24-.268.354-.275a.521.521,0,0,0,.19-.115l.023-.024a3.808,3.808,0,0,1,.462-.453c.072-.045.244-.154.356-.215.028-.015.059-.034.09-.052.136-.081.221-.127.3-.117a.284.284,0,0,0,.133,0,.221.221,0,0,0,.045-.021.338.338,0,0,1,.239-.045c.053.009.1.014.125.018a.576.576,0,0,1,.259-.09c.041,0,.067,0,.09,0a.091.091,0,0,0,.055-.006.479.479,0,0,1,.09-.024c.054-.053.129-.119.178-.163-.007-.034-.017-.076-.025-.113s-.02-.094-.022-.108a2.974,2.974,0,0,1-.019-.331c0-.1,0-.2.006-.3,0-.061,0-.121,0-.181-.064-.061-.173-.167-.212-.215a1,1,0,0,1-.084-.125,1.1,1.1,0,0,1-.8.766,2.286,2.286,0,0,1-1.514-.2,4.266,4.266,0,0,0-.689-.212,2.188,2.188,0,0,1-.6-.251,2.044,2.044,0,0,0-.934-.322m2.113-2.115A2.43,2.43,0,0,0,49.4,73a.243.243,0,0,0,.156-.028.256.256,0,0,1,.208-.021c-.005-.047-.01-.093-.015-.14,0,0,.034-.412.081-.677l-.327-.02-.036,0a1.039,1.039,0,0,1-.235-.053c-.034-.011-.068-.021-.1-.029a2.277,2.277,0,0,1-.769-.339l-.783-.493ZM102.514,79.3l-.22-.06a2.34,2.34,0,0,1-.4-.139,2.91,2.91,0,0,1-.371-.237l.047-.13-.076.109a1.845,1.845,0,0,1-.489-.439l-.752-1.079c-.023-.034-.045-.068-.071-.1l-.23-.293a2.363,2.363,0,0,0-.156-.191c-.014-.015-.035-.038-.059-.066a1.13,1.13,0,0,0-.186-.186.71.71,0,0,1-.346-.191l-.032-.034a4.977,4.977,0,0,0-.4-.405c-.069-.044-.234-.148-.342-.206-.031-.017-.065-.037-.1-.058a1.156,1.156,0,0,0-.152-.082.424.424,0,0,1-.211-.01.456.456,0,0,1-.1-.044c-.034-.018-.039-.022-.065-.017a1.785,1.785,0,0,1-.2.025l-.045,0-.038-.026a.4.4,0,0,0-.153-.069l-.062,0a.345.345,0,0,1-.174-.023.174.174,0,0,0-.038-.01.271.271,0,0,1-.173-.1c-.06-.066-.186-.173-.187-.173-.068-.058-.057-.109-.009-.326.008-.037.016-.069.018-.082a2.58,2.58,0,0,0,.016-.3c0-.1,0-.194,0-.291,0-.082-.006-.163-.006-.245v-.058l.042-.039c.073-.069.2-.192.23-.23a1.4,1.4,0,0,0,.215-.737c0-.068-.082-.667-.1-.736L97.259,72l-.009-.141.521-.033a.832.832,0,0,0,.164-.041c.04-.013.08-.025.118-.034a2.026,2.026,0,0,0,.686-.3c.13-.083.26-.167.389-.251l.557-.34.4.278-.035.1a2.747,2.747,0,0,1-2.105,2.029.493.493,0,0,1-.3-.037,1.947,1.947,0,0,0-.03.235c-.026.3.355.534.617.62a2.062,2.062,0,0,0,1.339-.192,4.51,4.51,0,0,1,.733-.224,2.053,2.053,0,0,0,.518-.223,1.637,1.637,0,0,1,2.443.487c.38.479.127,1.405-.076,2.149-.06.219-.111.409-.136.553a7.636,7.636,0,0,1-.3,1.067,6.512,6.512,0,0,0-.295,1.085.8.8,0,0,0,0,.3Zm-4.332-4.049a.589.589,0,0,1,.285.116l.092.053c.112.061.284.17.357.215a3.853,3.853,0,0,1,.455.446l.03.031a.524.524,0,0,0,.189.114c.114.007.218.118.354.274l.046.052c.058.057.18.218.18.218l.228.29c.029.036.055.076.083.116l.749,1.074a1.6,1.6,0,0,0,.424.374l.03.022a2.719,2.719,0,0,0,.338.216,1.167,1.167,0,0,0,.16.064,1.533,1.533,0,0,1,.017-.187,6.958,6.958,0,0,1,.306-1.13,7.415,7.415,0,0,0,.29-1.029c.027-.157.081-.351.142-.577.177-.649.419-1.539.123-1.913a1.379,1.379,0,0,0-2.109-.418,2.193,2.193,0,0,1-.6.251,4.3,4.3,0,0,0-.689.212,2.289,2.289,0,0,1-1.514.2c-.4-.131-.814-.455-.8-.863a.993.993,0,0,1-.123.2c-.04.049-.149.155-.212.216,0,.06,0,.121.005.181,0,.1.005.2,0,.3A2.759,2.759,0,0,1,97,74.7c0,.012-.011.056-.022.107s-.017.079-.024.113c.047.042.115.1.157.149.045.018.073.023.11.037a.081.081,0,0,0,.055.007.62.62,0,0,1,.09,0,.569.569,0,0,1,.259.09c.029,0,.072-.008.125-.018a.337.337,0,0,1,.239.046.221.221,0,0,0,.046.021.235.235,0,0,0,.113.005l.03,0M97.6,72.937a.358.358,0,0,1,.137.036.235.235,0,0,0,.156.028,2.43,2.43,0,0,0,1.877-1.763l-.092-.063-.4.247-.389.251a2.307,2.307,0,0,1-.769.339c-.033.008-.066.018-.1.029a.981.981,0,0,1-.235.053l-.362.022c.046.266.081.673.079.678-.006.064-.013.128-.022.192a.255.255,0,0,1,.029-.02.18.18,0,0,1,.1-.027m15.659,1.828-.076-.1c-1.311-1.741-3.186-4.044-3.455-4.325-.046-.05-.09-.1-.129-.142-.246-.273-.328-.366-.7-.187a6.5,6.5,0,0,0-.949.6,7.62,7.62,0,0,1-.929.6,6.135,6.135,0,0,0-.636.424c-.7.5-1.561,1.122-2.139.835-1.748-.876-1.791-1.823-1.826-2.583,0-.1-.009-.2-.018-.3a2.212,2.212,0,0,1,1.3-2.545,2.7,2.7,0,0,0-1.383.209,4.517,4.517,0,0,0-1.576,1.9c-.058.145-.11.289-.159.432l-.028.045-.048.054-.154.288s-.138.107-.168.139c0,0-.031.052-.164.083l-.285.067.041-.077-.044.034-.863-.593.009-.079a.57.57,0,0,0,.006-.163c-.017-.047-.08-.178-.081-.178l-.005-.019-.15.035L98.717,69a.22.22,0,0,0,.012-.083.226.226,0,0,1-.017-.02c-.029-.033-.044-.052-.059-.071-.029-.038-.057-.074-.083-.082-.076-.023-.21-.076-.246-.174l-.021-.06-.006,0c.007,0-.02.007-.039.011l-.074.015-.051-.055a.246.246,0,0,0-.025-.022l-.1.007a.585.585,0,0,1-.2.067l-.06.006a.568.568,0,0,0-.057.009.193.193,0,0,1-.142.089l-.055.011-.083-.025L77.012,54.587l.188-.1a.817.817,0,0,0,.124-.085c.24-1.067-.736-2-1.839-2.368L75.11,51.9l.375-.126c1.075-.362,2.054-1.278,1.845-2.33l-.017-.086L97.562,35.429l.05.16,0-.01a.224.224,0,0,1,.159.093l.029.005.092.009a.549.549,0,0,1,.2.066l.1.006a.294.294,0,0,0,.023-.022l.051-.054.074.015c.017,0,.038,0,.052.005l.016-.058c.035-.1.169-.151.245-.174.027-.007.054-.044.084-.082.016-.02.031-.04.047-.059,0,0,.015-.019.038-.049a.559.559,0,0,1-.021-.067l-.07-.222.148.034c.012-.03.071-.152.087-.2a.506.506,0,0,0,0-.148c0-.025-.005-.05-.007-.071l-.015-.132.83-.573.077.1,0,0-.033-.06.285.066c.133.031.163.078.175.1l.157.124.038.047.019.039c.089.269.165.478.244.674a4.523,4.523,0,0,0,1.576,1.9,2.7,2.7,0,0,0,1.383.208,2.212,2.212,0,0,1-1.3-2.545c.009-.1.013-.2.018-.3.035-.76.078-1.706,1.826-2.583.577-.288,1.443.334,2.14.836a6.091,6.091,0,0,0,.635.423,7.671,7.671,0,0,1,.929.6,6.535,6.535,0,0,0,.949.6c.37.179.453.087.7-.187.039-.045.083-.092.129-.141.269-.282,2.145-2.584,3.455-4.325l.076-.1L142.674,49.5l-.009.079c-.115,1.056.952,1.945,2.015,2.246l.384.109-.372.144c-.962.372-1.907,1.242-1.706,2.273l.017.086Zm-4.048-5.114c.256,0,.409.169.586.367.039.043.079.089.125.136.3.311,2.107,2.538,3.4,4.248L142.71,54.311a2.439,2.439,0,0,1,1.567-2.343,2.627,2.627,0,0,1-1.882-2.339L113.319,29.753c-1.291,1.708-3.1,3.936-3.4,4.247-.045.047-.086.093-.125.136-.258.287-.462.515-1.013.248a6.847,6.847,0,0,1-.988-.628,7.272,7.272,0,0,0-.9-.581,6.207,6.207,0,0,1-.667-.444c-.6-.435-1.431-1.029-1.865-.814-1.609.806-1.646,1.63-1.679,2.357,0,.107-.01.211-.019.311-.129,1.389.269,1.762,1.352,2.4l.139.082-.107.121c-.424.48-1.689.01-1.832-.045A4.719,4.719,0,0,1,100.5,35.1c-.069-.171-.135-.351-.206-.56a.144.144,0,0,1-.023.028l-.042.04-.083.006a.2.2,0,0,1-.138-.073l-.065-.1a1.034,1.034,0,0,0-.11-.124.343.343,0,0,1-.1-.057l-.5.345,0,.045a.629.629,0,0,1-.008.265c-.02.055-.093.207-.093.207l-.047.178a.244.244,0,0,1-.045.141l-.006.008,0,.01-.042.048-.036.044a.431.431,0,0,1-.218.174.408.408,0,0,0-.064.026l-.006.021a.352.352,0,0,1-.18.182.3.3,0,0,1-.122.013.237.237,0,0,1-.161.058L98,36a.4.4,0,0,0-.124-.05l-.1-.01a.284.284,0,0,1-.215-.1.389.389,0,0,1-.083-.024L77.608,49.482A2.484,2.484,0,0,1,75.9,51.9a2.4,2.4,0,0,1,1.678,2.6l-.009.037-.028.026L77.5,54.6,97.485,68.349a.326.326,0,0,1,.2-.078l.1-.01a.362.362,0,0,0,.129-.05l.053-.015.156-.01a.242.242,0,0,1,.157.059.292.292,0,0,1,.123.013.349.349,0,0,1,.18.181l.007.023a.444.444,0,0,0,.063.025.433.433,0,0,1,.217.174c.012.015.023.031.036.045l.05.079a.121.121,0,0,0-.014-.033.294.294,0,0,1,.057.147l.058.212s.067.136.084.187a.489.489,0,0,1,.016.2l.583.4.025-.011s.056-.068.1-.125l.047-.075a.21.21,0,0,1,.148-.087l.057,0,.067.049a.172.172,0,0,1,.034.045l.085-.166.044-.049c.049-.139.1-.279.156-.419a4.718,4.718,0,0,1,1.727-2.046c.143-.055,1.408-.524,1.832-.045l.108.121-.139.082c-1.083.641-1.481,1.014-1.352,2.4.009.1.014.2.019.312.033.727.07,1.551,1.679,2.356.432.217,1.261-.378,1.864-.813a6.23,6.23,0,0,1,.668-.444,7.412,7.412,0,0,0,.9-.581,6.886,6.886,0,0,1,.989-.628,1,1,0,0,1,.427-.118M98.579,68.544l-.015.032a.134.134,0,0,0,.015-.032M97.5,68.473l.013.027-.007-.035Zm.2-.013v0m.431-.008h0m.2-.019a.149.149,0,0,0-.01.018Zm-.782-32.608a.086.086,0,0,0,.036.023l-.01-.138Zm.661-.063h0m-.425-.018v0m-.219-.172.01.139.026-.115a.1.1,0,0,0-.036-.024M34.035,74.766,4.042,54.263l.005-.076a2.3,2.3,0,0,0-1.513-2l-.28-.131.288-.114c.9-.354,1.775-1.135,1.71-2.082l0-.076.063-.043,29.93-20.459.076.1c1.312,1.743,3.188,4.044,3.454,4.325.047.05.09.1.13.142.246.274.329.365.7.187a6.522,6.522,0,0,0,.947-.6,7.6,7.6,0,0,1,.93-.6,6.038,6.038,0,0,0,.633-.423c.7-.5,1.566-1.123,2.141-.836,1.748.876,1.791,1.822,1.825,2.582,0,.1.009.2.018.3A2.212,2.212,0,0,1,43.8,37,2.7,2.7,0,0,0,45.18,36.8a4.521,4.521,0,0,0,1.576-1.9c.076-.188.15-.392.231-.641l.091-.16s.139-.108.169-.139c0,0,.03-.051.164-.083l.285-.066-.046.087.033-.02.871.639-.006.075a.256.256,0,0,0,0,.1c.017.047.081.178.081.179l.006.019.149-.034-.069.221a.26.26,0,0,0-.012.084.108.108,0,0,1,.018.02c.029.033.044.052.059.071.03.04.057.074.083.082.076.023.21.076.245.174l.022.06,0,0c-.006,0,.021-.007.04-.011l.074-.015.052.055a.233.233,0,0,0,.024.022l.1-.006a.543.543,0,0,1,.2-.067l.06-.006a.29.29,0,0,0,.08-.015l.08-.066.076.067L70.04,50.282l.014.035a2.994,2.994,0,0,0,1.9,1.506l.384.109-.372.144c-.99.383-1.934,1.27-1.7,2.319l.091.086-.05.06.007.021-.213.147L49.812,68.671l-.09-.019a.219.219,0,0,1-.157-.092l-.028,0-.092-.01a.557.557,0,0,1-.2-.066l-.1-.007-.023.022-.052.055-.074-.015c-.017,0-.044-.011-.052-.006l-.016.058c-.036.1-.169.15-.245.173-.026.008-.054.044-.084.082-.015.02-.031.041-.047.059l-.037.049h0c.006,0,.012.039.02.066l.069.221-.147-.034c-.012.03-.072.152-.087.2a.474.474,0,0,0,0,.149l.009.079-.063.069-.793.546-.047-.038.038.071-.283-.065c-.134-.031-.164-.078-.177-.1l-.156-.123-.039-.047-.077-.16c-.074-.219-.146-.424-.229-.631a4.526,4.526,0,0,0-1.576-1.9,2.709,2.709,0,0,0-1.38-.208,2.212,2.212,0,0,1,1.295,2.544c-.009.1-.013.2-.018.3-.034.76-.076,1.707-1.825,2.583-.577.288-1.444-.335-2.14-.836a6.327,6.327,0,0,0-.635-.423,7.574,7.574,0,0,1-.929-.6,6.523,6.523,0,0,0-.948-.605c-.37-.178-.453-.086-.7.187-.04.044-.083.092-.13.141-.269.284-2.147,2.588-3.454,4.325ZM4.317,54.128,33.975,74.4c1.288-1.705,3.1-3.933,3.4-4.247.045-.047.086-.093.125-.136.259-.287.463-.515,1.013-.248a6.827,6.827,0,0,1,.989.628,7.448,7.448,0,0,0,.9.581,6.2,6.2,0,0,1,.668.444c.6.435,1.431,1.031,1.865.813,1.609-.806,1.646-1.63,1.679-2.357,0-.107.01-.211.019-.311.128-1.388-.269-1.762-1.352-2.4l-.139-.082.107-.121c.424-.48,1.689-.01,1.832.045A4.724,4.724,0,0,1,46.8,69.054c.085.212.159.423.228.632l.011.022a.151.151,0,0,1,.033-.044l.042-.041.084-.006a.2.2,0,0,1,.137.073l.065.1a1.133,1.133,0,0,0,.109.124l.017.006.574-.4a.518.518,0,0,1,.015-.211c.019-.055.092-.207.092-.207l.046-.178a.25.25,0,0,1,.046-.141l.006-.008,0-.01.042-.048c.013-.014.025-.029.036-.045a.434.434,0,0,1,.217-.174.459.459,0,0,0,.065-.026l0-.021a.354.354,0,0,1,.18-.182.293.293,0,0,1,.123-.013.227.227,0,0,1,.16-.058l.206.025a.375.375,0,0,0,.124.05l.1.011a.311.311,0,0,1,.2.085L70,54.455l-.143-.43.109.1a2.517,2.517,0,0,1,1.587-2.156,3.122,3.122,0,0,1-1.732-1.513L49.831,35.783a.488.488,0,0,1-.079.017l-.1.01a.364.364,0,0,0-.128.05l-.054.015-.156.01a.219.219,0,0,1-.158-.058.29.29,0,0,1-.124-.014.351.351,0,0,1-.179-.181l-.008-.023a.473.473,0,0,0-.062-.024.443.443,0,0,1-.218-.174c-.012-.015-.023-.031-.036-.045l-.049-.076a.149.149,0,0,0,.014.031.3.3,0,0,1-.057-.146l-.059-.213s-.067-.136-.084-.187a.406.406,0,0,1-.019-.131l-.612-.449c-.015.021-.057.069-.091.115l-.047.076a.211.211,0,0,1-.147.087l-.057,0-.068-.049a.179.179,0,0,1-.031-.04c-.074.226-.146.426-.221.611a4.725,4.725,0,0,1-1.728,2.047c-.143.055-1.408.524-1.831.045l-.108-.121.139-.082c1.084-.64,1.481-1.014,1.353-2.4-.01-.1-.014-.2-.019-.312-.033-.727-.07-1.551-1.678-2.356-.435-.219-1.262.379-1.866.814a6.062,6.062,0,0,1-.667.444,7.421,7.421,0,0,0-.9.582,6.883,6.883,0,0,1-.987.628c-.55.266-.754.039-1.013-.248-.038-.043-.079-.089-.125-.137-.3-.31-2.1-2.536-3.4-4.247L4.521,49.924A2.548,2.548,0,0,1,2.9,52.08a2.435,2.435,0,0,1,1.416,2.049M49.75,68.483l0,.04.007-.027Zm-.206,0v0m-.429-.011h0Zm.629-.087v.009l.008-.005-.009,0M49.1,35.62l-.009.017.009-.017m.2,0h0Zm-.432-.123a.118.118,0,0,0-.014.033Zm.905,35.948-.045-.015a.386.386,0,0,1-.165-.113.745.745,0,0,0-.234-.111c-.046-.017-.089-.032-.122-.046a2.732,2.732,0,0,0-.459-.169,2.109,2.109,0,0,0-.212-.034,1.336,1.336,0,0,1-.443-.112.475.475,0,0,1-.079-.054l-.144-.112.643-.443.07.034a.572.572,0,0,0,.109.031l.084.016.021.082a.355.355,0,0,0,.016.047s.034.034.068.088l.017.043.033.144c0-.014.05.013.066.021a.153.153,0,0,0,.079-.013c.024-.011.049-.025.075-.039s.061-.033.093-.048c.065-.031.239-.088.239-.088l.091-.03.057.077a1.041,1.041,0,0,1,.164.252c0-.012.028.008.053.027a.706.706,0,0,1,.074.061c.019.017.085.058.13.087s.056.036.064.043l.062.048-.012.081c-.013.079-.055.114-.349.228Zm-.47-.535.014.006c.028.013.064.025.1.039a1.783,1.783,0,0,1,.2.079.23.23,0,0,1-.074-.1c-.009-.017-.039-.059-.068-.1-.043.015-.091.033-.117.045s-.037.018-.055.028m-.934-.251c.064.014.132.023.2.033l.082.011-.01-.046a.29.29,0,0,0-.025-.034.18.18,0,0,1-.053-.079l-.02-.005Zm49.107.766-.044-.017c-.294-.114-.336-.149-.349-.228L97.07,71.1l.06-.052.067-.045a1.486,1.486,0,0,0,.134-.091.79.79,0,0,1,.07-.058.626.626,0,0,0,.067-.054s.009-.033.151-.224l.057-.077.092.03s.174.057.24.089c.031.014.062.031.091.047s.052.028.077.039a.212.212,0,0,0,.078.018c.017-.013.066-.039.079-.053l.038-.159a.491.491,0,0,1,.084-.109c-.01.009,0-.013,0-.026l.021-.083.085-.015a.518.518,0,0,0,.111-.031l.072-.04.643.443-.139.112a.573.573,0,0,1-.09.062,1.331,1.331,0,0,1-.443.111,2.029,2.029,0,0,0-.213.035,2.742,2.742,0,0,0-.459.168c-.033.015-.075.03-.122.047a.759.759,0,0,0-.232.11.385.385,0,0,1-.166.114Zm.3-.608a1.055,1.055,0,0,0-.071.109.221.221,0,0,1-.07.089,1.865,1.865,0,0,1,.2-.079c.039-.014.075-.026.1-.039l.015-.006-.055-.028c-.027-.013-.074-.03-.117-.045m.832-.181c0,.013-.006.029-.01.047l.082-.011a2.136,2.136,0,0,0,.215-.035l-.177-.122-.032.01a.187.187,0,0,1-.058.082l-.021.029M73.647,50.9l-.119-.234A3.1,3.1,0,0,0,72.1,49.353a2.528,2.528,0,0,0-2.139.061l-.008.007-.032.093-19.65-14.42.009-.1a.246.246,0,0,1,.068-.206.349.349,0,0,0,.04-.046.56.56,0,0,1,.079-.274.593.593,0,0,1,.046-.077h0a.269.269,0,0,1-.007-.063.373.373,0,0,1-.081-.206c0-.1.19-.356.328-.364a.537.537,0,0,0,.159-.045.745.745,0,0,1,.268-.067,1.69,1.69,0,0,1,.208.015.707.707,0,0,0,.259,0,.838.838,0,0,0,.429-.277.871.871,0,0,0,.255-.509,2.464,2.464,0,0,1,.092-.426c.019-.068.038-.136.054-.2a2.78,2.78,0,0,0,.042-.616,3.026,3.026,0,0,0-.035-.421,2.887,2.887,0,0,1-.036-.485,4.373,4.373,0,0,1,.054-.508c.01-.063.019-.127.027-.191.015-.118.069-.807.069-.807,0-.206-.016-.585-.03-.667l-.009-.05a3.386,3.386,0,0,0-.087-.41.758.758,0,0,0-.6-.512.236.236,0,0,0-.063,0,.351.351,0,0,1-.236-.041.868.868,0,0,1-.163-.147.637.637,0,0,0-.072-.071,1.524,1.524,0,0,0-.333-.216,1.192,1.192,0,0,1-.178-.031.543.543,0,0,1-.269-.088c-.045-.028-.1-.056-.151-.083a1.49,1.49,0,0,1-.193-.114,1.842,1.842,0,0,0-.176-.106.9.9,0,0,1-.255.065.261.261,0,0,0-.053.006.233.233,0,0,1-.166-.02c-.045-.021-.209-.084-.284-.112l-.269.063a.4.4,0,0,1-.28-.017,1.019,1.019,0,0,1-.363-.231.562.562,0,0,0-.187-.114h0a1.392,1.392,0,0,1-.279-.052l-.184-.044-.027-.057s-.054-.111-.095-.184c-.012-.022-.02-.041-.028-.057a.11.11,0,0,0-.05-.06.678.678,0,0,1-.079-.071.183.183,0,0,0-.1,0l-.035.006a.278.278,0,0,1-.2-.113l-.051-.058a.308.308,0,0,1-.142-.119.92.92,0,0,0-.1-.127.326.326,0,0,1-.062-.1c-.015-.033-.019-.039-.039-.05l-.079-.045c-.019-.011-.043-.025-.05-.027a.823.823,0,0,1-.232-.069l-.038-.025a2.511,2.511,0,0,1-.246-.252A.342.342,0,0,1,46,24.682a.115.115,0,0,0-.017-.048.473.473,0,0,1-.044-.094h0l-.026-.033-.058-.041a1.138,1.138,0,0,1-.221-.189l-.014-.017-.14.013.132.188-.346.014-.135.072-.414-.089c-.047.013-.137.038-.189.058l-.063.047-.076-.027c-.314-.14-1.248-.522-2.426-.98l-.237-.092,28.88-19.74.055.011a3.215,3.215,0,0,0,1.647-.157,3.173,3.173,0,0,0,1.3-1.1l.117-.177.108.182a3.155,3.155,0,0,0,1.356,1.2,3.211,3.211,0,0,0,1.647.158l.055-.012.046.032,28.833,19.709-.235.092c-1.229.478-2.165.861-2.455.993l-.05.022-.051-.018c-.054-.019-.134-.042-.178-.054l-.414.088-.136-.071-.344-.014.131-.188-.14-.013-.014.015a1.116,1.116,0,0,1-.223.191l-.083.073a.489.489,0,0,1-.044.094.11.11,0,0,0-.017.049.342.342,0,0,1-.061.144,2.58,2.58,0,0,1-.246.253l-.039.025a.851.851,0,0,1-.238.07l-.044.027c-.021.012-.047.027-.078.044s-.025.018-.039.051a.347.347,0,0,1-.062.1.889.889,0,0,0-.1.126.218.218,0,0,1-.132.1l-.063.075a.3.3,0,0,1-.2.113l-.036-.006a.244.244,0,0,0-.1-.014.385.385,0,0,1-.084.083.112.112,0,0,0-.051.061c-.007.015-.015.034-.027.055-.041.074-.1.186-.1.186l-.027.056-.189.046a1.4,1.4,0,0,1-.278.05.578.578,0,0,0-.168.1,1.066,1.066,0,0,1-.38.246.4.4,0,0,1-.279.018l-.269-.063c-.075.028-.239.09-.284.111a.239.239,0,0,1-.166.02.247.247,0,0,0-.051-.006.888.888,0,0,1-.256-.065,1.667,1.667,0,0,0-.176.106,1.484,1.484,0,0,1-.194.114c-.051.028-.106.056-.153.085a.538.538,0,0,1-.267.086,1.313,1.313,0,0,1-.182.032,1.478,1.478,0,0,0-.331.215.636.636,0,0,0-.071.071.848.848,0,0,1-.161.145.348.348,0,0,1-.238.042.256.256,0,0,0-.062,0,.758.758,0,0,0-.605.513,3.6,3.6,0,0,0-.087.409l-.009.05c-.014.082-.026.46-.029.68.017.226.055.7.067.793.009.065.018.128.027.191a4.148,4.148,0,0,1,.055.509,2.94,2.94,0,0,1-.037.484,3.019,3.019,0,0,0-.035.39,2.908,2.908,0,0,0,.042.648c.015.069.035.137.054.206a2.489,2.489,0,0,1,.091.424.87.87,0,0,0,.256.51.834.834,0,0,0,.429.277.708.708,0,0,0,.259,0,1.347,1.347,0,0,1,.208-.015.757.757,0,0,1,.269.067.553.553,0,0,0,.157.046c.138.007.331.26.328.363a.377.377,0,0,1-.079.205.307.307,0,0,1-.009.063.652.652,0,0,1,.047.079.625.625,0,0,1,.084.261l.078.11-.111.093L76.628,49.163l-.049,0a3.35,3.35,0,0,0-1.391.194,3.094,3.094,0,0,0-1.423,1.318Zm-2.7-2.019a3.584,3.584,0,0,1,1.256.221,3.435,3.435,0,0,1,1.441,1.238,3.434,3.434,0,0,1,1.442-1.238,3.547,3.547,0,0,1,1.466-.217L96.867,34.913V34.89a.356.356,0,0,0-.055-.157.37.37,0,0,0-.029-.049.225.225,0,0,1-.04-.211.2.2,0,0,1,.063-.173.155.155,0,0,0,.012-.022.673.673,0,0,0-.094-.111.853.853,0,0,1-.218-.062.522.522,0,0,0-.175-.049,1.466,1.466,0,0,0-.172.013.946.946,0,0,1-.355,0,1.116,1.116,0,0,1-.568-.361,1.147,1.147,0,0,1-.319-.66,2.241,2.241,0,0,0-.083-.378c-.021-.073-.041-.145-.058-.219a2.971,2.971,0,0,1-.049-.676,3.27,3.27,0,0,1,.037-.455,2.614,2.614,0,0,0,.035-.44,4.194,4.194,0,0,0-.052-.479c-.01-.065-.019-.13-.028-.2-.016-.119-.068-.791-.07-.82,0-.073.01-.6.033-.734l.009-.049a2.775,2.775,0,0,1,.106-.472,1.016,1.016,0,0,1,.8-.667.5.5,0,0,1,.138,0c.044,0,.057,0,.068,0a.637.637,0,0,0,.108-.1.979.979,0,0,1,.1-.1c.333-.256.43-.266.467-.27a1.071,1.071,0,0,0,.155-.028l.021-.006h.021a.274.274,0,0,0,.137-.046c.053-.033.112-.064.169-.094a1.1,1.1,0,0,0,.154-.089,2.581,2.581,0,0,1,.271-.16l.057-.029.058.025a.9.9,0,0,0,.217.067.532.532,0,0,1,.1.011c.064-.028.343-.133.343-.133l.038-.014.3.068.061.017c.036.01.039.012.124-.016a.784.784,0,0,0,.264-.174.716.716,0,0,1,.363-.183,1.2,1.2,0,0,0,.212-.042l.071-.018c.021-.041.05-.1.073-.139l.019-.039a.358.358,0,0,1,.133-.164.579.579,0,0,0,.05-.045.249.249,0,0,1,.181-.091.624.624,0,0,1,.125.011l.017-.017.045-.051a.269.269,0,0,1,.119-.093h0a1.394,1.394,0,0,1,.134-.164.378.378,0,0,1,.171-.2l.068-.038a.344.344,0,0,1,.173-.063,1,1,0,0,0,.12-.041,2.017,2.017,0,0,0,.193-.2.067.067,0,0,0,.015-.039.37.37,0,0,1,.051-.134.26.26,0,0,0,.021-.046.29.29,0,0,1,.117-.156l.065-.046a.865.865,0,0,0,.174-.148.769.769,0,0,0,.089-.117c.016-.026.033-.052.063-.093a.6.6,0,0,1,.1-.1l.011-.084.179-.063.069.069a.262.262,0,0,1,.04.065l.127-.217.046.395a.581.581,0,0,1-.021.3l.039.021.382-.082.031.009s.1.026.177.052c.354-.157,1.232-.513,2.184-.886L76.833,4.11a3.542,3.542,0,0,1-1.746-.183,3.392,3.392,0,0,1-1.375-1.142,3.438,3.438,0,0,1-1.3,1.04,3.557,3.557,0,0,1-1.745.183L42.3,23.4c.919.359,1.761.7,2.142.866.084-.031.242-.074.242-.074l.031-.009.383.082.038-.02a.576.576,0,0,1-.02-.3l.046-.395.128.217a.248.248,0,0,1,.04-.065l.057-.064.175.045.018.1a.326.326,0,0,1,.109.1c.03.04.046.067.062.092a.767.767,0,0,0,.089.118.869.869,0,0,0,.173.146c.022.015.045.031.067.048a.291.291,0,0,1,.116.155.252.252,0,0,0,.021.046.382.382,0,0,1,.05.133.079.079,0,0,0,.015.04,2.278,2.278,0,0,0,.192.2.837.837,0,0,0,.125.041.347.347,0,0,1,.167.062l.069.039a.333.333,0,0,1,.157.174c.066.081.1.127.144.186,0,0,0,0,0,0a.281.281,0,0,1,.125.094l.044.051.017.018a.405.405,0,0,1,.126-.011.252.252,0,0,1,.181.091.357.357,0,0,0,.051.046.362.362,0,0,1,.131.162l.02.041c.023.043.051.1.072.139l.067.016a1.177,1.177,0,0,0,.215.043.691.691,0,0,1,.339.162.868.868,0,0,0,.288.2c.085.027.089.026.125.015l.363-.084.037.014s.279.105.341.134a.468.468,0,0,1,.1-.012.908.908,0,0,0,.217-.067l.058-.026.057.03a2.489,2.489,0,0,1,.271.16,1.164,1.164,0,0,0,.153.088c.057.03.118.062.169.094a.3.3,0,0,0,.14.047h.019l.021.005a1.081,1.081,0,0,0,.154.028c.035,0,.138.014.468.269a.994.994,0,0,1,.1.1.638.638,0,0,0,.11.1c.01.006.023.006.067,0a.45.45,0,0,1,.139,0,1.016,1.016,0,0,1,.8.665,2.755,2.755,0,0,1,.106.473l.009.049c.023.129.033.661.034.721,0,.041-.054.713-.07.833-.009.065-.018.13-.028.2a4.072,4.072,0,0,0-.052.478,2.614,2.614,0,0,0,.034.441,3.306,3.306,0,0,1,.037.423,3.146,3.146,0,0,1-.049.707c-.017.073-.037.146-.057.218a2.256,2.256,0,0,0-.083.379,1.143,1.143,0,0,1-.32.659,1.109,1.109,0,0,1-.566.361.961.961,0,0,1-.355,0,1.7,1.7,0,0,0-.172-.013.535.535,0,0,0-.176.048.808.808,0,0,1-.217.062.692.692,0,0,0-.094.111.111.111,0,0,0,.012.023.185.185,0,0,1,.062.16.241.241,0,0,1-.038.224.3.3,0,0,0-.029.048.412.412,0,0,0-.055.146.291.291,0,0,1-.1.231l19.325,14.18a1.93,1.93,0,0,1,1.074-.261M47.115,25.365h0m1.576,8.6-.108-.112-.556-.408.129-.109a.641.641,0,0,1,.122-.089,1.342,1.342,0,0,1,.442-.111c.071-.009.143-.018.213-.034a2.74,2.74,0,0,0,.459-.169c.033-.015.076-.03.122-.046a.759.759,0,0,0,.232-.11.391.391,0,0,1,.166-.114l.045-.015.045.018c.295.114.336.149.35.228l.012.075-.06.052c-.011.009-.037.026-.069.047s-.109.069-.132.089a.694.694,0,0,1-.07.058.566.566,0,0,0-.067.054,1.121,1.121,0,0,1-.15.224l-.058.078-.091-.03s-.174-.058-.239-.089c-.032-.015-.063-.031-.093-.048s-.051-.028-.076-.039a.25.25,0,0,0-.077-.018c-.017.013-.066.039-.079.053a1.029,1.029,0,0,1-.02.116l-.018.044a.546.546,0,0,1-.07.094.346.346,0,0,0-.012.04l-.021.084-.085.015a.528.528,0,0,0-.112.031Zm-.206-.515.174.127a.629.629,0,0,1,.089-.031.2.2,0,0,1,.056-.081.338.338,0,0,0,.022-.03l.01-.046-.083.011a1.575,1.575,0,0,0-.268.05m1-.268.054.028c.027.013.074.03.117.045a1.264,1.264,0,0,0,.072-.109.217.217,0,0,1,.069-.089,1.683,1.683,0,0,1-.2.079c-.038.014-.074.027-.1.039l-.014.006m49.247.772-.173-.035-.021-.082a.225.225,0,0,0-.015-.046.376.376,0,0,1-.068-.088l-.018-.043s-.02-.093-.033-.143c0,.014-.05-.013-.067-.022a.144.144,0,0,0-.078.013c-.024.011-.049.024-.074.038s-.062.034-.1.049c-.063.03-.238.088-.238.088l-.092.03-.057-.078a1.073,1.073,0,0,1-.165-.252c0,.013-.027-.007-.052-.026a.651.651,0,0,1-.074-.062c-.02-.017-.084-.057-.13-.086l-.066-.044-.061-.049.011-.081c.013-.079.055-.114.349-.228l.044-.017.045.014a.385.385,0,0,1,.165.113.747.747,0,0,0,.233.111c.046.017.089.031.122.047a2.8,2.8,0,0,0,.459.168c.068.016.139.026.21.035a1.443,1.443,0,0,1,.414.1l.216.1Zm-.038-.375c.008.012.018.025.025.034a.073.073,0,0,1,.016.015l.107-.073-.081-.011-.078-.011c0,.017.007.034.01.046M97.72,33.2a.226.226,0,0,1,.075.1c.01.016.039.058.068.1.043-.015.09-.033.117-.045l.055-.028-.014-.006c-.028-.013-.065-.026-.1-.039a1.683,1.683,0,0,1-.2-.079m1.962.1-.853-.535a2.043,2.043,0,0,0-.687-.3c-.038-.009-.078-.021-.117-.034a.828.828,0,0,0-.172-.041l-.513-.032.008-.133-.126-.039c.017-.07.1-.669.1-.742a1.4,1.4,0,0,0-.216-.733c-.03-.037-.156-.16-.228-.229l-.043-.04v-.058c0-.083,0-.166.006-.249s.006-.191.005-.287a2.7,2.7,0,0,0-.017-.3c0-.013-.009-.045-.018-.082-.047-.217-.059-.269.011-.327,0,0,.125-.107.186-.172a.271.271,0,0,1,.173-.1.175.175,0,0,0,.04-.01.334.334,0,0,1,.173-.023.6.6,0,0,0,.062,0,.4.4,0,0,0,.152-.069l.037-.026.046,0a1.664,1.664,0,0,1,.2.025c.026,0,.03,0,.065-.017a.419.419,0,0,1,.1-.044.487.487,0,0,1,.215-.013,1.047,1.047,0,0,0,.147-.078l.1-.058c.108-.058.273-.163.342-.206a4.872,4.872,0,0,0,.4-.4l.031-.033a.724.724,0,0,1,.366-.2c.022-.015.127-.137.167-.182.024-.028.044-.051.058-.065.052-.051.155-.189.156-.19l.23-.294c.026-.033.049-.067.072-.1l.752-1.079a1.844,1.844,0,0,1,.488-.438l.105.089-.077-.109a2.979,2.979,0,0,1,.374-.239,1.835,1.835,0,0,1,.29-.108l.189-.058-.017.2a.974.974,0,0,0,.011.232,6.5,6.5,0,0,0,.295,1.085,7.629,7.629,0,0,1,.3,1.066c.025.145.077.334.136.553.2.744.456,1.669.077,2.149a1.638,1.638,0,0,1-2.444.487,2.018,2.018,0,0,0-.518-.223,4.564,4.564,0,0,1-.733-.224,2.055,2.055,0,0,0-1.339-.193c-.262.086-.643.323-.617.62a1.962,1.962,0,0,0,.03.236.485.485,0,0,1,.3-.037,2.748,2.748,0,0,1,2.106,2.03l.035.1Zm-.263-.471.254.154.1-.067a2.43,2.43,0,0,0-1.878-1.763.234.234,0,0,0-.155.028.3.3,0,0,1-.174.031c.01.069.017.139.024.208,0,0-.034.412-.081.678l.363.022a1,1,0,0,1,.235.052c.035.011.068.021.1.029a2.32,2.32,0,0,1,.769.339Zm-.84-3.075a3.213,3.213,0,0,1,1.084.263,4.354,4.354,0,0,0,.689.212,2.187,2.187,0,0,1,.6.251,1.379,1.379,0,0,0,2.109-.418c.295-.373.053-1.264-.125-1.914-.061-.226-.115-.42-.141-.577a7.481,7.481,0,0,0-.289-1.029,6.934,6.934,0,0,1-.306-1.13c0-.034-.009-.067-.012-.1-.036.014-.06.025-.077.033a2.726,2.726,0,0,0-.34.219l-.029.021a1.586,1.586,0,0,0-.423.373l-.75,1.074c-.027.04-.053.079-.083.117l-.228.292s-.121.159-.18.216l-.045.051c-.134.156-.239.267-.352.274a.526.526,0,0,0-.19.115l-.029.031a3.844,3.844,0,0,1-.456.447c-.071.045-.244.154-.356.215-.029.015-.06.034-.092.053a.535.535,0,0,1-.294.116.291.291,0,0,0-.133,0,.2.2,0,0,0-.045.021.326.326,0,0,1-.238.046c-.053-.01-.1-.015-.126-.018a.571.571,0,0,1-.258.09c-.038,0-.067,0-.09,0a.082.082,0,0,0-.055.006.459.459,0,0,1-.09.024c-.055.053-.128.119-.179.163.007.034.017.076.025.113s.02.094.021.108a2.965,2.965,0,0,1,.019.331c0,.1,0,.2-.006.3,0,.062,0,.124,0,.185.063.061.172.167.211.216a.623.623,0,0,1,.039.053,1.1,1.1,0,0,1,.8-.773,1.346,1.346,0,0,1,.43-.068m-50.851,3.47-.34-.248.033-.093a2.748,2.748,0,0,1,2.128-2.092.485.485,0,0,1,.3.037,1.785,1.785,0,0,0,.031-.236c.025-.3-.355-.534-.617-.62a2.072,2.072,0,0,0-1.339.194,4.636,4.636,0,0,1-.733.224,2.025,2.025,0,0,0-.519.223,1.636,1.636,0,0,1-2.443-.488c-.379-.479-.127-1.4.075-2.148.06-.22.112-.41.138-.555a7.546,7.546,0,0,1,.3-1.066,6.526,6.526,0,0,0,.3-1.086A.907.907,0,0,0,45.045,25l-.035-.21.2.06a1.935,1.935,0,0,1,.32.118,3.015,3.015,0,0,1,.375.24,1.93,1.93,0,0,1,.513.457l.753,1.08c.023.033.045.067.07.1l.23.293s.106.141.156.191c.015.015.035.038.058.065a1.134,1.134,0,0,0,.188.188.7.7,0,0,1,.346.19l.027.028a4.808,4.808,0,0,0,.411.412c.075.047.236.149.341.206.031.017.065.037.1.057a1.141,1.141,0,0,0,.153.082.435.435,0,0,1,.21.01.439.439,0,0,1,.1.044c.034.019.039.022.066.017a1.676,1.676,0,0,1,.2-.024l.045,0,.038.026a.407.407,0,0,0,.154.069.5.5,0,0,0,.061,0,.339.339,0,0,1,.174.023.227.227,0,0,0,.039.01.265.265,0,0,1,.172.1,2.546,2.546,0,0,0,.187.173c.068.059.057.11.01.327-.008.037-.015.069-.017.082a2.575,2.575,0,0,0-.017.3c0,.1,0,.194.005.291s.005.164.006.245V30.3l-.043.039c-.073.069-.2.192-.23.23a1.392,1.392,0,0,0-.216.738c0,.067.083.667.1.736l-.127.031.009.141c-.316.02-.451.028-.513.028v0a.847.847,0,0,0-.172.041c-.04.013-.08.025-.118.034a2.034,2.034,0,0,0-.686.3c-.142.09-.282.181-.422.272Zm-.022-.347.036.027.362-.219c.162-.106.3-.2.445-.287a2.3,2.3,0,0,1,.769-.339c.032-.007.067-.018.1-.029a1.007,1.007,0,0,1,.234-.053l.037,0,.328-.02c-.046-.264-.082-.672-.082-.677.006-.057.012-.114.019-.172a.273.273,0,0,1-.191-.027.242.242,0,0,0-.156-.028,2.44,2.44,0,0,0-1.9,1.827m-3-5.408c-.028.157-.081.352-.142.578-.177.65-.419,1.539-.124,1.913a1.38,1.38,0,0,0,2.11.418,2.2,2.2,0,0,1,.6-.251,4.267,4.267,0,0,0,.689-.212,2.278,2.278,0,0,1,1.514-.2,1.1,1.1,0,0,1,.8.767.958.958,0,0,1,.061-.087c.039-.049.149-.155.212-.216,0-.06,0-.121,0-.181,0-.1-.006-.2-.006-.3a2.754,2.754,0,0,1,.019-.333c0-.012.01-.055.022-.106s.017-.079.023-.114c-.047-.042-.115-.1-.157-.149-.045-.018-.073-.023-.11-.037a.091.091,0,0,0-.056-.006l-.089,0a.573.573,0,0,1-.259-.09c-.029,0-.072.009-.125.018a.331.331,0,0,1-.239-.045.241.241,0,0,0-.045-.021.248.248,0,0,0-.113-.005.533.533,0,0,1-.316-.115c-.031-.018-.062-.037-.091-.052-.109-.06-.278-.165-.352-.213a3.548,3.548,0,0,1-.465-.455l-.025-.026a.529.529,0,0,0-.189-.114c-.114-.006-.219-.118-.354-.275l-.045-.051c-.058-.056-.18-.218-.18-.218l-.228-.29c-.029-.036-.055-.076-.081-.115l-.75-1.075a1.631,1.631,0,0,0-.423-.373l-.027-.02a2.788,2.788,0,0,0-.342-.22.986.986,0,0,0-.1-.041c0,.045-.007.093-.015.145A6.813,6.813,0,0,1,45,26.441a7.4,7.4,0,0,0-.288,1.028" transform="translate(0 0)" fill="#fff"/>
      <path id="Path_13265" data-name="Path 13265" d="M145.176,101.916l-.253-.086.015-.044c.01-.031.019-.063.027-.094l.029-.057.4-.4-.2.631-.015.047" transform="translate(-67.648 -47.256)" fill="##b5b0a1;"/>
    </g>
  </g>
</svg>
