<?xml version="1.0" encoding="utf-8"?>
<!-- Generator: Adobe Illustrator 27.6.1, SVG Export Plug-In . SVG Version: 6.00 Build 0)  -->
<svg version="1.1" id="Layer_1" xmlns="http://www.w3.org/2000/svg" xmlns:xlink="http://www.w3.org/1999/xlink" x="0px" y="0px"
	 viewBox="0 0 263.3 263.6" style="enable-background:new 0 0 263.3 263.6;" xml:space="preserve">
<style type="text/css">
	.st0{fill:#B5B0A1;}
</style>
<path class="st0" d="M256.8,19.6c-0.4,0-0.9,0-1.3-0.2c-2.4-0.7-3.9-2.9-3.7-5.4c0.3-2.8,3.1-5.8,4.9-7.7l0.2-0.2
	c1.8-1.9,3.8-3.8,6.1-5.7l0.4-0.4v0.6c0,1.2,0,2.4-0.2,3.6c0,1.8,0,3.6-0.2,5.5v0.7c-0.2,2.1-0.3,4.5-1.4,6.3c-1,1.7-3,2.8-4.9,2.8
	h0.1L256.8,19.6z M262.9,1.2c-2.1,1.8-3.9,3.5-5.6,5.3l-0.2,0.2c-1.8,1.9-4.5,4.7-4.8,7.4c-0.2,2.2,1.2,4.3,3.3,4.9
	c2,0.6,4.5-0.5,5.6-2.4c1-1.7,1.2-4,1.3-6.1V9.8c0.2-1.8,0.2-3.7,0.3-5.5c0-1,0-2,0-3l0,0L262.9,1.2z"/>
<path class="st0" d="M249.3,11.2c-2,0-3.9-1-4.9-2.7c-1.2-2.1-0.7-4.8,1.2-6.4c2.2-1.8,6.2-1.9,8.9-2h0.3c2.6,0,5.4,0,8.3,0.3h0.6
	l-0.4,0.4c-0.9,0.8-1.8,1.6-2.6,2.4c-1.3,1.2-2.7,2.5-4,3.7l-0.6,0.5c-1.6,1.4-3.3,3-5.4,3.5c-0.5,0.1-0.9,0.2-1.4,0.2l0,0
	L249.3,11.2z M256.3,0.6h-1.7c-2.6,0-6.5,0.1-8.6,1.8c-1.7,1.4-2.2,3.9-1.1,5.8c1,1.8,3.5,2.8,5.7,2.2c1.9-0.5,3.7-2,5.2-3.4
	l0.6-0.5c1.4-1.2,2.7-2.5,4-3.7c0.7-0.7,1.5-1.4,2.2-2.1c-2.2-0.2-4.3-0.3-6.3-0.3L256.3,0.6L256.3,0.6z"/>
<path class="st0" d="M19.6,7.3c0,0.4,0,0.9-0.2,1.3c-0.7,2.4-2.9,3.9-5.4,3.7C11.2,12,8.2,9.2,6.3,7.4L6.1,7.2
	C4.2,5.4,2.3,3.4,0.4,1.1L0,0.7h0.6c1.2,0,2.4,0,3.6,0.2c1.8,0,3.6,0,5.5,0.2h0.7c2.1,0.2,4.5,0.3,6.3,1.4c1.7,1,2.8,3,2.8,4.9V7.3
	L19.6,7.3z M1.2,1.2C3,3.3,4.7,5.1,6.5,6.8L6.7,7c1.9,1.8,4.7,4.5,7.4,4.8c2.2,0.2,4.3-1.2,4.9-3.3c0.6-2-0.5-4.5-2.4-5.6
	c-1.7-1-4-1.2-6.1-1.3H9.8C8,1.4,6.1,1.4,4.3,1.3c-1,0-2,0-3,0l0,0L1.2,1.2z"/>
<path class="st0" d="M11.2,14.8c0,2-1,3.9-2.7,4.9c-2.1,1.2-4.8,0.7-6.4-1.2c-1.8-2.2-1.9-6.2-2-8.9V9.3c0-2.6,0-5.4,0.3-8.3V0.4
	l0.4,0.4c0.8,0.9,1.6,1.8,2.4,2.6c1.2,1.3,2.5,2.7,3.7,4L7.4,8c1.4,1.6,3,3.3,3.5,5.4c0.1,0.5,0.2,0.9,0.2,1.4l0,0L11.2,14.8z
	 M0.6,7.8v1.7c0,2.6,0.1,6.5,1.8,8.6c1.4,1.7,3.9,2.2,5.8,1.1c1.8-1,2.8-3.5,2.2-5.7c-0.5-1.9-2-3.7-3.4-5.2L6.5,7.7
	C5.3,6.3,4,5,2.8,3.7C2.1,3,1.4,2.2,0.7,1.5C0.5,3.7,0.4,5.8,0.4,7.8L0.6,7.8L0.6,7.8z"/>
<path class="st0" d="M0.1,263.4v-0.6c0-1.2,0-2.4,0.2-3.6c0-1.8,0-3.6,0.2-5.4v-0.7c0.2-2.1,0.3-4.5,1.4-6.3
	c1.3-2.1,3.9-3.3,6.2-2.7c2.4,0.7,3.9,2.9,3.7,5.4c-0.3,2.8-3.1,5.8-4.9,7.7l-0.2,0.2c-1.8,1.9-3.8,3.8-6.1,5.7l-0.4,0.4H0.1
	L0.1,263.4z M6.7,244.4c-1.7,0-3.5,1-4.5,2.6c-1,1.7-1.2,4-1.3,6.1v0.7c-0.2,1.8-0.2,3.6-0.3,5.4c0,1,0,2,0,3.1
	c2.1-1.8,3.9-3.5,5.6-5.3l0.2-0.2c1.8-1.9,4.5-4.7,4.8-7.4c0.2-2.2-1.2-4.3-3.3-4.9c-0.4,0-0.8-0.2-1.1-0.2l0,0L6.7,244.4z"/>
<path class="st0" d="M7.4,263.4c-2.3,0-4.7,0-7.2-0.3h-0.6l0.4-0.4c0.9-0.8,1.9-1.7,2.8-2.6c1.4-1.2,2.7-2.6,4.2-3.8l0.6-0.5
	c1.7-1.5,3.4-3.1,5.6-3.6c2.5-0.6,5.3,0.4,6.4,2.6c1.2,2.2,0.7,5-1.2,6.6c-2.3,1.9-6.4,2-9.2,2.1H7.4z M0.9,262.6
	c2.8,0.2,5.4,0.3,8,0.3h0.3c2.7,0,6.8,0,8.9-1.9c1.8-1.5,2.3-4.1,1.1-6c-1-1.9-3.6-2.9-5.9-2.3c-2,0.5-3.8,2.1-5.4,3.5l-0.6,0.5
	c-1.5,1.2-2.8,2.5-4.2,3.8c-1.4,1.4-1.6,1.5-2.4,2.2v-0.2H0.9z"/>
<path class="st0" d="M197.2,101.9c-0.6,0-1.1-0.3-1.6-0.9c-2.2-2.6-4.6-7.3-4.7-11.1c0-2.9,0.6-7.1,2-10.2l0.4-2c0-0.5-0.2-1-0.3-1
	c0,0-0.2,0-0.7,1.2c-1.1,2.7-2.8,6.3-4.1,7.9c-3.6,4.6-9.7,7.5-15.7,7.5s-0.9-0.2-1.1-0.6c-0.9-1.5,0-5.4,0.9-7
	c0.6-1.1,2.7-4.9,5.6-7.5c3.2-2.9,5.3-4.5,6.4-4.8c1.1-0.3,2.4-0.8,2.7-1c0.3-0.4,0.5-0.9,0.5-1.1h-0.6c-0.5,0.2-6.3,2.7-11.8,2.1
	c-4.8-0.6-8-1.6-10.4-3.3c-1-0.7-2-1.6-2-2.6s0.3-1.1,0.9-1.7c2.6-2.2,7.3-4.6,11.1-4.6s7.1,0.6,10.2,2l2,0.4c0.5,0,1-0.2,1-0.3l0,0
	c0,0,0-0.2-1.2-0.7c-2.7-1.1-6.3-2.8-7.9-4.1c-4.6-3.6-7.5-9.7-7.5-15.7s0.2-0.9,0.6-1.1c1.5-0.9,5.4,0,7,0.9
	c1.1,0.6,4.9,2.7,7.5,5.6c2.9,3.2,4.5,5.3,4.8,6.4s0.8,2.4,1,2.7c0.3,0.2,0.8,0.4,1.1,0.2c0,0,0-0.3,0-0.5v-0.2c0,0-2.7-6-2.1-11.8
	c0.6-4.8,1.6-8,3.3-10.4c0.7-1,1.6-2,2.6-2s1.1,0.3,1.7,0.9c2.2,2.6,4.6,7.3,4.7,11.1c0,2.9-0.6,7.1-2,10.2l-0.4,2
	c0,0.5,0.2,1,0.3,1c0,0,0.2,0,0.7-1.2c1.1-2.7,2.8-6.3,4.1-7.9c3.6-4.6,9.7-7.5,15.7-7.5s0.9,0.2,1.1,0.6c0.9,1.5,0,5.4-0.9,7
	c-0.6,1.1-2.7,4.9-5.6,7.5c-3.2,2.9-5.3,4.5-6.4,4.8c-1.1,0.3-2.4,0.8-2.7,1c-0.3,0.4-0.5,0.9-0.5,1.1h0.6c0.5-0.2,6.3-2.7,11.8-2.1
	c4.7,0.6,8,1.6,10.4,3.3c1,0.7,2,1.6,2,2.6s-0.3,1.1-0.9,1.7c-2.6,2.2-7.3,4.6-11.1,4.6s-7.1-0.6-10.2-2l-2-0.4c-0.5,0-1,0.2-1,0.3
	c0,0,0,0.2,1.2,0.7c2.7,1.1,6.3,2.8,7.9,4.1c4.6,3.6,7.5,9.7,7.5,15.7s-0.2,0.9-0.6,1.1c-1.5,0.9-5.4,0-7-0.9
	c-1.1-0.6-4.9-2.7-7.5-5.6c-2.9-3.2-4.5-5.3-4.8-6.4c-0.3-1-0.8-2.3-1-2.7c-0.3-0.1-0.9-0.3-1.1-0.2c0,0-0.2,0.2,0,0.5
	c0.3,0.6,2.8,6.4,2.1,11.9c-0.6,4.7-1.6,8-3.3,10.4c-0.7,1-1.6,2-2.6,2h-0.1L197.2,101.9z M193.1,76.2L193.1,76.2
	c0.5,0,0.7,1.1,0.7,1.5l0,0l-0.5,2.2c-1.4,3-2,7.2-2,10s2.3,8.2,4.5,10.7c0.4,0.5,0.8,0.7,1.3,0.7c0.8,0,1.6-1,2.3-1.8
	c1.6-2.2,2.7-5.5,3.2-10.1c0.7-5.6-2.1-11.6-2.1-11.7l0,0c0-0.5,0-0.9,0.4-1c0.6-0.4,1.6,0.1,1.7,0.2l0,0c0,0.1,0.7,1.7,1,2.9
	c0.2,0.7,1.1,2.3,4.7,6.2c2.5,2.8,6.3,4.9,7.4,5.5c1.7,0.9,5.3,1.7,6.5,0.9c0.3-0.2,0.4-0.4,0.4-0.7c0-5.9-2.8-11.8-7.3-15.3
	c-1.6-1.3-5.1-2.9-7.8-4c-1.1-0.5-1.5-0.8-1.4-1.2c0-0.5,1.1-0.7,1.5-0.7l0,0l2.2,0.5c3,1.4,7.2,2,10,2s8.2-2.3,10.7-4.5
	c0.5-0.4,0.7-0.8,0.7-1.3c0-0.8-1-1.6-1.8-2.3c-2.2-1.6-5.5-2.7-10.1-3.2c-5.6-0.7-11.5,2-11.6,2h-0.3c-0.5,0-0.7,0-0.9-0.3
	c-0.3-0.6,0.4-1.5,0.5-1.7l0,0c0,0,1.6-0.7,2.8-1c0.7-0.2,2.3-1.1,6.2-4.7c2.8-2.5,4.9-6.3,5.5-7.4c0.9-1.7,1.7-5.3,0.9-6.5
	c-0.2-0.3-0.4-0.4-0.7-0.4c-5.9,0-11.8,2.8-15.3,7.3c-1.3,1.6-2.9,5.1-4,7.8c-0.5,1.1-0.8,1.5-1.2,1.4c-0.5,0-0.7-1.1-0.7-1.5l0,0
	l0.5-2.2c1.4-3,2-7.2,2-10s-2.3-8.2-4.5-10.7c-0.4-0.5-0.8-0.7-1.3-0.7c-0.8,0-1.6,1-2.3,1.8c-1.6,2.2-2.7,5.5-3.2,10.1
	c-0.7,5.6,2,11.5,2,11.6v0.2c0,0.5,0,0.8-0.3,1c-0.6,0.4-1.5-0.2-1.6-0.3l0,0c0-0.1-0.7-1.7-1-2.9c-0.3-1-1.9-3.1-4.7-6.2
	c-2.5-2.8-6.3-4.9-7.4-5.5c-1.7-0.9-5.3-1.7-6.5-0.9c-0.3,0.2-0.4,0.4-0.4,0.7c0,5.9,2.8,11.8,7.3,15.3c1.6,1.3,5.1,2.9,7.8,4
	c1.1,0.5,1.5,0.8,1.4,1.2c0,0.5-1.1,0.7-1.5,0.7l0,0l-2.2-0.5c-3-1.4-7.2-2-10-2s-8.2,2.3-10.7,4.5c-0.5,0.4-0.7,0.8-0.7,1.3
	c0,0.8,1,1.6,1.8,2.3c2.2,1.6,5.5,2.7,10.1,3.2c5.6,0.7,11.5-2,11.6-2h0.3c0.5,0,0.7,0,0.9,0.3c0.3,0.6-0.4,1.5-0.5,1.7l0,0
	c0,0-1.6,0.7-2.8,1c-0.7,0.2-2.3,1.1-6.2,4.7c-2.8,2.5-4.9,6.3-5.5,7.4c-0.9,1.7-1.7,5.3-0.9,6.5c0.2,0.3,0.4,0.4,0.7,0.4
	c5.9,0,11.8-2.8,15.3-7.3c1.3-1.6,2.9-5.1,4-7.8c0.4-1,0.8-1.5,1.2-1.5L193.1,76.2L193.1,76.2z"/>
<path class="st0" d="M197.3,75.6c-4.6,0-8.4-3.8-8.4-8.4s3.8-8.4,8.4-8.4s8.4,3.8,8.4,8.4S201.9,75.6,197.3,75.6z M197.3,59.3
	c-4.3,0-7.9,3.5-7.9,7.9s3.5,7.9,7.9,7.9s7.9-3.5,7.9-7.9S201.7,59.3,197.3,59.3z"/>
<path class="st0" d="M262.9,119.7l0-0.3c0-0.7-0.1-1.3-0.4-2c-0.6-1.5-2.3-2-4.1-2.3l-0.2,0c-1-0.2-2-0.5-2.7,0.2
	c-0.2,0.3-0.5,0.5-0.6,0.8c0,0.2-0.2,0.3-0.3,0.4c0,0.1-0.2,0.3-0.2,0.4c-1,1.6-1.7,3.2-1,4.7c0.3,0.6,0.8,1.1,1.2,1.6l0.2,0.3
	l0.8,0.8l0.7,0.7l-0.3,0.4l-2.3-1.9c-0.6-0.4-1.1-0.8-1.7-1.2c-1.6-0.7-3,0.3-4.6,1.2h-0.2c-0.8,0.7-1.6,1.2-1.7,2.2c0,1,0,0.7,0,1
	c0,0.2,0,0.3,0,0.5c0,0.2,0,0.3,0,0.5c0.4,1.8,1,3.4,2.6,4c0.7,0.2,1.3,0.2,2,0.3l2.8,0.1l0,0.5l-2.6,0.3c-0.7,0-1.3,0.1-2,0.4
	c-1.5,0.6-2,2.3-2.3,4.1l0,0.2c-0.2,1-0.5,2,0.2,2.7c0.3,0.2,0.5,0.5,0.8,0.6c0,0,0.3,0.2,0.4,0.2c0.1,0,0.3,0.2,0.4,0.2
	c1.6,1,3.2,1.7,4.7,1c0.6-0.3,1.1-0.8,1.6-1.2l0.2-0.2c0,0,0.8-0.8,1.9-1.7l0.5-0.5l0.3,0l0,0.1l0.4,0.3l-0.9,1.1
	c-0.7,1-1.3,1.6-1.3,1.6l-0.2,0.3c-0.4,0.6-0.8,1.1-1.2,1.7c-0.7,1.6,0.3,3,1.2,4.6l0,0.2c0.7,0.8,1.2,1.6,2.3,1.7
	c0.1,0,0.2,0,0.3,0c0.2,0,0.4,0,0.7-0.1c0.2,0,0.3,0,0.5-0.1c0.2,0,0.3,0,0.5-0.1c1.8-0.4,3.4-1,4-2.6c0.2-0.7,0.2-1.3,0.3-2l0-0.4
	l0.1-2.6l0.2,0v4.5c0,0.2-0.1,0.3-0.2,0.5c-0.7,2-2.9,2.5-4.4,2.9c-0.2,0-0.3,0-0.5,0.1c-0.2,0-0.3,0-0.5,0.1
	c-0.3,0.1-0.7,0.2-1.1,0.2l0,0.2c-1.2-0.1-1.8-1.1-2.3-1.9l0-0.2c-1-1.2-2.2-3.2-1.4-5c0.3-0.7,0.7-1.3,1.2-1.9l0.2-0.3l0.3-0.4
	c-0.2,0.2-0.3,0.2-0.3,0.2l-0.2,0.2c-0.5,0.5-1,1-1.7,1.2c-1.8,0.8-3.8-0.3-5.2-1.1c0,0-0.3-0.2-0.4-0.2c-0.1,0-0.3-0.2-0.4-0.2
	c-0.3-0.2-0.6-0.4-0.9-0.7c-0.9-0.9-0.6-2.1-0.4-3.1l0-0.2c0.4-1.5,0.8-3.7,2.6-4.5c0.5-0.3,1.1-0.4,1.6-0.5c-0.7,0-1.3,0-1.9-0.4
	c-2-0.7-2.5-2.9-2.9-4.4c0-0.2,0-0.3,0-0.5c0-0.1,0-0.3,0-0.4c0-0.3-0.2-0.7-0.2-1.1c0-1.3,1.1-2,1.9-2.5l0.2,0c1.2-1,3.2-2.2,5-1.4
	c0.7,0.3,1.3,0.7,1.8,1.2c-0.3-0.4-0.7-0.8-0.9-1.3c-0.8-1.8,0.3-3.8,1.1-5.2c0-0.1,0.2-0.3,0.2-0.4c0-0.1,0.2-0.3,0.2-0.4
	c0.2-0.3,0.4-0.6,0.7-0.9c0.9-0.9,2.1-0.6,3.1-0.4h0.2c1.5,0.3,3.7,0.8,4.5,2.7c0.3,0.6,0.4,1.2,0.4,1.8c0-0.8,0-1.4,0.4-2.2v5.5
	l-0.4,0C263,120.7,262.9,119.8,262.9,119.7z"/>
<path class="st0" d="M144.6,262.9l0.3,0c0.7,0,1.3-0.1,2-0.4c1.5-0.6,2-2.3,2.3-4.1l0-0.2c0.2-1,0.5-2-0.2-2.7
	c-0.3-0.2-0.5-0.5-0.8-0.6c-0.2,0-0.3-0.2-0.4-0.3c-0.1,0-0.3-0.2-0.4-0.2c-1.6-1-3.2-1.7-4.7-1c-0.6,0.3-1.1,0.8-1.6,1.2l-0.3,0.2
	l-0.8,0.8l-0.7,0.7l-0.4-0.3l1.9-2.3c0.4-0.6,0.8-1.1,1.2-1.7c0.7-1.6-0.3-3-1.2-4.6v-0.2c-0.7-0.8-1.2-1.6-2.2-1.7c-1,0-0.7,0-1,0
	c-0.2,0-0.3,0-0.5,0c-0.2,0-0.3,0-0.5,0c-1.8,0.4-3.4,1-4,2.6c-0.2,0.7-0.2,1.3-0.3,2l-0.1,2.8l-0.5,0l-0.3-2.6c0-0.7-0.1-1.3-0.4-2
	c-0.6-1.5-2.3-2-4.1-2.3l-0.2,0c-1-0.2-2-0.5-2.7,0.2c-0.2,0.3-0.5,0.5-0.6,0.8c0,0-0.2,0.3-0.2,0.4c0,0.1-0.2,0.3-0.2,0.4
	c-1,1.6-1.7,3.2-1,4.7c0.3,0.6,0.8,1.1,1.2,1.6l0.2,0.2c0,0,0.8,0.8,1.7,1.9l0.5,0.5l0,0.3l-0.1,0l-0.3,0.4l-1.1-0.9
	c-1-0.7-1.6-1.2-1.6-1.2l-0.3-0.2c-0.6-0.4-1.1-0.8-1.7-1.2c-1.6-0.7-3,0.3-4.6,1.2l-0.2,0c-0.8,0.7-1.6,1.2-1.7,2.2
	c0,0.1,0,0.2,0,0.3c0,0.2,0,0.4,0.1,0.7c0,0.2,0,0.3,0.1,0.5c0,0.2,0,0.3,0.1,0.5c0.4,1.8,1,3.4,2.6,4c0.7,0.2,1.3,0.2,2,0.3l0.4,0
	l2.6,0.1l0,0.2h-4.5c-0.2,0-0.3-0.1-0.5-0.2c-2-0.7-2.5-2.9-2.9-4.4c0-0.2,0-0.3-0.1-0.5c0-0.2,0-0.3-0.1-0.5
	c-0.1-0.3-0.2-0.7-0.2-1.1l-0.2,0c0.1-1.2,1.1-1.8,1.9-2.3l0.2,0c1.2-1,3.2-2.2,5-1.4c0.7,0.3,1.3,0.7,1.9,1.2l0.3,0.2l0.4,0.3
	c-0.2-0.2-0.2-0.3-0.2-0.3l-0.2-0.2c-0.5-0.5-1-1-1.2-1.7c-0.8-1.8,0.3-3.8,1.1-5.2c0,0,0.2-0.3,0.2-0.4c0-0.1,0.2-0.3,0.2-0.4
	c0.2-0.3,0.4-0.6,0.7-0.9c0.9-0.9,2.1-0.6,3.1-0.4l0.2,0c1.5,0.4,3.7,0.8,4.5,2.6c0.3,0.5,0.4,1.1,0.5,1.6c0-0.7,0-1.3,0.4-1.9
	c0.7-2,2.9-2.5,4.4-2.9c0.2,0,0.3,0,0.5,0c0.1,0,0.3,0,0.4,0c0.3,0,0.7-0.2,1.1-0.2c1.3,0,2,1.1,2.5,1.9l0,0.2c1,1.2,2.2,3.2,1.4,5
	c-0.3,0.7-0.7,1.3-1.2,1.8c0.4-0.3,0.8-0.7,1.3-0.9c1.8-0.8,3.8,0.3,5.2,1.1c0.1,0,0.3,0.2,0.4,0.2c0.1,0,0.3,0.2,0.4,0.2
	c0.3,0.2,0.6,0.4,0.9,0.7c0.9,0.9,0.6,2.1,0.4,3.1v0.2c-0.3,1.5-0.8,3.7-2.7,4.5c-0.6,0.3-1.2,0.4-1.8,0.4c0.8,0,1.4,0,2.2,0.4h-5.5
	l0-0.4C143.6,262.9,144.5,262.9,144.6,262.9z"/>
<path class="st0" d="M0.9,145.5l0,0.3c0,0.7,0.1,1.3,0.4,2c0.6,1.5,2.3,2,4.1,2.3l0.2,0c1,0.2,2,0.5,2.7-0.2
	c0.2-0.3,0.5-0.5,0.6-0.8c0-0.2,0.2-0.3,0.3-0.4c0-0.1,0.2-0.3,0.2-0.4c1-1.6,1.7-3.2,1-4.7c-0.3-0.6-0.8-1.1-1.2-1.6l-0.2-0.3
	l-0.8-0.8l-0.7-0.7l0.3-0.4l2.3,1.9c0.6,0.4,1.1,0.8,1.7,1.2c1.6,0.7,3-0.3,4.6-1.2H17c0.8-0.7,1.6-1.2,1.7-2.2c0-1,0-0.7,0-1
	c0-0.2,0-0.3,0-0.5c0-0.2,0-0.3,0-0.5c-0.4-1.8-1-3.4-2.6-4c-0.7-0.2-1.3-0.2-2-0.3l-2.8-0.1l0-0.5l2.6-0.3c0.7,0,1.3-0.1,2-0.4
	c1.5-0.6,2-2.3,2.3-4.1l0-0.2c0.2-1,0.5-2-0.2-2.7c-0.3-0.2-0.5-0.5-0.8-0.6c0,0-0.3-0.2-0.4-0.2c-0.1,0-0.3-0.2-0.4-0.2
	c-1.6-1-3.2-1.7-4.7-1c-0.6,0.3-1.1,0.8-1.6,1.2L10,124c0,0-0.8,0.8-1.9,1.7l-0.5,0.5l-0.3,0l0-0.1l-0.4-0.3l0.9-1.1
	c0.7-1,1.2-1.6,1.2-1.6l0.2-0.3c0.4-0.6,0.8-1.1,1.2-1.7c0.7-1.6-0.3-3-1.2-4.6l0-0.2c-0.7-0.8-1.2-1.6-2.2-1.7c-0.1,0-0.2,0-0.3,0
	c-0.2,0-0.4,0-0.7,0.1c-0.2,0-0.3,0-0.5,0.1c-0.2,0-0.3,0-0.5,0.1c-1.8,0.4-3.4,1-4,2.6c-0.2,0.7-0.2,1.3-0.3,2l0,0.4l-0.1,2.6
	l-0.2,0V118c0-0.2,0.1-0.3,0.2-0.5c0.7-2,2.9-2.5,4.4-2.9c0.2,0,0.3,0,0.5-0.1c0.2,0,0.3,0,0.5-0.1c0.3-0.1,0.7-0.2,1.1-0.2l0-0.2
	c1.2,0.1,1.8,1.1,2.3,1.9l0,0.2c1,1.2,2.2,3.2,1.4,5c-0.3,0.7-0.7,1.3-1.2,1.9l-0.2,0.3l-0.3,0.4c0.2-0.2,0.3-0.2,0.3-0.2l0.2-0.2
	c0.5-0.5,1-1,1.7-1.2c1.8-0.8,3.8,0.3,5.2,1.1c0,0,0.3,0.2,0.4,0.2c0.1,0,0.3,0.2,0.4,0.2c0.3,0.2,0.6,0.4,0.9,0.7
	c0.9,0.9,0.6,2.1,0.4,3.1l0,0.2c-0.4,1.5-0.8,3.7-2.6,4.5c-0.5,0.3-1.1,0.4-1.6,0.5c0.7,0,1.3,0,1.9,0.4c2,0.7,2.5,2.9,2.9,4.4
	c0,0.2,0,0.3,0,0.5c0,0.1,0,0.3,0,0.4c0,0.3,0.2,0.7,0.2,1.1c0,1.3-1.1,2-1.9,2.5l-0.2,0c-1.2,1-3.2,2.2-5,1.4
	c-0.7-0.3-1.3-0.7-1.8-1.2c0.3,0.4,0.7,0.8,0.9,1.3c0.8,1.8-0.3,3.8-1.1,5.2c0,0.1-0.2,0.3-0.2,0.4c0,0.1-0.2,0.3-0.2,0.4
	c-0.2,0.3-0.4,0.6-0.7,0.9c-0.9,0.9-2.1,0.6-3.1,0.4H5.7c-1.5-0.3-3.7-0.8-4.5-2.7c-0.3-0.6-0.4-1.2-0.4-1.8c0,0.8,0,1.4-0.4,2.2
	v-5.5l0.4,0C0.9,144.5,0.9,145.4,0.9,145.5z"/>
<path class="st0" d="M118.9,1l-0.3,0c-0.7,0-1.3,0.1-2,0.4c-1.5,0.6-2,2.3-2.3,4.1l0,0.2c-0.2,1-0.5,2,0.2,2.7
	c0.3,0.2,0.5,0.5,0.8,0.6c0.2,0,0.3,0.2,0.4,0.3c0.1,0,0.3,0.2,0.4,0.2c1.6,1,3.2,1.7,4.7,1c0.6-0.3,1.1-0.8,1.6-1.2l0.3-0.2
	l0.8-0.8l0.7-0.7l0.4,0.3l-1.9,2.3c-0.4,0.6-0.8,1.1-1.2,1.7c-0.7,1.6,0.3,3,1.2,4.6v0.2c0.7,0.8,1.2,1.6,2.2,1.7c1,0,0.7,0,1,0
	c0.2,0,0.3,0,0.5,0c0.2,0,0.3,0,0.5,0c1.8-0.4,3.4-1,4-2.6c0.2-0.7,0.2-1.3,0.3-2l0.1-2.8l0.5,0l0.3,2.6c0,0.7,0.1,1.3,0.4,2
	c0.6,1.5,2.3,2,4.1,2.3l0.2,0c1,0.2,2,0.5,2.7-0.2c0.2-0.3,0.5-0.5,0.6-0.8c0,0,0.2-0.3,0.2-0.4c0-0.1,0.2-0.3,0.2-0.4
	c1-1.6,1.7-3.2,1-4.7c-0.3-0.6-0.8-1.1-1.2-1.6l-0.2-0.2c0,0-0.8-0.8-1.7-1.9L138,7.7l0-0.3l0.1,0l0.3-0.4l1.1,0.9
	c1,0.7,1.6,1.2,1.6,1.2l0.3,0.2c0.6,0.4,1.1,0.8,1.7,1.2c1.6,0.7,3-0.3,4.6-1.2l0.2,0c0.8-0.7,1.6-1.2,1.7-2.2c0-0.1,0-0.2,0-0.3
	c0-0.2,0-0.4-0.1-0.7c0-0.2,0-0.3-0.1-0.5c0-0.2,0-0.3-0.1-0.5c-0.4-1.8-1-3.4-2.6-4c-0.7-0.2-1.3-0.2-2-0.3l-0.4,0l-2.6-0.1l0-0.2
	h4.5c0.2,0,0.3,0.1,0.5,0.2c2,0.7,2.5,2.9,2.9,4.4c0,0.2,0,0.3,0.1,0.5c0,0.2,0,0.3,0.1,0.5c0.1,0.3,0.2,0.7,0.2,1.1l0.2,0
	c-0.1,1.2-1.1,1.8-1.9,2.3l-0.2,0c-1.2,1-3.2,2.2-5,1.4c-0.7-0.3-1.3-0.7-1.9-1.2l-0.3-0.2l-0.4-0.3c0.2,0.2,0.2,0.3,0.2,0.3
	l0.2,0.2c0.5,0.5,1,1,1.2,1.7c0.8,1.8-0.3,3.8-1.1,5.2c0,0-0.2,0.3-0.2,0.4c0,0.1-0.2,0.3-0.2,0.4c-0.2,0.3-0.4,0.6-0.7,0.9
	c-0.9,0.9-2.1,0.6-3.1,0.4l-0.2,0c-1.5-0.4-3.7-0.8-4.5-2.6c-0.3-0.5-0.4-1.1-0.5-1.6c0,0.7,0,1.3-0.4,1.9c-0.7,2-2.9,2.5-4.4,2.9
	c-0.2,0-0.3,0-0.5,0c-0.1,0-0.3,0-0.4,0c-0.3,0-0.7,0.2-1.1,0.2c-1.3,0-2-1.1-2.5-1.9l0-0.2c-1-1.2-2.2-3.2-1.4-5
	c0.3-0.7,0.7-1.3,1.2-1.8c-0.4,0.3-0.8,0.7-1.3,0.9c-1.8,0.8-3.8-0.3-5.2-1.1c-0.1,0-0.3-0.2-0.4-0.2c-0.1,0-0.3-0.2-0.4-0.2
	c-0.3-0.2-0.6-0.4-0.9-0.7C113,8.2,113.3,7,113.5,6V5.8c0.3-1.5,0.8-3.7,2.7-4.5c0.6-0.3,1.2-0.4,1.8-0.4c-0.8,0-1.4,0-2.2-0.4h5.5
	l0,0.4C119.9,1,119,1,118.9,1z"/>
<path class="st0" d="M217.7,116.8h-40.9c0,0-0.2,0-0.2-0.2l-28.8-28.8v-0.2l0,0V46.7l0,0v-0.2l28.8-28.8c0-0.1,0-0.2,0.2-0.2h41.1
	l28.9,28.9v41.1l0,0v0.2l-28.9,28.9h-0.2L217.7,116.8L217.7,116.8z M176.9,116.3h40.7l28.7-28.7l0,0V46.9l-28.7-28.7h-40.7L148.1,47
	v40.7l28.8,28.8V116.3L176.9,116.3z"/>
<path class="st0" d="M131.4,133.9v-0.6c0-1.2,0-2.4,0.2-3.6c0-1.8,0-3.6,0.2-5.4v-0.7c0.2-2.1,0.3-4.5,1.4-6.3
	c1.3-2.1,3.9-3.3,6.2-2.7c2.4,0.7,3.9,2.9,3.7,5.4c-0.3,2.8-3.1,5.8-4.9,7.7l-0.2,0.2c-1.8,1.9-3.8,3.8-6.1,5.7l-0.4,0.4h-0.1
	L131.4,133.9z M138.1,114.9c-1.7,0-3.5,1-4.5,2.6c-1,1.7-1.2,4-1.3,6.1v0.7c-0.2,1.8-0.2,3.6-0.3,5.4c0,1,0,2,0,3.1
	c2.1-1.8,3.9-3.5,5.6-5.3l0.2-0.2c1.8-1.9,4.5-4.7,4.8-7.4c0.2-2.2-1.2-4.3-3.3-4.9c-0.4-0.1-0.8-0.2-1.1-0.2l0,0L138.1,114.9z"/>
<path class="st0" d="M138.9,133.9c-2.2,0-4.5-0.1-6.9-0.3h-0.6l0.4-0.4c0.9-0.8,1.8-1.6,2.7-2.5c1.3-1.2,2.6-2.5,4-3.7l0.6-0.5
	c1.6-1.4,3.3-3,5.4-3.5c2.4-0.6,5.1,0.4,6.2,2.5c1.2,2.1,0.7,4.8-1.2,6.4c-2.2,1.8-6.2,1.9-8.9,2H138.9z M132.6,133.1
	c2.7,0.2,5.2,0.3,7.7,0.3h0.3c2.6,0,6.5-0.1,8.6-1.8c1.7-1.4,2.2-3.9,1.1-5.8c-1-1.8-3.5-2.8-5.7-2.2c-1.9,0.5-3.7,2-5.2,3.4
	l-0.6,0.5c-1.4,1.2-2.7,2.4-4,3.7c-0.7,0.7-1.5,1.4-2.2,2.1L132.6,133.1L132.6,133.1z"/>
<path class="st0" d="M145.8,144.7h-0.5c-2.8-0.3-5.8-3.1-7.7-4.9l-0.2-0.2c-1.9-1.8-3.7-3.8-5.7-6.1l-0.4-0.4h0.6
	c1.2,0,2.4,0.1,3.6,0.2c1.8,0,3.6,0.1,5.5,0.2h0.7c2.1,0.2,4.5,0.3,6.3,1.4c2.1,1.3,3.3,3.9,2.7,6.2c-0.6,2.2-2.6,3.7-4.9,3.7l0,0
	L145.8,144.7z M132.6,133.6c1.8,2.1,3.5,3.9,5.3,5.6l0.2,0.2c1.9,1.8,4.7,4.5,7.4,4.8c2.2,0.2,4.3-1.2,4.9-3.3
	c0.6-2-0.5-4.5-2.4-5.6c-1.7-1-4-1.1-6.1-1.3h-0.7c-1.8-0.2-3.7-0.2-5.4-0.3c-1,0-2,0-3-0.1L132.6,133.6L132.6,133.6z"/>
<path class="st0" d="M137.4,152.7c-1.5,0-2.9-0.7-4-1.9c-1.8-2.2-1.9-6.2-2-8.9v-0.3c0-2.6,0-5.4,0.3-8.3v-0.6l0.4,0.4
	c0.8,0.9,1.6,1.8,2.4,2.6c1.2,1.3,2.5,2.7,3.7,4l0.5,0.6c1.4,1.6,3,3.3,3.5,5.4c0.6,2.4-0.4,5.1-2.5,6.2c-0.8,0.4-1.6,0.6-2.5,0.6
	L137.4,152.7L137.4,152.7z M132.2,133.9c-0.2,2.7-0.3,5.2-0.3,7.7v0.3c0,2.6,0,6.5,1.8,8.6c1.4,1.7,3.9,2.2,5.8,1.1
	c1.8-1,2.8-3.5,2.2-5.7c-0.5-1.9-2-3.7-3.4-5.2l-0.5-0.6c-1.2-1.4-2.5-2.7-3.7-4c-0.7-0.7-1.4-1.5-2.1-2.2L132.2,133.9L132.2,133.9z
	"/>
<path class="st0" d="M125.6,152.3c-0.4,0-0.9,0-1.3-0.2c-2.4-0.7-3.9-2.9-3.7-5.4c0.3-2.8,3.1-5.8,4.9-7.7l0.2-0.2
	c1.8-1.9,3.8-3.8,6.1-5.7l0.4-0.4v0.6c0,1.2,0,2.4-0.2,3.6c0,1.8,0,3.6-0.2,5.5v0.7c-0.2,2.1-0.3,4.5-1.4,6.3c-1,1.7-3,2.8-4.9,2.8
	h0.1L125.6,152.3z M131.7,133.9c-2.1,1.8-3.9,3.5-5.6,5.3l-0.2,0.2c-1.8,1.9-4.5,4.7-4.8,7.4c-0.2,2.2,1.2,4.3,3.3,4.9
	c2,0.6,4.5-0.5,5.6-2.4c1-1.7,1.2-4,1.3-6.1v-0.7c0.2-1.8,0.2-3.7,0.3-5.5c0-1,0-2,0-3l0,0L131.7,133.9z"/>
<path class="st0" d="M118.2,143.8c-2,0-3.9-1-4.9-2.7c-1.2-2.1-0.7-4.8,1.2-6.4c2.2-1.8,6.2-1.9,8.9-2h0.3c2.6,0,5.4,0,8.3,0.3h0.6
	l-0.4,0.4c-0.9,0.8-1.8,1.6-2.6,2.4c-1.3,1.2-2.7,2.5-4,3.7L125,140c-1.6,1.4-3.3,3-5.4,3.5c-0.5,0.1-0.9,0.2-1.4,0.2l0,0
	L118.2,143.8z M125.1,133.3h-1.7c-2.6,0-6.5,0.1-8.6,1.8c-1.7,1.4-2.2,3.9-1.1,5.8c1,1.8,3.5,2.8,5.7,2.2c1.9-0.5,3.7-2,5.2-3.4
	l0.6-0.5c1.4-1.2,2.7-2.5,4-3.7c0.7-0.7,1.5-1.4,2.2-2.1c-2.2-0.2-4.3-0.3-6.3-0.3L125.1,133.3L125.1,133.3z"/>
<path class="st0" d="M132.2,133.6h-0.6c-1.2,0-2.4-0.1-3.6-0.2c-1.8,0-3.6-0.1-5.5-0.2h-0.7c-2.1-0.2-4.5-0.3-6.3-1.4
	c-2.1-1.3-3.3-3.9-2.7-6.2c0.7-2.4,2.9-3.9,5.4-3.7c2.8,0.3,5.8,3.1,7.7,4.9l0.2,0.2c1.9,1.8,3.8,3.8,5.7,6.1l0.4,0.4l0,0
	L132.2,133.6z M117.8,122.5c-2.1,0-3.9,1.3-4.4,3.3c-0.6,2,0.5,4.5,2.4,5.6c1.7,1,4,1.2,6.1,1.3h0.7c1.8,0.2,3.7,0.2,5.5,0.3
	c1,0,2,0,3,0.1c-1.8-2.1-3.5-3.9-5.3-5.6l-0.2-0.2c-1.9-1.8-4.7-4.5-7.4-4.8L117.8,122.5L117.8,122.5L117.8,122.5z"/>
<path class="st0" d="M131.9,133.9l-0.4-0.4c-0.8-0.9-1.6-1.8-2.4-2.6c-1.2-1.3-2.5-2.7-3.7-4l-0.5-0.6c-1.4-1.6-3-3.3-3.5-5.4
	c-0.6-2.4,0.4-5.1,2.5-6.2c2.1-1.2,4.8-0.7,6.4,1.2c1.8,2.2,1.9,6.2,2,8.9v0.3c0,2.6,0,5.3-0.3,8.3L131.9,133.9L131.9,133.9
	L131.9,133.9z M126.3,114.5c-0.8,0-1.5,0.2-2.2,0.6c-1.8,1-2.8,3.5-2.2,5.7c0.5,1.9,2,3.7,3.4,5.2l0.5,0.6c1.2,1.4,2.5,2.7,3.7,4
	c0.7,0.7,1.4,1.5,2.1,2.2c0.2-2.7,0.3-5.2,0.3-7.7v-0.3c0-2.6,0-6.5-1.8-8.6c-0.9-1.1-2.2-1.7-3.6-1.7L126.3,114.5L126.3,114.5z"/>
<path class="st0" d="M263,263.5h-0.6c-1.2,0-2.4,0-3.6-0.2c-1.8,0-3.6,0-5.5-0.2h-0.7c-2.1-0.2-4.5-0.3-6.3-1.4
	c-2.1-1.3-3.3-3.9-2.7-6.2c0.7-2.4,2.9-3.9,5.4-3.7c2.8,0.3,5.8,3.1,7.7,4.9l0.2,0.2c1.9,1.8,3.8,3.8,5.7,6.1l0.4,0.4l0,0L263,263.5
	z M248.6,252.4c-2.1,0-3.9,1.3-4.4,3.3c-0.6,2,0.5,4.5,2.4,5.6c1.7,1,4,1.2,6.1,1.3h0.7c1.8,0.2,3.7,0.2,5.4,0.3c1,0,2,0,3,0
	c-1.8-2.1-3.5-3.9-5.3-5.6l-0.2-0.2c-1.9-1.8-4.7-4.5-7.4-4.8h-0.4h0.1L248.6,252.4z"/>
<path class="st0" d="M262.6,263.8l-0.4-0.4c-0.8-0.9-1.6-1.8-2.4-2.6c-1.2-1.3-2.5-2.7-3.7-4l-0.5-0.6c-1.4-1.6-3-3.3-3.5-5.4
	c-0.6-2.4,0.4-5.1,2.5-6.2c2.1-1.2,4.8-0.7,6.4,1.2c1.8,2.2,1.9,6.2,2,8.9v0.3c0,2.6,0,5.3-0.3,8.3L262.6,263.8L262.6,263.8
	L262.6,263.8z M257.1,244.4c-0.8,0-1.5,0.2-2.2,0.6c-1.8,1-2.8,3.5-2.2,5.7c0.5,1.9,2,3.7,3.4,5.2l0.5,0.6c1.2,1.4,2.5,2.7,3.7,4
	c0.7,0.7,1.4,1.5,2.1,2.2c0.2-2.7,0.3-5.2,0.3-7.7v-0.3c0-2.6,0-6.5-1.8-8.6c-0.9-1.1-2.2-1.7-3.6-1.7H257.1z"/>
<path class="st0" d="M222.5,128.1h-50.4l-35.7-35.7V42l35.7-35.7h50.4L258.2,42v50.4L222.5,128.1z M172.2,127.6h50l35.4-35.4v-50
	L222.2,6.8h-50l-35.4,35.4v50L172.2,127.6z"/>
<path class="st0" d="M67,233.4c-0.6,0-1.1-0.3-1.6-0.9c-2.2-2.6-4.6-7.3-4.7-11.1c0-2.9,0.6-7.1,2-10.2l0.4-2c0-0.5-0.2-1-0.3-1
	c0,0-0.2,0-0.7,1.2c-1.1,2.7-2.8,6.3-4.1,7.9c-3.6,4.6-9.7,7.5-15.7,7.5s-0.9-0.2-1.1-0.6c-0.9-1.5,0-5.4,0.9-7
	c0.6-1.1,2.7-4.9,5.6-7.5c3.2-2.9,5.3-4.5,6.4-4.8c1.1-0.3,2.4-0.8,2.7-1c0.3-0.4,0.5-0.9,0.5-1.1h-0.6c-0.5,0.2-6.3,2.7-11.8,2.1
	c-4.8-0.6-8-1.6-10.4-3.3c-1-0.7-2-1.6-2-2.6s0.3-1.1,0.9-1.7c2.6-2.2,7.3-4.6,11.1-4.6s7.1,0.6,10.2,2l2,0.4c0.5,0,1-0.2,1-0.3l0,0
	c0,0,0-0.2-1.2-0.7c-2.7-1.1-6.3-2.8-7.9-4.1c-4.6-3.6-7.5-9.7-7.5-15.7s0.2-0.9,0.6-1.1c1.5-0.9,5.4,0,7,0.9
	c1.1,0.6,4.9,2.7,7.5,5.6c2.9,3.2,4.5,5.3,4.8,6.4s0.8,2.4,1,2.7c0.3,0.2,0.9,0.4,1.1,0.2c0,0,0-0.3,0-0.5v-0.2c0,0-2.7-6-2.1-11.8
	c0.6-4.8,1.6-8,3.3-10.4c0.7-1,1.6-2,2.6-2s1.1,0.3,1.7,0.9c2.2,2.6,4.6,7.3,4.7,11.1c0,2.9-0.6,7.1-2,10.2l-0.4,2
	c0,0.5,0.2,1,0.3,1c0,0,0.2,0,0.7-1.2c1.1-2.7,2.8-6.3,4.1-7.9c3.6-4.6,9.7-7.5,15.7-7.5s0.9,0.2,1.1,0.6c0.9,1.5,0,5.4-0.9,7
	c-0.6,1.1-2.7,4.9-5.6,7.5c-3.2,2.9-5.3,4.5-6.4,4.8c-1.1,0.3-2.4,0.8-2.7,1c-0.3,0.4-0.5,0.9-0.5,1.1h0.6c0.5-0.2,6.3-2.7,11.8-2.1
	c4.8,0.6,8,1.6,10.4,3.3c1,0.7,2,1.6,2,2.6s-0.3,1.1-0.9,1.7c-2.6,2.2-7.3,4.6-11.1,4.6s-7.1-0.6-10.2-2l-2-0.4c-0.5,0-1,0.2-1,0.3
	l0,0c0,0,0,0.2,1.2,0.7c2.7,1.1,6.3,2.8,7.9,4.1c4.6,3.6,7.5,9.7,7.5,15.7s-0.2,0.9-0.6,1.1c-1.5,0.9-5.4,0-7-0.9
	c-1.1-0.6-4.9-2.7-7.5-5.6c-2.9-3.2-4.5-5.3-4.8-6.4c-0.3-1-0.8-2.3-1-2.7c-0.3-0.1-0.9-0.3-1.1-0.2c0,0-0.2,0.2,0,0.5
	c0.3,0.6,2.8,6.4,2.1,11.9c-0.6,4.7-1.6,8-3.3,10.4c-0.7,1-1.6,2-2.6,2H67L67,233.4z M62.9,207.8L62.9,207.8c0.5,0,0.7,1.1,0.7,1.5
	l0,0l-0.5,2.2c-1.4,3-2,7.2-2,10s2.3,8.2,4.5,10.7c0.4,0.5,0.8,0.7,1.3,0.7c0.8,0,1.6-1,2.3-1.8c1.6-2.2,2.7-5.5,3.2-10.1
	c0.7-5.6-2.1-11.6-2.1-11.7l0,0c0-0.5,0-0.9,0.4-1c0.6-0.4,1.6,0.1,1.7,0.2l0,0c0,0.1,0.7,1.7,1,2.9c0.2,0.7,1.1,2.3,4.7,6.2
	c2.5,2.8,6.3,4.9,7.4,5.5c1.7,0.9,5.3,1.7,6.5,0.9c0.3-0.2,0.4-0.4,0.4-0.7c0-5.9-2.8-11.8-7.3-15.3c-1.6-1.3-5.1-2.9-7.8-4
	c-1.1-0.5-1.5-0.8-1.4-1.2c0-0.5,1.1-0.7,1.5-0.7l0,0l2.2,0.5c3,1.4,7.2,2,10,2s8.2-2.3,10.7-4.5c0.5-0.4,0.7-0.8,0.7-1.3
	c0-0.8-1-1.6-1.8-2.3c-2.2-1.6-5.5-2.7-10.1-3.2c-5.6-0.7-11.5,2-11.6,2h-0.3c-0.5,0-0.8,0-0.9-0.3c-0.3-0.6,0.4-1.5,0.5-1.7l0,0
	c0,0,1.6-0.7,2.8-1c0.7-0.2,2.3-1.1,6.2-4.7c2.8-2.5,4.9-6.3,5.5-7.4c0.9-1.7,1.7-5.3,0.9-6.5c-0.2-0.3-0.4-0.4-0.7-0.4
	c-5.9,0-11.8,2.8-15.3,7.3c-1.3,1.6-2.9,5.1-4,7.8c-0.5,1.1-0.8,1.5-1.2,1.4c-0.5,0-0.7-1.1-0.7-1.5l0,0l0.5-2.2c1.4-3,2-7.2,2-10
	s-2.3-8.2-4.5-10.7c-0.4-0.5-0.8-0.7-1.3-0.7c-0.8,0-1.6,1-2.3,1.8c-1.6,2.2-2.7,5.5-3.2,10.1c-0.7,5.6,2,11.5,2,11.6v0.2
	c0,0.5,0,0.8-0.3,1c-0.6,0.4-1.5-0.2-1.6-0.3l0,0c0-0.1-0.7-1.7-1-2.9c-0.3-1-1.9-3.1-4.7-6.2c-2.5-2.8-6.3-4.9-7.4-5.5
	c-1.7-0.9-5.3-1.7-6.5-0.9c-0.3,0.2-0.4,0.4-0.4,0.7c0,5.9,2.8,11.8,7.3,15.3c1.6,1.3,5.1,2.9,7.8,4c1.1,0.5,1.5,0.8,1.4,1.2
	c0,0.5-1.1,0.7-1.5,0.7l0,0l-2.2-0.5c-3-1.4-7.2-2-10-2s-8.2,2.3-10.7,4.5c-0.5,0.4-0.7,0.8-0.7,1.3c0,0.8,1,1.6,1.8,2.3
	c2.2,1.6,5.5,2.7,10.1,3.2c5.6,0.7,11.5-2,11.6-2h0.3c0.5,0,0.7,0,0.9,0.3c0.3,0.6-0.4,1.5-0.5,1.7l0,0c0,0-1.6,0.7-2.8,1
	c-0.7,0.2-2.3,1.1-6.2,4.7c-2.8,2.5-4.9,6.3-5.5,7.4c-0.9,1.7-1.7,5.3-0.9,6.5c0.2,0.3,0.4,0.4,0.7,0.4c5.9,0,11.8-2.8,15.3-7.3
	c1.3-1.6,2.9-5.1,4-7.8c0.4-1,0.8-1.5,1.2-1.5L62.9,207.8L62.9,207.8z"/>
<path class="st0" d="M67,207.1c-4.6,0-8.4-3.8-8.4-8.4s3.8-8.4,8.4-8.4s8.4,3.8,8.4,8.4S71.6,207.1,67,207.1z M67,190.8
	c-4.3,0-7.9,3.5-7.9,7.9s3.5,7.9,7.9,7.9s7.9-3.5,7.9-7.9S71.4,190.8,67,190.8z"/>
<path class="st0" d="M87.5,248.4H46.6c0,0-0.2,0-0.2-0.2l-28.8-28.8v-41.1l0,0v-0.2l28.8-28.8c0-0.1,0-0.2,0.2-0.2h41.1l28.9,28.9
	v41.1l0,0v0.2l-28.9,28.9h-0.2L87.5,248.4L87.5,248.4z M46.7,247.9h40.7l28.7-28.7l0,0v-40.7l-28.7-28.7H46.7l-28.8,28.8v40.7
	l28.8,28.8V247.9L46.7,247.9z"/>
<path class="st0" d="M92.3,259.6H41.9L6.2,223.9v-50.4l35.7-35.7h50.4l35.7,35.7v50.4L92.3,259.6z M42,259.1h50l35.4-35.4v-50
	L92,138.3H42L6.6,173.7v50L42,259.1z"/>
<path class="st0" d="M57.5,103.8h-0.6c-1.1-0.3-7.1-2.5-7.1-2.5c-1.2-0.4-2.1-2.8-2.3-3.8c-0.9-4.1,0.9-8.6,5.5-13.8
	c0.5-0.5,1.2-1,1.8-1.5c0.9-0.7,1.9-1.4,1.8-1.9l-0.2-0.9c0-0.1-0.5-0.4-0.9-0.4s-0.5,0.1-0.8,0.4s-0.5,0.6-0.8,1
	c-1.5,1.8-4,4.8-6.2,6.1c-2.7,1.6-6.8,2.2-8.6,1.9c-1.2-0.2-3.4-0.6-4.1-1.9c-0.5-0.8-3.3-6.7-3.3-6.8c-0.5-1.1,0.5-3.4,1.1-4.3
	c2.2-3.5,6.7-5.4,13.7-5.9c0.7,0,1.6,0,2.4,0.2c1.1,0.2,2.3,0.3,2.6,0l0.5-0.8c0-0.1,0-0.7-0.4-1c-0.2-0.2-0.5-0.3-0.9-0.3
	s-0.7,0-1.3,0.1c-2.3,0.2-6.3,0.6-8.7,0c-3-0.8-6.4-3.3-7.5-4.7c-0.8-1-2-2.9-1.6-4.3c0.2-0.7,2.2-6.4,2.5-7.1l0,0
	c0.4-1.2,2.8-2.1,3.9-2.3c4.1-0.9,8.6,0.9,13.8,5.5c0.5,0.5,1,1.2,1.5,1.8c0.7,0.9,1.4,1.9,1.9,1.8c0.6-0.1,1.1-0.6,1.3-1.1
	c0-0.4,0-0.7-0.4-1.1c-0.2-0.2-0.6-0.5-1-0.8c-1.8-1.5-4.8-4-6.1-6.2c-1.6-2.8-2.2-6.8-1.9-8.6c0.2-1.2,0.6-3.4,1.9-4.1
	c0.9-0.5,5-2.4,6.7-3.2l0,0c1.3-0.6,3.8,0.6,4.4,1C63.6,36.5,65.5,41,66,48c0,0.7,0,1.6-0.2,2.4c-0.2,1.1-0.3,2.3,0,2.6l0.8,0.5
	c0,0,0.7,0,1-0.4c0.2-0.2,0.3-0.5,0.3-0.9s0-0.7,0-1.3c-0.2-2.3-0.6-6.3,0-8.7c0.8-3.1,3.3-6.4,4.7-7.5c1-0.8,2.9-2,4.3-1.6
	c1,0.3,5.6,1.9,7,2.4l0,0c1.3,0.5,2.2,3.2,2.3,3.9c0.9,4.1-0.9,8.6-5.5,13.8c-0.5,0.5-1.2,1-1.8,1.5c-0.9,0.7-1.9,1.4-1.8,1.9
	l0.2,0.9c0.3,0.2,0.6,0.4,0.9,0.4s0.6-0.1,0.8-0.4c0.2-0.2,0.5-0.6,0.9-1c1.5-1.8,4-4.8,6.2-6.1c2.8-1.6,6.8-2.2,8.6-1.9
	c1.2,0.2,3.4,0.6,4.1,1.9c0.6,1,3.2,6.7,3.3,6.8c0.6,1.2-0.5,3.5-1.1,4.4c-2.2,3.5-6.7,5.4-13.7,5.9c-0.7,0-1.6,0-2.4-0.2
	c-1.1-0.2-2.3-0.3-2.6,0v0.2c-0.4,0.5-0.6,0.7-0.4,1.2c0.2,0.5,0.6,0.7,1.1,0.7s0.7,0,1.3-0.1c2.3-0.2,6.3-0.6,8.7,0
	c3,0.8,6.4,3.3,7.5,4.7c0.8,1,2,2.9,1.6,4.3c-0.3,0.9-2.4,7-2.5,7.1c-0.4,1.2-2.8,2.1-3.8,2.3c-4.1,0.9-8.6-0.9-13.8-5.5
	c-0.6-0.5-1-1.1-1.5-1.7c-0.3-0.4-0.6-0.8-0.9-1.2l0,0c-0.2-0.3-0.5-0.6-0.8-0.7c-0.4,0-0.8,0-1,0.3l0,0c-0.2,0.2-0.3,0.4-0.3,0.7
	c0,0.5,0,0.9,0.4,1.1c0.2,0.2,0.6,0.5,1,0.8c1.8,1.5,4.8,4,6.1,6.2c1.6,2.8,2.2,6.8,1.9,8.6c-0.2,1.2-0.6,3.4-1.9,4.1
	c-0.9,0.5-5.8,2.8-6.7,3.3c-1.2,0.6-3.5-0.5-4.4-1C70.4,100.5,68.5,96,68,89c0-0.7,0-1.6,0.2-2.4c0.2-1.1,0.3-2.3,0-2.6
	c-0.3-0.2-0.5-0.3-0.8-0.5h-0.2c-0.7,0.2-1.1,0.4-1.1,1.2s0,0.7,0,1.3c0.2,2.3,0.6,6.3,0,8.7c-0.8,3.1-3.3,6.4-4.7,7.5
	c-0.9,0.7-2.4,1.6-3.7,1.6H57.5z M67.1,82.9L67.1,82.9c0.3,0.3,0.6,0.4,0.9,0.6c0.7,0.4,0.5,1.7,0.3,3.1c0,0.8-0.2,1.6-0.2,2.3
	c0.4,6.8,2.3,11.1,5.6,13.3c0.9,0.6,3,1.5,3.9,1c1-0.5,5.8-2.7,6.7-3.3c0.8-0.4,1.4-1.8,1.7-3.8c0.2-1.7-0.4-5.7-1.9-8.3
	c-1.2-2.1-4.3-4.7-6-6.1c-0.4-0.4-0.8-0.7-1-0.9c-0.5-0.4-0.7-1-0.5-1.5c0-0.4,0.2-0.7,0.5-0.9l0,0c0.4-0.4,0.9-0.6,1.5-0.5
	c0.5,0,0.8,0.5,1.1,0.8l0,0c0.4,0.4,0.7,0.9,1,1.3c0.4,0.6,0.9,1.2,1.4,1.6c5.1,4.5,9.5,6.3,13.4,5.4c1-0.2,3.2-1.1,3.5-2
	c0,0,2.2-6,2.5-7.1c0.3-0.9-0.3-2.3-1.5-3.8c-1.1-1.4-4.3-3.8-7.2-4.5c-2.4-0.6-6.4-0.2-8.6,0c-0.6,0-1,0-1.3,0.1
	c-0.7,0-1.3-0.3-1.6-1s0-1.2,0.3-1.6v-0.2c0.6-0.7,1.8-0.5,3.2-0.3c0.8,0.1,1.6,0.2,2.3,0.2c6.8-0.4,11.1-2.3,13.3-5.6
	c0.6-0.9,1.5-3,1-3.9c0,0-2.7-5.7-3.3-6.7c-0.4-0.8-1.8-1.4-3.8-1.7c-1.7-0.2-5.7,0.4-8.3,1.9c-2.1,1.2-4.6,4.2-6.1,6
	c-0.4,0.4-0.7,0.8-0.9,1c-0.3,0.3-0.7,0.5-1.1,0.6c-0.5,0-1-0.2-1.4-0.5l0,0L76.2,57l0,0c0,0.1,0-0.1,0-0.1c-0.2-0.8,0.8-1.5,2-2.4
	c0.6-0.5,1.3-1,1.7-1.5c4.5-5.1,6.3-9.5,5.4-13.4c-0.2-1-1.1-3.2-2-3.5l0,0c-1.4-0.5-6-2.2-7-2.5c-0.9-0.3-2.3,0.3-3.8,1.5
	c-1.4,1.1-3.8,4.3-4.5,7.2c-0.6,2.4-0.2,6.4,0,8.6c0,0.6,0,1,0,1.3c0,0.5,0,0.9-0.4,1.2c-0.3,0.4-0.8,0.5-1.1,0.5v0.2l-0.4-0.2
	l-0.9-0.6c-0.7-0.4-0.5-1.7-0.3-3.1c0-0.8,0.2-1.6,0.2-2.3c-0.4-6.8-2.3-11.1-5.6-13.3c-0.9-0.6-3-1.5-3.9-1l0,0
	c-1.3,0.7-5.8,2.8-6.7,3.3c-0.8,0.4-1.4,1.8-1.7,3.8c-0.2,1.7,0.4,5.7,1.9,8.3c1.2,2.1,4.3,4.7,6,6.1c0.4,0.4,0.8,0.7,1,0.9
	c0.5,0.4,0.7,1,0.5,1.5c-0.2,0.7-0.8,1.3-1.6,1.4c-0.8,0.2-1.5-0.8-2.4-2c-0.5-0.6-1-1.3-1.5-1.7c-5.1-4.5-9.5-6.3-13.4-5.4
	c-1,0.2-3.2,1.1-3.5,2l0,0c0,0-2.1,6-2.4,7.1c-0.3,0.9,0.3,2.3,1.5,3.8c1.1,1.4,4.3,3.8,7.2,4.5c2.4,0.6,6.4,0.2,8.6,0
	c0.6,0,1,0,1.3-0.1c0.5,0,0.9,0.1,1.2,0.4c0.4,0.3,0.5,0.8,0.5,1.1h0.2L52.1,69l-0.6,0.9c-0.4,0.7-1.7,0.5-3.1,0.3
	c-0.8-0.1-1.6-0.2-2.3-0.2c-6.8,0.4-11.1,2.3-13.3,5.6c-0.6,0.9-1.5,3-1,3.9c0,0,2.7,5.7,3.3,6.7c0.4,0.8,1.8,1.4,3.8,1.7
	c1.7,0.2,5.7-0.4,8.3-1.9c2.1-1.2,4.7-4.3,6.1-6c0.4-0.4,0.7-0.8,0.9-1c0.3-0.4,0.7-0.6,1.2-0.6c0.8,0,1.3,0.5,1.3,0.6l0,0l0.4,1.1
	l-0.2-0.2l0,0c0.2,0.9-0.8,1.7-2,2.5c-0.6,0.5-1.3,1-1.7,1.5c-4.5,5.1-6.3,9.5-5.4,13.4c0.2,1,1.1,3.2,2,3.5c0,0,6,2.2,7.1,2.5
	c0.9,0.3,2.3-0.3,3.8-1.5c1.4-1.1,3.8-4.3,4.5-7.2c0.6-2.4,0.2-6.4,0-8.6c0-0.6,0-1,0-1.3c0-1.2,0.7-1.4,1.4-1.7L67.1,82.9
	L67.1,82.9L67.1,82.9z"/>
<path class="st0" d="M66.8,80.2c-6.5,0-11.8-5.3-11.8-11.8s5.3-11.8,11.8-11.8s11.8,5.3,11.8,11.8S73.3,80.2,66.8,80.2z M66.8,57.1
	c-6.2,0-11.3,5.1-11.3,11.3s5.1,11.3,11.3,11.3s11.3-5.1,11.3-11.3S73,57.1,66.8,57.1z"/>
<path class="st0" d="M87.2,118.1H46.3c0,0-0.2,0-0.2-0.2L17.3,89.1v-0.2l0,0V48l0,0c0-0.1,28.8-28.9,28.8-28.9c0-0.1,0-0.2,0.2-0.2
	h41.1l28.9,28.9v41.1l0,0v0.2L87.4,118h-0.2L87.2,118.1z M46.5,117.6h40.8L116,88.9l0,0V48.2L87.3,19.5H46.6L17.8,48.3l0,0V89
	l28.8,28.8L46.5,117.6L46.5,117.6z"/>
<path class="st0" d="M92,129.3H41.6L5.9,93.6V43.2L41.6,7.5H92l35.7,35.7v50.4L92,129.3z M41.8,128.8h50l35.4-35.4v-50L91.8,8h-50
	L6.4,43.4v50L41.8,128.8z"/>
<path class="st0" d="M187.6,234.1H187c-1.1-0.3-7.1-2.5-7.1-2.5c-1.2-0.4-2.1-2.8-2.3-3.8c-0.9-4.1,0.9-8.6,5.5-13.8
	c0.5-0.5,1.2-1,1.8-1.5c0.9-0.7,1.9-1.4,1.8-1.9l-0.2-0.9c0-0.1-0.5-0.4-0.9-0.4s-0.5,0.1-0.8,0.4s-0.5,0.6-0.8,1
	c-1.5,1.8-4,4.8-6.2,6.1c-2.7,1.6-6.8,2.2-8.6,1.9c-1.2-0.2-3.4-0.6-4.1-1.9c-0.5-0.9-3.2-6.7-3.3-6.8c-0.5-1.1,0.5-3.4,1.1-4.4
	c2.2-3.5,6.7-5.4,13.7-5.9c0.7,0,1.6,0,2.4,0.2c1.1,0.2,2.3,0.3,2.6,0l0.5-0.8c0-0.1,0-0.7-0.4-1c-0.2-0.2-0.5-0.3-0.9-0.3
	s-0.7,0-1.3,0.1c-2.3,0.2-6.3,0.6-8.7,0c-3-0.8-6.4-3.3-7.5-4.7c-0.8-1-2-2.9-1.6-4.3c0.3-0.9,2.4-7,2.5-7.1
	c0.4-1.2,2.8-2.1,3.8-2.3c4.1-0.9,8.6,0.9,13.8,5.5c0.5,0.5,1,1.2,1.5,1.8c0.7,0.9,1.4,1.9,1.9,1.8c0.6-0.1,1.1-0.6,1.3-1.1
	c0-0.4,0-0.7-0.4-1.1c-0.2-0.2-0.6-0.5-1-0.8c-1.8-1.5-4.8-4-6.1-6.2c-1.6-2.8-2.2-6.8-1.9-8.6c0.2-1.2,0.6-3.4,1.9-4.1
	c0.9-0.5,5.4-2.6,6.7-3.3c1.3-0.6,3.8,0.7,4.4,1c3.5,2.2,5.4,6.7,5.9,13.7c0,0.7,0,1.6-0.2,2.4c-0.2,1.1-0.3,2.3,0,2.6l0.8,0.5
	c0,0,0.7,0,1-0.4c0.2-0.2,0.3-0.5,0.3-0.9s0-0.7,0-1.3c-0.2-2.3-0.6-6.3,0-8.7c0.8-3.1,3.3-6.4,4.7-7.5c1-0.8,2.9-2,4.3-1.6
	c1.1,0.3,7.1,2.5,7.1,2.5c1.2,0.4,2.1,2.8,2.3,3.9c0.9,4.1-0.9,8.6-5.5,13.8c-0.5,0.5-1.2,1-1.8,1.5c-0.9,0.7-1.9,1.4-1.8,1.9
	l0.2,0.9c0.3,0.2,0.6,0.4,0.9,0.4s0.6-0.1,0.8-0.4c0.2-0.2,0.5-0.6,0.8-1c1.5-1.8,4-4.8,6.2-6.1c2.8-1.6,6.8-2.2,8.6-1.9
	c1.2,0.2,3.4,0.6,4.1,1.9c0.6,1,3.2,6.7,3.3,6.8c0.6,1.2-0.5,3.5-1.1,4.4c-2.2,3.5-6.7,5.4-13.7,5.9c-0.7,0-1.6,0-2.4-0.2
	c-1.1-0.2-2.3-0.3-2.6,0v0.2c-0.4,0.5-0.6,0.7-0.4,1.2c0.2,0.5,0.6,0.7,1.1,0.7s0.7,0,1.3-0.1c2.3-0.2,6.3-0.6,8.7,0
	c3.1,0.8,6.4,3.3,7.5,4.7s2,2.9,1.6,4.3c-0.2,0.7-2.2,6.4-2.5,7.1l0,0c-0.5,1.3-3.2,2.2-3.9,2.3c-4.1,0.9-8.6-0.9-13.8-5.5
	c-0.6-0.5-1-1.1-1.5-1.7c-0.3-0.4-0.6-0.8-0.9-1.2l0,0c-0.2-0.3-0.5-0.6-0.8-0.7c-0.4,0-0.8,0-1,0.3l0,0c-0.2,0.2-0.3,0.4-0.3,0.7
	c0,0.5,0,0.9,0.4,1.1c0.2,0.2,0.6,0.5,1,0.8c1.8,1.5,4.8,4,6.1,6.2c1.6,2.8,2.2,6.8,1.9,8.6c-0.2,1.2-0.6,3.4-1.9,4.1
	c-0.9,0.5-5.8,2.8-6.7,3.3c-1.3,0.6-3.8-0.7-4.4-1c-3.5-2.2-5.4-6.7-5.9-13.7c0-0.7,0-1.6,0.2-2.4c0.2-1.1,0.3-2.3,0-2.6
	c-0.3-0.2-0.5-0.3-0.8-0.5h-0.2c-0.7,0.2-1.1,0.4-1.1,1.2s0,0.7,0,1.3c0.2,2.3,0.6,6.3,0,8.7c-0.8,3.1-3.3,6.4-4.7,7.5
	C190.4,233.1,188.9,234,187.6,234.1L187.6,234.1L187.6,234.1z M197.2,213.2L197.2,213.2c0.3,0.2,0.6,0.4,0.8,0.6l0,0
	c0.7,0.5,0.5,1.7,0.3,3.1c0,0.8-0.2,1.6-0.2,2.3c0.4,6.8,2.3,11.1,5.6,13.3c0.9,0.6,3,1.5,3.9,1c1-0.5,5.8-2.7,6.7-3.3
	c0.8-0.4,1.4-1.8,1.7-3.8c0.2-1.7-0.4-5.7-1.9-8.3c-1.2-2.1-4.3-4.7-6-6.1c-0.4-0.4-0.8-0.7-1-0.9c-0.5-0.4-0.7-1-0.5-1.5
	c0-0.4,0.2-0.7,0.5-0.9l0,0c0.4-0.4,0.9-0.6,1.5-0.5c0.5,0,0.8,0.5,1.1,0.8l0,0c0.4,0.4,0.7,0.9,1,1.3c0.4,0.6,0.9,1.2,1.4,1.6
	c5.1,4.5,9.5,6.3,13.4,5.4c1-0.2,3.2-1.1,3.5-2l0,0c0,0,2.1-6,2.4-7.1c0.3-0.9-0.3-2.3-1.5-3.8c-1.1-1.4-4.3-3.8-7.2-4.5
	c-2.4-0.6-6.4-0.2-8.6,0c-0.6,0-1,0-1.3,0.1c-0.7,0-1.3-0.3-1.6-1s0-1.2,0.3-1.6v-0.2c0.6-0.7,1.8-0.5,3.2-0.3
	c0.8,0.1,1.6,0.2,2.3,0.2c6.8-0.4,11.1-2.3,13.3-5.6c0.6-0.9,1.5-3,1-3.9c0,0-2.7-5.7-3.3-6.7c-0.4-0.8-1.8-1.4-3.8-1.7
	c-1.7-0.2-5.7,0.4-8.3,1.9c-2.1,1.2-4.6,4.2-6.1,6c-0.4,0.4-0.7,0.8-0.9,1c-0.3,0.3-0.7,0.5-1.1,0.6c-0.5,0-1-0.2-1.4-0.5l0,0
	l-0.3-0.9l0,0c0,0.1,0-0.1,0-0.1c-0.2-0.8,0.8-1.5,2-2.4c0.6-0.5,1.3-1,1.7-1.5c4.5-5.1,6.3-9.5,5.4-13.4c-0.2-1-1.1-3.2-2-3.5
	c0,0-6-2.2-7.1-2.5c-0.9-0.3-2.3,0.3-3.8,1.5c-1.4,1.1-3.8,4.3-4.5,7.2c-0.6,2.4-0.2,6.4,0,8.6c0,0.6,0,1,0,1.3c0,0.5,0,0.9-0.4,1.2
	c-0.3,0.4-0.8,0.5-1.1,0.5v0.2l-0.4-0.2l-0.9-0.6c-0.7-0.4-0.5-1.7-0.3-3.1c0-0.8,0.2-1.6,0.2-2.3c-0.4-6.8-2.3-11.1-5.6-13.3
	c-0.9-0.6-3-1.5-3.9-1c-1,0.5-5.8,2.8-6.7,3.3c-0.8,0.4-1.4,1.8-1.7,3.8c-0.2,1.7,0.4,5.7,1.9,8.3c1.2,2.1,4.4,4.7,6,6.1
	c0.4,0.4,0.8,0.7,1,0.9c0.5,0.4,0.7,1,0.5,1.5c-0.2,0.7-0.8,1.3-1.6,1.4c-0.8,0.2-1.5-0.8-2.4-2c-0.5-0.6-1-1.3-1.5-1.7
	c-5.1-4.5-9.5-6.3-13.4-5.4c-1,0.2-3.2,1.1-3.5,2c0,0-2.1,6-2.5,7.1c-0.3,0.9,0.3,2.3,1.5,3.8c1.1,1.4,4.3,3.8,7.2,4.5
	c2.4,0.6,6.4,0.2,8.6,0c0.6,0,1,0,1.3-0.1c0.5,0,0.9,0.1,1.2,0.4c0.4,0.3,0.5,0.8,0.5,1.1h0.2l-0.2,0.4l-0.6,0.9
	c-0.4,0.7-1.7,0.5-3.1,0.3c-0.8-0.1-1.6-0.2-2.3-0.2c-6.8,0.4-11.1,2.3-13.3,5.6c-0.6,0.9-1.5,3-1,3.9c0,0,2.7,5.7,3.3,6.7
	c0.4,0.8,1.8,1.4,3.8,1.7c1.7,0.2,5.7-0.4,8.3-1.9c2.1-1.2,4.6-4.2,6.1-6c0.4-0.4,0.7-0.8,0.9-1c0.3-0.4,0.7-0.6,1.2-0.6
	c0.8,0,1.3,0.5,1.3,0.6l0,0l0.4,1.1l-0.2-0.2l0,0c0.2,0.9-0.8,1.7-2,2.5c-0.6,0.5-1.3,1-1.7,1.5c-4.5,5.1-6.3,9.5-5.4,13.4
	c0.2,1,1.1,3.2,2,3.5c0,0,6,2.2,7.1,2.5c0.9,0.3,2.3-0.3,3.8-1.5c1.4-1.1,3.8-4.3,4.5-7.2c0.6-2.4,0.2-6.4,0-8.6c0-0.6,0-1,0-1.3
	c0-1.2,0.7-1.4,1.4-1.7L197.2,213.2L197.2,213.2z"/>
<path class="st0" d="M196.9,210.5c-6.5,0-11.8-5.3-11.8-11.8s5.3-11.8,11.8-11.8s11.8,5.3,11.8,11.8S203.4,210.5,196.9,210.5z
	 M196.9,187.4c-6.2,0-11.3,5.1-11.3,11.3s5.1,11.3,11.3,11.3s11.3-5.1,11.3-11.3S203.1,187.4,196.9,187.4z"/>
<path class="st0" d="M217.3,248.4h-40.9c0,0-0.2,0-0.2-0.2l-28.8-28.8v-41.1l0,0c0-0.1,28.8-28.9,28.8-28.9c0-0.1,0-0.2,0.2-0.2
	h41.1l28.9,28.9v41.1l0,0v0.2l-28.9,28.9h-0.2L217.3,248.4z M176.5,247.9h40.8l28.7-28.7l0,0v-40.7l-28.7-28.7h-40.7l-28.8,28.8l0,0
	v40.7l28.8,28.8L176.5,247.9L176.5,247.9z"/>
<path class="st0" d="M222.1,259.6h-50.4L136,223.9v-50.4l35.7-35.7h50.4l35.7,35.7v50.4L222.1,259.6z M171.9,259.1h50l35.4-35.4v-50
	l-35.4-35.4h-50l-35.4,35.4v50L171.9,259.1z"/>
</svg>
