<svg version="1.1" id="Layer_1" xmlns="http://www.w3.org/2000/svg" x="0" y="0" viewBox="0 0 46 30" xml:space="preserve">
  <style>
    .fill-white{fill:#fff}
  </style>
  <path class="fill-white" d="M6.6 16.9c-.8-.9-.8-2.2 0-3.1l10-11.6c.9-1 2.4-1.1 3.4-.2.5.5.8 1.1.8 1.8v23.1c0 1.3-1.1 2.4-2.4 2.4-.7 0-1.4-.3-1.8-.8l-10-11.6z" transform="translate(.329 -.376)"/>
  <path class="fill-white" d="M24.6 25.8c-.4 0-.8-.2-1.1-.5-.5-.6-.5-1.6.1-2.1 1.9-1.7 3-4.9 3-8.3 0-3.5-1.2-6.6-3-8.3-.6-.5-.7-1.5-.1-2.1.5-.6 1.5-.7 2.1-.1 2.5 2.3 4.1 6.2 4.1 10.6 0 4.4-1.5 8.3-4.1 10.6-.3.1-.7.2-1 .2z"/>
  <path class="fill-white" d="M31.3 28.1c-.4 0-.8-.2-1.1-.5-.5-.6-.5-1.6.1-2.1 2.4-2.1 3.9-6.2 3.9-10.5 0-4.4-1.5-8.4-3.9-10.5-.6-.5-.7-1.5-.1-2.1.5-.6 1.5-.7 2.1-.1 3.1 2.7 4.9 7.5 4.9 12.8 0 5.3-1.8 10-4.9 12.8-.3 0-.6.2-1 .2z"/>
</svg>