<svg xmlns="http://www.w3.org/2000/svg" width="17.887" height="13.819" viewBox="0 0 17.887 13.819">
  <path id="basket" d="M17.982,16.79H16.577a.857.857,0,0,0-.255-.529l-3.888-3.888a.917.917,0,0,0-1.3,1.3l3.122,3.122H5.642l3.122-3.122a.917.917,0,0,0-1.3-1.3L3.6,16.242a.9.9,0,0,0-.255.529H1.918a.912.912,0,0,0-.894,1.1L3.4,25.187a.918.918,0,0,0,.894.73H15.609a.918.918,0,0,0,.894-.73l2.373-7.32a.914.914,0,0,0-.894-1.077ZM6.3,23.653a.456.456,0,0,1-.913,0V19.089a.456.456,0,1,1,.913,0Zm2.738,0a.456.456,0,0,1-.913,0V19.089a.456.456,0,1,1,.913,0Zm2.738,0a.452.452,0,0,1-.456.456.464.464,0,0,1-.456-.456V19.089a.456.456,0,1,1,.913,0Zm2.738,0a.452.452,0,0,1-.456.456.464.464,0,0,1-.456-.456V19.089a.456.456,0,1,1,.913,0Z" transform="translate(-1.007 -12.098)" fill="#fff"/>
</svg>
