<?xml version="1.0" encoding="UTF-8"?>
<svg id="Layer_1" xmlns="http://www.w3.org/2000/svg" version="1.1" viewBox="0 0 64 56.7">
  <!-- Generator: Adobe Illustrator 29.5.0, SVG Export Plug-In . SVG Version: 2.1.0 Build 137)  -->
  <defs>
    <style>
      .st0 {
        fill: #fff;
      }
    </style>
  </defs>
  <g id="bluesky">
    <path class="st0" d="M14.4,4.2c7.2,5.6,15.2,16.5,18,22.6,3-5.9,10.7-17,18-22.6,5.2-3.9,13.7-7,13.7,2.8s-1.1,16.3-1.9,18.7c-2.2,8.1-10.6,10.2-18,8.9,12.8,2.2,16.1,9.4,9.1,16.7-13.3,13.7-19.3-3.5-20.7-7.8-.2-.7-.4-1.1-.4-.9,0-.4,0,0-.4.9-1.5,4.4-7.4,21.7-20.7,7.8-7-7.2-3.7-14.4,9.1-16.7-7.4,1.3-15.6-.7-18-8.9C1.4,23.3.3,9,.3,7,.3-2.6,8.8.3,14,4.2h.4Z"/>
  </g>
</svg>