<?xml version="1.0" encoding="utf-8"?>
<!-- Generator: Adobe Illustrator 27.6.1, SVG Export Plug-In . SVG Version: 6.00 Build 0)  -->
<svg version="1.1" id="Group_962" xmlns="http://www.w3.org/2000/svg" xmlns:xlink="http://www.w3.org/1999/xlink" x="0px" y="0px"
	 viewBox="0 0 80 80" style="enable-background:new 0 0 80 80;" xml:space="preserve">
<rect id="Rectangle_783" x="2.9" y="66.3" width="54.9" height="3.4"/>
<rect id="Rectangle_784" x="2.9" y="60.7" width="54.9" height="3.4"/>
<g id="Group_961">
	<g id="Group_960">
		<path id="Path_1843" d="M58.4,35.3h5.2c5.8,0,10-4.6,10-10.8s-4.4-10.8-10.1-10.8h-5.1V35.3z M31.2,57.5c-7.2,0-14.3-2.5-19.7-7.3
			c-5-4.5-8.1-10.9-8.4-17.7l0,0v-1.7L3,10.3h44.9v3.4H6.4v17.1c0,6.4,2.6,12.6,7.4,16.9c4.8,4.2,11,6.5,17.4,6.4
			c11.6,0,21.2-6.8,24-17.1H55V10.3h8.5V12v-1.7c7.7,0,13.5,6.1,13.5,14.2s-5.6,14.2-13.4,14.2h-5.4C54.7,50,44,57.5,31.2,57.5"/>
	</g>
</g>
</svg>
