<svg xmlns="http://www.w3.org/2000/svg" width="24.001" height="24" viewBox="0 0 24.001 24">
  <g id="date" transform="translate(-16.668 -16.668)">
    <path id="Path_13318" data-name="Path 13318" d="M30.665,16.668a1.5,1.5,0,0,0-1.5,1.5v2.25h3v-2.25a1.5,1.5,0,0,0-1.5-1.5Z" transform="translate(-7.997)"/>
    <path id="Path_13319" data-name="Path 13319" d="M36.168,27.082v1.5a1.5,1.5,0,1,1-3,0v-1.5h-9v1.5a1.5,1.5,0,0,1-3,0v-1.5h-4.5V47.333h24V27.082Zm1.5,17.251h-18V31.582h18Z" transform="translate(0 -6.665)"/>
    <path id="Path_13320" data-name="Path 13320" d="M64,16.668a1.5,1.5,0,0,0-1.5,1.5v2.25h3v-2.25a1.5,1.5,0,0,0-1.5-1.5Z" transform="translate(-29.332)"/>
    <path id="Path_13321" data-name="Path 13321" d="M38.632,54.151l-4.05-4.05,2.1-2.1,1.949,1.951L43.582,45l2.1,2.1Z" transform="translate(-11.465 -18.132)"/>
  </g>
</svg>