<svg xmlns="http://www.w3.org/2000/svg" width="24" height="24" viewBox="0 0 24 24">
  <g id="clock" transform="translate(-202 -1322.556)">
    <rect id="Box" width="24" height="24" transform="translate(202 1322.556)" fill="none"/>
    <path id="Path_2027" data-name="Path 2027" d="M394.023,53.165h0a.737.737,0,0,0-.826.723v4.855a1.085,1.085,0,0,0,.516.93l4.338,2.582a.745.745,0,0,0,.826-1.24l-4.028-2.376V53.991C394.746,53.474,394.436,53.165,394.023,53.165Zm.207,13.428a8.263,8.263,0,1,1,8.263-8.263A8.288,8.288,0,0,1,394.229,66.593Zm0-18.593a10.329,10.329,0,1,0,10.329,10.329A10.36,10.36,0,0,0,394.229,48Z" transform="translate(-180.542 1275.984)" fill="#5497a9"/>
  </g>
</svg>
