<?xml version="1.0" encoding="utf-8"?>
<!-- Generator: Adobe Illustrator 27.6.1, SVG Export Plug-In . SVG Version: 6.00 Build 0)  -->
<svg version="1.1" id="Group_981" xmlns="http://www.w3.org/2000/svg" xmlns:xlink="http://www.w3.org/1999/xlink" x="0px" y="0px"
	 viewBox="0 0 80 80" style="enable-background:new 0 0 80 80;" xml:space="preserve">

<g id="Group_980">
	<path id="Path_1856" d="M56.3,16.1l-3.2,2.2c5.7,8.3,6,19.1,0.7,27.7l-2.1,2.1l22.2,22.2l2.8-2.8L57.2,48
		c6.1-9.9,5.7-22.4-0.9-32"/>
	<path id="Path_1857" d="M14.6,14.9c5.7-5.7,13.9-8.4,21.9-7.1L37,3.9C21.1,1.4,6.2,12.2,3.7,28.1
		C1.1,44,11.9,59,27.9,61.5c7.3,1.2,14.7-0.4,20.8-4.5l19.4,19.4l2.8-2.8L48.7,51.4l-2.8,2.8l0,0c-11.8,7.4-27.4,3.7-34.8-8.1
		c-6.2-10-4.7-22.9,3.6-31.1"/>
	<path id="Path_1858" d="M47.3,35.7c-1.4,9-9.9,15.2-18.9,13.7c-2.2-0.3-4.3-1.1-6.1-2.3l-2,3.2c9.5,5.9,22.1,3,28-6.5
		s3-22.1-6.5-28c-7-4.4-16-4.1-22.7,0.8l2.2,3.1c7.4-5.4,17.7-3.7,23.1,3.7C47,26.9,48,31.4,47.3,35.7"/>
</g>
</svg>
