<svg xmlns="http://www.w3.org/2000/svg" width="24.968" height="18" viewBox="0 0 24.968 18">
  <path id="download" d="M14.941,19a7.254,7.254,0,0,0-7.213,6.414A5.805,5.805,0,0,0,8.263,37H22.489a4.935,4.935,0,0,0,0-9.871h-.345A7.26,7.26,0,0,0,14.941,19Zm0,6.1a.58.58,0,0,1,.581.581v6.242L17.744,29.9a.62.62,0,0,1,.826.036.59.59,0,0,1-.045.826l-3.194,2.9a.509.509,0,0,1-.39.145.633.633,0,0,1-.39-.145l-3.194-2.9a.6.6,0,0,1-.045-.826.607.607,0,0,1,.826-.036l2.223,2.023V25.677a.58.58,0,0,1,.581-.581Z" transform="translate(-2.457 -18.999)" fill="#db205d"/>
</svg>
