<?xml version="1.0" encoding="utf-8"?>
<!-- Generator: Adobe Illustrator 27.9.0, SVG Export Plug-In . SVG Version: 6.00 Build 0)  -->
<svg version="1.1" id="Layer_1" xmlns="http://www.w3.org/2000/svg" xmlns:xlink="http://www.w3.org/1999/xlink" x="0px" y="0px"
	 viewBox="0 0 11.6 6.8" style="enable-background:new 0 0 11.6 6.8;" xml:space="preserve">
<style type="text/css">
	.st0{fill-rule:evenodd;clip-rule:evenodd;fill:#FFFFFF;}
</style>
<path id="down-arrow" class="st0" d="M4.1,5.4L5,6.2l0.4,0.4c0.2,0.2,0.6,0.2,0.8,0c0,0,0,0,0,0l0.4-0.4C6.9,6,7.3,5.6,7.5,5.4l4-4
	c0.2-0.2,0.2-0.6,0-0.8c0,0,0,0,0,0L11,0.2c-0.2-0.2-0.6-0.2-0.8,0l-4,4C6,4.4,5.6,4.4,5.4,4.1l-4-4c-0.2-0.2-0.6-0.2-0.8,0
	c0,0,0,0,0,0L0.2,0.6c-0.2,0.2-0.2,0.6,0,0.8L4.1,5.4z"/>
</svg>
