<?xml version="1.0" encoding="utf-8"?>
<!-- Generator: Adobe Illustrator 27.6.1, SVG Export Plug-In . SVG Version: 6.00 Build 0)  -->
<svg version="1.1" id="Layer_1" xmlns="http://www.w3.org/2000/svg" xmlns:xlink="http://www.w3.org/1999/xlink" x="0px" y="0px"
	 viewBox="0 0 80 90" style="enable-background:new 0 0 80 90;" xml:space="preserve">
<g id="Group_984">
	<g id="Group_983">
		<path id="Path_1859" d="M7.1,57.7c0-5.9,3.8-11.1,9.5-12.8c5.6-1.8,11.7,0.2,15.1,5.1l0.2,0.2l2.7-1.9l-0.2-0.2
			c-3.1-4.5-8.2-7.1-13.7-7.1l0,0c-9.4,0-16.9,7.5-16.9,16.7v14H36v-3.3H7.1V57.7z"/>
		<path id="Path_1860" d="M71.3,45.9L71.3,45.9c-6.6-6.6-17.3-6.5-23.9,0.2c-0.6,0.6-1.2,1.3-1.7,2.1v0.2c-0.1,0,2.5,1.9,2.5,1.9
			l0.2-0.2c4.4-6.1,12.8-7.5,18.9-3.2c0.6,0.4,1.1,0.9,1.6,1.4c2.5,2.5,4,6,3.9,9.5v10.7H43.9v3.3h32.2v-14c0-4.4-1.8-8.7-4.9-11.9"
			/>
		<path id="Path_1861" d="M20.5,38.8L20.5,38.8c5.5,0,9.9-4.4,9.9-9.9c-0.3-6.7-5.3-9.8-9.9-9.8l0,0c-4.6-0.1-9.7,3-9.9,9.8
			C10.6,34.4,15.1,38.8,20.5,38.8 M20.5,35.4c-3.6,0-6.5-2.7-6.6-6.3v-0.2c0-3.7,3-6.6,6.7-6.5c3.6,0,6.5,2.9,6.5,6.5
			s-2.8,6.5-6.4,6.6c0,0-0.2,0-0.3,0"/>
		<path id="Path_1862" d="M30.8,59.1v7.1h18.7v-7.1c-0.3-6.4-5-9.3-9.4-9.3S31,52.7,30.8,59.1 M46.7,63.4H33.6v-4.3
			c0-2.4,1.3-4.6,3.4-5.7c2.3-1.2,5-1.1,7.2,0.4c1.6,1,2.6,2.8,2.6,4.7L46.7,63.4L46.7,63.4z"/>
		<path id="Path_1863" d="M40.2,48.6c3.3,0,6-2.7,6-6s-2.7-6-6-6s-6,2.7-6,6S36.9,48.6,40.2,48.6 M37,42.6c0-1.7,1.4-3.2,3.1-3.2
			c1.7,0,3.2,1.4,3.2,3.1s-1.4,3.2-3.1,3.2l0,0c-1.7,0-3.1-1.3-3.1-3c0,0,0-0.1,0-0.2"/>
		<path id="Path_1864" d="M69.2,27.8c-0.2-6.5-5.2-9.4-9.7-9.4l0,0c-4.5,0-9.5,2.9-9.7,9.4v10h19.4V27.8z M53,34.7v-6.9
			c0-3.5,2.8-6.3,6.2-6.3c0.1,0,0.2,0,0.3,0l0,0c3.5-0.2,6.4,2.5,6.6,6c0,0.1,0,0.2,0,0.3v6.9C66.1,34.7,52.9,34.7,53,34.7z"/>
	</g>
</g>
</svg>
