<svg xmlns="http://www.w3.org/2000/svg" width="30" height="30" viewBox="0 0 30 30">
  <g id="flag" transform="translate(2.025 2.374)">
    <circle id="Ellipse_258" data-name="Ellipse 258" cx="15" cy="15" r="15" transform="translate(-2.025 -2.374)" fill="#fff"/>
    <path id="Path_12494" data-name="Path 12494" d="M16.074,8.016V.4A12.96,12.96,0,0,1,22.2,4.953Zm0,9.124v7.617A12.965,12.965,0,0,0,22.2,20.2Zm-8.626,0v7.608a12.959,12.959,0,0,1-6.1-4.556Zm0-9.124V.408a12.971,12.971,0,0,0-6.1,4.555Z" transform="translate(1.137 0.103)" fill="#012169"/>
    <path id="Path_12495" data-name="Path 12495" d="M7.124,17.226H4.254l-2.9,1.45a12.606,12.606,0,0,0,.638,1.131L7.15,17.226ZM1.4,8.607h2.87L1.358,7.146Q1.07,7.722.839,8.325Zm8.908,6.886V25.562a12.851,12.851,0,0,0,2.6.264,13.008,13.008,0,0,0,2.573-.256V15.494H25.566a12.952,12.952,0,0,0,0-5.174H15.486V.258a12.953,12.953,0,0,0-5.174.006V10.319H.262a12.952,12.952,0,0,0,0,5.174ZM23.83,6.016,18.674,8.6h2.87l2.92-1.463c-.192-.386-.406-.76-.635-1.123m.557,11.2h-2.87l2.944,1.476q.288-.576.518-1.179Z" transform="translate(0 -0.233)" fill="#c8102e"/>
  </g>
</svg>
