<?xml version="1.0" encoding="utf-8"?>
<!-- Generator: Adobe Illustrator 27.6.1, SVG Export Plug-In . SVG Version: 6.00 Build 0)  -->
<svg version="1.1" id="Group_975" xmlns="http://www.w3.org/2000/svg" xmlns:xlink="http://www.w3.org/1999/xlink" x="0px" y="0px"
	 viewBox="0 0 80 80" style="enable-background:new 0 0 80 80;" xml:space="preserve">
<g id="Group_974">
	<path id="Path_1851" d="M53.2,32.9L50,32.3c-1.6,8.4-7.9,15.2-16.3,17.2h-2.6v26.9h3.3V52.8c9.6-2.3,17-10.1,18.8-19.8"/>
	<path id="Path_1852" d="M28.6,6.9c6.9,0,13.4,3.3,17.5,8.9l2.7-2c-8-11-23.6-13.5-34.8-5.5C3,16.4,0.5,32,8.4,43.1
		c3.7,5.1,9.1,8.6,15.3,9.8v23.4H27V49.4h-3.3C12.1,46.8,4.9,35.2,7.7,23.6C9.9,13.9,18.6,6.9,28.6,6.9"/>
	<path id="Path_1853" d="M44,53.2l-2.2,2.5c2.4,2.2,5.3,3.8,8.5,4.7v16h3.3V57.6l-1.4-0.2c-3.1-0.6-5.9-2-8.2-4.1"/>
	<path id="Path_1854" d="M55.8,19.9c-11.4,0-20.6,9.2-20.6,20.6h3.3c0-9.5,7.7-17.3,17.2-17.3s17.3,7.7,17.3,17.2
		c0,8.3-5.8,15.4-13.9,17l-1.4,0.2v18.8h3.3v-16c9.1-2.3,15.4-10.5,15.3-19.9c0-11.4-9.2-20.6-20.6-20.6"/>
</g>
</svg>
