<?xml version="1.0" encoding="UTF-8"?>
<svg id="Layer_1" xmlns="http://www.w3.org/2000/svg" version="1.1" viewBox="0 0 870.7 316.2">
  <!-- Generator: Adobe Illustrator 29.3.1, SVG Export Plug-In . SVG Version: 2.1.0 Build 151)  -->
  <defs>
    <style>
      .st0 {
        fill: #f0c14f;
      }
    </style>
  </defs>
  <path d="M340.9,113.2c18.6-29.2,9.3-33.7,8.3-33.1-18.1,10.2-31.9,41-30.8,51.2,1.6,14.1,12.5-2.6,22.4-18.1M411.5,86.4c-3.4,6-5.6,12.6-6.4,19.5-.5,3.4-1,18.3-.9,20.3.2,3.3.6,6.5,1.3,9.8.4,1.6,3.2,7.4-5.7,8.6-5.2.7-5.1-12.3-5.2-14.5-.2-4.6.6-20.6,1-22.9.5-2.4-.5.1-1.5,1.7-2.2,3.7-4.8,8.7-7.9,13.6-4,6.5-13.1,21.9-25.4,21-4.6-.3-9.3-.9-12-13.8-1-4.9-.6-11.4-.5-15.3-.1-.8,0-1.7-.7-1.3-4.4,10.2-18.5,40.2-34.5,33.4-7.4-3.1-11.1-12.7-2.9-31.4,8-18.2,28.1-40.8,36.1-42.3,7.1-1.4,7.9,2.2,7.9,2.2.7-1.3,5.1-1.2,6.1.7,1.3,2.5,2.2,3,1.3,9.7-.5,3.9-4.1,28.1-3.5,36.4.3,3.9,1,13.5,4.9,14,6.9.8,15.3-13.9,16.3-15.4,1.9-3,16.8-28.1,18.6-31.7,2-3.9,3.2-6.8,4.5-9.3s5.1-2.8,8.5-.5,1.7,5.4.5,7.4h0ZM95.4,98.7c-8.8.9-24.8,22.2-28.1,29.7-3.4,7.7-4.6,15.1-.6,18.2,8.3,6.4,16.9-4.5,19.4-7,1.6-1.6,12.5-13.5,15.2-25.5,1.8-8,2.7-16.3-5.9-15.4ZM100,192.9c-.6,1.1-1.2,2.2-1.9,3.2-6.5,10.7-15,20.3-25.5,27.2-14.3,9.4-27.6,13-42.6,12.8-8.7-.1-17.1-1.5-24.2-6.1-5.9-3.7-6.7-9.6-4.9-13.4,2.5-5.4,10.2-4.8,13.5-1.8,8.2,7.7,13.1,10.7,23.6,10.1,8.7-.5,17.1-3,24.7-7.3,43.5-25.4,43.1-71.1,44.9-98.7.2-1.7-.7-.5-1,.5-2.1,5.9-4.7,11.5-7.8,16.9-4.5,8.1-10.8,15-18.4,20.1-5.5,3.6-14.5,5.4-20.8,1.3-2.3-1.5-15.7-9.3-4.3-32.6,7.1-14.7,22.1-24.8,25.5-27,8.3-5.3,14.2-7.8,20.4-7.3,3.2.2,3.6,1.5,6,1.4,1.3-1.6,2.1-2.7,4.3-3.3,2.9-.5,6.5,2,7.8,6.7s-2.2,12.2-3,15.8c0,0,3.1,46.9-16,81.4ZM149.6,87.2c-5.3.1-4.9,4-6,7.3-1.1,3.4-10.3,33.6-11.4,39s-2,10.3-.3,17.7c1.7,7.6,10.4,5.4,11.4,4,4.3-6,.5-7.7.3-11.9-.1-4.4,1.1-8.9,2-14.8.3-2.1,1-11.6,1.3-12.9.4-1.4,3.4-12,7.7-18.5,1.9-2.8,3.5-10.1-4.9-9.9h0ZM164.1,51.8c-.7-1.5-4.7-6.2-9.9-2.6-7.7,5.5,1.2,13,2.6,16.7s9.1,6.8,8-.5c-.2-1.1,1.4-9.3-.7-13.6ZM249.2,87.4c-2.5.6-7.5,1.6-10.7,2.1-4.8.8-7.4,3.8-7.2,6.8.2,3.1,1.2,4.5,5.5,3.7,3.8-.7,7.1-4,10.5-4,0,0-7,29.3-7.4,33.2s-2.5,14.7,1.7,20.8c9.4,13.6,28.2-2,30-3.7,1.3-1.3,13.2-11.7,17.2-20,2-4.2-1.4-5.2-3.8-6s-7.3.6-8,3.7c-1.5,6.7-18,24.9-26.1,21.3-9.6-4.3,7.7-52.5,7.7-52.5,2.1-.9,12.5-3.6,22.4-6.2,11.4-2.9,46.3-9.8,38.4-20.2-3.9-5.1-13.8,2.7-17.2,4.3-12.1,5.8-41.7,14.3-41.7,14.3,0,0,3.8-17.3,5.1-20.7,1.4-3.9,6.7-6.5,7.5-13.4.9-8.1-8.8-11.8-13.5-2.9-1,1.8-2.3,6.8-2.4,7-1.2,1.2-12,5.5-22.6,10.5-3.3,1.6-22.3,8.5-22.3,8.4,0-.1,5.7-18.3,12.4-33.4,4.4-10.1,10.6-24.1,21.6-26.9,10.3-2.7,5.4,8.1,10.1,10.9,5.9,3.5,9.5-.9,10.4-5.2.7-3.3.5-20.9-17.3-19.1-17,1.7-30.5,27.6-47.2,76-.2.2-13.5,8.8-24.5,11-5.4,1.1-7.9,1.6-8.6,3.5-1.2,3.2-.4,6.8,2,9.2,3.1,3.7,27.6-12.5,27.6-12.4-.5.7-20.6,77.3-20.8,78.2-1.2,6.4-7.6,23.2-7.3,30.8.2,3.9,1.7,12.1,7.4,11.7,11.8.8,9.6-15.9,8.8-18.9-1.7-6.3,6.9-48,14.5-78.8,1.6-6.3,4.8-16.6,5.3-19,.6-3.6,3-6.6,6.2-8.2,0,0,42.6-20.1,43-20,0,0-6.8,24.2-6.8,24.2ZM541,125.7c8.2,7.8,16.4,2.9,20.7-.5,12.9-10.4,39.6-57.9,39.6-57.9.2,1.6-11.1,56,4,62,9.7,3.9,32.2-15.3,34.7-17.1,14.9-10.3,5.8-14,2.9-14-7.7,0-6.3,5.5-8.4,8-3.5,4.1-17.3,18.4-24.1,14.6-3.7-2.1-2.8-14.1-2.4-16.9,2.1-28.8,2.7-34,4.4-40.6.9-3.7,5.4-3.6,8.2-4.1,37.1-6.9,43.7-4.1,48.4-6.3,3.7-1.8,4.3-9.6-.9-11.2-2.4-.7-5.4,1.1-10.9,3.1-5.4,2-32.8,8.1-36.8,8.7-3.7.5-4.5,0-5.4-1.1-.9-1.1.8-14.7,6.1-25.9,2.3-4.8,2.4-12.3-5.2-12.8-3.1-.2-5.7.7-6.9,3.3-1.2,2.6-3.4,26.6-4,28.2-.5,1.6-3.4,2.8-4,5.5s-.2,4.4-2,5.1c-1.9.6-7,1.1-9.1,1.6-2.2.5-3.5,4.8-3.6,7.2s3.9,1,5.8.7c2.2-.3,7.5-3,3.7,1.6-1.4,1.7-27.2,42-37.2,50.3-11.6,9.5-10.7-9.2-10.5-12.4,1.7-19.1,10.1-31.9,11.3-34.9,1.2-3.1,1.7-12.1-8.2-10.1-2.3.6-4.2,2.3-4.9,4.6,0,0,0,.1,0,.2-1,8.9-18.1,49-5.2,61.3h0ZM556,32.3c3,5.9,8.2,3.8,9.1,2.3.9-1.5,1.6-1.8,4.1-2.8,4.6-1.8-3.4-10.1-10.9-7.8-1,.4-1.7,1.4-1.7,2.5.2,1.7-1.6,3.9-.5,5.9h0ZM462.9,78.9s5-4.3,7.1-4.2c1,0-.7,2.8,2.7,4.4,1.8.9-2,13-9.5,24.6-17.3,26.7-25.5,25.5-26.2,17.4-1.5-16.9,20.9-38.8,25.9-42.3ZM471.7,100.8s0,5.7.4,10.7c.4,4.4,1.9,13.6,3.5,16.6,2.4,4.6,7.5,4.6,11.4,2.3,5.1-3,2.7-8.5.8-10.3-1.7-1.6-5.9-3.7-7.1-10.6-.7-4.1-.1-22.6,1.1-29.1,1.3-5.9,3.1-11.7,5.6-17.3,2-4,14.4-27.2,14.6-35,0-3.4-3.4-6.2-9.1-5.6s-7.1,5.2-7.1,8.2c0,3-6.1,24-6.4,24.9-.5,1.4-1.5,10-4.4,10-6.6-.1-13,2-18.2,6.1-2.8,2.2-12.5,9.7-18.1,17.5-2.5,3.5-14,18.3-12.7,36,1.2,16.1,12.4,13.2,15.6,12.7,14.7-2.4,25-26.5,26.5-29.4,2.6-5.2,1.7-3.8,3.8-7.7h0ZM413.9,42.1c-1.1,1.3-.8,5.5,1.5,7.7,1.8,1.6,2,1.9,2.1,3.3.1,2.4,1.7,2.6,4,2.5,2.9,0,5.3-2.1,5.6-6.2s-3.7-7.7-6.9-8.5-4.9-.5-6.3,1.2Z"/>
  <path class="st0" d="M606.8,189.2c2.5-4.6,8.7-5.7,13-2.8,17.6,11.6,69.5,50.1,75.6,78.7,3,13.9,9.6-163.3,150-243.5,2.3-1.3,5.1-1.8,7.6-.8,14,5.2,4.5,18.4,4.5,18.4-106.9,43.2-146,236.8-152.4,257.3-6.5,20.5-14.1,2.2-14.1,2.2,0,0-27-74.6-75.7-96.2-9.7-5.1-10.5-9.7-8.6-13.2Z"/>
</svg>