<svg xmlns="http://www.w3.org/2000/svg" width="58" height="58" viewBox="0 0 58 58">
  <g id="made-by-HdK" transform="translate(-2 -2)">
    <path id="Path_1633" data-name="Path 1633" d="M68.991,69.673a1.336,1.336,0,0,0-.343-1.03,1.387,1.387,0,0,0-1.03-.343H67v2.746h.618a1.288,1.288,0,0,0,1.03-.343A1.387,1.387,0,0,0,68.991,69.673Z" transform="translate(-46.815 -47.798)"/>
    <path id="Path_1634" data-name="Path 1634" d="M100.807,68.924a.379.379,0,0,0,.172-.343.492.492,0,0,0-.172-.378.965.965,0,0,0-.515-.1H99.4v.927h.892A.965.965,0,0,0,100.807,68.924Z" transform="translate(-70.114 -47.543)"/>
    <path id="Path_1635" data-name="Path 1635" d="M53.452,69.2,52.8,70.71h1.3Z" transform="translate(-36.556 -48.37)"/>
    <path id="Path_1636" data-name="Path 1636" d="M101.182,74.081a.443.443,0,0,0-.172-.378.965.965,0,0,0-.515-.1h-1v1h1a.965.965,0,0,0,.515-.1A.568.568,0,0,0,101.182,74.081Z" transform="translate(-70.195 -51.504)"/>
    <path id="Path_1637" data-name="Path 1637" d="M98.568,113.1a2.081,2.081,0,0,0-1.751.789,3.458,3.458,0,0,0-.618,2.231,3.764,3.764,0,0,0,.652,2.334,2.272,2.272,0,0,0,3.5,0,4.525,4.525,0,0,0,0-4.565A2.1,2.1,0,0,0,98.568,113.1Z" transform="translate(-68.098 -80.476)"/>
    <path id="Path_1638" data-name="Path 1638" d="M31,2A29,29,0,1,0,60,31,28.995,28.995,0,0,0,31,2Zm1.661,17.85.985,1.351L34.66,19.85h1.154l-1.633,2.168v1.746H33.168V21.99l-1.633-2.168h1.126Zm-4.223,0h1.886a1.52,1.52,0,0,1,.985.282.825.825,0,0,1,.366.732.927.927,0,0,1-.169.535,1.12,1.12,0,0,1-.45.338,1.166,1.166,0,0,1,.535.338,1.041,1.041,0,0,1,.169.591.951.951,0,0,1-.169.563,1.044,1.044,0,0,1-.479.366,1.883,1.883,0,0,1-.732.141H28.438V19.85Zm-4.871,0h2.759v.788H24.552v.732h1.661v.788H24.552v.817h1.774v.788H23.567Zm-4.28,0h1.577a2.869,2.869,0,0,1,1.126.225,1.373,1.373,0,0,1,.7.676,2.268,2.268,0,0,1,0,2.083,1.808,1.808,0,0,1-.7.676,2.672,2.672,0,0,1-1.126.225H19.287Zm-2.844,0h.817l1.83,3.885H18.049l-.338-.817H15.993l-.338.817H14.642Zm-6,0h.788l1.183,2.224,1.154-2.224h.788v3.885h-.873V21.681l-.76,1.408H12.08l-.732-1.351v2h-.9Zm13.2,21h-3.66v-5.8H14.107v5.8h-3.66V26.5h3.66V32.07h5.856V26.5h3.66V40.854Zm12.36,0H32.436V39.5A3.012,3.012,0,0,1,31.2,40.629a4.182,4.182,0,0,1-4.111-.253,4.466,4.466,0,0,1-1.577-1.858,6.124,6.124,0,0,1-.591-2.759,6.261,6.261,0,0,1,.563-2.7,4.2,4.2,0,0,1,3.885-2.45A4.192,4.192,0,0,1,31.141,31a3.037,3.037,0,0,1,1.239,1.042v-5.49h3.632Zm11.093,0-5.772-6.476v6.476H37.588V26.5h3.745v6.166L46.964,26.5h4.392l-6.335,6.814,6.532,7.546Z"/>
  </g>
</svg>
