<svg xmlns="http://www.w3.org/2000/svg" width="18.046" height="16.001" viewBox="0 0 18.046 16.001">
  <g id="home" transform="translate(0.056 -5.617)">
    <path id="Path_236" data-name="Path 236" d="M28.128,30.346v5.945a.584.584,0,0,1-.632.569H24.27a.566.566,0,0,1-.569-.569V32.939a.68.68,0,0,0-.632-.632H20.855a.68.68,0,0,0-.632.632v3.352a.566.566,0,0,1-.569.569H16.429a.584.584,0,0,1-.632-.569V30.346l6.135-6.135,6.2,6.135Z" transform="translate(-12.995 -15.243)" fill="#fff" fill-rule="evenodd"/>
    <path id="Path_237" data-name="Path 237" d="M1.156,15.1c-.632.632-1.644-.316-1.012-.948L8.493,5.806a.688.688,0,0,1,.948,0l8.348,8.348c.632.632-.38,1.581-1.012.948L8.936,7.261,1.157,15.1Z" transform="translate(0 0)" fill="#fff"/>
  </g>
</svg>
