<svg xmlns="http://www.w3.org/2000/svg" width="15.75" height="18" viewBox="0 0 15.75 18">
  <path id="hourglass" d="M8.444,16.874V15.221a6.187,6.187,0,0,1,3.324-5.485l1.141-.6-1.141-.6A6.187,6.187,0,0,1,8.444,3.059V1.124H6.813A.562.562,0,1,1,6.813,0H21.438a.562.562,0,0,1,0,1.125H19.807V3.059a6.187,6.187,0,0,1-3.324,5.485l-1.141.6,1.141.6a6.187,6.187,0,0,1,3.324,5.485v1.654h1.631a.562.562,0,0,1,0,1.125H6.813a.562.562,0,0,1,0-1.125ZM9.569,3.059V1.124h9.112V3.059a5.062,5.062,0,0,1-2.72,4.487l-1.837.959-1.837-.959a5.062,5.062,0,0,1-2.72-4.487ZM9.621,14.5a5.12,5.12,0,0,1,9.008,0,5.061,5.061,0,0,0-2.668-3.764l-1.837-.959-1.837.959A5.061,5.061,0,0,0,9.621,14.5Z" transform="translate(-6.25 0.001)" fill-rule="evenodd"/>
</svg>
