<?xml version="1.0" encoding="utf-8"?>
<!-- Generator: Adobe Illustrator 27.6.1, SVG Export Plug-In . SVG Version: 6.00 Build 0)  -->
<svg version="1.1" id="Group_987" xmlns="http://www.w3.org/2000/svg" xmlns:xlink="http://www.w3.org/1999/xlink" x="0px" y="0px"
	 viewBox="0 0 80 80" style="enable-background:new 0 0 80 80;" xml:space="preserve">
<g id="Group_986">
	<path id="Path_1865" d="M47.5,24.4c5-4.1,5.7-11.5,1.6-16.5c-2.2-2.7-5.5-4.3-9-4.3l0,0c-6.5,0-11.7,5.2-11.7,11.7
		c0,3.5,1.6,6.8,4.3,9.1c-7.4,2.6-12.6,8.7-12.6,14h4c0-3.9,5.5-9.8,13.2-11v-4.8c-4-1.6-5.9-6-4.3-10c1.6-4,6-5.9,10-4.3
		s5.9,6,4.3,10c-0.8,1.9-2.3,3.5-4.2,4.3v4.9c7.6,1.3,13,7.1,13,11h4c0-5.2-5.2-11.3-12.6-14"/>
	<path id="Path_1866" d="M11.5,41.8v25.7c4.1,0.4,8.2,1,12.3,1.8c5.4,1.4,10.5,3.6,15.3,6.4c0.3,0.2,0.9,0.7,0.9,0.7
		s0.6-0.5,0.9-0.7c4.8-2.8,9.9-5,15.2-6.4c4-1.1,8.1-1.7,12.3-1.8V39.9c-0.7,0-1.3,0-1.9,0c-3.8,0.2-7.6,0.9-11.3,1.9
		c-5.3,1.4-10.5,3.5-15.2,6.3c-4.8-2.8-9.9-4.9-15.2-6.3c-4.3-1.1-8.7-1.8-13.2-2.1 M41.8,66.7V51.2c4.5-2.6,9.4-4.6,14.4-5.9
		c2.9-0.8,5.8-1.3,8.7-1.5v20.4c-3.3,0.3-6.5,0.9-9.6,1.7c-5.3,1.4-10.5,3.5-15.2,6.3c-4.8-2.8-9.9-4.9-15.3-6.3
		c-3.2-0.8-6.4-1.4-9.6-1.7V43.8c2.9,0.3,5.9,0.8,8.7,1.5c5,1.3,9.9,3.3,14.4,5.9v15.5H41.8L41.8,66.7z"/>
</g>
</svg>
