<?xml version="1.0" encoding="UTF-8"?>
<svg id="Layer_1" xmlns="http://www.w3.org/2000/svg" version="1.1" viewBox="0 0 22 22">
  <!-- Generator: Adobe Illustrator 29.5.0, SVG Export Plug-In . SVG Version: 2.1.0 Build 137)  -->
  <path d="M12.1,9.3c0-.6,0-1.1,0-1.6,0-.2,0-.3-.3-.3-1.2,0-2.4,0-3.7,0-.3,0-.4,0-.4.4,0,4.5,0,9.1,0,13.6,0,.3,0,.4.4.4,1.3,0,2.5,0,3.8,0,.3,0,.4,0,.4-.4,0-2.3,0-4.6,0-6.9,0-.5,0-.9.1-1.4,0-1,.7-1.8,1.6-2,.3,0,.7-.1,1,0,.9,0,1.8.6,1.9,1.5.1.6.2,1.2.2,1.8,0,2.4,0,4.7,0,7.1,0,.3,0,.4.4.4,1.3,0,2.5,0,3.8,0,.3,0,.3,0,.3-.4,0-2.5,0-5.1,0-7.6,0-1,0-2.1-.3-3.1-.2-1.4-1.1-2.6-2.3-3.2-1.3-.6-2.8-.7-4.2-.3-1.2.3-2.2,1.1-2.8,2.1h0Z"/>
  <path d="M5.1,14.5v-6.8c0-.3,0-.3-.3-.3-1.3,0-2.6,0-3.9,0-.3,0-.3,0-.3.3,0,4.6,0,9.1,0,13.7,0,.3,0,.3.3.3,1.3,0,2.5,0,3.8,0s.4,0,.4-.4v-6.8Z"/>
  <path d="M2.8,5.5c1.4,0,2.6-1.2,2.6-2.6,0-1.4-1.2-2.6-2.6-2.6-1.4,0-2.6,1.2-2.6,2.6H.2c0,1.4,1.2,2.6,2.6,2.6h0,0Z"/>
</svg>