<?xml version="1.0" encoding="utf-8"?>
<!-- Generator: Adobe Illustrator 25.2.0, SVG Export Plug-In . SVG Version: 6.00 Build 0)  -->
<svg version="1.1" id="Component_33_3" xmlns="http://www.w3.org/2000/svg" xmlns:xlink="http://www.w3.org/1999/xlink" x="0px"
	 y="0px" viewBox="0 0 25 25" style="enable-background:new 0 0 25 25;" xml:space="preserve">
<style type="text/css">
	.st0{fill:#193153;}
</style>
<path id="Path_222" class="st0" d="M12.5-0.2c3.3,0,6.6,0,9.9,0c0.9,0,1.6,0.7,1.7,1.5c0,0.1,0,0.2,0,0.3c0,7.3,0,14.5,0,21.8
	c0,0.9-0.7,1.7-1.6,1.8c-0.1,0-0.1,0-0.2,0H2.7c-0.8,0-1.5-0.5-1.7-1.3c0-0.2-0.1-0.4-0.1-0.5c0-7.2,0-14.5,0-21.7
	c-0.1-1,0.7-1.8,1.6-1.8c0,0,0,0,0,0c0.8,0,1.6,0,2.4,0L12.5-0.2z M13.3,11c0-0.5,0-0.9,0-1.4c0-0.2,0-0.3-0.3-0.3
	c-0.9,0-1.9,0-2.8,0c-0.2,0-0.3,0.1-0.3,0.3c0,3.9,0,7.7,0,11.6c0,0.2,0.1,0.3,0.3,0.3c1,0,2,0,2.9,0c0.2,0,0.3-0.1,0.3-0.3
	c0-1.9,0-3.9,0-5.8c0-0.4,0-0.8,0.1-1.2c0-0.8,0.5-1.5,1.3-1.7c0.3-0.1,0.5-0.1,0.8-0.1c0.8,0,1.4,0.5,1.5,1.3
	c0.1,0.5,0.1,1,0.1,1.5c0,2,0,4,0,6c0,0.2,0.1,0.3,0.3,0.3c1,0,2,0,2.9,0c0.2,0,0.3-0.1,0.3-0.3c0-2.1,0-4.3,0-6.4
	c0-0.9-0.1-1.8-0.2-2.6c-0.1-1.1-0.8-2.1-1.8-2.7c-1-0.5-2.2-0.6-3.3-0.3C14.5,9.4,13.7,10.1,13.3,11z M7.8,15.4c0-1.9,0-3.9,0-5.8
	c0-0.2-0.1-0.3-0.3-0.3c-1,0-2,0-3,0c-0.2,0-0.3,0.1-0.3,0.3c0,3.9,0,7.8,0,11.6c0,0.2,0.1,0.3,0.3,0.3c1,0,2,0,2.9,0
	c0.3,0,0.3,0,0.3-0.3L7.8,15.4z M6.1,7.7c1.2,0.1,2.3-0.8,2.4-2c0.1-1.2-0.8-2.3-2-2.4S4.2,4,4.1,5.3c0,0.1,0,0.1,0,0.2
	C4,6.6,4.9,7.6,6.1,7.7C6.1,7.7,6.1,7.7,6.1,7.7z"/>
</svg>
