<svg xmlns="http://www.w3.org/2000/svg" xmlns:xlink="http://www.w3.org/1999/xlink" width="258.599" height="69.327" viewBox="0 0 258.599 67.327">
  <defs>
    <clipPath id="clip-path">
      <rect id="Rectangle_8" data-name="Rectangle 8" width="258.599" height="67.327" transform="translate(0 0)" fill="none"/>
    </clipPath>
  </defs>
  <g id="logo" transform="translate(0 0)" clip-path="url(#clip-path)">
    <path id="Path_8" data-name="Path 8" d="M148.443,15.088h7.95l-4.056-9.41Zm9.572,3.569H146.983l-3.407,8.112a10.967,10.967,0,0,0-.324,2.271h-4.867a7.6,7.6,0,0,0,1.3-2.271L150.714.325h3.57L165.8,26.769a14.124,14.124,0,0,0,1.3,2.271h-5.029a4.7,4.7,0,0,0-.487-2.271Z"/>
    <path id="Path_9" data-name="Path 9" d="M0,7.787C0,2.92,4.056,0,9.247,0a12.956,12.956,0,0,1,5.841,1.135l.162,5.03a6.241,6.241,0,0,0-2.6-1.785,9.057,9.057,0,0,0-3.407-.649C6,3.731,4.056,5.354,4.056,7.787c0,2.109,1.622,3.245,4.867,4.543a16.828,16.828,0,0,1,5.191,2.92,7.94,7.94,0,0,1,2.271,6c0,5.03-3.893,8.112-9.247,8.112A16.3,16.3,0,0,1,.487,28.228L.324,23.361a9.541,9.541,0,0,0,2.6,1.623,9.473,9.473,0,0,0,4.056.811c3.407,0,5.354-1.947,5.354-4.543,0-2.109-.649-3.569-5.516-5.353C1.46,13.79,0,11.032,0,7.787"/>
    <path id="Path_10" data-name="Path 10" d="M41.856,2.758A5.364,5.364,0,0,0,41.207.325h5.029a5.376,5.376,0,0,0-.649,2.433v24.01a4.7,4.7,0,0,0,.649,2.272H41.207a4.685,4.685,0,0,0,.649-2.272V16.223H26.119V26.768a4.718,4.718,0,0,0,.487,2.272H21.577a3.432,3.432,0,0,0,.649-2.272V2.758A3.906,3.906,0,0,0,21.577.325h5.029a5.42,5.42,0,0,0-.487,2.433v9.734H41.856Z"/>
    <path id="Path_11" data-name="Path 11" d="M66.029,25.633c5.84,0,10.383-4.7,10.383-10.87,0-6.327-4.543-11.032-10.383-11.032-6,0-10.545,4.7-10.545,11.032a10.5,10.5,0,0,0,10.545,10.87M66.029,0A14.512,14.512,0,0,1,80.792,14.763a14.764,14.764,0,0,1-29.526,0A14.512,14.512,0,0,1,66.029,0"/>
    <path id="Path_12" data-name="Path 12" d="M101.071.324l.162,4.38a7.289,7.289,0,0,0-3.082-.649H90.2v8.6h8.112a5.427,5.427,0,0,0,2.434-.487v4.7a5.372,5.372,0,0,0-2.434-.649H90.2V25.47h8.761a6.591,6.591,0,0,0,3.407-.811l-.974,4.38H85.821a4.705,4.705,0,0,0,.487-2.271V2.758A5.411,5.411,0,0,0,85.821.324Z"/>
    <path id="Path_13" data-name="Path 13" d="M130.111,8.923l-7.463,15.412h-2.92l-7.463-15.25-.486,17.684a3.431,3.431,0,0,0,.649,2.271h-4.867a4.717,4.717,0,0,0,.486-2.271L108.7,3.407a3.889,3.889,0,0,0-.973-3.082h4.542l8.923,18.17L130.111.325h4.542a2.784,2.784,0,0,0-.973,2.433l.649,24.011a4.705,4.705,0,0,0,.487,2.271h-4.867a4.717,4.717,0,0,0,.486-2.271Z"/>
    <path id="Path_14" data-name="Path 14" d="M175.536,12.979,183.81,2.758a4.5,4.5,0,0,0,1.3-2.433h5.516c-.649.811-1.46,1.622-2.109,2.433l-9.572,11.519L190.3,26.769a33.217,33.217,0,0,0,2.434,2.271h-6.49a5,5,0,0,0-1.135-2.271l-9.572-10.545V26.769a4.705,4.705,0,0,0,.487,2.271h-5.029a3.437,3.437,0,0,0,.648-2.271V2.758a3.913,3.913,0,0,0-.648-2.433h5.029a5.409,5.409,0,0,0-.487,2.433Z"/>
    <path id="Path_15" data-name="Path 15" d="M212.038.324l.324,4.38a8.829,8.829,0,0,0-3.244-.649h-7.787v8.6h8.111a5.934,5.934,0,0,0,2.434-.487v4.7a6.005,6.005,0,0,0-2.434-.649h-8.111V25.47h8.76a6.591,6.591,0,0,0,3.407-.811l-1.136,4.38H196.95a4.705,4.705,0,0,0,.487-2.271V2.758A5.411,5.411,0,0,0,196.95.324Z"/>
    <path id="Path_16" data-name="Path 16" d="M223.394,13.14a14.148,14.148,0,0,0,2.6.325c4.218,0,6-2.109,6-4.7,0-2.758-1.785-4.705-5.516-4.705h-3.083ZM227.288.324c5.516,0,8.761,3.731,8.761,8.436a7.5,7.5,0,0,1-5.354,7.463,14.643,14.643,0,0,0,1.46,1.622c1.947,2.758,4.218,6.165,5.84,8.6a9.017,9.017,0,0,0,2.272,2.6h-5.841a5.022,5.022,0,0,0-.973-2.109c-1.623-2.6-3.407-5.029-5.192-7.625a5.531,5.531,0,0,0-2.758-2.271,9.992,9.992,0,0,0-2.109-.162v9.9a3.437,3.437,0,0,0,.649,2.271h-5.029a4.705,4.705,0,0,0,.487-2.271V2.758a5.411,5.411,0,0,0-.487-2.434Z"/>
    <path id="Path_17" data-name="Path 17" d="M242.213,7.787C242.213,2.92,246.269,0,251.46,0A13.908,13.908,0,0,1,257.3,1.135l.162,5.03a7.457,7.457,0,0,0-2.6-1.785,9.057,9.057,0,0,0-3.407-.649c-3.244,0-5.191,1.623-5.191,4.056,0,2.109,1.622,3.245,4.867,4.543a16.828,16.828,0,0,1,5.191,2.92,7.94,7.94,0,0,1,2.271,6c0,5.03-3.893,8.112-9.247,8.112a16.3,16.3,0,0,1-6.651-1.136l-.163-4.867a7.624,7.624,0,0,0,2.6,1.623,9.236,9.236,0,0,0,3.894.811c3.569,0,5.516-1.947,5.516-4.543,0-2.109-.811-3.569-5.516-5.353-5.354-2.109-6.814-4.867-6.814-8.112"/>
    <path id="Path_18" data-name="Path 18" d="M23.037,46.885,15.574,62.3H12.816L5.191,47.047,4.867,64.731A3.392,3.392,0,0,0,5.354,67H.487a4.706,4.706,0,0,0,.649-2.271l.486-23.362a3.889,3.889,0,0,0-.973-3.082H5.354l8.922,18.17,8.761-18.17h4.542a2.68,2.68,0,0,0-.811,2.433l.487,24.011A4.705,4.705,0,0,0,27.742,67H22.875a4.7,4.7,0,0,0,.649-2.271Z"/>
    <path id="Path_19" data-name="Path 19" d="M34.231,40.72a5.406,5.406,0,0,0-.487-2.433h4.867a5.42,5.42,0,0,0-.486,2.433V55.159c0,5.191,3.569,8.436,8.111,8.436,4.705,0,8.274-3.083,8.274-8.436V40.72a5.406,5.406,0,0,0-.487-2.433h4.705a5.376,5.376,0,0,0-.649,2.433V55.645c0,6.976-4.7,11.681-11.843,11.681-6.976,0-12.005-4.867-12.005-11.681Z"/>
    <path id="Path_20" data-name="Path 20" d="M64.082,45.75c0-4.867,4.218-7.787,9.247-7.787A12.956,12.956,0,0,1,79.17,39.1l.162,5.03a5.378,5.378,0,0,0-2.6-1.785,6.058,6.058,0,0,0-3.244-.649c-3.245,0-5.354,1.623-5.354,4.056,0,2.109,1.622,3.245,4.867,4.542A15.091,15.091,0,0,1,78.2,53.213a7.962,7.962,0,0,1,2.434,5.84c0,5.192-3.894,8.274-9.247,8.274a16.3,16.3,0,0,1-6.652-1.136l-.325-4.867A9.566,9.566,0,0,0,67,62.947a10.033,10.033,0,0,0,4.056.811c3.407,0,5.516-1.947,5.516-4.543,0-2.109-.811-3.569-5.516-5.353-5.516-2.109-6.976-4.867-6.976-8.112"/>
    <path id="Path_21" data-name="Path 21" d="M101.071,38.287l.162,4.38a5.457,5.457,0,0,0-3.082-.649H90.2v8.6h8.112a3.917,3.917,0,0,0,2.434-.649v4.867a3.91,3.91,0,0,0-2.434-.649H90.2v9.247h8.761a6.591,6.591,0,0,0,3.407-.811L101.395,67H85.821a4.705,4.705,0,0,0,.487-2.271V40.72a5.409,5.409,0,0,0-.487-2.433Z"/>
    <path id="Path_22" data-name="Path 22" d="M108.209,40.72a5.407,5.407,0,0,0-.487-2.433h4.867a5.42,5.42,0,0,0-.486,2.433V55.159c0,5.191,3.569,8.436,8.111,8.436,4.705,0,8.274-3.083,8.274-8.436V40.72A5.407,5.407,0,0,0,128,38.287h4.7a5.42,5.42,0,0,0-.487,2.433V55.645c0,6.976-4.867,11.681-12,11.681-6.976,0-12-4.867-12-11.681Z"/>
    <path id="Path_23" data-name="Path 23" d="M160.124,46.885,152.661,62.3H149.9l-7.625-15.25-.324,17.684A4.705,4.705,0,0,0,142.441,67h-4.705a4.717,4.717,0,0,0,.487-2.271l.486-23.362c.163-1.784-.162-2.271-.973-3.082h4.705l8.922,18.17,8.761-18.17h4.542a3.189,3.189,0,0,0-.811,2.433l.487,24.011A3.431,3.431,0,0,0,164.991,67h-5.029a3.437,3.437,0,0,0,.649-2.271Z"/>
  </g>
</svg>
