<svg xmlns="http://www.w3.org/2000/svg" id="Layer_1" viewBox="0 0 379.9 228.6"><defs><style>.st0{fill:#231f20}</style></defs><path d="M8.5 117.3c1.8-23 3.1-53.3 4-91V3.6h22.4l41.5 101.9h.7L117.6 3.6h21.5l.2 8.3c0 3.2.1 9 .4 17.4.7 28.7 1.9 57.2 3.5 85.4.5 7.9 1.4 14.8 2.8 20.9h-23.4c.9-6.3 1.3-12.2 1.2-17.6l-2.6-80.4h-1.1l-36.3 91.9H68L29.3 37.8h-1.1l-1.9 79.4c0 6 .4 12.1 1.2 18.5H5.7c1.4-6.7 2.3-12.8 2.8-18.3ZM195.4 136.2c-1.5 0-3.9 0-7-.3s-6-.3-8.4-.3h-10c.6-5.5 1.1-11.7 1.4-18.5.5-12 .7-22.6.7-32V51c0-3.8-.2-11.6-.5-23.6l-.2-6-1.2-17.8h7.9c3.3 0 8.3-.1 15.1-.4l14.3-.2c12.4 0 21.9 2.6 28.3 7.7 6.5 5.1 9.7 12.5 9.7 22.3s-1.7 14.6-5.2 19.5-8.7 9.1-15.6 12.5v.5c20.6 3.3 31 14.3 31 32.9s-4 21.2-12.1 28q-12 10.2-35.1 10.2c-23.1 0-8.6-.2-13-.5Zm25-80.5q6-6.3 6-17.1c0-14.1-8.3-21.1-24.8-21.1s-6.9.3-10.7.9l-.2 42.2q1.2.9 4.2 1.2c1.8.1 4.6.2 8.6.2 7.3 0 12.9-2.1 16.9-6.3m7.8 61.5c4.6-4 7-9.6 7-16.7s-2.6-14.8-7.8-19-12.6-6.3-22.3-6.2h-13.4c-.7 0-1.1.4-1.1 1.1v4.8c0 15.3.1 25.9.4 31.9q.15 4.65 1.2 6.3c.7 1.2 2.2 2 4.6 2.5 4.5.9 8.9 1.4 13.2 1.4 7.5 0 13.6-2 18.2-6ZM271.6 115.6c.4-6 .5-16.1.5-30.4v-31c0-6.5-.1-14.4-.4-23.8l-.2-7.6c-.1-3.4-.4-7.7-.9-13 0-1.5-.1-3.6-.4-6.2l11.1-.2c9.9-.2 19.1-.4 27.8-.4 13.1 0 23.3 3.1 30.4 9.3 7.2 6.2 10.7 14.9 10.7 26s-1.9 16.3-5.6 22.3c-3.8 5.9-9.2 10.9-16.4 15q16.05 25.65 31.2 43.8c5.5 6.6 10.7 11.9 15.7 16h-18.8c-2.7 0-4.9 0-6.5-.2-1.6-.1-3.4-.5-5.3-1.1l-6.9-10.9c-5.2-8.1-8.5-13.4-10-15.8l-8.4-13c-3.2-4.6-5.7-8.4-7.6-11.6-.5-.7-1.2-1.1-2.3-1.1l-18.5-.2c0 14.1.1 24 .4 29.7.4 8.3.9 16.4 1.8 24.1h-23.2q1.2-9.45 1.8-20.1Zm52.6-53.2c4.1-4.5 6.2-10.9 6.2-19.2 0-17.4-9.4-26-28.2-26s-6.7.4-11.6 1.1v47.3c0 .9.4 1.6 1.2 1.9 3.3 1.1 8.2 1.6 14.6 1.6s13.7-2.2 17.8-6.7M6.2 168.7h18.7c3.4 0 6.2.5 8.4 1.4s3.9 2.1 5.2 3.5q1.95 2.1 2.7 4.8c.5 1.8.8 3.5.8 5.1s-.3 3.4-.8 5.1q-.75 2.7-2.7 4.8c-1.3 1.4-3 2.6-5.2 3.5s-5 1.4-8.4 1.4H13.4v23.4H6.2v-53.1Zm7.2 23.4h9.5q2.1 0 4.2-.3c1.4-.2 2.6-.6 3.7-1.2s1.9-1.5 2.6-2.6c.6-1.1 1-2.6 1-4.4s-.3-3.3-1-4.4-1.5-2-2.6-2.6-2.3-1-3.7-1.2q-2.1-.3-4.2-.3h-9.5v17.1ZM51.1 168.7h18.7c3.4 0 6.2.5 8.4 1.4s3.9 2.1 5.2 3.5q1.95 2.1 2.7 4.8c.5 1.8.8 3.5.8 5.1s-.3 3.3-.9 4.9-1.5 3-2.6 4.3-2.5 2.4-4.1 3.2c-1.6.9-3.4 1.4-5.4 1.6L89 221.7h-9l-13.5-23.4h-8v23.4h-7.2v-53.1Zm7.2 23.4h9.5q2.1 0 4.2-.3c1.4-.2 2.6-.6 3.7-1.2s1.9-1.5 2.6-2.6c.6-1.1 1-2.6 1-4.4s-.3-3.3-1-4.4-1.5-2-2.6-2.6-2.3-1-3.7-1.2q-2.1-.3-4.2-.3h-9.5v17.1ZM121.8 223.2c-4.1 0-7.8-.7-11.2-2.1s-6.3-3.4-8.7-5.9-4.3-5.4-5.7-8.9c-1.4-3.4-2.1-7.1-2.1-11s.7-7.6 2.1-11 3.3-6.3 5.7-8.8 5.3-4.5 8.7-5.9 7.1-2.1 11.2-2.1 7.8.7 11.2 2.1 6.3 3.4 8.7 5.9 4.3 5.5 5.7 8.8c1.4 3.4 2.1 7.1 2.1 11s-.7 7.6-2.1 11-3.3 6.4-5.7 8.9-5.3 4.5-8.7 5.9-7.1 2.1-11.2 2.1m0-6.8c3 0 5.8-.6 8.2-1.7q3.6-1.65 6.3-4.5c1.7-1.9 3.1-4.1 4-6.7s1.4-5.3 1.4-8.2-.5-5.6-1.4-8.2c-1-2.6-2.3-4.8-4-6.7q-2.7-2.85-6.3-4.5c-2.5-1.1-5.2-1.7-8.2-1.7s-5.8.6-8.2 1.7q-3.75 1.65-6.3 4.5c-1.8 1.9-3.1 4.1-4 6.7-1 2.6-1.4 5.3-1.4 8.2s.5 5.6 1.4 8.2 2.3 4.8 4 6.7q2.55 2.85 6.3 4.5c2.4 1.1 5.2 1.7 8.2 1.7M176.8 168.7h7.2v37.9c0 3.4-.5 6.1-1.6 8.2s-2.4 3.8-3.9 5c-1.6 1.2-3.3 2.1-5.1 2.5-1.8.5-3.4.7-4.9.7-3.8 0-6.9-1-9.5-2.9s-4.2-4.8-4.9-8.7l7.1-1.6c.4 2 1.2 3.6 2.5 4.7 1.2 1.2 2.9 1.7 4.9 1.7s3.2-.3 4.3-1 1.9-1.6 2.5-2.7 1-2.4 1.2-3.9.3-2.9.3-4.4v-35.6ZM196.8 168.7h34.3v6.8H204v15.8h25.2v6.8H204v17h28.4v6.8h-35.6v-53.1ZM280.1 180.2q-2.25-3-5.7-4.5c-3.45-1.5-4.7-1.6-7.1-1.6s-5.7.6-8.1 1.7-4.5 2.7-6.2 4.6c-1.7 2-3.1 4.2-4 6.9-1 2.6-1.4 5.4-1.4 8.4s.5 5.5 1.4 7.9q1.35 3.75 3.9 6.6c1.7 1.9 3.8 3.4 6.2 4.5s5.2 1.6 8.3 1.6 5.7-.6 8-1.9c2.3-1.2 4.2-3 5.8-5.2l6.1 4.6c-.4.6-1.1 1.3-2.1 2.4-1 1-2.3 2.1-4 3.1q-2.4 1.5-6 2.7c-3.6 1.2-5 1.2-8.1 1.2s-8-.8-11.4-2.4-6.3-3.7-8.6-6.3c-2.4-2.6-4.2-5.5-5.4-8.8-1.3-3.3-1.9-6.6-1.9-9.9s.7-7.9 2-11.4c1.4-3.5 3.2-6.5 5.7-9 2.4-2.5 5.3-4.5 8.7-5.9s7.1-2.1 11.2-2.1 6.9.7 10.3 2 6.1 3.4 8.3 6.2l-6 4.6ZM307.4 175.5h-17.1v-6.8h41.4v6.8h-17.1v46.3h-7.2zM341.4 210.7c1.3 1.9 3 3.4 5 4.3s4.1 1.4 6.3 1.4 2.4-.2 3.7-.6c1.2-.4 2.4-.9 3.4-1.7s1.9-1.7 2.5-2.8 1-2.4 1-3.8-.7-3.6-1.9-4.7q-1.95-1.65-4.8-2.7t-6.3-2.1c-2.3-.7-4.4-1.6-6.3-2.8q-2.85-1.8-4.8-4.8c-1.3-2-2-4.8-2-8.2s.3-3.2 1-5 1.7-3.3 3.2-4.8c1.4-1.5 3.3-2.7 5.6-3.6 2.3-1 5-1.5 8.2-1.5s5.7.4 8.3 1.2 5 2.4 7 4.9l-5.8 5.3c-.9-1.4-2.2-2.5-3.8-3.4-1.6-.8-3.5-1.3-5.6-1.3s-3.7.3-5 .8-2.4 1.2-3.2 2-1.4 1.7-1.7 2.7-.5 1.8-.5 2.6c0 2.2.6 4 2 5.2 1.3 1.2 2.9 2.2 4.8 2.9s4 1.4 6.3 2 4.4 1.4 6.3 2.5 3.5 2.5 4.8 4.4c1.3 1.8 2 4.3 2 7.5s-.5 4.9-1.5 6.9c-1 2.1-2.3 3.8-3.9 5.2s-3.6 2.5-5.8 3.2-4.7 1.1-7.2 1.1-6.6-.6-9.7-1.8-5.5-3-7.3-5.5l5.9-5.1Z" class="st0"/></svg>