<svg xmlns="http://www.w3.org/2000/svg" width="32.049" height="32.049"><g fill="#f4f4f4"><path data-name="Path 1633" d="M11.148 10.983a.738.738 0 0 0-.19-.569.766.766 0 0 0-.569-.19h-.341v1.517h.341a.712.712 0 0 0 .569-.19.766.766 0 0 0 .19-.568Z"/><path data-name="Path 1634" d="M15.856 10.709a.209.209 0 0 0 .095-.19.272.272 0 0 0-.095-.209.533.533 0 0 0-.285-.057h-.493v.512h.493a.533.533 0 0 0 .285-.056Z"/><path data-name="Path 1635" d="m8.231 10.405-.36.835h.721Z"/><path data-name="Path 1636" d="M16.017 11.371a.245.245 0 0 0-.095-.209.533.533 0 0 0-.285-.057h-.549v.55h.55a.533.533 0 0 0 .285-.057.314.314 0 0 0 .094-.227Z"/><path data-name="Path 1637" d="M15.732 16.922a1.15 1.15 0 0 0-.967.436 1.911 1.911 0 0 0-.341 1.233 2.08 2.08 0 0 0 .36 1.29 1.255 1.255 0 0 0 1.935 0 2.5 2.5 0 0 0 0-2.523 1.163 1.163 0 0 0-.987-.436Z"/><path data-name="Path 1638" d="M16.025 0a16.025 16.025 0 1 0 16.024 16.025A16.022 16.022 0 0 0 16.025 0Zm.918 9.864.545.747.56-.747h.638l-.9 1.2v.965h-.56v-.98l-.9-1.2h.622Zm-2.334 0h1.042a.84.84 0 0 1 .545.156.456.456 0 0 1 .2.4.512.512 0 0 1-.093.3.619.619 0 0 1-.249.187.644.644 0 0 1 .3.187.575.575 0 0 1 .093.327.526.526 0 0 1-.093.311.577.577 0 0 1-.264.2 1.041 1.041 0 0 1-.4.078h-1.081V9.864Zm-2.692 0h1.525v.436h-.98v.4h.918v.436h-.918v.451h.98v.436h-1.525Zm-2.365 0h.871a1.586 1.586 0 0 1 .622.124.759.759 0 0 1 .389.373 1.253 1.253 0 0 1 0 1.151 1 1 0 0 1-.389.373 1.476 1.476 0 0 1-.622.124h-.871Zm-1.571 0h.451l1.011 2.147h-.576l-.187-.451h-.948l-.187.451h-.56Zm-3.314 0H5.1l.653 1.229.638-1.229h.439v2.147h-.482v-1.136l-.42.778H5.57l-.4-.747v1.1h-.5Zm7.3 11.606H9.942v-3.2H6.69v3.2H4.667v-7.935H6.69v3.08h3.236v-3.08h2.023v7.935Zm6.83 0h-1.979v-.747a1.664 1.664 0 0 1-.685.622 2.311 2.311 0 0 1-2.271-.14 2.468 2.468 0 0 1-.871-1.027 3.384 3.384 0 0 1-.327-1.525 3.46 3.46 0 0 1 .311-1.494 2.321 2.321 0 0 1 2.147-1.354 2.316 2.316 0 0 1 .98.218 1.678 1.678 0 0 1 .685.576v-3.032h2.007Zm6.13 0-3.189-3.578v3.578h-2.073v-7.935h2.069v3.407l3.112-3.407h2.427l-3.5 3.765 3.609 4.17Z"/></g></svg>