<svg xmlns="http://www.w3.org/2000/svg" width="19.508" height="24.012" viewBox="0 0 19.508 24.012">
  <g id="mappin" transform="translate(0 0)">
    <path id="Path_167" data-name="Path 167" d="M9.754,45.832C4.352,45.832,0,47.886,0,50.5s4.352,4.671,9.754,4.671,9.754-2.054,9.754-4.671-4.352-4.671-9.754-4.671m0,6.538C6,52.37,3,51.53,3,50.5s3-1.869,6.753-1.869,6.753.841,6.753,1.869-3,1.869-6.753,1.869" transform="translate(0 -31.163)" fill="#5497a9"/>
    <path id="Path_168" data-name="Path 168" d="M14.35,0A6.251,6.251,0,0,0,8.332,6.461v.056c0,3.621,6.018,13.757,6.018,13.757s6.018-10.138,6.018-13.757A6.261,6.261,0,0,0,14.4,0H14.35m0,9.413a2.792,2.792,0,0,1-2.674-2.9,2.792,2.792,0,0,1,2.674-2.9,2.792,2.792,0,0,1,2.674,2.9,2.8,2.8,0,0,1-2.674,2.9" transform="translate(-4.596 0)" fill="#5497a9"/>
  </g>
</svg>
