<svg xmlns="http://www.w3.org/2000/svg" xmlns:xlink="http://www.w3.org/1999/xlink" xml:space="preserve" viewBox="0 30 1920 1372"><image xlink:href="/wp-content/themes/soul/assets/mapbg.jpg" y="30"/>
<g id="binchester-roman-fort">
	<path d="M468,210.9c6.4,0,11.6,5.2,11.6,11.6s-5.2,11.6-11.6,11.6s-11.6-5.2-11.6-11.6c0-3.1,1.2-6,3.4-8.2
		C461.9,212.1,464.9,210.9,468,210.9 M444.6,237.5l0.1,0.2c0.2,0.3,0.3,0.5,0.5,0.8l20.1,28.9c1,1.4,3,1.8,4.4,0.8
		c0.3-0.2,0.6-0.5,0.8-0.8l20.1-28.9c0.2-0.3,0.4-0.5,0.6-0.8l0.1-0.2c8.3-12.9,4.6-30.1-8.3-38.5s-30.1-4.6-38.5,8.3
		C438.7,216.6,438.7,228.4,444.6,237.5L444.6,237.5z" class="fill_white"/>
	<path d="M467.9,201.3c0.7,0,1.4,0,2.1,0.1s1.4,0.2,2,0.3c0.7,0.1,1.3,0.3,2,0.5s1.3,0.4,1.9,0.7s1.3,0.6,1.9,0.9s1.2,0.7,1.8,1.1
		c0.6,0.4,1.1,0.8,1.7,1.2c0.5,0.4,1,0.9,1.5,1.4s0.9,1,1.4,1.5s0.8,1.1,1.2,1.6c0.4,0.6,0.7,1.2,1.1,1.8s0.6,1.2,0.9,1.9
		c0.3,0.6,0.5,1.3,0.7,1.9c0.2,0.7,0.4,1.3,0.5,2s0.2,1.4,0.3,2s0.1,1.4,0.1,2.1c0,0.7,0,1.4-0.1,2.1c-0.1,0.7-0.2,1.4-0.3,2
		c-0.1,0.7-0.3,1.3-0.5,2s-0.4,1.3-0.7,1.9c-0.3,0.6-0.6,1.3-0.9,1.9s-0.7,1.2-1.1,1.8c-0.4,0.6-0.8,1.1-1.2,1.7
		c-0.4,0.5-0.9,1-1.4,1.5s-1,0.9-1.5,1.4c-0.5,0.4-1.1,0.8-1.7,1.2c-0.6,0.4-1.2,0.7-1.8,1.1c-0.6,0.3-1.2,0.6-1.9,0.9
		c-0.6,0.3-1.3,0.5-1.9,0.7c-0.7,0.2-1.3,0.4-2,0.5s-1.4,0.2-2,0.3c-0.7,0.1-1.4,0.1-2.1,0.1s-1.4,0-2.1-0.1s-1.4-0.2-2-0.3
		c-0.7-0.1-1.3-0.3-2-0.5s-1.3-0.4-1.9-0.7c-0.6-0.3-1.3-0.6-1.9-0.9s-1.2-0.7-1.8-1.1c-0.6-0.4-1.1-0.8-1.7-1.2
		c-0.5-0.4-1-0.9-1.5-1.4s-0.9-1-1.4-1.5c-0.4-0.5-0.8-1.1-1.2-1.7c-0.4-0.6-0.7-1.2-1.1-1.8s-0.6-1.2-0.9-1.9
		c-0.3-0.6-0.5-1.3-0.7-1.9c-0.2-0.7-0.4-1.3-0.5-2c-0.1-0.7-0.2-1.4-0.3-2c-0.1-0.7-0.1-1.4-0.1-2.1s0-1.4,0.1-2.1
		c0.1-0.7,0.2-1.4,0.3-2s0.3-1.3,0.5-2s0.4-1.3,0.7-1.9c0.3-0.6,0.6-1.3,0.9-1.9c0.3-0.6,0.7-1.2,1.1-1.8s0.8-1.1,1.2-1.6
		c0.4-0.5,0.9-1,1.4-1.5s1-0.9,1.5-1.4c0.5-0.4,1.1-0.8,1.7-1.2s1.2-0.7,1.8-1.1c0.6-0.3,1.2-0.6,1.9-0.9c0.6-0.3,1.3-0.5,1.9-0.7
		c0.7-0.2,1.3-0.4,2-0.5s1.4-0.2,2-0.3C466.5,201.4,467.2,201.3,467.9,201.3" class="fill_binchester_roman_fort"/>
	<path d="M473.8,222.1c0,5.2-2.3,7.4-6.2,7.4c-2.6,0-4.4-1-5.3-3.2l3.4-1.3c0.2,1,0.7,1.6,2,1.6c1.8,0,2.7-1.5,2.7-4.1v-0.4h-0.1
		c-0.4,1.3-1.9,1.9-3.5,1.9c-2.6,0-4.7-1.8-4.7-4.6c0-3.1,2.1-4.9,5.7-4.9C471.8,214.5,473.9,217.1,473.8,222.1L473.8,222.1z
		 M465.6,219.4c0,1.2,0.7,1.9,2.1,1.9c1.3,0,2.1-0.7,2.1-1.9s-0.8-1.9-2.1-1.9S465.6,218.2,465.6,219.4z" class="fill_white"/>
</g>
<g id="weardale">
	<path d="M249.874 120.947c6.4 0 11.6 5.2 11.6 11.6 0 6.4-5.2 11.6-11.6 11.6-6.4 0-11.6-5.2-11.6-11.6 0-3.1 1.2-6 3.4-8.2 2.1-2.2 5.1-3.4 8.2-3.4m-23.4 26.6.1.2c.2.3.3.5.5.8l20.1 28.9c1 1.4 3 1.8 4.4.8.3-.2.6-.5.8-.8l20.1-28.9c.2-.3.4-.5.6-.8l.1-.2c8.3-12.9 4.6-30.1-8.3-38.5s-30.1-4.6-38.5 8.3c-5.8 9.3-5.8 21.1.1 30.2z" class="fill_white"/>
	<path d="M249.774 111.347c.7 0 1.4 0 2.1.1.7.1 1.4.2 2 .3.7.1 1.3.3 2 .5s1.3.4 1.9.7c.6.3 1.3.6 1.9.9s1.2.7 1.8 1.1c.6.4 1.1.8 1.7 1.2.5.4 1 .9 1.5 1.4.5.5.9 1 1.4 1.5s.8 1.1 1.2 1.6c.4.6.7 1.2 1.1 1.8s.6 1.2.9 1.9c.3.6.5 1.3.7 1.9.2.7.4 1.3.5 2 .1.7.2 1.4.3 2s.1 1.4.1 2.1c0 .7 0 1.4-.1 2.1-.1.7-.2 1.4-.3 2-.1.7-.3 1.3-.5 2s-.4 1.3-.7 1.9c-.3.6-.6 1.3-.9 1.9s-.7 1.2-1.1 1.8c-.4.6-.8 1.1-1.2 1.7-.4.5-.9 1-1.4 1.5-.5.5-1 .9-1.5 1.4-.5.4-1.1.8-1.7 1.2-.6.4-1.2.7-1.8 1.1-.6.3-1.2.6-1.9.9-.6.3-1.3.5-1.9.7-.7.2-1.3.4-2 .5-.7.1-1.4.2-2 .3-.7.1-1.4.1-2.1.1-.7 0-1.4 0-2.1-.1-.7-.1-1.4-.2-2-.3-.7-.1-1.3-.3-2-.5s-1.3-.4-1.9-.7c-.6-.3-1.3-.6-1.9-.9-.6-.3-1.2-.7-1.8-1.1-.6-.4-1.1-.8-1.7-1.2-.5-.4-1-.9-1.5-1.4-.5-.5-.9-1-1.4-1.5-.4-.5-.8-1.1-1.2-1.7-.4-.6-.7-1.2-1.1-1.8s-.6-1.2-.9-1.9c-.3-.6-.5-1.3-.7-1.9-.2-.7-.4-1.3-.5-2-.1-.7-.2-1.4-.3-2-.1-.7-.1-1.4-.1-2.1s0-1.4.1-2.1c.1-.7.2-1.4.3-2s.3-1.3.5-2 .4-1.3.7-1.9c.3-.6.6-1.3.9-1.9.3-.6.7-1.2 1.1-1.8.4-.6.8-1.1 1.2-1.6.4-.5.9-1 1.4-1.5.5-.5 1-.9 1.5-1.4.5-.4 1.1-.8 1.7-1.2.6-.4 1.2-.7 1.8-1.1.6-.3 1.2-.6 1.9-.9.6-.3 1.3-.5 1.9-.7.7-.2 1.3-.4 2-.5.7-.1 1.4-.2 2-.3.7 0 1.4-.1 2.1-.1" class="fill_weardale"/>
	<path d="M255 129c0 1.5-.8 2.6-2.3 3.2 1.7.6 2.8 1.8 2.8 3.6 0 2.5-2.2 4.1-5.9 4.1s-5.9-1.6-5.9-4.1c0-1.8 1-3 2.8-3.6-1.5-.6-2.3-1.7-2.3-3.2 0-2.5 2.1-4.1 5.4-4.1 3.3 0 5.4 1.5 5.4 4.1zm-3.2 6.3c0-1.1-.8-1.8-2.2-1.8-1.4 0-2.2.7-2.2 1.8s.8 1.8 2.2 1.8c1.4 0 2.2-.7 2.2-1.8zm-4.2-6c0 1 .7 1.7 1.9 1.7s1.9-.6 1.9-1.7-.7-1.7-1.9-1.7c-1.1.1-1.9.7-1.9 1.7z" class="fill_white"/>
</g>
<g id="deer-park">
	<path d="M1545.974 123.347c6.4 0 11.6 5.2 11.6 11.6s-5.2 11.6-11.6 11.6c-6.4 0-11.6-5.2-11.6-11.6 0-3.1 1.2-6 3.4-8.2 2.2-2.2 5.2-3.4 8.2-3.4m-23.3 26.6.1.2c.2.3.3.5.5.8l20.1 28.9c1 1.4 3 1.8 4.4.8.3-.2.6-.5.8-.8l20.1-28.9c.2-.3.4-.5.6-.8l.1-.2c8.3-12.9 4.6-30.1-8.3-38.5-12.9-8.3-30.1-4.6-38.5 8.3-5.9 9.2-5.9 21.1.1 30.2z" class="fill_white"/>
	<path d="M1545.974 113.747c.7 0 1.4 0 2.1.1s1.4.2 2 .3c.7.1 1.3.3 2 .5s1.3.4 1.9.7c.6.3 1.3.6 1.9.9s1.2.7 1.8 1.1c.6.4 1.1.8 1.7 1.2.5.4 1 .9 1.5 1.4.5.5.9 1 1.4 1.5.4.5.8 1.1 1.2 1.6.4.6.7 1.2 1.1 1.8s.6 1.2.9 1.9c.3.6.5 1.3.7 1.9.2.7.4 1.3.5 2 .1.7.2 1.4.3 2 .1.7.1 1.4.1 2.1 0 .7 0 1.4-.1 2.1s-.2 1.4-.3 2c-.1.7-.3 1.3-.5 2s-.4 1.3-.7 1.9c-.3.6-.6 1.3-.9 1.9-.3.6-.7 1.2-1.1 1.8-.4.6-.8 1.1-1.2 1.7-.4.5-.9 1-1.4 1.5-.5.5-1 .9-1.5 1.4-.5.4-1.1.8-1.7 1.2-.6.4-1.2.7-1.8 1.1-.6.3-1.2.6-1.9.9-.6.3-1.3.5-1.9.7s-1.3.4-2 .5c-.7.1-1.4.2-2 .3-.7.1-1.4.1-2.1.1-.7 0-1.4 0-2.1-.1-.7-.1-1.4-.2-2-.3-.7-.1-1.3-.3-2-.5s-1.3-.4-1.9-.7c-.6-.3-1.3-.6-1.9-.9-.6-.3-1.2-.7-1.8-1.1-.6-.4-1.1-.8-1.7-1.2-.5-.4-1-.9-1.5-1.4-.5-.5-.9-1-1.4-1.5-.4-.5-.8-1.1-1.2-1.7-.4-.6-.7-1.2-1.1-1.8s-.6-1.2-.9-1.9c-.3-.6-.5-1.3-.7-1.9-.2-.7-.4-1.3-.5-2-.1-.7-.2-1.4-.3-2s-.1-1.4-.1-2.1 0-1.4.1-2.1c.1-.7.2-1.4.3-2s.3-1.3.5-2 .4-1.3.7-1.9c.3-.6.6-1.3.9-1.9.3-.6.7-1.2 1.1-1.8.4-.6.8-1.1 1.2-1.6.4-.5.9-1 1.4-1.5.5-.5 1-.9 1.5-1.4s1.1-.8 1.7-1.2c.6-.4 1.2-.7 1.8-1.1.6-.3 1.2-.6 1.9-.9.6-.3 1.3-.5 1.9-.7s1.3-.4 2-.5c.7-.1 1.4-.2 2-.3.7-.1 1.4-.1 2.1-.1" class="fill_deer_park"/>
	<path d="M1552.4 138.8h-2.2v3.2h-3.3v-3.2h-7.3V137l6.2-9.5h4.4v8.7h2.2v2.6zm-9.3-2.6h3.8v-3.9l.1-2.4c-.3.8-.8 1.6-1.3 2.4l-2.6 3.9z" class="fill_white"/>
</g>
<g id="walled-garden">
	<path d="M1424.174 525.047c6.4 0 11.6 5.2 11.6 11.6 0 6.4-5.2 11.6-11.6 11.6-6.4 0-11.6-5.2-11.6-11.6 0-3.1 1.2-6 3.4-8.2 2.2-2.2 5.1-3.4 8.2-3.4m-23.4 26.7.1.2c.2.3.3.5.5.8l20.1 28.9c1 1.4 3 1.8 4.4.8.3-.2.6-.5.8-.8l20.1-28.9c.2-.3.4-.5.6-.8l.1-.2c8.3-12.9 4.6-30.1-8.3-38.5-12.9-8.3-30.1-4.6-38.5 8.3-5.8 9.2-5.8 21 .1 30.2z" class="fill_white"/>
	<path d="M1424.074 515.447c.7 0 1.4 0 2.1.1.7.1 1.4.2 2 .3.7.1 1.3.3 2 .5s1.3.4 1.9.7c.6.3 1.3.6 1.9.9s1.2.7 1.8 1.1c.6.4 1.1.8 1.7 1.2.5.4 1 .9 1.5 1.4.5.5.9 1 1.4 1.5.4.5.8 1.1 1.2 1.7.4.6.7 1.2 1.1 1.8s.6 1.2.9 1.9c.3.6.5 1.3.7 1.9.2.7.4 1.3.5 2 .1.7.2 1.4.3 2s.1 1.4.1 2.1c0 .7 0 1.4-.1 2.1-.1.7-.2 1.4-.3 2-.1.7-.3 1.3-.5 2s-.4 1.3-.7 1.9c-.3.6-.6 1.3-.9 1.9s-.7 1.2-1.1 1.8c-.4.6-.8 1.1-1.2 1.7-.4.5-.9 1-1.4 1.5-.5.5-1 .9-1.5 1.4-.5.4-1.1.8-1.7 1.2-.6.4-1.2.7-1.8 1.1-.6.3-1.2.6-1.9.9-.6.3-1.3.5-1.9.7s-1.3.4-2 .5c-.7.1-1.4.2-2 .3-.7.1-1.4.1-2.1.1-.7 0-1.4 0-2.1-.1-.7-.1-1.4-.2-2-.3-.7-.1-1.3-.3-2-.5s-1.3-.4-1.9-.7c-.6-.3-1.3-.6-1.9-.9-.6-.3-1.2-.7-1.8-1.1-.6-.4-1.1-.8-1.7-1.2-.5-.4-1-.9-1.5-1.4-.5-.5-.9-1-1.4-1.5-.4-.5-.8-1.1-1.2-1.7-.4-.6-.7-1.2-1.1-1.8s-.6-1.2-.9-1.9c-.3-.6-.5-1.3-.7-1.9-.2-.7-.4-1.3-.5-2-.1-.7-.2-1.4-.3-2-.1-.7-.1-1.4-.1-2.1 0-.7 0-1.4.1-2.1.1-.7.2-1.4.3-2s.3-1.3.5-2 .4-1.3.7-1.9c.3-.6.6-1.3.9-1.9.3-.6.7-1.2 1.1-1.8.4-.6.8-1.1 1.2-1.7.4-.5.9-1 1.4-1.5.5-.5 1-.9 1.5-1.4.5-.4 1.1-.8 1.7-1.2.6-.4 1.2-.7 1.8-1.1.6-.3 1.2-.6 1.9-.9.6-.3 1.3-.5 1.9-.7s1.3-.4 2-.5c.7-.1 1.4-.2 2-.3s1.4-.1 2.1-.1" class="fill_walled_garden"/>
	<path d="M1428.7 533c0 2.4-1.9 3.3-2.7 3.3v.1c1 0 3 .7 3 3.3 0 2.5-2.4 4.2-5.6 4.2-3.1 0-4.9-1.1-5.7-3.6l3.4-1.5c.2 1.6.9 2.2 2.2 2.2 1.3 0 2-.6 2-1.8 0-1.1-.7-1.6-2.2-1.6h-.8v-2.4h.6c1.4 0 2-.6 2-1.7s-.6-1.7-1.7-1.7-1.9.6-2 2l-3.3-1.1c.5-2.7 2.8-3.8 5.6-3.8 3.4.1 5.2 1.7 5.2 4.1z" class="fill_white"/>
</g>
<g id="faith-museum">
	<path d="M1140.774 469.047c6.4 0 11.6 5.2 11.6 11.6 0 6.4-5.2 11.6-11.6 11.6s-11.6-5.2-11.6-11.6c0-3.1 1.2-6 3.4-8.2 2.2-2.2 5.1-3.4 8.2-3.4m-23.4 26.7.1.2c.2.3.3.5.5.8l20.1 28.9c1 1.4 3 1.8 4.4.8.3-.2.6-.5.8-.8l20.1-28.9c.2-.3.4-.5.6-.8l.1-.2c8.3-12.9 4.6-30.1-8.3-38.5-12.9-8.3-30.1-4.6-38.5 8.3-5.8 9.2-5.8 21 .1 30.2z" class="fill_white"/>
	<path d="M1140.674 459.447c.7 0 1.4 0 2.1.1.7.1 1.4.2 2 .3.7.1 1.3.3 2 .5s1.3.4 1.9.7c.6.3 1.3.6 1.9.9.6.3 1.2.7 1.8 1.1.6.4 1.1.8 1.7 1.2.5.4 1 .9 1.5 1.4.5.5.9 1 1.4 1.5.4.5.8 1.1 1.2 1.7.4.6.7 1.2 1.1 1.8s.6 1.2.9 1.9c.3.6.5 1.3.7 1.9.2.7.4 1.3.5 2 .1.7.2 1.4.3 2s.1 1.4.1 2.1c0 .7 0 1.4-.1 2.1-.1.7-.2 1.4-.3 2-.1.7-.3 1.3-.5 2s-.4 1.3-.7 1.9c-.3.6-.6 1.3-.9 1.9s-.7 1.2-1.1 1.8c-.4.6-.8 1.1-1.2 1.7-.4.5-.9 1-1.4 1.5-.5.5-1 .9-1.5 1.4-.5.4-1.1.8-1.7 1.2-.6.4-1.2.7-1.8 1.1-.6.3-1.2.6-1.9.9-.6.3-1.3.5-1.9.7-.7.2-1.3.4-2 .5-.7.1-1.4.2-2 .3-.7.1-1.4.1-2.1.1-.7 0-1.4 0-2.1-.1-.7-.1-1.4-.2-2-.3-.7-.1-1.3-.3-2-.5s-1.3-.4-1.9-.7c-.6-.3-1.3-.6-1.9-.9-.6-.3-1.2-.7-1.8-1.1-.6-.4-1.1-.8-1.7-1.2-.5-.4-1-.9-1.5-1.4-.5-.5-.9-1-1.4-1.5-.4-.5-.8-1.1-1.2-1.7-.4-.6-.7-1.2-1.1-1.8s-.6-1.2-.9-1.9c-.3-.6-.5-1.3-.7-1.9-.2-.7-.4-1.3-.5-2-.1-.7-.2-1.4-.3-2-.1-.7-.1-1.4-.1-2.1 0-.7 0-1.4.1-2.1.1-.7.2-1.4.3-2s.3-1.3.5-2 .4-1.3.7-1.9c.3-.6.6-1.3.9-1.9.3-.6.7-1.2 1.1-1.8.4-.6.8-1.1 1.2-1.7.4-.5.9-1 1.4-1.5.5-.5 1-.9 1.5-1.4.5-.4 1.1-.8 1.7-1.2.6-.4 1.2-.7 1.8-1.1.6-.3 1.2-.6 1.9-.9.6-.3 1.3-.5 1.9-.7.7-.2 1.3-.4 2-.5.7-.1 1.4-.2 2-.3s1.5-.1 2.1-.1" class="fill_faith_museum"/>
	<path d="M1134.9 485.3c5-3.1 7-5.3 7-7.4 0-1.1-.7-2-2-2-1.4 0-2.2 1-2.2 3l-3.2-1c.1-3.2 2.4-5 5.7-5 3.9 0 5.5 2.4 5.5 4.7 0 2.8-2.2 5-6.2 7.3.7 0 2-.1 2.9-.1h3.4v2.9h-10.9v-2.4z" class="fill_white"/>
</g>
<g id="auckland-tower">
	<path d="M916.374 544.347c6.4 0 11.6 5.2 11.6 11.6 0 6.4-5.2 11.6-11.6 11.6-6.4 0-11.6-5.2-11.6-11.6 0-3.1 1.2-6 3.4-8.2 2.2-2.2 5.1-3.4 8.2-3.4m-23.4 26.6.1.2c.2.3.3.5.5.8l20.1 28.9c1 1.4 3 1.8 4.4.8.3-.2.6-.5.8-.8l20.1-28.9c.2-.3.4-.5.6-.8l.1-.2c8.3-12.9 4.6-30.1-8.3-38.5s-30.1-4.6-38.5 8.3c-5.8 9.2-5.8 21 .1 30.2z" class="fill_white"/>
	<path d="M916.274 534.747c.7 0 1.4 0 2.1.1.7.1 1.4.2 2 .3.7.1 1.3.3 2 .5s1.3.4 1.9.7c.6.3 1.3.6 1.9.9s1.2.7 1.8 1.1c.6.4 1.1.8 1.7 1.2.5.4 1 .9 1.5 1.4.5.5.9 1 1.4 1.5.4.5.8 1.1 1.2 1.6.4.6.7 1.2 1.1 1.8s.6 1.2.9 1.9c.3.6.5 1.3.7 1.9s.4 1.3.5 2c.1.7.2 1.4.3 2 .1.7.1 1.4.1 2.1 0 .7 0 1.4-.1 2.1-.1.7-.2 1.4-.3 2-.1.7-.3 1.3-.5 2s-.4 1.3-.7 1.9c-.3.6-.6 1.3-.9 1.9-.3.6-.7 1.2-1.1 1.8-.4.6-.8 1.1-1.2 1.7s-.9 1-1.4 1.5c-.5.5-1 .9-1.5 1.4-.5.4-1.1.8-1.7 1.2-.6.4-1.2.7-1.8 1.1-.6.3-1.2.6-1.9.9-.6.3-1.3.5-1.9.7s-1.3.4-2 .5c-.7.1-1.4.2-2 .3s-1.4.1-2.1.1c-.7 0-1.4 0-2.1-.1s-1.4-.2-2-.3c-.7-.1-1.3-.3-2-.5s-1.3-.4-1.9-.7c-.6-.3-1.3-.6-1.9-.9-.6-.3-1.2-.7-1.8-1.1-.6-.4-1.1-.8-1.7-1.2s-1-.9-1.5-1.4c-.5-.5-.9-1-1.4-1.5-.4-.5-.8-1.1-1.2-1.7-.4-.6-.7-1.2-1.1-1.8s-.6-1.2-.9-1.9c-.3-.6-.5-1.3-.7-1.9-.2-.7-.4-1.3-.5-2-.1-.7-.2-1.4-.3-2-.1-.7-.1-1.4-.1-2.1 0-.7 0-1.4.1-2.1s.2-1.4.3-2 .3-1.3.5-2 .4-1.3.7-1.9c.3-.6.6-1.3.9-1.9s.7-1.2 1.1-1.8c.4-.6.8-1.1 1.2-1.6.4-.5.9-1 1.4-1.5.5-.5 1-.9 1.5-1.4.5-.4 1.1-.8 1.7-1.2.6-.4 1.2-.7 1.8-1.1.6-.3 1.2-.6 1.9-.9.6-.3 1.3-.5 1.9-.7s1.3-.4 2-.5c.7-.1 1.4-.2 2-.3.8-.1 1.5-.1 2.1-.1" class="fill_auckland_tower"/>
	<path d="M921.2 558c0 3.6-2.6 5.2-5.7 5.2-2.6 0-4.4-.8-5.7-2.9l3.3-1.9c.3 1.2.8 1.9 2.4 1.9 1.3 0 2.2-.7 2.2-2.1 0-1.3-.7-2-2.2-2-1 0-1.8.3-2.3.9l-2.9-.4.9-8.2h9.1v2.9H914l-.3 2.7c0 .3-.1.5-.1.5.6-.7 1.7-1 3-1 2.9 0 4.6 1.8 4.6 4.4z" class="fill_white"/>
</g>
<g id="spanish-gallery">
	<path d="M636.074 961.247c6.4 0 11.6 5.2 11.6 11.6 0 6.4-5.2 11.6-11.6 11.6s-11.6-5.2-11.6-11.6c0-3.1 1.2-6 3.4-8.2 2.2-2.2 5.1-3.4 8.2-3.4m-23.4 26.7.1.2c.2.3.3.5.5.8l20.1 28.9c1 1.4 3 1.8 4.4.8.3-.2.6-.5.8-.8l20.1-28.9c.2-.3.4-.5.6-.8l.1-.2c8.3-12.9 4.6-30.1-8.3-38.5-12.9-8.3-30.1-4.6-38.5 8.3-5.8 9.2-5.8 21 .1 30.2z" class="fill_white"/>
	<path d="M635.974 951.647c.7 0 1.4 0 2.1.1.7.1 1.4.2 2 .3.7.1 1.3.3 2 .5s1.3.4 1.9.7c.6.3 1.3.6 1.9.9s1.2.7 1.8 1.1c.6.4 1.1.8 1.7 1.2.5.4 1 .9 1.5 1.4.5.5.9 1 1.4 1.5.4.5.8 1.1 1.2 1.7.4.6.7 1.2 1.1 1.8.3.6.6 1.2.9 1.9.3.6.5 1.3.7 1.9.2.7.4 1.3.5 2 .1.7.2 1.4.3 2s.1 1.4.1 2.1c0 .7 0 1.4-.1 2.1s-.2 1.4-.3 2c-.1.7-.3 1.3-.5 2s-.4 1.3-.7 1.9c-.3.6-.6 1.3-.9 1.9-.3.6-.7 1.2-1.1 1.8-.4.6-.8 1.1-1.2 1.7s-.9 1-1.4 1.5c-.5.5-1 .9-1.5 1.4-.5.4-1.1.8-1.7 1.2-.6.4-1.2.7-1.8 1.1-.6.3-1.2.6-1.9.9-.6.3-1.3.5-1.9.7s-1.3.4-2 .5c-.7.1-1.4.2-2 .3s-1.4.1-2.1.1c-.7 0-1.4 0-2.1-.1s-1.4-.2-2-.3c-.7-.1-1.3-.3-2-.5s-1.3-.4-1.9-.7c-.6-.3-1.3-.6-1.9-.9-.6-.3-1.2-.7-1.8-1.1-.6-.4-1.1-.8-1.7-1.2-.5-.4-1-.9-1.5-1.4-.5-.5-.9-1-1.4-1.5-.4-.5-.8-1.1-1.2-1.7-.4-.6-.7-1.2-1.1-1.8s-.6-1.2-.9-1.9c-.3-.6-.5-1.3-.7-1.9-.2-.7-.4-1.3-.5-2-.1-.7-.2-1.4-.3-2s-.1-1.4-.1-2.1 0-1.4.1-2.1.2-1.4.3-2c.1-.7.3-1.3.5-2s.4-1.3.7-1.9c.3-.6.6-1.3.9-1.9s.7-1.2 1.1-1.8c.4-.6.8-1.1 1.2-1.7.4-.5.9-1 1.4-1.5.5-.5 1-.9 1.5-1.4.5-.4 1.1-.8 1.7-1.2.6-.4 1.2-.7 1.8-1.1.6-.3 1.2-.6 1.9-.9.6-.3 1.3-.5 1.9-.7s1.3-.4 2-.5c.7-.1 1.4-.2 2-.3s1.4-.1 2.1-.1" class="fill_spanish_gallery"/>
	<path d="m641.4 968.4-3.1 1.5c-.3-1-1-1.7-2.2-1.7-1.6 0-2.8 1.6-2.8 4.3v.4c.5-1.3 1.8-1.9 3.5-1.9 2.7 0 4.7 1.8 4.7 4.5 0 2.9-2 4.8-5.6 4.8-3.9 0-6.1-2.6-6.1-7.5 0-5.1 2.8-7.5 6.4-7.5 2.5-.1 4.4.7 5.2 3.1zm-7.4 7c0 1.2.8 1.9 2.1 1.9s2.1-.7 2.1-1.9-.7-1.9-2.1-1.9c-1.3-.1-2.1.7-2.1 1.9z" class="fill_white"/>
</g>
<g id="mining-art-gallery">
	<path d="M722.374 723.547c6.4 0 11.6 5.2 11.6 11.6 0 6.4-5.2 11.6-11.6 11.6s-11.6-5.2-11.6-11.6c0-3.1 1.2-6 3.4-8.2 2.1-2.2 5.1-3.4 8.2-3.4m-23.4 26.6.1.2c.2.3.3.5.5.8l20.1 28.9c1 1.4 3 1.8 4.4.8.3-.2.6-.5.8-.8l20.1-28.9c.2-.3.4-.5.6-.8l.1-.2c8.3-12.9 4.6-30.1-8.3-38.5s-30.1-4.6-38.5 8.3c-5.9 9.2-5.9 21.1.1 30.2z" class="fill_white"/>
	<path d="M722.274 713.947c.7 0 1.4 0 2.1.1.7.1 1.4.2 2 .3.7.1 1.3.3 2 .5s1.3.4 1.9.7c.6.3 1.3.6 1.9.9s1.2.7 1.8 1.1c.6.4 1.1.8 1.7 1.2.5.4 1 .9 1.5 1.4.5.5.9 1 1.4 1.5.4.5.8 1.1 1.2 1.7.4.6.7 1.2 1.1 1.8s.6 1.2.9 1.9c.3.6.5 1.3.7 1.9.2.7.4 1.3.5 2 .1.7.2 1.4.3 2 .1.7.1 1.4.1 2.1 0 .7 0 1.4-.1 2.1s-.2 1.4-.3 2c-.1.7-.3 1.3-.5 2s-.4 1.3-.7 1.9c-.3.6-.6 1.3-.9 1.9-.3.6-.7 1.2-1.1 1.8-.4.6-.8 1.1-1.2 1.7-.4.5-.9 1-1.4 1.5-.5.5-1 .9-1.5 1.4-.5.4-1.1.8-1.7 1.2-.6.4-1.2.7-1.8 1.1-.6.3-1.2.6-1.9.9-.6.3-1.3.5-1.9.7-.7.2-1.3.4-2 .5-.7.1-1.4.2-2 .3-.7.1-1.4.1-2.1.1-.7 0-1.4 0-2.1-.1-.7-.1-1.4-.2-2-.3-.7-.1-1.3-.3-2-.5s-1.3-.4-1.9-.7c-.6-.3-1.3-.6-1.9-.9-.6-.3-1.2-.7-1.8-1.1-.6-.4-1.1-.8-1.7-1.2-.5-.4-1-.9-1.5-1.4-.5-.5-.9-1-1.4-1.5-.4-.5-.8-1.1-1.2-1.7-.4-.6-.7-1.2-1.1-1.8s-.6-1.2-.9-1.9c-.3-.6-.5-1.3-.7-1.9-.2-.7-.4-1.3-.5-2-.1-.7-.2-1.4-.3-2s-.1-1.4-.1-2.1c0-.7 0-1.4.1-2.1.1-.7.2-1.4.3-2s.3-1.3.5-2 .4-1.3.7-1.9c.3-.6.6-1.3.9-1.9.3-.6.7-1.2 1.1-1.8.4-.6.8-1.1 1.2-1.6.4-.5.9-1 1.4-1.5.5-.5 1-.9 1.5-1.4.5-.4 1.1-.8 1.7-1.2.6-.4 1.2-.7 1.8-1.1s1.2-.6 1.9-.9c.6-.3 1.3-.5 1.9-.7.7-.2 1.3-.4 2-.5.7-.1 1.4-.2 2-.3s1.4-.2 2.1-.2" class="fill_mining_art_gallery"/>
	<path d="M728 727.6v2.7c-3.6 3.5-4.8 7.4-4.8 11.8h-3.7c0-4.4 1.5-8.1 4.8-11.6H716v-3h12z" class="fill_white"/>
</g>
<g id="auckland-palace">
	<path d="M1412.574 289.147c6.4 0 11.6 5.2 11.6 11.6s-5.2 11.6-11.6 11.6c-6.4 0-11.6-5.2-11.6-11.6 0-3.1 1.2-6 3.4-8.2 2.2-2.2 5.1-3.4 8.2-3.4m-23.4 26.6.1.2c.2.3.3.5.5.8l20.1 28.9c1 1.4 3 1.8 4.4.8.3-.2.6-.5.8-.8l20.1-28.9c.2-.3.4-.5.6-.8l.1-.2c8.3-12.9 4.6-30.1-8.3-38.5-12.9-8.3-30.1-4.6-38.5 8.3-5.8 9.3-5.8 21.1.1 30.2z" class="fill_white"/>
	<path d="M1412.474 279.547c.7 0 1.4 0 2.1.1.7.1 1.4.2 2 .3.7.1 1.3.3 2 .5s1.3.4 1.9.7c.6.3 1.3.6 1.9.9s1.2.7 1.8 1.1c.6.4 1.1.8 1.7 1.2.5.4 1 .9 1.5 1.4.5.5.9 1 1.4 1.5.4.5.8 1.1 1.2 1.6.4.6.7 1.2 1.1 1.8s.6 1.2.9 1.9c.3.6.5 1.3.7 1.9.2.7.4 1.3.5 2 .1.7.2 1.4.3 2s.1 1.4.1 2.1c0 .7 0 1.4-.1 2.1-.1.7-.2 1.4-.3 2-.1.7-.3 1.3-.5 2s-.4 1.3-.7 1.9c-.3.6-.6 1.3-.9 1.9s-.7 1.2-1.1 1.8c-.4.6-.8 1.1-1.2 1.7-.4.5-.9 1-1.4 1.5-.5.5-1 .9-1.5 1.4-.5.4-1.1.8-1.7 1.2-.6.4-1.2.7-1.8 1.1-.6.3-1.2.6-1.9.9-.6.3-1.3.5-1.9.7s-1.3.4-2 .5c-.7.1-1.4.2-2 .3-.7.1-1.4.1-2.1.1-.7 0-1.4 0-2.1-.1-.7-.1-1.4-.2-2-.3-.7-.1-1.3-.3-2-.5s-1.3-.4-1.9-.7c-.6-.3-1.3-.6-1.9-.9-.6-.3-1.2-.7-1.8-1.1-.6-.4-1.1-.8-1.7-1.2-.5-.4-1-.9-1.5-1.4-.5-.5-.9-1-1.4-1.5-.4-.5-.8-1.1-1.2-1.7-.4-.6-.7-1.2-1.1-1.8s-.6-1.2-.9-1.9c-.3-.6-.5-1.3-.7-1.9-.2-.7-.4-1.3-.5-2-.1-.7-.2-1.4-.3-2-.1-.7-.1-1.4-.1-2.1s0-1.4.1-2.1c.1-.7.2-1.4.3-2s.3-1.3.5-2 .4-1.3.7-1.9c.3-.6.6-1.3.9-1.9.3-.6.7-1.2 1.1-1.8.4-.6.8-1.1 1.2-1.6.4-.5.9-1 1.4-1.5.5-.5 1-.9 1.5-1.4s1.1-.8 1.7-1.2c.6-.4 1.2-.7 1.8-1.1.6-.3 1.2-.6 1.9-.9.6-.3 1.3-.5 1.9-.7.7-.2 1.3-.4 2-.5.7-.1 1.4-.2 2-.3.7-.1 1.4-.1 2.1-.1" class="fill_auckland_castle"/>
	<path d="M1415.9 293.5V308h-3.7v-10.8c-1 .9-2.2 1.6-3.4 1.8l-.4-3.1c1.5-.2 3.7-1.4 4.4-2.4h3.1z" class="fill_white"/>
</g>
</svg>
