<svg id="mark" xmlns="http://www.w3.org/2000/svg" xmlns:xlink="http://www.w3.org/1999/xlink" width="83.031" height="40" viewBox="0 0 83.031 40">
  <defs>
    <clipPath id="clip-path">
      <rect id="Rectangle_3" data-name="Rectangle 3" width="83.031" height="40" fill="#fff"/>
    </clipPath>
  </defs>
  <g id="Group_5" data-name="Group 5" clip-path="url(#clip-path)">
    <path id="Path_43" data-name="Path 43" d="M58.09,31.482c-.023,2.194-.595,5.4-3.235,5.4s-4.683-4.285-5.411-8.149-1.273-9.352.271-14.436,4.118-6.523,5.938-6.726h-.074c1.435-.149,2.242,1.271,2.237,2.561-.007,1.222.3,19.007.274,21.346M36.143,35.054a2.34,2.34,0,0,1-2.338,1.794c-.924-.124-3.222-1.393-4.555-4.943A21.537,21.537,0,0,1,28.019,19.67c.851-5.5,2.736-8.556,4.334-10.346,1.778-1.989,2.9-2.3,3.834-2.283.823.012.586,2.017.747,8.762.171,7.106-.359,18.017-.791,19.251m46.024.631a2.945,2.945,0,0,0-2.031-.138,1.03,1.03,0,0,1-.11-.447,1.429,1.429,0,0,1,.462-1.123c.27-.264.408-.106.543-.334s-.282-.423-.879-.4a2.819,2.819,0,0,0-1.749.545,4.409,4.409,0,0,0-1.076,1.487,2.019,2.019,0,0,0-.583-.382,1.537,1.537,0,0,0-1.732.261c-.517.471-.389,1.165-.22,1.208s.378-.241.651-.117a.812.812,0,0,1,.517.887c-.078.526-1.01.51-1.633.42a10.246,10.246,0,0,1-2.959-1.3c2.077-1.312,6.452-5.183,6.373-14.476C77.631,9.595,68.208,5.149,60.268,5.149S42.8,11.926,42.8,21.349c0,7.172,4.844,12.377,7.158,14.455a38.113,38.113,0,0,0-7.221,2.21A4.164,4.164,0,0,1,42,37.578c-1.061-.793-.862-.871-.985-1.363s.175-13.277.175-15.616.626-10.195.8-11.756a12.014,12.014,0,0,1,.678-3.076,5.692,5.692,0,0,1-1.355.307c-1.4.167-4.942.411-8.766.7C30.735,7.82,20.394,14.218,21.066,23.923c.415,6,4.677,10.156,5.108,10.709a26.822,26.822,0,0,0,2.584,2.215,8.33,8.33,0,0,1-6.34.616c-3.2-1.169-5.551-3.542-6.954-7.754-1.477-4.43-1.415-8.31.676-12.187,1.782-3.3,6.215-7.507,11.086-9.7.038-.02.081-.04.131-.064,1.227-.577.386-.63-.188-.626a63.4,63.4,0,0,1-7.909-.237,49.206,49.206,0,0,1-5.681-.763,26.611,26.611,0,0,1-3.915-.894,9.517,9.517,0,0,0-1.29.639l-.2.111a2.433,2.433,0,0,1-1.14.23A5.75,5.75,0,0,1,5.8,6.071a.117.117,0,0,1,.055-.228,5.571,5.571,0,0,0,.66.108.118.118,0,0,1,.061-.012,3.266,3.266,0,0,0,1.507-.271,10.927,10.927,0,0,0,1.034-.624,7.511,7.511,0,0,1-2-1.031,3.733,3.733,0,0,0-1.531-.624,6.613,6.613,0,0,0-.86-.117A9.059,9.059,0,0,1,3.516,3.1a2.836,2.836,0,0,1-1.3-.567.235.235,0,0,1,.324-.341,2.562,2.562,0,0,0,1.085.449A8.245,8.245,0,0,0,4.768,2.8a6.943,6.943,0,0,1,.918.128,4.147,4.147,0,0,1,1.717.71A7.581,7.581,0,0,0,9.539,4.7a5.031,5.031,0,0,1-.566-1.059c-.068-.151-.133-.3-.2-.444A9.151,9.151,0,0,0,7.625,1.661.117.117,0,0,1,7.791,1.5,6.593,6.593,0,0,1,9.143,3.168,3.857,3.857,0,0,0,10.3,4.734a4.792,4.792,0,0,0,.793.415c1.011.252,1.956.417,2.55.511.008-.009.014-.017.023-.026a1.312,1.312,0,0,0-.01-1.4,2.978,2.978,0,0,0-1.614-1.282s-.086-.017-.14.53a1.957,1.957,0,0,0,.256,1.136c.128.36-.14.53-.728.32s-.387-1.083-.665-1.967a4.479,4.479,0,0,0-2.25-2.8A1.413,1.413,0,0,0,6.374,1.393c.082.68.609.72.78.576s.421,0,.553.236c.163.3-.114.6-.553.526-.577-.1-.976-.527-1.561-1.148a2.113,2.113,0,0,0-2.124-.5,14.383,14.383,0,0,1-2.042.019A2.43,2.43,0,0,0,0,1.785a1.841,1.841,0,0,1,1,.562A5.266,5.266,0,0,0,2.219,4.2C4.1,5.692,5.169,4,5.495,3.9a.742.742,0,0,1,.958.365c.186.431-.061.53-.29.423a1.435,1.435,0,0,0-1.5.275c-.314.326-.708.955-.54,1.211s.637-.01,1.284.265.856.808,1.205,1.218a2.225,2.225,0,0,0,2.053.2,2.76,2.76,0,0,0,1.415-1.316c.193-.4.368-.551.808-.5.337.033.346.06.325.313s-.211.237-.514.436-.244.424-.019.6a1.926,1.926,0,0,0,1.353.206c.528-.1.785-.689,1.049-.707a1.685,1.685,0,0,1,1.227.549,5.74,5.74,0,0,0-.527.232.6.6,0,0,0-.245.772.644.644,0,0,0,1.012.322c.343-.288-.271-.947-.271-.947a.864.864,0,0,1,.461-.052c.085.006.316.047.6.1a12.471,12.471,0,0,0,1.992.534,22.784,22.784,0,0,0,4.015.7l-2.687,1.344a37.762,37.762,0,0,0-7.078,5.294A16.809,16.809,0,0,0,7.647,21.89c-.617,1.723-1.478,5.047,2.4,9.787A20.735,20.735,0,0,0,23.9,39.064c4.122.245,5.723-1.415,5.723-1.415l.554.431a4,4,0,0,0,3.754,1.045c1.456-.352,1.722-1.108,2.523-1.108S39.821,40,39.821,40l5.163-1.49c.967-.194,1.847-.363,2.426-.454,1.706-.268,3.5-.363,4.267-.407,1.689-.1,7.93-.32,7.93-.32s2.713.051,5.291.077c-2.2-.583-2.493-4.773-2.47-5.385.093-2.4.253-20.415.271-21.668.031-2.142.347-2.932,1.293-2.814l.034,0c1.843.206,5.32,1.653,6.888,6.866s1.018,10.837.277,14.8C70.645,32.151,69.2,35.282,67.4,36.7c-.039.032-.083.068-.137.11-.882.672.175.591.654.621h0a35.374,35.374,0,0,1,5.189.6c.316.068.6.136.835.2a.165.165,0,0,1,.043.005,4.2,4.2,0,0,0,2.3.189l.053-.017.265-.086a1.355,1.355,0,0,0,.471-.9,1.636,1.636,0,0,0-.844-1.593.117.117,0,1,1,.115-.2,1.878,1.878,0,0,1,.959,1.842,2.107,2.107,0,0,1-.217.641,1.787,1.787,0,0,0,.326-.27,3.4,3.4,0,0,0,.793-1.465,15.988,15.988,0,0,1,.634-1.521.231.231,0,0,1,.313-.108.234.234,0,0,1,.11.314c0,.006-.342.707-.613,1.472a6.707,6.707,0,0,1-.389.943c.046-.047.093-.094.138-.145a2.028,2.028,0,0,1,1.122-.579,1.559,1.559,0,0,1,1.115.177.117.117,0,1,1-.132.194,1.347,1.347,0,0,0-.938-.141,1.82,1.82,0,0,0-1,.508,6.521,6.521,0,0,1-1.06.92.1.1,0,0,1-.051.016,3.062,3.062,0,0,1-.977.437l-.055.016a2.677,2.677,0,0,1-.819.115c-.078,0-.158,0-.236-.008a1.907,1.907,0,0,0,.382.19,6.064,6.064,0,0,0,2.3-.1,9,9,0,0,0,3.771-1.582c.738-.62.657-.639,1.07-.725.353-.07-.021-.573-.729-1.068" transform="translate(0 0)" fill="#fff"/>
  </g>
</svg>
