<svg xmlns="http://www.w3.org/2000/svg" width="19.385" height="18" viewBox="0 0 19.385 18">
  <path id="news" d="M23.558,13.529H22.173V11.452A2.077,2.077,0,0,0,20.1,9.375H8.327A2.077,2.077,0,0,0,6.25,11.452V25.3a2.077,2.077,0,0,0,2.077,2.077H23.212a2.424,2.424,0,0,0,2.423-2.423V15.606a2.077,2.077,0,0,0-2.077-2.077Zm-4.846,9h-9a.692.692,0,0,1,0-1.385h9a.692.692,0,0,1,0,1.385Zm0-3.462h-9a.692.692,0,0,1,0-1.385h9a.692.692,0,0,1,0,1.385Zm0-3.462H11.788a.692.692,0,1,1,0-1.385h6.923a.692.692,0,0,1,0,1.385Zm5.538,9.346a1.038,1.038,0,1,1-2.077,0V14.914h1.385a.691.691,0,0,1,.692.692Z" transform="translate(-6.25 -9.375)" fill="#db205d"/>
</svg>
