<svg xmlns="http://www.w3.org/2000/svg" viewBox="0 0 47 47">
  <g id="pause" transform="translate(-1587 -1043)">
    <circle id="Ellipse_32" data-name="Ellipse 32" cx="23.5" cy="23.5" r="23.5" transform="translate(1587 1043)" fill="#000"/>
    <path id="pause-2" data-name="pause" d="M29.956,24.84H25.435a.417.417,0,0,1-.417-.417V7.257a.417.417,0,0,1,.417-.417h4.521a.417.417,0,0,1,.417.417V24.422a.418.418,0,0,1-.417.418Zm-8.686,0H16.749a.417.417,0,0,1-.417-.417V7.257a.417.417,0,0,1,.417-.417H21.27a.417.417,0,0,1,.417.417V24.422a.418.418,0,0,1-.417.418Z" transform="translate(1587.148 1050.66)" fill="#fff"/>
  </g>
</svg>
