<svg xmlns="http://www.w3.org/2000/svg" width="32.016" height="19.818" viewBox="0 0 32.016 19.818">
  <g id="people" transform="translate(-6.25 -22.918)">
    <path id="Path_1639" data-name="Path 1639" d="M47.206,26.728a3.812,3.812,0,1,1-3.812-3.81,3.812,3.812,0,0,1,3.812,3.81" transform="translate(-21.136)" fill="#472961" fill-rule="evenodd"/>
    <path id="Path_1640" data-name="Path 1640" d="M76.372,35.062a3.811,3.811,0,1,1-3.81-3.812,3.811,3.811,0,0,1,3.81,3.812" transform="translate(-39.632 -5.283)" fill="#472961" fill-rule="evenodd"/>
    <path id="Path_1641" data-name="Path 1641" d="M18.04,35.062a3.811,3.811,0,1,1-3.812-3.812,3.811,3.811,0,0,1,3.812,3.812" transform="translate(-2.643 -5.283)" fill="#472961" fill-rule="evenodd"/>
    <path id="Path_1642" data-name="Path 1642" d="M14.21,56.411a3.779,3.779,0,0,0-1.1-.162H10.062A3.812,3.812,0,0,0,6.25,60.061V63.11a.762.762,0,0,0,.762.762H14a2.282,2.282,0,0,1-.131-.762V58.536a6.829,6.829,0,0,1,.337-2.125Z" transform="translate(0 -21.136)" fill="#472961" fill-rule="evenodd"/>
    <path id="Path_1643" data-name="Path 1643" d="M44.971,53.253v4.574a.761.761,0,0,1-.762.762h-12.2a.761.761,0,0,1-.762-.762V53.253a5.335,5.335,0,0,1,5.335-5.335h3.05a5.335,5.335,0,0,1,5.335,5.335Z" transform="translate(-15.852 -15.853)" fill="#472961" fill-rule="evenodd"/>
    <path id="Path_1644" data-name="Path 1644" d="M72.2,63.872h6.992a.762.762,0,0,0,.762-.762V60.062a3.812,3.812,0,0,0-3.812-3.812H73.1a3.779,3.779,0,0,0-1.1.162,6.83,6.83,0,0,1,.337,2.125v4.574a2.282,2.282,0,0,1-.132.762Z" transform="translate(-41.69 -21.136)" fill="#472961" fill-rule="evenodd"/>
  </g>
</svg>
