<svg xmlns="http://www.w3.org/2000/svg" width="24.241" height="32" viewBox="0 0 24.241 32">
  <path id="phone" d="M42.58,33.538l-1.9-3.118v0A3.649,3.649,0,0,0,35.669,29.2l-1.567.954a1.2,1.2,0,0,1-1.46-.151,21.281,21.281,0,0,1-5.4-8.883,1.207,1.207,0,0,1,.543-1.363l1.567-.952,0,0a3.648,3.648,0,0,0,1.217-5.015l-1.9-3.118A3.651,3.651,0,0,0,23.65,9.458L20.625,11.29a3.613,3.613,0,0,0-1.754,3.1,29.492,29.492,0,0,0,4.277,15.3A29.8,29.8,0,0,0,34.718,40.5a3.753,3.753,0,0,0,1.733.429,3.631,3.631,0,0,0,1.889-.531l3.022-1.841a3.651,3.651,0,0,0,1.217-5.015Z" transform="translate(-18.871 -8.924)" fill="#472961"/>
</svg>
