<?xml version="1.0" encoding="utf-8"?>
<!-- Generator: Adobe Illustrator 28.2.0, SVG Export Plug-In . SVG Version: 6.00 Build 0)  -->
<svg version="1.1" id="Layer_1" xmlns="http://www.w3.org/2000/svg" xmlns:xlink="http://www.w3.org/1999/xlink" x="0px" y="0px"
	 viewBox="0 0 149 132" style="enable-background:new 0 0 149 132;" xml:space="preserve">
<style type="text/css">
	.st0{fill:#FFFFFF;}
</style>
<path class="st0" d="M6.8,19.6c0-6.2,5.1-11.4,11.4-11.4h113.6c6.2,0,11.4,5.1,11.4,11.4V106c0,6.3-5.1,11.4-11.4,11.4H18.2
	c-6.2,0-11.4-5.1-11.4-11.4V19.6z M18.2,17.3c-1.2,0-2.3,1.1-2.3,2.3V106c0,1.2,1.1,2.3,2.3,2.3h113.6c1.2,0,2.3-1.1,2.3-2.3V19.6
	c0-1.2-1.1-2.3-2.3-2.3C131.8,17.3,18.2,17.3,18.2,17.3z M97.8,40.1c0-7.5,6.1-13.6,13.6-13.6c7.5,0,13.6,6.1,13.6,13.6
	s-6.1,13.6-13.6,13.6C103.9,53.7,97.8,47.6,97.8,40.1z M25,67.3l29.5-29.5l36.4,36.4l11.4-11.4L125,85.5v13.6H25
	C25,99.2,25,67.3,25,67.3z"/>
</svg>
