<svg xmlns="http://www.w3.org/2000/svg" width="22.237" height="30.352" viewBox="0 0 22.237 30.352">
  <g id="pin" transform="translate(-15.199 -2.5)">
    <path id="Path_1967" data-name="Path 1967" d="M32.165,67.6c-.383.671-.8,1.31-1.214,1.917,2.683.607,4.281,1.661,4.281,2.46,0,1.182-3.547,2.972-8.913,2.972S17.4,73.161,17.4,71.979c0-.8,1.6-1.821,4.281-2.46-.416-.607-.831-1.245-1.214-1.917-3.068.8-5.272,2.236-5.272,4.377,0,3.387,5.591,5.175,11.119,5.175s11.119-1.79,11.119-5.175c0-2.14-2.205-3.578-5.272-4.377Z" transform="translate(0 -44.303)" fill="#db205d"/>
    <path id="Path_1968" data-name="Path 1968" d="M32.413,26.781c2.268-3.355,7.7-11.758,7.7-15.559a8.706,8.706,0,1,0-17.412,0c0,3.8,5.464,12.2,7.731,15.559a1.227,1.227,0,0,0,1.982,0ZM27.365,11.222a4.057,4.057,0,1,1,4.057,4.025A4.063,4.063,0,0,1,27.365,11.222Z" transform="translate(-5.104)" fill="#db205d"/>
  </g>
</svg>
