<?xml version="1.0" encoding="utf-8"?>
<!-- Generator: Adobe Illustrator 25.2.0, SVG Export Plug-In . SVG Version: 6.00 Build 0)  -->
<svg version="1.1" id="Layer_1" xmlns="http://www.w3.org/2000/svg" xmlns:xlink="http://www.w3.org/1999/xlink" x="0px" y="0px"
	 viewBox="0 0 25 25" style="enable-background:new 0 0 25 25;" xml:space="preserve">
<style type="text/css">
	.st0{fill:#193153;}
</style>
<path class="st0" d="M19.7,3.2c-1.6-1.6-3.9-2.4-6.3-2.4C9.6,0.8,7.3,2.3,6,3.6C4.4,5.2,3.5,7.3,3.5,9.4c0,2.6,1.1,4.6,2.9,5.4
	c0.1,0.1,0.2,0.1,0.4,0.1c0.4,0,0.7-0.3,0.8-0.7c0.1-0.2,0.2-0.8,0.3-1.1c0.1-0.5,0-0.7-0.3-1.1c-0.5-0.6-0.8-1.4-0.8-2.3
	C6.8,6.9,9,3.8,13,3.8c3.2,0,5.1,1.8,5.1,4.7c0,1.8-0.4,3.5-1.1,4.7c-0.5,0.9-1.4,1.9-2.7,1.9c-0.6,0-1.1-0.2-1.4-0.7
	c-0.3-0.4-0.4-0.9-0.3-1.4c0.1-0.6,0.3-1.2,0.5-1.8c0.3-1.1,0.7-2.1,0.7-3c0-1.4-0.9-2.4-2.2-2.4c-1.6,0-2.9,1.7-2.9,3.8
	c0,1,0.3,1.8,0.4,2.1c-0.2,0.9-1.4,6.1-1.7,7.1c-0.1,0.6-0.9,5.1,0.4,5.5c1.5,0.4,2.9-4,3-4.5c0.1-0.4,0.5-1.9,0.7-2.9
	c0.7,0.7,1.9,1.2,3,1.2c2.2,0,4.1-1,5.5-2.7c1.3-1.7,2.1-4.1,2.1-6.7C22.1,6.7,21.2,4.7,19.7,3.2z"/>
</svg>
