<svg id="plus" xmlns="http://www.w3.org/2000/svg" width="18" height="18" viewBox="0 0 18 18">
  <path id="Path_13323" data-name="Path 13323" d="M9,0a9,9,0,1,0,9,9A9,9,0,0,0,9,0M9,16.875A7.875,7.875,0,1,1,16.875,9,7.866,7.866,0,0,1,9,16.875"/>
  <path id="Path_13324" data-name="Path 13324" d="M34.757,30.627H31.75V27.621h0a.563.563,0,0,0-1.125,0v3.007H27.619a.563.563,0,0,0,0,1.125h3.007v3.006a.563.563,0,0,0,1.125,0V31.752h3.006a.563.563,0,0,0,0-1.125" transform="translate(-22.188 -22.19)"/>
</svg>
