<svg xmlns="http://www.w3.org/2000/svg" width="34.187" height="30.884" viewBox="0 0 34.187 30.884">
  <g id="register" transform="translate(0 0)">
    <path id="Path_356" data-name="Path 356" d="M23.361,27.212,20.589,28a2.315,2.315,0,0,1-.72.108A2.487,2.487,0,0,1,18,27.248a2.581,2.581,0,0,1-.576-2.015l.216-1.44H7.487a1.137,1.137,0,0,1-1.152-1.121v-.031a1.159,1.159,0,0,1,1.152-1.152H18.178a3.34,3.34,0,0,0,.288-.36l8.062-9.215V1.908A1.927,1.927,0,0,0,24.585,0H1.944A1.952,1.952,0,0,0,0,1.908V28.94a1.959,1.959,0,0,0,1.944,1.944H24.621a1.958,1.958,0,0,0,1.943-1.944V24.153l-2.015,2.3a2.784,2.784,0,0,1-1.188.756M7.487,6.767H19.041a1.136,1.136,0,0,1,1.152,1.121v.031a1.159,1.159,0,0,1-1.152,1.152H7.487a1.152,1.152,0,0,1,0-2.3m0,7.379H19.041a1.136,1.136,0,0,1,1.152,1.121V15.3a1.159,1.159,0,0,1-1.152,1.152H7.487a1.152,1.152,0,0,1,0-2.3" fill="#fff"/>
    <path id="Path_357" data-name="Path 357" d="M19.257,25.521a.66.66,0,0,0,.557.748.667.667,0,0,0,.307-.028l2.736-.828a.784.784,0,0,0,.287-.18l.792-.9-3.275-2.915-.792.9a.461.461,0,0,0-.144.36Z" fill="#fff"/>
    <path id="Path_358" data-name="Path 358" d="M21.633,20.337l3.276,2.916,6.767-7.739L28.4,12.634Z" fill="#fff"/>
    <path id="Path_359" data-name="Path 359" d="M33.979,11.95l-2.3-2.016a.674.674,0,0,0-.936.036l-1.367,1.548,3.275,2.88,1.368-1.548a.631.631,0,0,0-.027-.892l-.009-.008" fill="#fff"/>
  </g>
</svg>
