<svg xmlns="http://www.w3.org/2000/svg" viewBox="0 0 100 100" xml:space="preserve">
  <path d="M78.1 60.1c-7.4 0-13.9 4.3-17 10.6l-24-13c1.3-2.6 2-5.5 2-8.5 0-2.3-.4-4.5-1.2-6.6L62 32.2c3.4 5.3 9.3 8.9 16.1 8.9 10.5 0 19-8.5 19-19s-8.5-19-19-19-19 8.5-19 19c0 2.3.4 4.5 1.2 6.5L36.1 38.9c-3.4-5.3-9.3-8.8-16-8.8-10.5 0-19 8.5-19 19s8.5 19 19 19c6 0 11.3-2.8 14.8-7.1l24.8 13.4c-.4 1.5-.6 3-.6 4.7 0 10.5 8.5 19 19 19s19-8.5 19-19-8.5-19-19-19zm0-53c8.3 0 15 6.7 15 15s-6.7 15-15 15-15-6.7-15-15c0-8.2 6.8-15 15-15zm-58 57c-8.3 0-15-6.7-15-15s6.7-15 15-15 15 6.7 15 15-6.7 15-15 15zm58 30c-8.3 0-15-6.7-15-15s6.7-15 15-15 15 6.7 15 15-6.7 15-15 15z"/>
</svg>