<?xml version="1.0" encoding="utf-8"?>
<!-- Generator: Adobe Illustrator 27.6.1, SVG Export Plug-In . SVG Version: 6.00 Build 0)  -->
<svg version="1.1" id="Group_978" xmlns="http://www.w3.org/2000/svg" xmlns:xlink="http://www.w3.org/1999/xlink" x="0px" y="0px"
	 viewBox="0 0 80 80" style="enable-background:new 0 0 80 80;" xml:space="preserve">
<g id="Group_977">
	<path id="Path_1855" d="M56,18.1c-0.9-8.2-7.8-14.4-16-14.5c-8.8,0.1-16,7.2-16.1,16.1v6.8h3.3v-6.8C27.2,12.7,33,7,40,6.9
		c6.4,0,11.8,4.9,12.7,11.3h-2.5c-0.9-5.7-6.1-9.6-11.8-8.7c-5.1,0.8-8.8,5.1-8.8,10.2v6.8H33v-6.8c0-3.9,3.2-7.1,7.1-7.1
		c3.3,0,6.2,2.3,6.9,5.6H35.1v3.3h32.5l-4,38.7l0,0c-0.2,3-1.1,5.9-2.7,8.4c-1.9,3-5.2,4.7-8.7,4.6H27.9c-3.5,0.1-6.8-1.6-8.7-4.6
		c-1.6-2.5-2.5-5.4-2.7-8.3l-4-38.9h8.3v-3.3H9l4.4,42.3c0.3,5.5,3.7,16,14.6,16h24.2c10.9,0,14.3-10.4,14.6-16l4.4-42.3
		C71.2,18.1,56.1,18.1,56,18.1z"/>
</g>
</svg>
