<svg xmlns="http://www.w3.org/2000/svg" width="27.58" height="16.18" viewBox="0 0 27.582 16.184">
  <g id="stay" transform="translate(0 0)">
    <path id="Path_12774" data-name="Path 12774" d="M2.269,54.833v1.131q0,.382,0,.763a.6.6,0,0,1-.613.646c-.333.012-.666.012-1,0a.636.636,0,0,1-.657-.7Q0,50.1,0,43.522a.587.587,0,0,1,.627-.676c.351-.017.7-.015,1.054,0a.557.557,0,0,1,.588.636q0,4.607,0,9.214v.184H25.312v-.152q0-2.72,0-5.44A.667.667,0,0,1,26,46.563c.332-.013.666-.012,1,0a.583.583,0,0,1,.587.624q0,4.787,0,9.575a.573.573,0,0,1-.582.611c-.337.013-.676.016-1.012,0a1,1,0,0,1-.413-.141.52.52,0,0,1-.263-.487c0-.583,0-1.166,0-1.748v-.159Z" transform="translate(0 -41.198)" fill="#fff"/>
    <path id="Path_12775" data-name="Path 12775" d="M97.735,183.58q-4.918,0-9.837,0a.725.725,0,0,1-.511-.175.493.493,0,0,1-.175-.378c0-.939,0-1.878,0-2.816a.61.61,0,0,1,.65-.566q1.6,0,3.2,0h16.455c.462,0,.664.2.664.67q0,1.325,0,2.65a.548.548,0,0,1-.616.614H97.735" transform="translate(-83.881 -172.786)" fill="#fff"/>
    <path id="Path_12776" data-name="Path 12776" d="M103.158,6.132a6.116,6.116,0,0,1-2.352-.362A2.254,2.254,0,0,1,99.381,4.1a.614.614,0,0,0-.075-.176,3.743,3.743,0,0,1-.573-2.108A2.86,2.86,0,0,1,98.979.8a1.12,1.12,0,0,0,.059-.264A3.832,3.832,0,0,1,99.1.13c.037-.134.133-.165.247-.09a1.117,1.117,0,0,1,.463.536.282.282,0,0,0,.1.12,5.687,5.687,0,0,1,1.4,1.347,2.62,2.62,0,0,1,.47,1.025.21.21,0,0,0,.168.183,8.393,8.393,0,0,1,2.286,1.073,2.757,2.757,0,0,1,.939,1,.26.26,0,0,0,.115.088c.123.064.25.118.371.185.035.019.054.068.081.1a.4.4,0,0,1-.111.069c-.352.076-.7.167-1.058.214-.544.073-1.093.115-1.421.148" transform="translate(-94.959 0)" fill="#fff"/>
  </g>
</svg>
