<svg xmlns="http://www.w3.org/2000/svg" width="24.424" height="24.399" viewBox="0 0 24.424 24.399">
  <g id="telephone" transform="translate(0 -0.052)">
    <path id="Path_1969" data-name="Path 1969" d="M13.991,22.24a26.02,26.02,0,0,1-2.98-4.29c-.628-1.148-1.153-2.328-.281-2.934L6.48,8.906c-.923.806-3.405,4.995,2.441,13.641a21.8,21.8,0,0,0,6.509,6.7l-.979.776a.663.663,0,0,1-1.029-.2l-.221-.384a1.294,1.294,0,0,0-1.091-.721,1.291,1.291,0,0,0-1.091.721l-.222.384c-.1.168-.2.243-.261.243s-.163-.076-.26-.245l-.235-.411a1.281,1.281,0,0,0-1.086-.725,1.281,1.281,0,0,0-1.086.725l-.235.411c-.1.169-.2.245-.26.245s-.164-.075-.261-.243l-.222-.384A1.293,1.293,0,0,0,5.8,28.719a1.291,1.291,0,0,0-1.091.721l-.222.384c-.1.168-.2.243-.261.243s-.164-.076-.26-.245l-.235-.411a1.285,1.285,0,0,0-1.087-.726h0a1.288,1.288,0,0,0-1.088.72l-.222.384c-.1.176-.2.239-.246.239s-.142-.068-.239-.247L0,30.234a1.271,1.271,0,0,0,1.065.75,1.31,1.31,0,0,0,1.088-.716l.222-.384c.1-.168.2-.243.261-.243s.164.076.26.245l.236.411a1.288,1.288,0,0,0,1.087.727h0a1.287,1.287,0,0,0,1.088-.72l.222-.384c.1-.169.2-.245.265-.245s.167.076.265.245l.222.384a1.288,1.288,0,0,0,1.088.72h0A1.289,1.289,0,0,0,8.462,30.3l.235-.411c.193-.338.321-.338.513,0l.236.411a1.289,1.289,0,0,0,1.087.727h0a1.29,1.29,0,0,0,1.089-.72l.222-.384c.1-.169.2-.245.265-.245s.167.076.265.245l.221.384a1.635,1.635,0,0,0,1.114.81,1.583,1.583,0,0,0,.3.029,1.656,1.656,0,0,0,1.035-.373l1.3-1.03c2.546,1.224,4.359.814,4.908.416l-4.144-5.966c-.832.579-1.629-.211-3.117-1.949Z" transform="translate(0 -6.691)" fill="#db205d"/>
    <path id="Path_1970" data-name="Path 1970" d="M80.708,67.642v0l-3.231-4.649a.8.8,0,0,0-1.12-.2l-1.69,1.174,4.152,5.98s1.687-1.168,1.688-1.171l0,0a.807.807,0,0,0,.2-1.127Z" transform="translate(-56.431 -47.304)" fill="#db205d"/>
    <path id="Path_1971" data-name="Path 1971" d="M37.14,6.314l0,0a.805.805,0,0,0,.2-1.126v0L34.016.4A.8.8,0,0,0,32.9.2L31.207,1.371l4.246,6.114S37.14,6.317,37.14,6.314Z" transform="translate(-23.585)" fill="#db205d"/>
  </g>
</svg>
