<svg xmlns="http://www.w3.org/2000/svg" width="26.648" height="20" viewBox="0 0 26.648 20">
  <g id="itineraries" transform="translate(0 0)">
    <path id="Path_160" data-name="Path 160" d="M15.668,17.037h6.944a8.5,8.5,0,0,1,.356-2.137h-7.3a1.068,1.068,0,1,0,0,2.137" transform="translate(-10.268 -10.479)" fill="#fff"/>
    <path id="Path_161" data-name="Path 161" d="M1.869,14.9h-.8a1.068,1.068,0,1,0,0,2.137h.8a1.068,1.068,0,1,0,0-2.137" transform="translate(0 -10.479)" fill="#fff"/>
    <path id="Path_162" data-name="Path 162" d="M15.668,35.837h8.605A8.2,8.2,0,0,1,23.146,33.7H15.668a1.068,1.068,0,1,0,0,2.137" transform="translate(-10.268 -23.7)" fill="#fff"/>
    <path id="Path_163" data-name="Path 163" d="M1.869,33.7h-.8a1.068,1.068,0,0,0,0,2.137h.8a1.068,1.068,0,0,0,0-2.137" transform="translate(0 -23.7)" fill="#fff"/>
    <path id="Path_164" data-name="Path 164" d="M25.37,52.5h-9.7a1.068,1.068,0,0,0,0,2.137H25.37a1.068,1.068,0,0,0,0-2.137" transform="translate(-10.266 -36.921)" fill="#fff"/>
    <path id="Path_165" data-name="Path 165" d="M1.872,52.5h-.8a1.068,1.068,0,0,0,0,2.137h.8a1.068,1.068,0,0,0,0-2.137" transform="translate(-0.002 -36.921)" fill="#fff"/>
    <path id="Path_166" data-name="Path 166" d="M52.9,0a6.4,6.4,0,0,0-6.429,6.374v.055C46.472,10,52.9,20,52.9,20S59.33,10,59.33,6.429A6.4,6.4,0,0,0,52.956,0H52.9m0,9.286a2.857,2.857,0,1,1,2.857-2.857A2.857,2.857,0,0,1,52.9,9.285" transform="translate(-32.682)" fill="#fff"/>
  </g>
</svg>
