<svg xmlns="http://www.w3.org/2000/svg" width="29.417" height="23.922" viewBox="0 0 29.417 23.922">
  <g id="ticket" transform="translate(0 0)">
    <path id="Path_12617" data-name="Path 12617" d="M81.215,22.21a1.435,1.435,0,1,0,1.44,1.435,1.436,1.436,0,0,0-1.44-1.435" transform="translate(-53.276 -14.87)" fill="#5497a9"/>
    <path id="Path_12618" data-name="Path 12618" d="M81.215,51.13a1.435,1.435,0,1,0,1.44,1.435,1.436,1.436,0,0,0-1.44-1.435" transform="translate(-53.276 -34.233)" fill="#5497a9"/>
    <path id="Path_12619" data-name="Path 12619" d="M81.215,41.489a1.435,1.435,0,1,0,1.44,1.435,1.436,1.436,0,0,0-1.44-1.435" transform="translate(-53.276 -27.778)" fill="#5497a9"/>
    <path id="Path_12620" data-name="Path 12620" d="M81.215,12.569A1.435,1.435,0,1,0,82.655,14a1.436,1.436,0,0,0-1.44-1.435" transform="translate(-53.276 -8.415)" fill="#5497a9"/>
    <path id="Path_12621" data-name="Path 12621" d="M81.215,31.85a1.435,1.435,0,1,0,1.44,1.435,1.436,1.436,0,0,0-1.44-1.435" transform="translate(-53.276 -21.324)" fill="#5497a9"/>
    <path id="Path_12622" data-name="Path 12622" d="M49.426,42.114a.751.751,0,0,0-.736-.748h-.9v1.487h.9a.739.739,0,0,0,.736-.739" transform="translate(-31.749 -27.504)" fill="#5497a9"/>
    <path id="Path_12623" data-name="Path 12623" d="M38.092,30.384l7.232.012V26.742s.014-9.127-7.2-13.744C30.9,17.615,30.9,26.742,30.9,26.742v3.642H36.89V27.757H35.673v-1.2H36.89v-2.69H39a1.947,1.947,0,0,1,0,3.892h-.9Z" transform="translate(-22.118 -10.132)" fill="#5497a9"/>
    <path id="Path_12624" data-name="Path 12624" d="M29.417,22.968a.955.955,0,0,1-.954.954H.954A.955.955,0,0,1,0,22.968v-6a.95.95,0,0,1,.907-.951,4.063,4.063,0,0,0,0-8.117A.955.955,0,0,1,0,6.948V.954A.955.955,0,0,1,.954,0h27.06a.955.955,0,0,1,.954.954.932.932,0,0,1-.044.275.915.915,0,0,1,.126.1,1,1,0,0,1,.139.173.844.844,0,0,1,.105.2,1.122,1.122,0,0,1,.068.214,1.243,1.243,0,0,1,0,.448,1.3,1.3,0,0,1-.068.214.918.918,0,0,1-.105.2,1.152,1.152,0,0,1-.139.173,1.015,1.015,0,0,1-.177.143.994.994,0,0,1-.2.105,1.115,1.115,0,0,1-.214.065,1.069,1.069,0,0,1-.448,0A1.282,1.282,0,0,1,27.8,3.2a1.1,1.1,0,0,1-.2-.105.993.993,0,0,1-.173-.143.992.992,0,0,1-.143-.173,1.367,1.367,0,0,1-.105-.2,1.282,1.282,0,0,1-.065-.214,1.069,1.069,0,0,1,0-.448.012.012,0,0,1,0-.007H1.909v4.2a5.97,5.97,0,0,1,0,11.7v4.2H27.118a1.3,1.3,0,0,1-.024-.231,1.141,1.141,0,0,1,.336-.808.993.993,0,0,1,.173-.143,1.1,1.1,0,0,1,.2-.105,1.027,1.027,0,0,1,.214-.065,1.146,1.146,0,0,1,1.036.312,1.211,1.211,0,0,1,.143.173,1.367,1.367,0,0,1,.105.2,1.553,1.553,0,0,1,.065.214,1.25,1.25,0,0,1,.02.224,1.155,1.155,0,0,1-.173.6.937.937,0,0,1,.207.588" transform="translate(0 0)" fill="#5497a9"/>
  </g>
</svg>
