<svg xmlns="http://www.w3.org/2000/svg" width="36.891" height="30" viewBox="0 0 36.891 30">
  <g id="ticket_admission" transform="translate(0 0)">
    <path id="Path_12617" data-name="Path 12617" d="M81.215,22.21a1.435,1.435,0,1,0,1.44,1.435,1.436,1.436,0,0,0-1.44-1.435" transform="translate(-45.802 -12.751)"/>
    <path id="Path_12618" data-name="Path 12618" d="M81.215,51.13a1.435,1.435,0,1,0,1.44,1.435,1.436,1.436,0,0,0-1.44-1.435" transform="translate(-45.802 -29.354)" />
    <path id="Path_12619" data-name="Path 12619" d="M81.215,41.489a1.435,1.435,0,1,0,1.44,1.435,1.436,1.436,0,0,0-1.44-1.435" transform="translate(-45.802 -23.819)" />
    <path id="Path_12620" data-name="Path 12620" d="M81.215,12.569A1.435,1.435,0,1,0,82.655,14a1.436,1.436,0,0,0-1.44-1.435" transform="translate(-45.802 -7.216)" />
    <path id="Path_12621" data-name="Path 12621" d="M81.215,31.85a1.435,1.435,0,1,0,1.44,1.435,1.436,1.436,0,0,0-1.44-1.435" transform="translate(-45.802 -18.285)" />
    <path id="Path_12622" data-name="Path 12622" d="M49.426,42.114a.751.751,0,0,0-.736-.748h-.9v1.487h.9a.739.739,0,0,0,.736-.739" transform="translate(-27.434 -23.748)"/>
    <path id="Path_12623" data-name="Path 12623" d="M38.092,30.384l7.232.012V26.742s.014-9.127-7.2-13.744C30.9,17.615,30.9,26.742,30.9,26.742v3.642H36.89V27.757H35.673v-1.2H36.89v-2.69H39a1.947,1.947,0,0,1,0,3.892h-.9Z" transform="translate(-17.74 -7.462)" />
    <path id="Path_12624" data-name="Path 12624" d="M36.891,28.8a1.2,1.2,0,0,1-1.2,1.2H1.2A1.2,1.2,0,0,1,0,28.8V21.282a1.191,1.191,0,0,1,1.137-1.193,5.1,5.1,0,0,0,0-10.179A1.2,1.2,0,0,1,0,8.714V1.2A1.2,1.2,0,0,1,1.2,0H35.132a1.2,1.2,0,0,1,1.2,1.2,1.169,1.169,0,0,1-.055.345,1.147,1.147,0,0,1,.158.128,1.258,1.258,0,0,1,.175.217,1.059,1.059,0,0,1,.132.247,1.407,1.407,0,0,1,.085.268,1.559,1.559,0,0,1,0,.562,1.63,1.63,0,0,1-.085.268,1.151,1.151,0,0,1-.132.247,1.444,1.444,0,0,1-.175.217,1.273,1.273,0,0,1-.221.179,1.246,1.246,0,0,1-.247.132,1.4,1.4,0,0,1-.268.081,1.34,1.34,0,0,1-.562,0,1.608,1.608,0,0,1-.268-.081,1.377,1.377,0,0,1-.247-.132A1.245,1.245,0,0,1,34.4,3.7a1.245,1.245,0,0,1-.179-.217,1.714,1.714,0,0,1-.132-.247,1.608,1.608,0,0,1-.081-.268,1.34,1.34,0,0,1,0-.562.015.015,0,0,1,0-.009H2.394V7.666a7.487,7.487,0,0,1,0,14.668v5.273H34.008a1.629,1.629,0,0,1-.03-.29A1.431,1.431,0,0,1,34.4,26.3a1.245,1.245,0,0,1,.217-.179,1.377,1.377,0,0,1,.247-.132,1.287,1.287,0,0,1,.268-.081,1.437,1.437,0,0,1,1.3.392,1.519,1.519,0,0,1,.179.217,1.714,1.714,0,0,1,.132.247,1.948,1.948,0,0,1,.081.268,1.568,1.568,0,0,1,.026.281,1.449,1.449,0,0,1-.217.75,1.175,1.175,0,0,1,.26.737" transform="translate(0 0)" />
  </g>
</svg>
