<svg xmlns="http://www.w3.org/2000/svg" width="10.997" height="14" viewBox="0 0 10.997 14">
  <g id="account" transform="translate(-15.633 -6.25)">
    <path id="Path_1" data-name="Path 1" d="M26.63,50.354a7.506,7.506,0,0,0-1.624-4.734,4.948,4.948,0,0,0-7.749,0,7.5,7.5,0,0,0-1.624,4.728,13.389,13.389,0,0,0,5.5,1.4A12.24,12.24,0,0,0,26.63,50.354Z" transform="translate(0 -31.5)" fill="#fff"/>
    <path id="Path_2" data-name="Path 2" d="M38.312,9a2.75,2.75,0,1,1-2.75-2.75A2.75,2.75,0,0,1,38.312,9" transform="translate(-14.43)" fill="#fff"/>
  </g>
</svg>
