<?xml version="1.0" encoding="utf-8"?>
<!-- Generator: Adobe Illustrator 27.6.1, SVG Export Plug-In . SVG Version: 6.00 Build 0)  -->
<svg version="1.1" id="Group_1321" xmlns="http://www.w3.org/2000/svg" xmlns:xlink="http://www.w3.org/1999/xlink" x="0px" y="0px"
	 viewBox="0 0 80 80" style="enable-background:new 0 0 80 80;" xml:space="preserve">
<path d="M40.5,23.3c-12.5,0-22.7,10.2-22.7,22.7s10.2,22.7,22.7,22.7S63.2,58.6,63.2,46C63.2,33.4,53,23.3,40.5,23.3z M40.5,64.3
	c-10,0-18.1-8.1-18.1-18.1S30.5,28,40.5,28s18.1,8.1,18.1,18.1S50.5,64.3,40.5,64.3z"/>
<path id="Path_1880" d="M40.5,1.1c-3,0-5.5,2.5-5.5,5.5s2.5,5.5,5.5,5.5c3,0,5.5-2.5,5.5-5.5S43.5,1.1,40.5,1.1L40.5,1.1L40.5,1.1z"
	/>
<path d="M63.9,21.8l-3,3.3c-5.7-4.9-12.9-7.7-20.4-7.7c-11.7,0-20.3,7.5-20.3,7.5l-2.9-3.3c5.5-4.7,12.3-7.5,19.5-8.3
	c0,0,3.5,2.5,3.7,2.5l0,0c0.2,0,3.7-2.5,3.7-2.5c7.3,0.7,14.1,3.7,19.6,8.4h0.1L63.9,21.8z"/>
<path id="Path_1882" d="M79.7,68.1c1.5-2.7,0.5-6-2.1-7.5c-2.7-1.5-6-0.5-7.5,2.1c-1.5,2.7-0.5,6,2.1,7.5
	C74.9,71.7,78.2,70.7,79.7,68.1L79.7,68.1L79.7,68.1z"/>
<path d="M70.9,58.9c0,0-0.9,0.5-1.9,0.9c-1,0.5-1.9,1-2,1.1c-0.1,0.2,0.3,4.5,0.3,4.5c-4.2,5.9-10.1,10.5-16.9,13h-0.1l-1.4-4.1
	c7.1-2.6,13-7.5,16.7-14.1c5.7-10.3,3.3-21.3,3.3-21.3l4.3-0.9C74.5,45,73.7,52.4,70.9,58.9L70.9,58.9z"/>
<path id="Path_1884" d="M0.9,67.4c1.5,2.7,4.7,3.7,7.5,2.3c2.7-1.5,3.7-4.7,2.3-7.5c-1.5-2.7-4.7-3.7-7.5-2.3
	C0.5,61.4-0.5,64.7,0.9,67.4L0.9,67.4L0.9,67.4L0.9,67.4z"/>
<path d="M31.3,74l-1.5,4.1c-6.7-2.7-12.5-7.3-16.5-13.3c0,0,0.5-3.5,0.5-4.3c0-0.7,0-0.1,0-0.1c-0.1-0.1-3.9-2.1-3.9-2.1
	C7.1,51.6,6.5,44.2,8,37v-0.1l4.3,1.1c-1.6,7.3-0.6,15,2.9,21.7C20.7,70,31.4,74,31.3,74L31.3,74z"/>
</svg>
