<svg id="Isolation_Mode" data-name="Isolation Mode" xmlns="http://www.w3.org/2000/svg" viewBox="0 0 538.96 536.999"><defs><style>.cls-1{stroke-width:0}</style></defs><path class="cls-1" d="M270.461 15c34.229 0 67.426 6.7 98.669 19.915 30.185 12.767 57.296 31.047 80.582 54.333 23.286 23.286 41.566 50.398 54.333 80.583 13.215 31.243 19.915 64.44 19.915 98.669s-6.7 67.425-19.915 98.668c-12.767 30.185-31.047 57.297-54.333 80.582s-50.398 41.567-80.582 54.334c-31.243 13.214-64.44 19.915-98.669 19.915H268.5c-34.229 0-67.426-6.7-98.668-19.915-30.185-12.767-57.297-31.048-80.583-54.334-23.286-23.285-41.566-50.397-54.333-80.582C21.701 335.925 15 302.728 15 268.499s6.7-67.426 19.915-98.669c12.767-30.184 31.047-57.296 54.333-80.582 23.286-23.286 50.398-41.566 80.583-54.333C201.073 21.7 234.27 15 268.499 15h1.962m0-15H268.5C120.211 0 0 120.211 0 268.5c0 148.287 120.211 268.499 268.5 268.499h1.961c148.288 0 268.5-120.212 268.5-268.5S418.748 0 270.46 0Z"/><path class="cls-1" d="M413.946 175.283c-5.715-23.852-32.608-30.594-59.767-26.422-13.93 2.172-60.954 23.184-76.976 73.531 28.348-2.22 43.224 2.06 40.494 33.652-1.156 13.239-7.728 27.722-15.118 41.615-8.494 16.038-24.474 47.47-45.389 24.828-18.837-20.427-17.392-59.425-21.681-85.427-2.431-14.621-4.97-32.76-9.693-47.756-4.035-12.923-13.368-28.455-24.782-31.858-12.242-3.604-27.373 2.076-36.247 7.39-27.638 16.408-48.342 39.013-72.072 58.502-2.994 3.046-1.221 5.606-.213 7.873 3.408 5.335 4.725 8.572 11.223 9.523 16.871 2.506 32.914-15.921 44.094 3.286 6.838 11.69 8.971 24.51 13.336 37.102 5.807 16.872 10.319 35.177 15.097 54.537 8.102 32.718 17.986 81.627 45.964 93.662 14.248 6.094 35.673-2.076 46.514-8.59 29.411-17.635 53.331-42.4 71.943-69.204 48.437-69.703 71.658-139.74 74.183-153.081 1.796-9.669.618-17.648-.91-23.163Z" id="vimeo"/></svg>