<?xml version="1.0" encoding="utf-8"?>
<!-- Generator: Adobe Illustrator 27.9.1, SVG Export Plug-In . SVG Version: 6.00 Build 0)  -->
<svg version="1.1" id="Layer_1" xmlns="http://www.w3.org/2000/svg" xmlns:xlink="http://www.w3.org/1999/xlink" x="0px" y="0px"
	 viewBox="0 0 1160 1120" style="enable-background:new 0 0 1160 1120;" xml:space="preserve">
<g>
	<g>
		<path d="M35.1,10.8c-11.4,1-22.7,2.7-34.1,4.1c0,366.9,0,733.8,0.2,1100.7c0,1.5,2.8,4.3,4.3,4.3c383.6,0.2,767.3,0.2,1150.9,0
			c1.5,0,4.3-2.8,4.3-4.3c0.2-357.3,0.2-714.5,0.2-1071.7c-87,10.6-173.8,24.2-261.1,31.1c-117,9.3-234.9,10.8-348.6-23.9
			C458.6,22.7,365.3,3.7,268.6,0.7c-0.6,0-1.1-0.5-1.7-0.8c-33,0-66,0-99,0C123.6,3.5,79.3,7.1,35.1,10.8z"/>
	</g>
</g>
</svg>
