<?xml version="1.0" encoding="utf-8"?>
<!-- Generator: Adobe Illustrator 27.9.1, SVG Export Plug-In . SVG Version: 6.00 Build 0)  -->
<svg version="1.1" id="Layer_1" xmlns="http://www.w3.org/2000/svg" xmlns:xlink="http://www.w3.org/1999/xlink" x="0px" y="0px"
	 viewBox="0 0 1160 1120" style="enable-background:new 0 0 1160 1120;" xml:space="preserve">
<g>
	<g>
		<path d="M994-0.1c-33,0-66,0-99,0c-0.6,0.3-1.1,0.8-1.7,0.8c-96.7,3-190,22-282.6,50.4C497,85.8,379.1,84.3,262.1,75
			C174.8,68.1,88,54.5,1,43.9c0,357.2,0,714.4,0.2,1071.7c0,1.5,2.8,4.3,4.3,4.3c383.6,0.2,767.3,0.2,1150.9,0
			c1.5,0,4.3-2.8,4.3-4.3c0.2-366.9,0.2-733.8,0.2-1100.7c-11.4-1.4-22.7-3.1-34.1-4.1C1082.6,7.1,1038.3,3.5,994-0.1z"/>
	</g>
</g>
</svg>
