<svg xmlns="http://www.w3.org/2000/svg" width="32.001" height="32" viewBox="0 0 32.001 32">
  <path id="website" d="M20.166,36.167A15.893,15.893,0,0,0,36.02,18.121v-.012h0a15.9,15.9,0,0,0-2.969-7.39,1.427,1.427,0,0,0-.135-.179,15.94,15.94,0,0,0-25.5,0,1.407,1.407,0,0,0-.138.184,15.9,15.9,0,0,0-2.967,7.387v.012A15.894,15.894,0,0,0,20.166,36.167ZM9.152,13.12c1.415.31,2.865.536,4.321.712a34.072,34.072,0,0,0-.524,4.447c-1.619-.187-3.232-.424-4.812-.758-.251-.052-.5-.115-.749-.169A13.007,13.007,0,0,1,9.152,13.12Zm23.791,4.231c-.254.056-.5.119-.758.172-1.571.331-3.181.569-4.8.755a34.087,34.087,0,0,0-.524-4.448c1.456-.176,2.9-.4,4.321-.712h0a13.008,13.008,0,0,1,1.763,4.231Zm-.431,7.128c-.578.146-1.158.292-1.737.421-1.185.262-2.452.464-3.75.637a35,35,0,0,0,.393-4.336c1.808-.2,3.608-.461,5.359-.83.16-.033.316-.074.475-.108h0a12.972,12.972,0,0,1-.739,4.214ZM20.166,33.258c-1,0-2.255-1.612-3.162-4.444,1.032.056,2.082.094,3.162.094s2.13-.038,3.162-.094C22.422,31.646,21.167,33.258,20.166,33.258Zm4.326-14.7a59.474,59.474,0,0,1-8.651,0,30.583,30.583,0,0,1,.515-4.442c1.233.087,2.5.147,3.81.147s2.581-.059,3.81-.147h0a30.54,30.54,0,0,1,.515,4.44Zm.012,2.915a31.219,31.219,0,0,1-.457,4.377,55.43,55.43,0,0,1-7.762,0,31.219,31.219,0,0,1-.457-4.377c1.409.1,2.834.165,4.338.165s2.933-.065,4.338-.165Zm1.666-10.486A18.068,18.068,0,0,0,25,8.011a13.142,13.142,0,0,1,4.035,2.554q-1.415.256-2.865.419Zm-2.936.267a52.944,52.944,0,0,1-6.136,0c.9-2.659,2.1-4.176,3.068-4.176s2.17,1.516,3.068,4.176Zm-9.072-.266q-1.45-.164-2.865-.42a13.138,13.138,0,0,1,4.035-2.554,18.035,18.035,0,0,0-1.17,2.974ZM7.547,20.369c1.762.371,3.566.635,5.367.833a35,35,0,0,0,.393,4.335c-1.3-.173-2.564-.375-3.746-.637-.584-.131-1.163-.275-1.741-.421a12.987,12.987,0,0,1-.739-4.215c.155.033.311.074.466.105Zm2.055,7.5c1.376.282,2.824.506,4.324.678a19.167,19.167,0,0,0,1.406,3.779A13.156,13.156,0,0,1,9.6,27.866ZM25,32.323a19.167,19.167,0,0,0,1.406-3.779c1.5-.172,2.947-.4,4.324-.678A13.148,13.148,0,0,1,25,32.323Z" transform="translate(-4.166 -4.167)" fill="#472961"/>
</svg>
