<?xml version="1.0" encoding="UTF-8"?>
<svg id="Layer_1" xmlns="http://www.w3.org/2000/svg" version="1.1" viewBox="0 0 539 387">
  <!-- Generator: Adobe Illustrator 29.5.0, SVG Export Plug-In . SVG Version: 2.1.0 Build 137)  -->
  <defs>
    <style>
      .st0 {
        stroke: #fff;
        stroke-miterlimit: 10;
      }
    </style>
  </defs>
  <path class="st0" d="M215.1,274.4V114.5l140.6,80.1-140.6,79.9ZM527.8,64.1c-6.2-23.3-24.5-41.6-47.6-47.8-41.9-11.4-210.2-11.4-210.2-11.4,0,0-168.2,0-210.2,11.4-23.1,6.2-41.4,24.5-47.6,47.8C1,106.3,1,194.3,1,194.3c0,0,0,88.2,11.2,130.3,6.2,23.3,24.3,41.6,47.6,47.8,41.9,11.4,210.2,11.4,210.2,11.4,0,0,168.2,0,210.2-11.4,23.1-6.2,41.4-24.5,47.6-47.8,11.2-42.3,11.2-130.3,11.2-130.3,0,0,0-88-11.2-130.3"/>
</svg>