<svg xmlns="http://www.w3.org/2000/svg" width="69.272" height="116.05" viewBox="0 0 69.272 116.05">
  <g id="statue" transform="translate(0 0.001)">
    <path id="Path_13309" data-name="Path 13309" d="M24.9,73.886c-5.535-1.008-7.656-4.534-7.877-4.323-2.657,2.522-10.34,4.9-14.234,4.706-.285-1.749-.675-3.532-.847-5.334C1.505,64.329,1.11,59.719.8,55.1c-.341-5.017,1.74-8.863,5.839-11.722,4.288-2.99,8.506-6.077,12.793-9.065a1.922,1.922,0,0,0,.866-2.525c-.557-1.643-.994-3.327-1.548-5.218,5.679,1.616,9.906-.125,12.985-5.053.525.927,1.008,1.729,1.442,2.556A9.146,9.146,0,0,0,42.611,29.3a86.643,86.643,0,0,0,8.677-1.587c3.663-.68,7.333-1.182,11.044-.346a10.232,10.232,0,0,1,5.736,3.226,2.645,2.645,0,0,1,.66,1.889,40.44,40.44,0,0,1-1.389,5.034,7.939,7.939,0,0,1-1.167,2.348c-2.451,3.2-2.3,6.881-1.876,10.537a50.128,50.128,0,0,0,1.5,7.249A18.665,18.665,0,0,1,65.2,68.708c-.7,2.075-1.5,4.117-2.274,6.165a20.718,20.718,0,0,0-.28,14.518c.711,2.068,1.5,4.119,2.043,6.229.449,1.73.2,2.281-1.555,2.774a68.1,68.1,0,0,1-8.956,2,97.113,97.113,0,0,1-21.748.439,94.7,94.7,0,0,1-11.884-2c-3.131-.674-4.033-1.98-2.341-5.735,1.389-3.079,3.192-5.974,4.831-8.94a16.7,16.7,0,0,0,2.031-7.553,26.36,26.36,0,0,0-.164-2.723" transform="translate(0.524 14.808)"/>
    <path id="Path_13310" data-name="Path 13310" d="M22.1,11.4a18.4,18.4,0,0,0,10.152,4.8c.316.044.633.084.95.113.832.074,1.459-.209,1.519-1.114.061-.886-.473-1.244-1.332-1.323a15.515,15.515,0,0,1-12.036-7.3,4.756,4.756,0,0,0-.555-.76c-.537-.51-.858-.652-1.556-.287-.422.221-.512,1.077-.452,1.617a2.434,2.434,0,0,0,.824,1.288c.82.773.616,1.462.071,2.284-1.411,2.127-3.586,3.25-5.709,4.425A9.745,9.745,0,0,0,8.719,21.9a36.167,36.167,0,0,0-.387,4.16c-.025.317.133.756-.025.939-1.3,1.5-.076,2.733.363,4.05.051.149.1.3.15.442a4.769,4.769,0,0,1-6.1-3.115A39.33,39.33,0,0,0,.669,22.748c-1.519-3.283-.376-6.45,2.687-8.49a1.613,1.613,0,0,0,.677-1.977C2.77,7.676,7.1,1.217,13.586,1.466c.981.037,1.943.446,2.927.517a3.267,3.267,0,0,0,2.065-.331C23.107-1.909,31.175.785,33.4,5a2.051,2.051,0,0,1,.344.756c.078,1.862,1.335,3.045,2.365,4.4,3.179,4.188,2.252,9.394-2.245,12.484-.208-.744-.393-1.453-.6-2.154-.24-.8-.689-1.464-1.61-1.17s-1.08,1.015-.755,1.935A18.018,18.018,0,0,1,31.345,32.1a9.8,9.8,0,0,1-5.005,6.677,7.841,7.841,0,0,1-6.832-.008,15.517,15.517,0,0,1-8.27-8.274,11.061,11.061,0,0,1,4.634-13.682C18.3,15.462,20.637,14.037,22.1,11.4" transform="translate(0 0)"/>
  </g>
</svg>
