<svg xmlns="http://www.w3.org/2000/svg" width="120" height="120" viewBox="0 0 120 120">
  <path id="rosette" d="M12.4,96c-14,0-5.6-16.4-8.8-21.6-4.8-6.8-4.8-22,0-28.8C6.8,40.4-1.6,24,12.4,24c5.6,0,12.4,2.8,18.8,7.2C26.8,24.8,24,18,24,12.4c0-14,16.4-5.6,21.6-8.8,6.8-4.8,22-4.8,28.8,0C79.6,6.8,96-1.6,96,12.4c0,5.6-2.8,12.4-7.2,18.8C95.2,26.8,102,24,107.6,24c14,0,5.6,16.4,8.8,21.6,4.8,6.8,4.8,22,0,28.8-3.2,5.2,5.2,21.6-8.8,21.6-5.6,0-12.4-2.8-18.8-7.2C93.2,95.2,96,102,96,107.6c0,14-16.4,5.6-21.6,8.8-6.8,4.8-22,4.8-28.8,0-5.2-3.2-21.6,5.2-21.6-8.8,0-5.6,2.8-12.4,7.2-18.8C24.8,93.2,18,96,12.4,96ZM54.8,47.6c-16.4,6.8-6,31.6,10.4,24.8S71.2,40.8,54.8,47.6ZM40.4,12.4c-6,2.4-10.8,5.2-7.2,14.4,4,8.8,16.4,19.6,20.4,18,4.4-1.6,5.2-18.4,1.6-27.2S46.4,10,40.4,12.4Zm39.2,0c-6-2.4-11.2-3.6-14.8,5.2S62,43.2,66.4,44.8c4,1.6,16.4-9.2,20.4-18C90.4,17.6,85.6,14.8,79.6,12.4Zm28,28c-2.4-6-5.2-10.8-14.4-7.2-8.8,4-19.6,16.4-18,20.4,1.6,4.4,18.4,5.2,27.2,1.6S110,46.4,107.6,40.4Zm-95.2,0c2.4-6,5.2-10.8,14.4-7.2,8.8,4,19.6,16.4,18,20.4-1.6,4.4-18.4,5.2-27.2,1.6S10,46.4,12.4,40.4Zm0,39.2c-2.4-6-3.6-11.2,5.2-14.8s25.6-2.8,27.2,1.6c1.6,4-9.2,16.4-18,20.4C17.6,90.4,14.8,85.6,12.4,79.6Zm28,28c-6-2.4-10.8-5.2-7.2-14.4,4-8.8,16.4-19.6,20.4-18,4.4,1.6,5.2,18.4,1.6,27.2S46.4,110,40.4,107.6Zm39.2,0c-6,2.4-11.2,3.6-14.8-5.2S62,76.8,66.4,75.2c4-1.6,16.4,9.2,20.4,18C90.4,102.4,85.6,105.2,79.6,107.6Zm28-28c2.4-6,3.6-11.2-5.2-14.8s-25.6-2.8-27.2,1.6c-1.6,4,9.2,16.4,18,20.4C102.4,90.4,105.2,85.6,107.6,79.6Z" fill-rule="evenodd"/>
</svg>
