<svg xmlns="http://www.w3.org/2000/svg" width="127.486" height="120.001" viewBox="0 0 127.486 120.001">
  <g id="lion" transform="translate(0 0.001)">
    <path id="Path_13224" data-name="Path 13224" d="M123.1,51.663s4.033,3.42,3.623,12.249c0,0-9.188-1.021-10.208-5.1a10.069,10.069,0,0,1,1.524-7.609c.554-.465.417-1.119,0-1.838a8.4,8.4,0,0,0-5.551-4,5.552,5.552,0,0,0-6.506,4.187c-.7,2.8-.21,5.5.4,8.22a80.7,80.7,0,0,0,3.916,11.756c.938,2.409,1.754,4.865,2.6,7.309a9.865,9.865,0,0,1-.219,5.156c-.287.893-.512,2.844-4.873,7.293-1.809,1.846-5.8,4.476-7.878,4.476q-29.9,0-59.808.011c-.262,0-.525-.033-.812-.051a14.139,14.139,0,0,1,1.412-5.206,7.882,7.882,0,0,1,5.381-3.927,19.334,19.334,0,0,1,6.684-.335c2.511.274,5.014.644,7.516,1a16.271,16.271,0,0,0,1.847.294c-.126-.115-.249-.236-.38-.346a52.449,52.449,0,0,1-9.6-9.713c-1.189-1.694-2.217-3.481-2.107-5.683.009-.174-.241-.45-.433-.534-1.617-.7-3.247-1.372-4.876-2.045Q41.8,66.012,38.85,64.808c-.737-.3-1.463-.629-2.213-.9a.7.7,0,0,0-.551.2C31.96,68.357,26.445,77.51,24.428,81.144a17.174,17.174,0,0,0-1.7,5.5c-.4,2.239-1.006,4.443-1.577,6.647a.951.951,0,0,1-.755.463c-3.252,0-19.334.108-19.383.108-.051-.648-1.344-7.243,5.5-7.243,9.573,0,7.684-23.059,8.655-27.537a9.264,9.264,0,0,1,3.576-5.063,19.356,19.356,0,0,1,7.143-3.5c2.466-.712,4.94-1.39,7.406-2.1,1.022-.294,2.034-.62,3.04-.96a.831.831,0,0,1,1.006.265,11.3,11.3,0,0,0,5.787,3.539,33.864,33.864,0,0,0,4.271.483c.112.009.331-.346.375-.558a14.729,14.729,0,0,1,.647-3.259,37.363,37.363,0,0,1,2.87-4.9c2.177-3.243,4.445-6.424,6.654-9.647a18.991,18.991,0,0,0,.982-1.849,5.443,5.443,0,0,1,.611.86c1.149,2.687,2.169,5.436,3.435,8.066,2.292,4.768,4.9,9.365,9.067,12.793a6.554,6.554,0,0,0,2.731.772c1.9.4,3.819.679,5.7,1.14a22.815,22.815,0,0,1,6.109,2.453c.51.307,2.954,1.924,3.276,2.184a24.007,24.007,0,0,1,6.55,8.319,36.094,36.094,0,0,1,2.524,7.71c.185.8.254,1.633.368,2.453a.64.64,0,0,0,.633.646c1.836.209,3.68.514,5.471-.214a2.619,2.619,0,0,0,1.783-2.983,25.787,25.787,0,0,0-.878-3.819c-.916-2.961-1.994-5.875-2.853-8.853a48.4,48.4,0,0,1-1.692-8.63,13.916,13.916,0,0,1,1.58-8.293,10.352,10.352,0,0,1,10.788-5.314,11.422,11.422,0,0,1,8.635,6.941,7.148,7.148,0,0,1,.34,3.905" transform="translate(0.733 26.139)"/>
    <path id="Path_13225" data-name="Path 13225" d="M62.886,30.919c-1.418,2.422-3.823,3.011-6.263,3.409a28.809,28.809,0,0,1,2.028,2.446,19.027,19.027,0,0,1,2.381,5.884c.613,2.365,1.112,4.763,1.774,7.113a37.613,37.613,0,0,0,1.573,4.256,7.8,7.8,0,0,0,1.059,1.419,6.982,6.982,0,0,1-4.238-.326c-1.29-.56-2.522-1.247-3.784-1.88-.009,2.95-1.835,5.185-3.369,7.514-2.1,3.2-4.375,6.279-6.486,9.471-.858,1.3-1.48,2.753-2.255,4.223-1.6.172-3.126-.849-6.621-4.533-2.319.777-4.58,1.606-6.887,2.288-2.039.6-4.137,1.011-6.2,1.562a23.524,23.524,0,0,0-6.914,2.853A13.861,13.861,0,0,0,13.4,82.983a4.25,4.25,0,0,1-.335.545,7.59,7.59,0,0,1-3.6-3.676,16.285,16.285,0,0,1-1-9.425,41.031,41.031,0,0,1,2.358-8.974,46.21,46.21,0,0,1,4.567-9.18c.99-1.5,2.135-2.89,3.183-4.351.693-.968,1.842-1.09,2.8-1.542,3.618-1.707,6.718-3.995,8.566-7.635a12.781,12.781,0,0,0,1.136-8.558,17.659,17.659,0,0,0-6.127-10.179c-.4-.34-.177-.6-.033-.929a30.246,30.246,0,0,0,1.271-3.111,5.086,5.086,0,0,0-2.78-5.93,5.892,5.892,0,0,0-6.338.318,5.34,5.34,0,0,0-2.314,4.167A1.586,1.586,0,0,1,13.6,16.067,11.941,11.941,0,0,1,6.65,16.6,15.309,15.309,0,0,1,.521,13.825a3.729,3.729,0,0,1-.293-.26c.924-.327,1.86-.6,2.745-.982A9.386,9.386,0,0,0,7.243,8.219c.468-.836.671-1.833,1.194-2.627a5.384,5.384,0,0,1,1.827-1.765A16.1,16.1,0,0,1,17.7,2.058a4.426,4.426,0,0,1,3.691,1.174c.051.06.4-.048.529-.165A11.648,11.648,0,0,1,26.278.452,9.341,9.341,0,0,1,30.821.158a30.619,30.619,0,0,1,5.44,1.472c.852.344,1.723.576,2.583.871,1.686.58,3.389,1.118,5.065,1.73a.947.947,0,0,1,.417.77A3.028,3.028,0,0,1,42.5,7.529c-1.233.635-2.531,1.138-3.777,1.686a.913.913,0,0,0,.315.2A37.288,37.288,0,0,1,47.658,13.3a25,25,0,0,1,7.935,7.322c1.432,2.136,2.641,4.423,3.951,6.641.8,1.348,1.524,2.76,3.1,3.4.08.033.134.137.241.252" transform="translate(0.189 -0.001)"/>
    <path id="Path_13226" data-name="Path 13226" d="M26.983,21.346a19.207,19.207,0,0,0-5.239-5.608c-1.3-1.055-1.3-1.032-.41-2.424a12.045,12.045,0,0,0,1.84-3.589,2.425,2.425,0,0,0-1.4-2.795,2.525,2.525,0,0,0-2.967.715,3.155,3.155,0,0,0-.732,3.488.878.878,0,0,1-.068.5,12.343,12.343,0,0,1-7.455,2.606c-1.279-.031-2.555-.223-3.911-.351-.582,1.154-1.174,2.369-1.8,3.567a8.4,8.4,0,0,0-.889,4.562,33.535,33.535,0,0,1,0,3.51,2.456,2.456,0,0,1-.342,1.138A26.925,26.925,0,0,0,.144,34.1a4.337,4.337,0,0,0,.472,3.351A12.294,12.294,0,0,0,7.591,43.26a5.344,5.344,0,0,0,2.994,0,6.722,6.722,0,0,0,3.594-2.691A9.145,9.145,0,0,1,18.9,36.977c.774-.26,1.5-.58,2.173.23a.8.8,0,0,0,.761.02c3.186-2.019,5.6-4.633,6.418-8.458a10.572,10.572,0,0,0-1.269-7.424M8.825,26.628c-.1-.916-.229-1.833-.289-2.751a.976.976,0,0,1,.282-.735c1.855-1.454,3.733-2.877,5.608-4.3a.592.592,0,0,1,.2-.059c.243,2.407-3.389,7.313-5.8,7.849" transform="translate(0 5.585)"/>
  </g>
</svg>
