<svg xmlns="http://www.w3.org/2000/svg" width="82.371" height="116.051" viewBox="0 0 82.371 116.051">
  <path id="lyre" d="M68.735,40.241a25.036,25.036,0,0,1-6.823-22.774l-1.305-.27,1.625.205a11.066,11.066,0,1,0,3.6-15.954A27.885,27.885,0,0,0,52.653,18.393a28.2,28.2,0,0,0-.98,8.558H30.652a27.971,27.971,0,0,0-14.118-25.5,11.068,11.068,0,1,0,3.613,15.96l-1.1-.766,1.407.83a25.3,25.3,0,0,1-7.519,23.46,38.948,38.948,0,0,0,12.473,62.437,27.933,27.933,0,0,0-7.652,7.729,3.2,3.2,0,0,0,2.666,4.952H61.913a3.193,3.193,0,0,0,3.188-3.193,3.155,3.155,0,0,0-.531-1.76,28.1,28.1,0,0,0-7.641-7.729,38.948,38.948,0,0,0,11.8-63.123ZM31.787,88.591A26.243,26.243,0,0,1,22.578,45.6,27.864,27.864,0,0,0,30.43,29.612h1.357Zm4.035,1.2c-.46-.1-.917-.226-1.372-.346V29.612h1.372Zm4.033.49c-.455-.024-.915-.03-1.37-.074l0-60.595H39.86Zm4.039-.074c-.449.05-.906.055-1.367.074V29.612h1.367Zm4.033-.762c-.455.126-.9.251-1.367.346V29.612h1.367Zm11.886-6.84A26.176,26.176,0,0,1,50.6,88.6L50.6,29.612h1.311a28.051,28.051,0,0,0,7.9,15.984A26.327,26.327,0,0,1,59.813,82.605Z" transform="translate(0 0)"/>
</svg>
