<svg xmlns="http://www.w3.org/2000/svg" width="20.046" height="24.674" viewBox="0 0 20.046 24.674">
  <g id="location" transform="translate(-22.918 -16.668)">
    <path id="Path_2131" data-name="Path 2131" d="M32.941,62.5c-5.552,0-10.023,1.7-10.023,3.856s4.472,3.856,10.023,3.856,10.023-1.7,10.023-3.856S38.493,62.5,32.941,62.5Zm0,5.4C29.085,67.9,26,67.2,26,66.354s3.084-1.543,6.939-1.543,6.939.694,6.939,1.543S36.8,67.9,32.941,67.9Z" transform="translate(0 -28.87)"/>
    <path id="Path_2132" data-name="Path 2132" d="M38.189,16.668a6.91,6.91,0,0,0-6.939,6.939c0,3.856,6.939,14.649,6.939,14.649s6.939-10.8,6.939-14.649A6.91,6.91,0,0,0,38.189,16.668Zm0,10.023a3.084,3.084,0,1,1,3.084-3.084A3.093,3.093,0,0,1,38.189,26.691Z" transform="translate(-5.248)"/>
  </g>
</svg>
