<svg xmlns="http://www.w3.org/2000/svg" width="101.482" height="120" viewBox="0 0 101.482 120">
  <g id="pillar" transform="translate(-10.19 -2.941)">
    <path id="Path_12800" data-name="Path 12800" d="M78.471,21.191A4.405,4.405,0,1,0,82.858,25.6a4.4,4.4,0,0,0-4.388-4.408Z" transform="translate(17.56 5.019)"/>
    <path id="Path_12801" data-name="Path 12801" d="M23.438,21.191A4.405,4.405,0,1,0,27.826,25.6a4.4,4.4,0,0,0-4.388-4.408Z" transform="translate(2.427 5.019)"/>
    <path id="Path_12802" data-name="Path 12802" d="M96.031,12.379H25.866a15.638,15.638,0,1,0,15.02,19.857h40.1a15.64,15.64,0,1,0,15-19.912Zm-70.165,23.8A8.157,8.157,0,1,1,34,28.037,8.161,8.161,0,0,1,25.866,36.175Zm70.165,0a8.156,8.156,0,1,1,8.138-8.138A8.156,8.156,0,0,1,96.031,36.175Z" transform="translate(0 2.58)"/>
    <path id="Path_12803" data-name="Path 12803" d="M93.046,11.209h1.873V8.564A5.623,5.623,0,0,0,89.3,2.941H26.671a5.627,5.627,0,0,0-5.628,5.623v2.719h1.873Z" transform="translate(2.985 0)"/>
    <path id="Path_12804" data-name="Path 12804" d="M73.221,30.883H38.347a19.35,19.35,0,0,1-9.378,9.508v72.994a1.879,1.879,0,0,0,1.878,1.873H80.741a1.87,1.87,0,0,0,1.873-1.873V40.446a19.409,19.409,0,0,1-9.393-9.563Zm-28.444,75.2a1.875,1.875,0,1,1-3.75,0V51.88a1.875,1.875,0,0,1,3.75,0Zm8.586,0a1.875,1.875,0,1,1-3.75,0V51.88a1.875,1.875,0,0,1,3.75,0Zm8.566,0h0a1.875,1.875,0,1,1-3.75,0V51.88a1.875,1.875,0,0,1,3.75,0Zm8.586,0h0a1.875,1.875,0,1,1-3.75,0V51.88a1.875,1.875,0,0,1,3.75,0Z" transform="translate(5.164 7.684)"/>
  </g>
</svg>
