<svg xmlns="http://www.w3.org/2000/svg" width="84.385" height="120" viewBox="0 0 84.385 120">
  <path id="acanthus" d="M76.99,83.077c-.583-.858,1.727-3.321,4.383-7.172s3.832-8.7,2.391-10.094c-2.539-2.457-15.946,9.015-16.61,9.943S68.225,70,66.631,69.4s-5.313,4.249-9.032,9.7S49.5,99.147,48.834,97.82s1.062-13.15,5.179-20.455A37.794,37.794,0,0,1,68.191,63.421c3.145-1.676,6.941-2.623,6.941-3.719,0-1.493-7.3-1.462-8.5-1.462s-2.259-1.992.928-5.711S73.648,44,71.811,42.434c-2.623-2.225-14.353,7.208-17.166,10.128-5.28,5.479-8.6,13.249-7.8,8.466S51.489,49.873,58.4,40.442s9.575-21.415,3.652-21.415c-3.786,0-7.8,5.086-9.812,7.271-2.291,2.492-5.927,9.837-6.99,9.23S51.324,19.21,50.393,13.9,43.687,0,42.11,0,34.92,8.584,33.991,13.9,40.2,34.924,39.139,35.528s-4.7-6.739-6.99-9.23c-2.011-2.185-6.026-7.271-9.812-7.271-5.923,0-3.254,11.987,3.652,21.415S36.746,56.248,37.543,61.029s-2.522-2.987-7.8-8.466C26.927,49.642,15.2,40.21,12.574,42.434c-1.84,1.561,1.064,6.377,4.251,10.094s2.124,5.711.928,5.711-8.5-.031-8.5,1.462c0,1.1,3.8,2.044,6.941,3.719A37.794,37.794,0,0,1,30.371,77.366c4.118,7.3,5.845,19.126,5.179,20.455S30.5,84.537,26.786,79.093s-7.438-10.3-9.032-9.7.141,7.288-.522,6.358S3.161,63.354.622,65.811C-.82,67.2.355,72.053,3.012,75.905s4.966,6.314,4.383,7.172c-.946,1.4-7.1,1.012-7.172,2.291s7.421,2.217,11.405,4.083C18,92.441,24,99.147,27.051,103.4S35.684,120,42.192,120s12.086-12.353,15.142-16.6,9.047-10.957,15.422-13.947c3.984-1.866,11.472-2.806,11.405-4.083s-6.226-.9-7.172-2.291" transform="translate(0)"/>
</svg>
