<svg xmlns="http://www.w3.org/2000/svg" width="29.503" height="24.1" viewBox="0 0 29.503 24.1">
  <g id="ticket" transform="translate(-2.463 -11.177)">
    <path id="Path_61" data-name="Path 61" d="M23.338,16.587,8.622,11.216a.657.657,0,0,0-.838.4l-1.4,3.849a.563.563,0,0,0,.032.5.675.675,0,0,0,.372.342,2.991,2.991,0,0,1,1.676,1.521A2.876,2.876,0,0,1,8.56,20.1a2.991,2.991,0,0,1-1.521,1.676,2.876,2.876,0,0,1-2.267.093.563.563,0,0,0-.5.032.675.675,0,0,0-.342.372L2.506,26.056a.563.563,0,0,0,.032.5.8.8,0,0,0,.372.342l14.716,5.34Z" transform="translate(0)"/>
    <path id="Path_62" data-name="Path 62" d="M69.238,33.233a.675.675,0,0,0-.372-.342L62.314,30.5,56.6,46.179l6.551,2.39a.52.52,0,0,0,.217.032.634.634,0,0,0,.621-.434l1.4-3.849a.563.563,0,0,0-.032-.5.675.675,0,0,0-.372-.342,2.991,2.991,0,0,1-1.676-1.521,2.876,2.876,0,0,1-.093-2.267,2.991,2.991,0,0,1,1.521-1.676A2.876,2.876,0,0,1,67,37.921a.657.657,0,0,0,.838-.4l1.4-3.849c.093-.095.062-.28,0-.435Z" transform="translate(-37.33 -13.324)"/>
  </g>
</svg>
