<svg xmlns="http://www.w3.org/2000/svg" width="23.263" height="28.013" viewBox="0 0 23.263 28.013">
  <g id="tour" transform="translate(-19.496 -13.101)">
    <path id="Path_2128" data-name="Path 2128" d="M35.652,52.9a4.006,4.006,0,0,1-.609.532v4.41a2.385,2.385,0,0,1-2.395,2.395H29.57a2.385,2.385,0,0,1-2.395-2.395V53.431a2.058,2.058,0,0,1-.609-.532c-4.142.836-7.071,2.775-7.071,5.056,0,2.509,3.535,4.6,8.362,5.283l3.269,2.546L34.4,63.238c4.827-.684,8.362-2.775,8.362-5.283-.037-2.243-2.965-4.183-7.108-5.057Z" transform="translate(0 -24.67)"/>
    <path id="Path_2129" data-name="Path 2129" d="M48.369,15.685A2.585,2.585,0,1,1,45.784,13.1a2.585,2.585,0,0,1,2.585,2.584" transform="translate(-14.694)"/>
    <path id="Path_2130" data-name="Path 2130" d="M39.978,39.219v4.676a1.525,1.525,0,0,0,1.52,1.52h3.079a1.525,1.525,0,0,0,1.52-1.52V39.219a.47.47,0,0,1,.266-.419,1.531,1.531,0,0,0,.95-1.406V31.92a1.525,1.525,0,0,0-1.52-1.52H40.321a1.525,1.525,0,0,0-1.52,1.52v5.473a1.528,1.528,0,0,0,.95,1.406.441.441,0,0,1,.227.42Z" transform="translate(-11.967 -10.723)"/>
  </g>
</svg>
