<svg xmlns="http://www.w3.org/2000/svg" width="110.892" height="120" viewBox="0 0 110.892 120">
  <path id="vase" d="M117.374,48.668a10.552,10.552,0,0,0-7.621-2.644,7.174,7.174,0,0,0-1.821.376c-.022.005-.033.005-.055.011-2.23.981-3.734,1.117-4.072.251s-.425-2.349,1.15-2.224c.027,0,.044-.022.071-.033.147-.06,3.183.779,4.056-2.011a2.621,2.621,0,0,0-2.557-3.265c-3.44-.005-5.309,1.319-6.558,4.094a18.245,18.245,0,0,0-2.18-8.215c-3.8-6.056-12.412-9.828-22.2-11.322l.005-.016c-2.949-.72-1.526-2.834-.022-3.369,3.723-1.041,6.122-2.655,6.122-4.475,0-.5-.087-2.328-.087-2.791,0-3.14-7.146-5.691-15.966-5.691S49.677,9.889,49.677,13.035c0,.5.087,2.328.087,2.791,0,1.8,2.371,3.412,6.056,4.454l-.027.011c1.515.529,2.96,2.655,0,3.38l.005.016C46,25.18,37.4,28.952,33.591,35.008a18.308,18.308,0,0,0-2.186,8.209c-1.254-2.769-3.123-4.094-6.558-4.088a2.619,2.619,0,0,0-2.557,3.265c.872,2.791,3.908,1.951,4.056,2.011.022.011.044.033.065.033,1.57-.125,1.488,1.357,1.15,2.224s-1.842.73-4.072-.251c-.022-.005-.033-.005-.055-.011a7.174,7.174,0,0,0-1.821-.376,10.529,10.529,0,0,0-7.621,2.644,12.765,12.765,0,0,0-3.756,9.561c-.027,15.553,10.635,24.966,19.2,32.531C34.355,95.1,39,99.2,40.438,103.364c.529,1.537,1.406,3.7.872,4-.774.376-2.028-.889-2.469-1.613-.011-.016-.027-.022-.038-.033s-2.17-2.2-3.047-.551c-.856,1.608.883,3.56.883,3.56,1.281,1.575,3.51,3.908,6.607,3.865a2.707,2.707,0,0,0,1.777-.747,4.155,4.155,0,0,0,1.09-1.772c.409,1.172.741,2.088.9,2.475,3.358,7.991,9.043,14.795,18.567,14.795,8.962,0,14.026-6.334,17.667-13.573.376-.747,1.09-2.333,1.875-4.192a4.409,4.409,0,0,0,1.243,2.268,2.681,2.681,0,0,0,1.777.747c3.1.044,5.326-2.295,6.607-3.865,0,0,1.739-1.946.883-3.56-.878-1.646-3.047.551-3.047.551-.016.016-.027.022-.038.033-.442.725-1.7,2-2.469,1.613-.534-.305.343-2.469.872-4,1.434-4.165,6.078-8.264,10.995-12.6,8.558-7.566,19.22-16.98,19.182-32.531a12.745,12.745,0,0,0-3.756-9.561ZM33.411,88.483c-8.329-7.37-17.776-15.727-17.743-29.043a8.238,8.238,0,0,1,2.448-6.263,8.3,8.3,0,0,1,9.027-1.139c1.853.823,3.287.665,4.252-.48a1.7,1.7,0,0,0,.109-.164c1.085,14.167,6.291,32.854,10.085,44.982a86.573,86.573,0,0,0-8.177-7.893Zm23.3-76.233a4.246,4.246,0,0,0-2,1.706c-.005.005-.005.016-.011.022a1.614,1.614,0,0,1-.311-.943c0-2.508,5.876-3.647,11.333-3.647s11.333,1.139,11.333,3.647a1.449,1.449,0,0,1-.142.605,13,13,0,0,0-2.23-1.417c-1.428-.687-4.443-1.439-8.967-1.439a23.021,23.021,0,0,0-9.011,1.466ZM97.967,88.483A85.159,85.159,0,0,0,89.8,96.37C93.59,84.242,98.79,65.555,99.875,51.389c.038.055.076.12.114.169.965,1.145,2.393,1.3,4.252.48a7.772,7.772,0,0,1,11.475,7.4c.027,13.317-9.419,21.673-17.749,29.043Z" transform="translate(-10.239 -7.344)"/>
</svg>
